%TF.GenerationSoftware,KiCad,Pcbnew,(5.1.4)-1*%
%TF.CreationDate,2023-07-02T11:44:51-04:00*%
%TF.ProjectId,CameraTriggerSensorNodeOnly,43616d65-7261-4547-9269-676765725365,rev?*%
%TF.SameCoordinates,Original*%
%TF.FileFunction,Other,Fab,Top*%
%FSLAX46Y46*%
G04 Gerber Fmt 4.6, Leading zero omitted, Abs format (unit mm)*
G04 Created by KiCad (PCBNEW (5.1.4)-1) date 2023-07-02 11:44:51*
%MOMM*%
%LPD*%
G04 APERTURE LIST*
%ADD10C,0.100000*%
%ADD11C,0.127000*%
%ADD12C,0.200000*%
%ADD13C,0.150000*%
%ADD14C,0.075000*%
%ADD15C,0.060000*%
%ADD16C,0.080000*%
%ADD17C,0.120000*%
%ADD18C,0.090000*%
%ADD19C,0.254000*%
%ADD20C,0.040000*%
G04 APERTURE END LIST*
D10*
X-65466000Y-94351500D02*
X-67001000Y-95886500D01*
X-65332000Y-94486500D02*
X-66867000Y-96021500D01*
X-68006000Y-94351500D02*
X-69542000Y-95886500D01*
X-67872000Y-94486500D02*
X-69408000Y-96021500D01*
X-70207000Y-92936500D02*
X-64667000Y-92936500D01*
X-70207000Y-98036500D02*
X-64667000Y-98036500D01*
X-70207000Y-98036500D02*
X-70207000Y-91936500D01*
X-69807000Y-98436500D02*
X-70207000Y-98036500D01*
X-64667000Y-98436500D02*
X-69807000Y-98436500D01*
X-64667000Y-91936500D02*
X-64667000Y-98436500D01*
X-70207000Y-91936500D02*
X-64667000Y-91936500D01*
X-65067000Y-95186500D02*
G75*
G03X-65067000Y-95186500I-1100000J0D01*
G01*
X-67607000Y-95186500D02*
G75*
G03X-67607000Y-95186500I-1100000J0D01*
G01*
X-15365500Y-78172500D02*
X-16765500Y-78172500D01*
X-16765500Y-81212500D02*
X-16765500Y-78172500D01*
X-15365500Y-80642500D02*
X-15915500Y-81212500D01*
X-15915500Y-81212500D02*
X-16765500Y-81212500D01*
X-15365500Y-80642500D02*
X-15365500Y-78192500D01*
X-20739000Y-76943000D02*
X-19139000Y-76943000D01*
X-20739000Y-77743000D02*
X-20739000Y-76943000D01*
X-19139000Y-77743000D02*
X-20739000Y-77743000D01*
X-19139000Y-76943000D02*
X-19139000Y-77743000D01*
X-13932000Y-83394500D02*
X-15532000Y-83394500D01*
X-13932000Y-82594500D02*
X-13932000Y-83394500D01*
X-15532000Y-82594500D02*
X-13932000Y-82594500D01*
X-15532000Y-83394500D02*
X-15532000Y-82594500D01*
X-14666000Y-71047000D02*
X-16201000Y-72582000D01*
X-14532000Y-71182000D02*
X-16067000Y-72717000D01*
X-17206000Y-71047000D02*
X-18742000Y-72582000D01*
X-17072000Y-71182000D02*
X-18608000Y-72717000D01*
X-19407000Y-69632000D02*
X-13867000Y-69632000D01*
X-19407000Y-74732000D02*
X-13867000Y-74732000D01*
X-19407000Y-74732000D02*
X-19407000Y-68632000D01*
X-19007000Y-75132000D02*
X-19407000Y-74732000D01*
X-13867000Y-75132000D02*
X-19007000Y-75132000D01*
X-13867000Y-68632000D02*
X-13867000Y-75132000D01*
X-19407000Y-68632000D02*
X-13867000Y-68632000D01*
X-14267000Y-71882000D02*
G75*
G03X-14267000Y-71882000I-1100000J0D01*
G01*
X-16807000Y-71882000D02*
G75*
G03X-16807000Y-71882000I-1100000J0D01*
G01*
D11*
X-88254500Y-82550000D02*
X-98504500Y-82550000D01*
X-98504500Y-82550000D02*
X-98504500Y-72390000D01*
X-98504500Y-72390000D02*
X-88254500Y-72390000D01*
X-88254500Y-72390000D02*
X-88254500Y-82550000D01*
D12*
X-87154500Y-80010000D02*
G75*
G03X-87154500Y-80010000I-100000J0D01*
G01*
D11*
X-87937000Y-71437500D02*
X-98187000Y-71437500D01*
X-98187000Y-71437500D02*
X-98187000Y-61277500D01*
X-98187000Y-61277500D02*
X-87937000Y-61277500D01*
X-87937000Y-61277500D02*
X-87937000Y-71437500D01*
D12*
X-86837000Y-68897500D02*
G75*
G03X-86837000Y-68897500I-100000J0D01*
G01*
D10*
X-58213500Y-56232500D02*
X-58213500Y-57432500D01*
X-56213500Y-56232500D02*
X-58213500Y-56232500D01*
X-56213500Y-57132500D02*
X-56213500Y-56232500D01*
X-56513500Y-57432500D02*
X-56213500Y-57132500D01*
X-58213500Y-57432500D02*
X-56513500Y-57432500D01*
X-38592000Y-50898500D02*
X-38592000Y-52098500D01*
X-36592000Y-50898500D02*
X-38592000Y-50898500D01*
X-36592000Y-51798500D02*
X-36592000Y-50898500D01*
X-36892000Y-52098500D02*
X-36592000Y-51798500D01*
X-38592000Y-52098500D02*
X-36892000Y-52098500D01*
X-38655500Y-53883000D02*
X-38655500Y-55083000D01*
X-36655500Y-53883000D02*
X-38655500Y-53883000D01*
X-36655500Y-54783000D02*
X-36655500Y-53883000D01*
X-36955500Y-55083000D02*
X-36655500Y-54783000D01*
X-38655500Y-55083000D02*
X-36955500Y-55083000D01*
X-49704500Y-56296000D02*
X-49704500Y-57496000D01*
X-47704500Y-56296000D02*
X-49704500Y-56296000D01*
X-47704500Y-57196000D02*
X-47704500Y-56296000D01*
X-48004500Y-57496000D02*
X-47704500Y-57196000D01*
X-49704500Y-57496000D02*
X-48004500Y-57496000D01*
X-80819500Y-96169000D02*
X-78819500Y-96169000D01*
X-78819500Y-92369000D02*
G75*
G03X-78819500Y-92369000I-1000000J0D01*
G01*
X-73719500Y-92369000D02*
G75*
G03X-73719500Y-92369000I-6100000J0D01*
G01*
X-27917500Y-73671000D02*
X-26917500Y-74671000D01*
X-37217500Y-73671000D02*
X-27917500Y-73671000D01*
X-37217500Y-78221000D02*
X-37217500Y-73671000D01*
X-26917500Y-78221000D02*
X-37217500Y-78221000D01*
X-26917500Y-74671000D02*
X-26917500Y-78221000D01*
D13*
X-83459000Y-71755000D02*
G75*
G03X-83459000Y-71755000I-1250000J0D01*
G01*
X-85459000Y-72005000D02*
X-85459000Y-71505000D01*
X-83959000Y-72005000D02*
X-85459000Y-72005000D01*
X-83959000Y-71505000D02*
X-83959000Y-72005000D01*
X-85459000Y-71505000D02*
X-83959000Y-71505000D01*
X-85300500Y-85090000D02*
G75*
G03X-85300500Y-85090000I-1250000J0D01*
G01*
X-87300500Y-85340000D02*
X-87300500Y-84840000D01*
X-85800500Y-85340000D02*
X-87300500Y-85340000D01*
X-85800500Y-84840000D02*
X-85800500Y-85340000D01*
X-87300500Y-84840000D02*
X-85800500Y-84840000D01*
D10*
X-82083273Y-80588000D02*
X-82083273Y-80988000D01*
X-82283273Y-80788000D02*
X-81883273Y-80788000D01*
X-82858500Y-82938000D02*
X-81858500Y-83938000D01*
X-82858500Y-80638000D02*
X-81858500Y-79638000D01*
X-82858500Y-80638000D02*
X-82858500Y-82938000D01*
X-81858500Y-83938000D02*
X-78558500Y-83938000D01*
X-81858500Y-79638000D02*
X-78558500Y-79638000D01*
X-78558500Y-79638000D02*
X-78558500Y-83938000D01*
X-78708500Y-81788000D02*
G75*
G03X-78708500Y-81788000I-2000000J0D01*
G01*
D13*
X-9735500Y-88328500D02*
G75*
G03X-9735500Y-88328500I-1250000J0D01*
G01*
X-11735500Y-88578500D02*
X-11735500Y-88078500D01*
X-10235500Y-88578500D02*
X-11735500Y-88578500D01*
X-10235500Y-88078500D02*
X-10235500Y-88578500D01*
X-11735500Y-88078500D02*
X-10235500Y-88078500D01*
X-54343500Y-23812500D02*
G75*
G03X-54343500Y-23812500I-1600000J0D01*
G01*
X-57193500Y-24212500D02*
X-57193500Y-23412500D01*
X-54693500Y-24212500D02*
X-57193500Y-24212500D01*
X-54693500Y-23412500D02*
X-54693500Y-24212500D01*
X-57193500Y-23412500D02*
X-54693500Y-23412500D01*
X-92793500Y-15557500D02*
G75*
G03X-92793500Y-15557500I-1250000J0D01*
G01*
X-94793500Y-15807500D02*
X-94793500Y-15307500D01*
X-93293500Y-15807500D02*
X-94793500Y-15807500D01*
X-93293500Y-15307500D02*
X-93293500Y-15807500D01*
X-94793500Y-15307500D02*
X-93293500Y-15307500D01*
D10*
X-87379500Y-55659500D02*
X-89079500Y-54359500D01*
X-87379500Y-58259500D02*
X-89079500Y-59559500D01*
X-89079500Y-54359500D02*
X-97579500Y-54359500D01*
X-89079500Y-59559500D02*
X-97579500Y-59559500D01*
X-97579500Y-59559500D02*
X-97579500Y-54359500D01*
X-87379500Y-58259500D02*
X-87379500Y-55659500D01*
X-13840500Y-94415000D02*
X-15375500Y-95950000D01*
X-13706500Y-94550000D02*
X-15241500Y-96085000D01*
X-16380500Y-94415000D02*
X-17915500Y-95950000D01*
X-16246500Y-94550000D02*
X-17781500Y-96085000D01*
X-18920500Y-94415000D02*
X-20456500Y-95950000D01*
X-18786500Y-94550000D02*
X-20322500Y-96085000D01*
X-21121500Y-93000000D02*
X-13041500Y-93000000D01*
X-21121500Y-98100000D02*
X-13041500Y-98100000D01*
X-21121500Y-98100000D02*
X-21121500Y-92000000D01*
X-20721500Y-98500000D02*
X-21121500Y-98100000D01*
X-13041500Y-98500000D02*
X-20721500Y-98500000D01*
X-13041500Y-92000000D02*
X-13041500Y-98500000D01*
X-21121500Y-92000000D02*
X-13041500Y-92000000D01*
X-13441500Y-95250000D02*
G75*
G03X-13441500Y-95250000I-1100000J0D01*
G01*
X-15981500Y-95250000D02*
G75*
G03X-15981500Y-95250000I-1100000J0D01*
G01*
X-18521500Y-95250000D02*
G75*
G03X-18521500Y-95250000I-1100000J0D01*
G01*
X-48001500Y-97974000D02*
X-48001500Y-101974000D01*
X-46101500Y-97974000D02*
X-48001500Y-97974000D01*
X-46101500Y-83974000D02*
X-46101500Y-97974000D01*
X-54301500Y-83974000D02*
X-46101500Y-83974000D01*
X-54301500Y-97974000D02*
X-54301500Y-83974000D01*
X-54001500Y-97974000D02*
X-54301500Y-97974000D01*
X-54001500Y-101974000D02*
X-54001500Y-97974000D01*
X-48001500Y-101974000D02*
X-54001500Y-101974000D01*
D12*
X-1889000Y-23241000D02*
X-1889000Y-84201000D01*
X-1889000Y-84201000D02*
X-12139000Y-84201000D01*
X-12139000Y-84201000D02*
X-12139000Y-23241000D01*
X-12139000Y-23241000D02*
X-1889000Y-23241000D01*
X-62166500Y-2016000D02*
X-1206500Y-2016000D01*
X-1206500Y-2016000D02*
X-1206500Y-12266000D01*
X-1206500Y-12266000D02*
X-62166500Y-12266000D01*
X-62166500Y-12266000D02*
X-62166500Y-2016000D01*
D10*
X-49597000Y-20180500D02*
X-48597000Y-19180500D01*
X-49597000Y-37080500D02*
X-49597000Y-20180500D01*
X-42097000Y-37080500D02*
X-49597000Y-37080500D01*
X-42097000Y-19180500D02*
X-42097000Y-37080500D01*
X-48597000Y-19180500D02*
X-42097000Y-19180500D01*
D13*
X-43104000Y-51562000D02*
G75*
G03X-43104000Y-51562000I-1600000J0D01*
G01*
X-45954000Y-51962000D02*
X-45954000Y-51162000D01*
X-43454000Y-51962000D02*
X-45954000Y-51962000D01*
X-43454000Y-51162000D02*
X-43454000Y-51962000D01*
X-45954000Y-51162000D02*
X-43454000Y-51162000D01*
X-61424500Y-85153500D02*
G75*
G03X-61424500Y-85153500I-1250000J0D01*
G01*
X-63424500Y-85403500D02*
X-63424500Y-84903500D01*
X-61924500Y-85403500D02*
X-63424500Y-85403500D01*
X-61924500Y-84903500D02*
X-61924500Y-85403500D01*
X-63424500Y-84903500D02*
X-61924500Y-84903500D01*
D10*
X-54457500Y-56369000D02*
X-52857500Y-56369000D01*
X-54457500Y-57169000D02*
X-54457500Y-56369000D01*
X-52857500Y-57169000D02*
X-54457500Y-57169000D01*
X-52857500Y-56369000D02*
X-52857500Y-57169000D01*
X-60744000Y-80880000D02*
X-59144000Y-80880000D01*
X-60744000Y-81680000D02*
X-60744000Y-80880000D01*
X-59144000Y-81680000D02*
X-60744000Y-81680000D01*
X-59144000Y-80880000D02*
X-59144000Y-81680000D01*
X-59918500Y-84626500D02*
X-58318500Y-84626500D01*
X-59918500Y-85426500D02*
X-59918500Y-84626500D01*
X-58318500Y-85426500D02*
X-59918500Y-85426500D01*
X-58318500Y-84626500D02*
X-58318500Y-85426500D01*
X-36230000Y-85233000D02*
X-36230000Y-87233000D01*
X-37430000Y-85233000D02*
X-36230000Y-85233000D01*
X-37430000Y-87233000D02*
X-37430000Y-85233000D01*
X-36230000Y-87233000D02*
X-37430000Y-87233000D01*
X-24165000Y-75454000D02*
X-24165000Y-77454000D01*
X-25365000Y-75454000D02*
X-24165000Y-75454000D01*
X-25365000Y-77454000D02*
X-25365000Y-75454000D01*
X-24165000Y-77454000D02*
X-25365000Y-77454000D01*
X-43345000Y-82531000D02*
X-41745000Y-82531000D01*
X-43345000Y-83331000D02*
X-43345000Y-82531000D01*
X-41745000Y-83331000D02*
X-43345000Y-83331000D01*
X-41745000Y-82531000D02*
X-41745000Y-83331000D01*
X-31407000Y-53194000D02*
X-29807000Y-53194000D01*
X-31407000Y-53994000D02*
X-31407000Y-53194000D01*
X-29807000Y-53994000D02*
X-31407000Y-53994000D01*
X-29807000Y-53194000D02*
X-29807000Y-53994000D01*
X-52406500Y-73279000D02*
X-52406500Y-71679000D01*
X-51606500Y-73279000D02*
X-52406500Y-73279000D01*
X-51606500Y-71679000D02*
X-51606500Y-73279000D01*
X-52406500Y-71679000D02*
X-51606500Y-71679000D01*
X-43840500Y-58121500D02*
X-45440500Y-58121500D01*
X-43840500Y-57321500D02*
X-43840500Y-58121500D01*
X-45440500Y-57321500D02*
X-43840500Y-57321500D01*
X-45440500Y-58121500D02*
X-45440500Y-57321500D01*
X-90703500Y-85744000D02*
X-92303500Y-85744000D01*
X-90703500Y-84944000D02*
X-90703500Y-85744000D01*
X-92303500Y-84944000D02*
X-90703500Y-84944000D01*
X-92303500Y-85744000D02*
X-92303500Y-84944000D01*
X-66148000Y-80734000D02*
X-66148000Y-82334000D01*
X-66948000Y-80734000D02*
X-66148000Y-80734000D01*
X-66948000Y-82334000D02*
X-66948000Y-80734000D01*
X-66148000Y-82334000D02*
X-66948000Y-82334000D01*
X-69386500Y-82448500D02*
X-69386500Y-84048500D01*
X-70186500Y-82448500D02*
X-69386500Y-82448500D01*
X-70186500Y-84048500D02*
X-70186500Y-82448500D01*
X-69386500Y-84048500D02*
X-70186500Y-84048500D01*
X-47479000Y-60668000D02*
X-47479000Y-62268000D01*
X-48279000Y-60668000D02*
X-47479000Y-60668000D01*
X-48279000Y-62268000D02*
X-48279000Y-60668000D01*
X-47479000Y-62268000D02*
X-48279000Y-62268000D01*
X-30227500Y-64512000D02*
X-28827500Y-64512000D01*
X-28827500Y-61472000D02*
X-28827500Y-64512000D01*
X-30227500Y-62042000D02*
X-29677500Y-61472000D01*
X-29677500Y-61472000D02*
X-28827500Y-61472000D01*
X-30227500Y-62042000D02*
X-30227500Y-64492000D01*
X-44896000Y-63432500D02*
X-43496000Y-63432500D01*
X-43496000Y-60392500D02*
X-43496000Y-63432500D01*
X-44896000Y-60962500D02*
X-44346000Y-60392500D01*
X-44346000Y-60392500D02*
X-43496000Y-60392500D01*
X-44896000Y-60962500D02*
X-44896000Y-63412500D01*
X-69470500Y-88261000D02*
X-68070500Y-88261000D01*
X-68070500Y-85221000D02*
X-68070500Y-88261000D01*
X-69470500Y-85791000D02*
X-68920500Y-85221000D01*
X-68920500Y-85221000D02*
X-68070500Y-85221000D01*
X-69470500Y-85791000D02*
X-69470500Y-88241000D01*
X-92265500Y-47625000D02*
X-92900500Y-48260000D01*
X-92265500Y-27940000D02*
X-92265500Y-47625000D01*
X-94805500Y-27940000D02*
X-92265500Y-27940000D01*
X-94805500Y-48260000D02*
X-94805500Y-27940000D01*
X-92900500Y-48260000D02*
X-94805500Y-48260000D01*
X-61317000Y-91107107D02*
X-60817000Y-90400000D01*
X-61817000Y-90400000D02*
X-61317000Y-91107107D01*
X-56817000Y-90400000D02*
X-56817000Y-94650000D01*
X-62817000Y-90400000D02*
X-62817000Y-94650000D01*
X-62817000Y-94650000D02*
X-56817000Y-94650000D01*
X-62817000Y-90400000D02*
X-56817000Y-90400000D01*
X-36827500Y-93780000D02*
X-38362500Y-95315000D01*
X-36693500Y-93915000D02*
X-38228500Y-95450000D01*
X-39367500Y-93780000D02*
X-40902500Y-95315000D01*
X-39233500Y-93915000D02*
X-40768500Y-95450000D01*
X-41907500Y-93780000D02*
X-43443500Y-95315000D01*
X-41773500Y-93915000D02*
X-43309500Y-95450000D01*
X-44108500Y-92365000D02*
X-36028500Y-92365000D01*
X-44108500Y-97465000D02*
X-36028500Y-97465000D01*
X-44108500Y-97465000D02*
X-44108500Y-91365000D01*
X-43708500Y-97865000D02*
X-44108500Y-97465000D01*
X-36028500Y-97865000D02*
X-43708500Y-97865000D01*
X-36028500Y-91365000D02*
X-36028500Y-97865000D01*
X-44108500Y-91365000D02*
X-36028500Y-91365000D01*
X-36428500Y-94615000D02*
G75*
G03X-36428500Y-94615000I-1100000J0D01*
G01*
X-38968500Y-94615000D02*
G75*
G03X-38968500Y-94615000I-1100000J0D01*
G01*
X-41508500Y-94615000D02*
G75*
G03X-41508500Y-94615000I-1100000J0D01*
G01*
X-24760500Y-98863000D02*
X-24760500Y-102863000D01*
X-22860500Y-98863000D02*
X-24760500Y-98863000D01*
X-22860500Y-84863000D02*
X-22860500Y-98863000D01*
X-31060500Y-84863000D02*
X-22860500Y-84863000D01*
X-31060500Y-98863000D02*
X-31060500Y-84863000D01*
X-30760500Y-98863000D02*
X-31060500Y-98863000D01*
X-30760500Y-102863000D02*
X-30760500Y-98863000D01*
X-24760500Y-102863000D02*
X-30760500Y-102863000D01*
X-85980020Y-77296560D02*
X-85179920Y-78447180D01*
X-85980020Y-77296560D02*
X-86729320Y-78447180D01*
X-86729320Y-78447180D02*
X-85179920Y-78447180D01*
X-85179920Y-77296560D02*
X-86780120Y-77296560D01*
X-85980020Y-78447180D02*
X-85980020Y-79445400D01*
X-85980020Y-77296560D02*
X-85980020Y-76394860D01*
X-84479000Y-80246000D02*
X-84479000Y-75646000D01*
X-84479000Y-80246000D02*
X-87479000Y-80246000D01*
X-87479000Y-75646000D02*
X-84479000Y-75646000D01*
X-87479000Y-80246000D02*
X-87479000Y-75646000D01*
X-95725000Y-85581500D02*
X-96525000Y-85581500D01*
X-95725000Y-87181500D02*
X-95725000Y-85581500D01*
X-96225000Y-87181500D02*
X-95725000Y-87181500D01*
X-96525000Y-86881500D02*
X-96225000Y-87181500D01*
X-96525000Y-85581500D02*
X-96525000Y-86881500D01*
X-90483500Y-10977500D02*
X-90483500Y-9977500D01*
X-89983500Y-10977500D02*
X-90483500Y-10977500D01*
X-89983500Y-9977500D02*
X-89983500Y-10977500D01*
X-90483500Y-9977500D02*
X-89983500Y-9977500D01*
X-61853000Y-21915500D02*
X-61853000Y-22915500D01*
X-62353000Y-21915500D02*
X-61853000Y-21915500D01*
X-62353000Y-22915500D02*
X-62353000Y-21915500D01*
X-61853000Y-22915500D02*
X-62353000Y-22915500D01*
X-75177000Y-65269000D02*
X-74177000Y-64269000D01*
X-77477000Y-65269000D02*
X-78477000Y-64269000D01*
X-77477000Y-65269000D02*
X-75177000Y-65269000D01*
X-74177000Y-64269000D02*
X-74177000Y-60969000D01*
X-78477000Y-64269000D02*
X-78477000Y-60969000D01*
X-78477000Y-60969000D02*
X-74177000Y-60969000D01*
X-74327000Y-63119000D02*
G75*
G03X-74327000Y-63119000I-2000000J0D01*
G01*
D12*
X-64833500Y-1270000D02*
X-64833500Y-52070000D01*
X-64833500Y-52070000D02*
X-87693500Y-52070000D01*
X-87693500Y-52070000D02*
X-87693500Y-1270000D01*
X-87693500Y-1270000D02*
X-64833500Y-1270000D01*
D10*
X-71873500Y-72404000D02*
X-72923500Y-73454000D01*
X-71873500Y-72404000D02*
X-71873500Y-66754000D01*
X-72923500Y-73454000D02*
X-75573500Y-73454000D01*
X-71873500Y-66754000D02*
X-75573500Y-66754000D01*
X-75573500Y-73454000D02*
X-75573500Y-66754000D01*
D11*
X-32699000Y-35620000D02*
X-21149000Y-35620000D01*
X-32699000Y-43120000D02*
X-21149000Y-43120000D01*
X-21149000Y-43120000D02*
X-21149000Y-35620000D01*
X-32699000Y-43120000D02*
X-32699000Y-35620000D01*
D12*
X-32504000Y-46070000D02*
G75*
G03X-32504000Y-46070000I-100000J0D01*
G01*
D13*
X-75675095Y-99961261D02*
X-75532238Y-100008880D01*
X-75294142Y-100008880D01*
X-75198904Y-99961261D01*
X-75151285Y-99913642D01*
X-75103666Y-99818404D01*
X-75103666Y-99723166D01*
X-75151285Y-99627928D01*
X-75198904Y-99580309D01*
X-75294142Y-99532690D01*
X-75484619Y-99485071D01*
X-75579857Y-99437452D01*
X-75627476Y-99389833D01*
X-75675095Y-99294595D01*
X-75675095Y-99199357D01*
X-75627476Y-99104119D01*
X-75579857Y-99056500D01*
X-75484619Y-99008880D01*
X-75246523Y-99008880D01*
X-75103666Y-99056500D01*
X-74246523Y-99961261D02*
X-74341761Y-100008880D01*
X-74532238Y-100008880D01*
X-74627476Y-99961261D01*
X-74675095Y-99913642D01*
X-74722714Y-99818404D01*
X-74722714Y-99532690D01*
X-74675095Y-99437452D01*
X-74627476Y-99389833D01*
X-74532238Y-99342214D01*
X-74341761Y-99342214D01*
X-74246523Y-99389833D01*
X-73817952Y-100008880D02*
X-73817952Y-99342214D01*
X-73817952Y-99532690D02*
X-73770333Y-99437452D01*
X-73722714Y-99389833D01*
X-73627476Y-99342214D01*
X-73532238Y-99342214D01*
X-72817952Y-99961261D02*
X-72913190Y-100008880D01*
X-73103666Y-100008880D01*
X-73198904Y-99961261D01*
X-73246523Y-99866023D01*
X-73246523Y-99485071D01*
X-73198904Y-99389833D01*
X-73103666Y-99342214D01*
X-72913190Y-99342214D01*
X-72817952Y-99389833D01*
X-72770333Y-99485071D01*
X-72770333Y-99580309D01*
X-73246523Y-99675547D01*
X-72437000Y-99342214D02*
X-72246523Y-100008880D01*
X-72056047Y-99532690D01*
X-71865571Y-100008880D01*
X-71675095Y-99342214D01*
X-71532238Y-100104119D02*
X-70770333Y-100104119D01*
X-70675095Y-99008880D02*
X-70103666Y-99008880D01*
X-70389380Y-100008880D02*
X-70389380Y-99008880D01*
X-69389380Y-99961261D02*
X-69484619Y-100008880D01*
X-69675095Y-100008880D01*
X-69770333Y-99961261D01*
X-69817952Y-99866023D01*
X-69817952Y-99485071D01*
X-69770333Y-99389833D01*
X-69675095Y-99342214D01*
X-69484619Y-99342214D01*
X-69389380Y-99389833D01*
X-69341761Y-99485071D01*
X-69341761Y-99580309D01*
X-69817952Y-99675547D01*
X-68913190Y-100008880D02*
X-68913190Y-99342214D01*
X-68913190Y-99532690D02*
X-68865571Y-99437452D01*
X-68817952Y-99389833D01*
X-68722714Y-99342214D01*
X-68627476Y-99342214D01*
X-68294142Y-100008880D02*
X-68294142Y-99342214D01*
X-68294142Y-99437452D02*
X-68246523Y-99389833D01*
X-68151285Y-99342214D01*
X-68008428Y-99342214D01*
X-67913190Y-99389833D01*
X-67865571Y-99485071D01*
X-67865571Y-100008880D01*
X-67865571Y-99485071D02*
X-67817952Y-99389833D01*
X-67722714Y-99342214D01*
X-67579857Y-99342214D01*
X-67484619Y-99389833D01*
X-67437000Y-99485071D01*
X-67437000Y-100008880D01*
X-66960809Y-100008880D02*
X-66960809Y-99342214D01*
X-66960809Y-99008880D02*
X-67008428Y-99056500D01*
X-66960809Y-99104119D01*
X-66913190Y-99056500D01*
X-66960809Y-99008880D01*
X-66960809Y-99104119D01*
X-66484619Y-99342214D02*
X-66484619Y-100008880D01*
X-66484619Y-99437452D02*
X-66437000Y-99389833D01*
X-66341761Y-99342214D01*
X-66198904Y-99342214D01*
X-66103666Y-99389833D01*
X-66056047Y-99485071D01*
X-66056047Y-100008880D01*
X-65151285Y-100008880D02*
X-65151285Y-99485071D01*
X-65198904Y-99389833D01*
X-65294142Y-99342214D01*
X-65484619Y-99342214D01*
X-65579857Y-99389833D01*
X-65151285Y-99961261D02*
X-65246523Y-100008880D01*
X-65484619Y-100008880D01*
X-65579857Y-99961261D01*
X-65627476Y-99866023D01*
X-65627476Y-99770785D01*
X-65579857Y-99675547D01*
X-65484619Y-99627928D01*
X-65246523Y-99627928D01*
X-65151285Y-99580309D01*
X-64532238Y-100008880D02*
X-64627476Y-99961261D01*
X-64675095Y-99866023D01*
X-64675095Y-99008880D01*
X-64389380Y-100104119D02*
X-63627476Y-100104119D01*
X-63198904Y-99008880D02*
X-63103666Y-99008880D01*
X-63008428Y-99056500D01*
X-62960809Y-99104119D01*
X-62913190Y-99199357D01*
X-62865571Y-99389833D01*
X-62865571Y-99627928D01*
X-62913190Y-99818404D01*
X-62960809Y-99913642D01*
X-63008428Y-99961261D01*
X-63103666Y-100008880D01*
X-63198904Y-100008880D01*
X-63294142Y-99961261D01*
X-63341761Y-99913642D01*
X-63389380Y-99818404D01*
X-63437000Y-99627928D01*
X-63437000Y-99389833D01*
X-63389380Y-99199357D01*
X-63341761Y-99104119D01*
X-63294142Y-99056500D01*
X-63198904Y-99008880D01*
X-61913190Y-100008880D02*
X-62484619Y-100008880D01*
X-62198904Y-100008880D02*
X-62198904Y-99008880D01*
X-62294142Y-99151738D01*
X-62389380Y-99246976D01*
X-62484619Y-99294595D01*
X-61579857Y-100008880D02*
X-61056047Y-99342214D01*
X-61579857Y-99342214D02*
X-61056047Y-100008880D01*
X-60484619Y-99008880D02*
X-60389380Y-99008880D01*
X-60294142Y-99056500D01*
X-60246523Y-99104119D01*
X-60198904Y-99199357D01*
X-60151285Y-99389833D01*
X-60151285Y-99627928D01*
X-60198904Y-99818404D01*
X-60246523Y-99913642D01*
X-60294142Y-99961261D01*
X-60389380Y-100008880D01*
X-60484619Y-100008880D01*
X-60579857Y-99961261D01*
X-60627476Y-99913642D01*
X-60675095Y-99818404D01*
X-60722714Y-99627928D01*
X-60722714Y-99389833D01*
X-60675095Y-99199357D01*
X-60627476Y-99104119D01*
X-60579857Y-99056500D01*
X-60484619Y-99008880D01*
X-59770333Y-99104119D02*
X-59722714Y-99056500D01*
X-59627476Y-99008880D01*
X-59389380Y-99008880D01*
X-59294142Y-99056500D01*
X-59246523Y-99104119D01*
X-59198904Y-99199357D01*
X-59198904Y-99294595D01*
X-59246523Y-99437452D01*
X-59817952Y-100008880D01*
X-59198904Y-100008880D01*
X-68246523Y-96638880D02*
X-68246523Y-97353166D01*
X-68294142Y-97496023D01*
X-68389380Y-97591261D01*
X-68532238Y-97638880D01*
X-68627476Y-97638880D01*
X-67246523Y-97638880D02*
X-67817952Y-97638880D01*
X-67532238Y-97638880D02*
X-67532238Y-96638880D01*
X-67627476Y-96781738D01*
X-67722714Y-96876976D01*
X-67817952Y-96924595D01*
X-66913190Y-96638880D02*
X-66294142Y-96638880D01*
X-66627476Y-97019833D01*
X-66484619Y-97019833D01*
X-66389380Y-97067452D01*
X-66341761Y-97115071D01*
X-66294142Y-97210309D01*
X-66294142Y-97448404D01*
X-66341761Y-97543642D01*
X-66389380Y-97591261D01*
X-66484619Y-97638880D01*
X-66770333Y-97638880D01*
X-66865571Y-97591261D01*
X-66913190Y-97543642D01*
X-19232166Y-76740119D02*
X-19184547Y-76692500D01*
X-19089309Y-76644880D01*
X-18851214Y-76644880D01*
X-18755976Y-76692500D01*
X-18708357Y-76740119D01*
X-18660738Y-76835357D01*
X-18660738Y-76930595D01*
X-18708357Y-77073452D01*
X-19279785Y-77644880D01*
X-18660738Y-77644880D01*
X-18279785Y-77597261D02*
X-18136928Y-77644880D01*
X-17898833Y-77644880D01*
X-17803595Y-77597261D01*
X-17755976Y-77549642D01*
X-17708357Y-77454404D01*
X-17708357Y-77359166D01*
X-17755976Y-77263928D01*
X-17803595Y-77216309D01*
X-17898833Y-77168690D01*
X-18089309Y-77121071D01*
X-18184547Y-77073452D01*
X-18232166Y-77025833D01*
X-18279785Y-76930595D01*
X-18279785Y-76835357D01*
X-18232166Y-76740119D01*
X-18184547Y-76692500D01*
X-18089309Y-76644880D01*
X-17851214Y-76644880D01*
X-17708357Y-76692500D01*
X-16708357Y-77549642D02*
X-16755976Y-77597261D01*
X-16898833Y-77644880D01*
X-16994071Y-77644880D01*
X-17136928Y-77597261D01*
X-17232166Y-77502023D01*
X-17279785Y-77406785D01*
X-17327404Y-77216309D01*
X-17327404Y-77073452D01*
X-17279785Y-76882976D01*
X-17232166Y-76787738D01*
X-17136928Y-76692500D01*
X-16994071Y-76644880D01*
X-16898833Y-76644880D01*
X-16755976Y-76692500D01*
X-16708357Y-76740119D01*
X-15755976Y-77644880D02*
X-16327404Y-77644880D01*
X-16041690Y-77644880D02*
X-16041690Y-76644880D01*
X-16136928Y-76787738D01*
X-16232166Y-76882976D01*
X-16327404Y-76930595D01*
X-15184547Y-77073452D02*
X-15279785Y-77025833D01*
X-15327404Y-76978214D01*
X-15375023Y-76882976D01*
X-15375023Y-76835357D01*
X-15327404Y-76740119D01*
X-15279785Y-76692500D01*
X-15184547Y-76644880D01*
X-14994071Y-76644880D01*
X-14898833Y-76692500D01*
X-14851214Y-76740119D01*
X-14803595Y-76835357D01*
X-14803595Y-76882976D01*
X-14851214Y-76978214D01*
X-14898833Y-77025833D01*
X-14994071Y-77073452D01*
X-15184547Y-77073452D01*
X-15279785Y-77121071D01*
X-15327404Y-77168690D01*
X-15375023Y-77263928D01*
X-15375023Y-77454404D01*
X-15327404Y-77549642D01*
X-15279785Y-77597261D01*
X-15184547Y-77644880D01*
X-14994071Y-77644880D01*
X-14898833Y-77597261D01*
X-14851214Y-77549642D01*
X-14803595Y-77454404D01*
X-14803595Y-77263928D01*
X-14851214Y-77168690D01*
X-14898833Y-77121071D01*
X-14994071Y-77073452D01*
X-13851214Y-77644880D02*
X-14422642Y-77644880D01*
X-14136928Y-77644880D02*
X-14136928Y-76644880D01*
X-14232166Y-76787738D01*
X-14327404Y-76882976D01*
X-14422642Y-76930595D01*
X-12946452Y-76644880D02*
X-13422642Y-76644880D01*
X-13470261Y-77121071D01*
X-13422642Y-77073452D01*
X-13327404Y-77025833D01*
X-13089309Y-77025833D01*
X-12994071Y-77073452D01*
X-12946452Y-77121071D01*
X-12898833Y-77216309D01*
X-12898833Y-77454404D01*
X-12946452Y-77549642D01*
X-12994071Y-77597261D01*
X-13089309Y-77644880D01*
X-13327404Y-77644880D01*
X-13422642Y-77597261D01*
X-13470261Y-77549642D01*
D14*
X-15791690Y-79740119D02*
X-15815500Y-79787738D01*
X-15863119Y-79835357D01*
X-15934547Y-79906785D01*
X-15958357Y-79954404D01*
X-15958357Y-80002023D01*
X-15839309Y-79978214D02*
X-15863119Y-80025833D01*
X-15910738Y-80073452D01*
X-16005976Y-80097261D01*
X-16172642Y-80097261D01*
X-16267880Y-80073452D01*
X-16315500Y-80025833D01*
X-16339309Y-79978214D01*
X-16339309Y-79882976D01*
X-16315500Y-79835357D01*
X-16267880Y-79787738D01*
X-16172642Y-79763928D01*
X-16005976Y-79763928D01*
X-15910738Y-79787738D01*
X-15863119Y-79835357D01*
X-15839309Y-79882976D01*
X-15839309Y-79978214D01*
X-16172642Y-79335357D02*
X-15839309Y-79335357D01*
X-16363119Y-79454404D02*
X-16005976Y-79573452D01*
X-16005976Y-79263928D01*
D13*
X-20153285Y-76365380D02*
X-20724714Y-76365380D01*
X-20439000Y-76365380D02*
X-20439000Y-75365380D01*
X-20534238Y-75508238D01*
X-20629476Y-75603476D01*
X-20724714Y-75651095D01*
X-19724714Y-76365380D02*
X-19724714Y-75365380D01*
X-19153285Y-76365380D02*
X-19581857Y-75793952D01*
X-19153285Y-75365380D02*
X-19724714Y-75936809D01*
D15*
X-20196142Y-77523952D02*
X-20329476Y-77333476D01*
X-20424714Y-77523952D02*
X-20424714Y-77123952D01*
X-20272333Y-77123952D01*
X-20234238Y-77143000D01*
X-20215190Y-77162047D01*
X-20196142Y-77200142D01*
X-20196142Y-77257285D01*
X-20215190Y-77295380D01*
X-20234238Y-77314428D01*
X-20272333Y-77333476D01*
X-20424714Y-77333476D01*
X-19815190Y-77523952D02*
X-20043761Y-77523952D01*
X-19929476Y-77523952D02*
X-19929476Y-77123952D01*
X-19967571Y-77181095D01*
X-20005666Y-77219190D01*
X-20043761Y-77238238D01*
X-19453285Y-77123952D02*
X-19643761Y-77123952D01*
X-19662809Y-77314428D01*
X-19643761Y-77295380D01*
X-19605666Y-77276333D01*
X-19510428Y-77276333D01*
X-19472333Y-77295380D01*
X-19453285Y-77314428D01*
X-19434238Y-77352523D01*
X-19434238Y-77447761D01*
X-19453285Y-77485857D01*
X-19472333Y-77504904D01*
X-19510428Y-77523952D01*
X-19605666Y-77523952D01*
X-19643761Y-77504904D01*
X-19662809Y-77485857D01*
D13*
X-14946285Y-84876880D02*
X-15517714Y-84876880D01*
X-15232000Y-84876880D02*
X-15232000Y-83876880D01*
X-15327238Y-84019738D01*
X-15422476Y-84114976D01*
X-15517714Y-84162595D01*
X-14517714Y-84876880D02*
X-14517714Y-83876880D01*
X-13946285Y-84876880D02*
X-14374857Y-84305452D01*
X-13946285Y-83876880D02*
X-14517714Y-84448309D01*
D15*
X-14551047Y-83251642D02*
X-14741523Y-83384976D01*
X-14551047Y-83480214D02*
X-14951047Y-83480214D01*
X-14951047Y-83327833D01*
X-14932000Y-83289738D01*
X-14912952Y-83270690D01*
X-14874857Y-83251642D01*
X-14817714Y-83251642D01*
X-14779619Y-83270690D01*
X-14760571Y-83289738D01*
X-14741523Y-83327833D01*
X-14741523Y-83480214D01*
X-14551047Y-82870690D02*
X-14551047Y-83099261D01*
X-14551047Y-82984976D02*
X-14951047Y-82984976D01*
X-14893904Y-83023071D01*
X-14855809Y-83061166D01*
X-14836761Y-83099261D01*
X-14817714Y-82527833D02*
X-14551047Y-82527833D01*
X-14970095Y-82623071D02*
X-14684380Y-82718309D01*
X-14684380Y-82470690D01*
D13*
X-24875095Y-76656761D02*
X-24732238Y-76704380D01*
X-24494142Y-76704380D01*
X-24398904Y-76656761D01*
X-24351285Y-76609142D01*
X-24303666Y-76513904D01*
X-24303666Y-76418666D01*
X-24351285Y-76323428D01*
X-24398904Y-76275809D01*
X-24494142Y-76228190D01*
X-24684619Y-76180571D01*
X-24779857Y-76132952D01*
X-24827476Y-76085333D01*
X-24875095Y-75990095D01*
X-24875095Y-75894857D01*
X-24827476Y-75799619D01*
X-24779857Y-75752000D01*
X-24684619Y-75704380D01*
X-24446523Y-75704380D01*
X-24303666Y-75752000D01*
X-23446523Y-76656761D02*
X-23541761Y-76704380D01*
X-23732238Y-76704380D01*
X-23827476Y-76656761D01*
X-23875095Y-76609142D01*
X-23922714Y-76513904D01*
X-23922714Y-76228190D01*
X-23875095Y-76132952D01*
X-23827476Y-76085333D01*
X-23732238Y-76037714D01*
X-23541761Y-76037714D01*
X-23446523Y-76085333D01*
X-23017952Y-76704380D02*
X-23017952Y-76037714D01*
X-23017952Y-76228190D02*
X-22970333Y-76132952D01*
X-22922714Y-76085333D01*
X-22827476Y-76037714D01*
X-22732238Y-76037714D01*
X-22017952Y-76656761D02*
X-22113190Y-76704380D01*
X-22303666Y-76704380D01*
X-22398904Y-76656761D01*
X-22446523Y-76561523D01*
X-22446523Y-76180571D01*
X-22398904Y-76085333D01*
X-22303666Y-76037714D01*
X-22113190Y-76037714D01*
X-22017952Y-76085333D01*
X-21970333Y-76180571D01*
X-21970333Y-76275809D01*
X-22446523Y-76371047D01*
X-21637000Y-76037714D02*
X-21446523Y-76704380D01*
X-21256047Y-76228190D01*
X-21065571Y-76704380D01*
X-20875095Y-76037714D01*
X-20732238Y-76799619D02*
X-19970333Y-76799619D01*
X-19875095Y-75704380D02*
X-19303666Y-75704380D01*
X-19589380Y-76704380D02*
X-19589380Y-75704380D01*
X-18589380Y-76656761D02*
X-18684619Y-76704380D01*
X-18875095Y-76704380D01*
X-18970333Y-76656761D01*
X-19017952Y-76561523D01*
X-19017952Y-76180571D01*
X-18970333Y-76085333D01*
X-18875095Y-76037714D01*
X-18684619Y-76037714D01*
X-18589380Y-76085333D01*
X-18541761Y-76180571D01*
X-18541761Y-76275809D01*
X-19017952Y-76371047D01*
X-18113190Y-76704380D02*
X-18113190Y-76037714D01*
X-18113190Y-76228190D02*
X-18065571Y-76132952D01*
X-18017952Y-76085333D01*
X-17922714Y-76037714D01*
X-17827476Y-76037714D01*
X-17494142Y-76704380D02*
X-17494142Y-76037714D01*
X-17494142Y-76132952D02*
X-17446523Y-76085333D01*
X-17351285Y-76037714D01*
X-17208428Y-76037714D01*
X-17113190Y-76085333D01*
X-17065571Y-76180571D01*
X-17065571Y-76704380D01*
X-17065571Y-76180571D02*
X-17017952Y-76085333D01*
X-16922714Y-76037714D01*
X-16779857Y-76037714D01*
X-16684619Y-76085333D01*
X-16637000Y-76180571D01*
X-16637000Y-76704380D01*
X-16160809Y-76704380D02*
X-16160809Y-76037714D01*
X-16160809Y-75704380D02*
X-16208428Y-75752000D01*
X-16160809Y-75799619D01*
X-16113190Y-75752000D01*
X-16160809Y-75704380D01*
X-16160809Y-75799619D01*
X-15684619Y-76037714D02*
X-15684619Y-76704380D01*
X-15684619Y-76132952D02*
X-15637000Y-76085333D01*
X-15541761Y-76037714D01*
X-15398904Y-76037714D01*
X-15303666Y-76085333D01*
X-15256047Y-76180571D01*
X-15256047Y-76704380D01*
X-14351285Y-76704380D02*
X-14351285Y-76180571D01*
X-14398904Y-76085333D01*
X-14494142Y-76037714D01*
X-14684619Y-76037714D01*
X-14779857Y-76085333D01*
X-14351285Y-76656761D02*
X-14446523Y-76704380D01*
X-14684619Y-76704380D01*
X-14779857Y-76656761D01*
X-14827476Y-76561523D01*
X-14827476Y-76466285D01*
X-14779857Y-76371047D01*
X-14684619Y-76323428D01*
X-14446523Y-76323428D01*
X-14351285Y-76275809D01*
X-13732238Y-76704380D02*
X-13827476Y-76656761D01*
X-13875095Y-76561523D01*
X-13875095Y-75704380D01*
X-13589380Y-76799619D02*
X-12827476Y-76799619D01*
X-12398904Y-75704380D02*
X-12303666Y-75704380D01*
X-12208428Y-75752000D01*
X-12160809Y-75799619D01*
X-12113190Y-75894857D01*
X-12065571Y-76085333D01*
X-12065571Y-76323428D01*
X-12113190Y-76513904D01*
X-12160809Y-76609142D01*
X-12208428Y-76656761D01*
X-12303666Y-76704380D01*
X-12398904Y-76704380D01*
X-12494142Y-76656761D01*
X-12541761Y-76609142D01*
X-12589380Y-76513904D01*
X-12637000Y-76323428D01*
X-12637000Y-76085333D01*
X-12589380Y-75894857D01*
X-12541761Y-75799619D01*
X-12494142Y-75752000D01*
X-12398904Y-75704380D01*
X-11113190Y-76704380D02*
X-11684619Y-76704380D01*
X-11398904Y-76704380D02*
X-11398904Y-75704380D01*
X-11494142Y-75847238D01*
X-11589380Y-75942476D01*
X-11684619Y-75990095D01*
X-10779857Y-76704380D02*
X-10256047Y-76037714D01*
X-10779857Y-76037714D02*
X-10256047Y-76704380D01*
X-9684619Y-75704380D02*
X-9589380Y-75704380D01*
X-9494142Y-75752000D01*
X-9446523Y-75799619D01*
X-9398904Y-75894857D01*
X-9351285Y-76085333D01*
X-9351285Y-76323428D01*
X-9398904Y-76513904D01*
X-9446523Y-76609142D01*
X-9494142Y-76656761D01*
X-9589380Y-76704380D01*
X-9684619Y-76704380D01*
X-9779857Y-76656761D01*
X-9827476Y-76609142D01*
X-9875095Y-76513904D01*
X-9922714Y-76323428D01*
X-9922714Y-76085333D01*
X-9875095Y-75894857D01*
X-9827476Y-75799619D01*
X-9779857Y-75752000D01*
X-9684619Y-75704380D01*
X-8970333Y-75799619D02*
X-8922714Y-75752000D01*
X-8827476Y-75704380D01*
X-8589380Y-75704380D01*
X-8494142Y-75752000D01*
X-8446523Y-75799619D01*
X-8398904Y-75894857D01*
X-8398904Y-75990095D01*
X-8446523Y-76132952D01*
X-9017952Y-76704380D01*
X-8398904Y-76704380D01*
X-17446523Y-73334380D02*
X-17446523Y-74048666D01*
X-17494142Y-74191523D01*
X-17589380Y-74286761D01*
X-17732238Y-74334380D01*
X-17827476Y-74334380D01*
X-16446523Y-74334380D02*
X-17017952Y-74334380D01*
X-16732238Y-74334380D02*
X-16732238Y-73334380D01*
X-16827476Y-73477238D01*
X-16922714Y-73572476D01*
X-17017952Y-73620095D01*
X-16065571Y-73429619D02*
X-16017952Y-73382000D01*
X-15922714Y-73334380D01*
X-15684619Y-73334380D01*
X-15589380Y-73382000D01*
X-15541761Y-73429619D01*
X-15494142Y-73524857D01*
X-15494142Y-73620095D01*
X-15541761Y-73762952D01*
X-16113190Y-74334380D01*
X-15494142Y-74334380D01*
X-86260166Y-72881333D02*
X-87660166Y-72881333D01*
X-87660166Y-72348000D01*
X-87593500Y-72214666D01*
X-87526833Y-72148000D01*
X-87393500Y-72081333D01*
X-87193500Y-72081333D01*
X-87060166Y-72148000D01*
X-86993500Y-72214666D01*
X-86926833Y-72348000D01*
X-86926833Y-72881333D01*
X-87193500Y-71614666D02*
X-86260166Y-71348000D01*
X-86926833Y-71081333D01*
X-86260166Y-70814666D01*
X-87193500Y-70548000D01*
X-86260166Y-70014666D02*
X-87193500Y-70014666D01*
X-86926833Y-70014666D02*
X-87060166Y-69948000D01*
X-87126833Y-69881333D01*
X-87193500Y-69748000D01*
X-87193500Y-69614666D01*
X-86326833Y-68148000D02*
X-86260166Y-68014666D01*
X-86260166Y-67748000D01*
X-86326833Y-67614666D01*
X-86460166Y-67548000D01*
X-86526833Y-67548000D01*
X-86660166Y-67614666D01*
X-86726833Y-67748000D01*
X-86726833Y-67948000D01*
X-86793500Y-68081333D01*
X-86926833Y-68148000D01*
X-86993500Y-68148000D01*
X-87126833Y-68081333D01*
X-87193500Y-67948000D01*
X-87193500Y-67748000D01*
X-87126833Y-67614666D01*
X-87193500Y-67081333D02*
X-86260166Y-66814666D01*
X-86926833Y-66548000D01*
X-86260166Y-66281333D01*
X-87193500Y-66014666D01*
X-86260166Y-65481333D02*
X-87193500Y-65481333D01*
X-87660166Y-65481333D02*
X-87593500Y-65548000D01*
X-87526833Y-65481333D01*
X-87593500Y-65414666D01*
X-87660166Y-65481333D01*
X-87526833Y-65481333D01*
X-87193500Y-65014666D02*
X-87193500Y-64481333D01*
X-87660166Y-64814666D02*
X-86460166Y-64814666D01*
X-86326833Y-64748000D01*
X-86260166Y-64614666D01*
X-86260166Y-64481333D01*
X-86326833Y-63414666D02*
X-86260166Y-63548000D01*
X-86260166Y-63814666D01*
X-86326833Y-63948000D01*
X-86393500Y-64014666D01*
X-86526833Y-64081333D01*
X-86926833Y-64081333D01*
X-87060166Y-64014666D01*
X-87126833Y-63948000D01*
X-87193500Y-63814666D01*
X-87193500Y-63548000D01*
X-87126833Y-63414666D01*
X-86260166Y-62814666D02*
X-87660166Y-62814666D01*
X-86260166Y-62214666D02*
X-86993500Y-62214666D01*
X-87126833Y-62281333D01*
X-87193500Y-62414666D01*
X-87193500Y-62614666D01*
X-87126833Y-62748000D01*
X-87060166Y-62814666D01*
X-86876000Y-57902166D02*
X-85476000Y-57902166D01*
X-86809333Y-57902166D02*
X-86876000Y-57768833D01*
X-86876000Y-57502166D01*
X-86809333Y-57368833D01*
X-86742666Y-57302166D01*
X-86609333Y-57235500D01*
X-86209333Y-57235500D01*
X-86076000Y-57302166D01*
X-86009333Y-57368833D01*
X-85942666Y-57502166D01*
X-85942666Y-57768833D01*
X-86009333Y-57902166D01*
X-86876000Y-56768833D02*
X-85942666Y-56502166D01*
X-86609333Y-56235500D01*
X-85942666Y-55968833D01*
X-86876000Y-55702166D01*
X-85942666Y-55168833D02*
X-86876000Y-55168833D01*
X-86609333Y-55168833D02*
X-86742666Y-55102166D01*
X-86809333Y-55035500D01*
X-86876000Y-54902166D01*
X-86876000Y-54768833D01*
X-57856357Y-55634880D02*
X-58332547Y-55634880D01*
X-58332547Y-54634880D01*
X-57523023Y-55111071D02*
X-57189690Y-55111071D01*
X-57046833Y-55634880D02*
X-57523023Y-55634880D01*
X-57523023Y-54634880D01*
X-57046833Y-54634880D01*
X-56618261Y-55634880D02*
X-56618261Y-54634880D01*
X-56380166Y-54634880D01*
X-56237309Y-54682500D01*
X-56142071Y-54777738D01*
X-56094452Y-54872976D01*
X-56046833Y-55063452D01*
X-56046833Y-55206309D01*
X-56094452Y-55396785D01*
X-56142071Y-55492023D01*
X-56237309Y-55587261D01*
X-56380166Y-55634880D01*
X-56618261Y-55634880D01*
D16*
X-57582547Y-57058690D02*
X-57582547Y-56558690D01*
X-57463500Y-56558690D01*
X-57392071Y-56582500D01*
X-57344452Y-56630119D01*
X-57320642Y-56677738D01*
X-57296833Y-56772976D01*
X-57296833Y-56844404D01*
X-57320642Y-56939642D01*
X-57344452Y-56987261D01*
X-57392071Y-57034880D01*
X-57463500Y-57058690D01*
X-57582547Y-57058690D01*
X-56868261Y-56558690D02*
X-56963500Y-56558690D01*
X-57011119Y-56582500D01*
X-57034928Y-56606309D01*
X-57082547Y-56677738D01*
X-57106357Y-56772976D01*
X-57106357Y-56963452D01*
X-57082547Y-57011071D01*
X-57058738Y-57034880D01*
X-57011119Y-57058690D01*
X-56915880Y-57058690D01*
X-56868261Y-57034880D01*
X-56844452Y-57011071D01*
X-56820642Y-56963452D01*
X-56820642Y-56844404D01*
X-56844452Y-56796785D01*
X-56868261Y-56772976D01*
X-56915880Y-56749166D01*
X-57011119Y-56749166D01*
X-57058738Y-56772976D01*
X-57082547Y-56796785D01*
X-57106357Y-56844404D01*
D13*
X-40782476Y-50300880D02*
X-41258666Y-50300880D01*
X-41258666Y-49300880D01*
X-40449142Y-49777071D02*
X-40115809Y-49777071D01*
X-39972952Y-50300880D02*
X-40449142Y-50300880D01*
X-40449142Y-49300880D01*
X-39972952Y-49300880D01*
X-39544380Y-50300880D02*
X-39544380Y-49300880D01*
X-39306285Y-49300880D01*
X-39163428Y-49348500D01*
X-39068190Y-49443738D01*
X-39020571Y-49538976D01*
X-38972952Y-49729452D01*
X-38972952Y-49872309D01*
X-39020571Y-50062785D01*
X-39068190Y-50158023D01*
X-39163428Y-50253261D01*
X-39306285Y-50300880D01*
X-39544380Y-50300880D01*
X-37449142Y-49777071D02*
X-37782476Y-49777071D01*
X-37782476Y-50300880D02*
X-37782476Y-49300880D01*
X-37306285Y-49300880D01*
X-36782476Y-50300880D02*
X-36877714Y-50253261D01*
X-36925333Y-50205642D01*
X-36972952Y-50110404D01*
X-36972952Y-49824690D01*
X-36925333Y-49729452D01*
X-36877714Y-49681833D01*
X-36782476Y-49634214D01*
X-36639619Y-49634214D01*
X-36544380Y-49681833D01*
X-36496761Y-49729452D01*
X-36449142Y-49824690D01*
X-36449142Y-50110404D01*
X-36496761Y-50205642D01*
X-36544380Y-50253261D01*
X-36639619Y-50300880D01*
X-36782476Y-50300880D01*
X-35592000Y-50253261D02*
X-35687238Y-50300880D01*
X-35877714Y-50300880D01*
X-35972952Y-50253261D01*
X-36020571Y-50205642D01*
X-36068190Y-50110404D01*
X-36068190Y-49824690D01*
X-36020571Y-49729452D01*
X-35972952Y-49681833D01*
X-35877714Y-49634214D01*
X-35687238Y-49634214D01*
X-35592000Y-49681833D01*
X-34734857Y-49634214D02*
X-34734857Y-50300880D01*
X-35163428Y-49634214D02*
X-35163428Y-50158023D01*
X-35115809Y-50253261D01*
X-35020571Y-50300880D01*
X-34877714Y-50300880D01*
X-34782476Y-50253261D01*
X-34734857Y-50205642D01*
X-34306285Y-50253261D02*
X-34211047Y-50300880D01*
X-34020571Y-50300880D01*
X-33925333Y-50253261D01*
X-33877714Y-50158023D01*
X-33877714Y-50110404D01*
X-33925333Y-50015166D01*
X-34020571Y-49967547D01*
X-34163428Y-49967547D01*
X-34258666Y-49919928D01*
X-34306285Y-49824690D01*
X-34306285Y-49777071D01*
X-34258666Y-49681833D01*
X-34163428Y-49634214D01*
X-34020571Y-49634214D01*
X-33925333Y-49681833D01*
D16*
X-37961047Y-51724690D02*
X-37961047Y-51224690D01*
X-37842000Y-51224690D01*
X-37770571Y-51248500D01*
X-37722952Y-51296119D01*
X-37699142Y-51343738D01*
X-37675333Y-51438976D01*
X-37675333Y-51510404D01*
X-37699142Y-51605642D01*
X-37722952Y-51653261D01*
X-37770571Y-51700880D01*
X-37842000Y-51724690D01*
X-37961047Y-51724690D01*
X-37222952Y-51224690D02*
X-37461047Y-51224690D01*
X-37484857Y-51462785D01*
X-37461047Y-51438976D01*
X-37413428Y-51415166D01*
X-37294380Y-51415166D01*
X-37246761Y-51438976D01*
X-37222952Y-51462785D01*
X-37199142Y-51510404D01*
X-37199142Y-51629452D01*
X-37222952Y-51677071D01*
X-37246761Y-51700880D01*
X-37294380Y-51724690D01*
X-37413428Y-51724690D01*
X-37461047Y-51700880D01*
X-37484857Y-51677071D01*
D13*
X-40060261Y-53335380D02*
X-40536452Y-53335380D01*
X-40536452Y-52335380D01*
X-39726928Y-52811571D02*
X-39393595Y-52811571D01*
X-39250738Y-53335380D02*
X-39726928Y-53335380D01*
X-39726928Y-52335380D01*
X-39250738Y-52335380D01*
X-38822166Y-53335380D02*
X-38822166Y-52335380D01*
X-38584071Y-52335380D01*
X-38441214Y-52383000D01*
X-38345976Y-52478238D01*
X-38298357Y-52573476D01*
X-38250738Y-52763952D01*
X-38250738Y-52906809D01*
X-38298357Y-53097285D01*
X-38345976Y-53192523D01*
X-38441214Y-53287761D01*
X-38584071Y-53335380D01*
X-38822166Y-53335380D01*
X-37203119Y-52335380D02*
X-36631690Y-52335380D01*
X-36917404Y-53335380D02*
X-36917404Y-52335380D01*
X-36298357Y-53335380D02*
X-36298357Y-52668714D01*
X-36298357Y-52859190D02*
X-36250738Y-52763952D01*
X-36203119Y-52716333D01*
X-36107880Y-52668714D01*
X-36012642Y-52668714D01*
X-35679309Y-53335380D02*
X-35679309Y-52668714D01*
X-35679309Y-52335380D02*
X-35726928Y-52383000D01*
X-35679309Y-52430619D01*
X-35631690Y-52383000D01*
X-35679309Y-52335380D01*
X-35679309Y-52430619D01*
X-34774547Y-52668714D02*
X-34774547Y-53478238D01*
X-34822166Y-53573476D01*
X-34869785Y-53621095D01*
X-34965023Y-53668714D01*
X-35107880Y-53668714D01*
X-35203119Y-53621095D01*
X-34774547Y-53287761D02*
X-34869785Y-53335380D01*
X-35060261Y-53335380D01*
X-35155500Y-53287761D01*
X-35203119Y-53240142D01*
X-35250738Y-53144904D01*
X-35250738Y-52859190D01*
X-35203119Y-52763952D01*
X-35155500Y-52716333D01*
X-35060261Y-52668714D01*
X-34869785Y-52668714D01*
X-34774547Y-52716333D01*
D16*
X-38024547Y-54709190D02*
X-38024547Y-54209190D01*
X-37905500Y-54209190D01*
X-37834071Y-54233000D01*
X-37786452Y-54280619D01*
X-37762642Y-54328238D01*
X-37738833Y-54423476D01*
X-37738833Y-54494904D01*
X-37762642Y-54590142D01*
X-37786452Y-54637761D01*
X-37834071Y-54685380D01*
X-37905500Y-54709190D01*
X-38024547Y-54709190D01*
X-37310261Y-54375857D02*
X-37310261Y-54709190D01*
X-37429309Y-54185380D02*
X-37548357Y-54542523D01*
X-37238833Y-54542523D01*
D13*
X-51109261Y-55698380D02*
X-51585452Y-55698380D01*
X-51585452Y-54698380D01*
X-50775928Y-55174571D02*
X-50442595Y-55174571D01*
X-50299738Y-55698380D02*
X-50775928Y-55698380D01*
X-50775928Y-54698380D01*
X-50299738Y-54698380D01*
X-49871166Y-55698380D02*
X-49871166Y-54698380D01*
X-49633071Y-54698380D01*
X-49490214Y-54746000D01*
X-49394976Y-54841238D01*
X-49347357Y-54936476D01*
X-49299738Y-55126952D01*
X-49299738Y-55269809D01*
X-49347357Y-55460285D01*
X-49394976Y-55555523D01*
X-49490214Y-55650761D01*
X-49633071Y-55698380D01*
X-49871166Y-55698380D01*
X-48252119Y-54698380D02*
X-47680690Y-54698380D01*
X-47966404Y-55698380D02*
X-47966404Y-54698380D01*
X-47347357Y-55698380D02*
X-47347357Y-55031714D01*
X-47347357Y-55222190D02*
X-47299738Y-55126952D01*
X-47252119Y-55079333D01*
X-47156880Y-55031714D01*
X-47061642Y-55031714D01*
X-46728309Y-55698380D02*
X-46728309Y-55031714D01*
X-46728309Y-54698380D02*
X-46775928Y-54746000D01*
X-46728309Y-54793619D01*
X-46680690Y-54746000D01*
X-46728309Y-54698380D01*
X-46728309Y-54793619D01*
X-45823547Y-55031714D02*
X-45823547Y-55841238D01*
X-45871166Y-55936476D01*
X-45918785Y-55984095D01*
X-46014023Y-56031714D01*
X-46156880Y-56031714D01*
X-46252119Y-55984095D01*
X-45823547Y-55650761D02*
X-45918785Y-55698380D01*
X-46109261Y-55698380D01*
X-46204500Y-55650761D01*
X-46252119Y-55603142D01*
X-46299738Y-55507904D01*
X-46299738Y-55222190D01*
X-46252119Y-55126952D01*
X-46204500Y-55079333D01*
X-46109261Y-55031714D01*
X-45918785Y-55031714D01*
X-45823547Y-55079333D01*
D16*
X-49073547Y-57122190D02*
X-49073547Y-56622190D01*
X-48954500Y-56622190D01*
X-48883071Y-56646000D01*
X-48835452Y-56693619D01*
X-48811642Y-56741238D01*
X-48787833Y-56836476D01*
X-48787833Y-56907904D01*
X-48811642Y-57003142D01*
X-48835452Y-57050761D01*
X-48883071Y-57098380D01*
X-48954500Y-57122190D01*
X-49073547Y-57122190D01*
X-48311642Y-57122190D02*
X-48597357Y-57122190D01*
X-48454500Y-57122190D02*
X-48454500Y-56622190D01*
X-48502119Y-56693619D01*
X-48549738Y-56741238D01*
X-48597357Y-56765047D01*
D13*
X-72580928Y-94297571D02*
X-72533309Y-94154714D01*
X-72485690Y-94107095D01*
X-72390452Y-94059476D01*
X-72247595Y-94059476D01*
X-72152357Y-94107095D01*
X-72104738Y-94154714D01*
X-72057119Y-94249952D01*
X-72057119Y-94630904D01*
X-73057119Y-94630904D01*
X-73057119Y-94297571D01*
X-73009500Y-94202333D01*
X-72961880Y-94154714D01*
X-72866642Y-94107095D01*
X-72771404Y-94107095D01*
X-72676166Y-94154714D01*
X-72628547Y-94202333D01*
X-72580928Y-94297571D01*
X-72580928Y-94630904D01*
X-72723785Y-93202333D02*
X-72057119Y-93202333D01*
X-72723785Y-93630904D02*
X-72199976Y-93630904D01*
X-72104738Y-93583285D01*
X-72057119Y-93488047D01*
X-72057119Y-93345190D01*
X-72104738Y-93249952D01*
X-72152357Y-93202333D01*
X-72723785Y-92821380D02*
X-72723785Y-92297571D01*
X-72057119Y-92821380D01*
X-72057119Y-92297571D01*
X-72723785Y-92011857D02*
X-72723785Y-91488047D01*
X-72057119Y-92011857D01*
X-72057119Y-91488047D01*
X-72104738Y-90726142D02*
X-72057119Y-90821380D01*
X-72057119Y-91011857D01*
X-72104738Y-91107095D01*
X-72199976Y-91154714D01*
X-72580928Y-91154714D01*
X-72676166Y-91107095D01*
X-72723785Y-91011857D01*
X-72723785Y-90821380D01*
X-72676166Y-90726142D01*
X-72580928Y-90678523D01*
X-72485690Y-90678523D01*
X-72390452Y-91154714D01*
X-72057119Y-90249952D02*
X-72723785Y-90249952D01*
X-72533309Y-90249952D02*
X-72628547Y-90202333D01*
X-72676166Y-90154714D01*
X-72723785Y-90059476D01*
X-72723785Y-89964238D01*
X-82320928Y-93249952D02*
X-82273309Y-93107095D01*
X-82225690Y-93059476D01*
X-82130452Y-93011857D01*
X-81987595Y-93011857D01*
X-81892357Y-93059476D01*
X-81844738Y-93107095D01*
X-81797119Y-93202333D01*
X-81797119Y-93583285D01*
X-82797119Y-93583285D01*
X-82797119Y-93249952D01*
X-82749500Y-93154714D01*
X-82701880Y-93107095D01*
X-82606642Y-93059476D01*
X-82511404Y-93059476D01*
X-82416166Y-93107095D01*
X-82368547Y-93154714D01*
X-82320928Y-93249952D01*
X-82320928Y-93583285D01*
X-82797119Y-92678523D02*
X-82797119Y-92011857D01*
X-81797119Y-92678523D01*
X-81797119Y-92011857D01*
X-81797119Y-91107095D02*
X-81797119Y-91678523D01*
X-81797119Y-91392809D02*
X-82797119Y-91392809D01*
X-82654261Y-91488047D01*
X-82559023Y-91583285D01*
X-82511404Y-91678523D01*
X-38715119Y-79660285D02*
X-38715119Y-79088857D01*
X-37715119Y-79374571D02*
X-38715119Y-79374571D01*
X-37715119Y-78279333D02*
X-37715119Y-78755523D01*
X-38715119Y-78755523D01*
X-37715119Y-77946000D02*
X-38715119Y-77946000D01*
X-38715119Y-77565047D01*
X-38667500Y-77469809D01*
X-38619880Y-77422190D01*
X-38524642Y-77374571D01*
X-38381785Y-77374571D01*
X-38286547Y-77422190D01*
X-38238928Y-77469809D01*
X-38191309Y-77565047D01*
X-38191309Y-77946000D01*
X-38619880Y-76993619D02*
X-38667500Y-76946000D01*
X-38715119Y-76850761D01*
X-38715119Y-76612666D01*
X-38667500Y-76517428D01*
X-38619880Y-76469809D01*
X-38524642Y-76422190D01*
X-38429404Y-76422190D01*
X-38286547Y-76469809D01*
X-37715119Y-77041238D01*
X-37715119Y-76422190D01*
X-37715119Y-75946000D02*
X-37715119Y-75755523D01*
X-37762738Y-75660285D01*
X-37810357Y-75612666D01*
X-37953214Y-75517428D01*
X-38143690Y-75469809D01*
X-38524642Y-75469809D01*
X-38619880Y-75517428D01*
X-38667500Y-75565047D01*
X-38715119Y-75660285D01*
X-38715119Y-75850761D01*
X-38667500Y-75946000D01*
X-38619880Y-75993619D01*
X-38524642Y-76041238D01*
X-38286547Y-76041238D01*
X-38191309Y-75993619D01*
X-38143690Y-75946000D01*
X-38096071Y-75850761D01*
X-38096071Y-75660285D01*
X-38143690Y-75565047D01*
X-38191309Y-75517428D01*
X-38286547Y-75469809D01*
X-37715119Y-74517428D02*
X-37715119Y-75088857D01*
X-37715119Y-74803142D02*
X-38715119Y-74803142D01*
X-38572261Y-74898380D01*
X-38477023Y-74993619D01*
X-38429404Y-75088857D01*
X-38096071Y-74088857D02*
X-38096071Y-73326952D01*
X-38381785Y-72422190D02*
X-37715119Y-72422190D01*
X-38762738Y-72660285D02*
X-38048452Y-72898380D01*
X-38048452Y-72279333D01*
X-32615119Y-76707904D02*
X-31805595Y-76707904D01*
X-31710357Y-76660285D01*
X-31662738Y-76612666D01*
X-31615119Y-76517428D01*
X-31615119Y-76326952D01*
X-31662738Y-76231714D01*
X-31710357Y-76184095D01*
X-31805595Y-76136476D01*
X-32615119Y-76136476D01*
X-32519880Y-75707904D02*
X-32567500Y-75660285D01*
X-32615119Y-75565047D01*
X-32615119Y-75326952D01*
X-32567500Y-75231714D01*
X-32519880Y-75184095D01*
X-32424642Y-75136476D01*
X-32329404Y-75136476D01*
X-32186547Y-75184095D01*
X-31615119Y-75755523D01*
X-31615119Y-75136476D01*
X-86042333Y-74326428D02*
X-85280428Y-74326428D01*
X-85661380Y-74707380D02*
X-85661380Y-73945476D01*
X-84280428Y-74707380D02*
X-84851857Y-74707380D01*
X-84566142Y-74707380D02*
X-84566142Y-73707380D01*
X-84661380Y-73850238D01*
X-84756619Y-73945476D01*
X-84851857Y-73993095D01*
X-83899476Y-73802619D02*
X-83851857Y-73755000D01*
X-83756619Y-73707380D01*
X-83518523Y-73707380D01*
X-83423285Y-73755000D01*
X-83375666Y-73802619D01*
X-83328047Y-73897857D01*
X-83328047Y-73993095D01*
X-83375666Y-74135952D01*
X-83947095Y-74707380D01*
X-83328047Y-74707380D01*
X-87304238Y-68707380D02*
X-86732809Y-68707380D01*
X-87018523Y-69707380D02*
X-87018523Y-68707380D01*
X-86399476Y-69707380D02*
X-86399476Y-68707380D01*
X-86018523Y-68707380D01*
X-85923285Y-68755000D01*
X-85875666Y-68802619D01*
X-85828047Y-68897857D01*
X-85828047Y-69040714D01*
X-85875666Y-69135952D01*
X-85923285Y-69183571D01*
X-86018523Y-69231190D01*
X-86399476Y-69231190D01*
X-84970904Y-69040714D02*
X-84970904Y-69707380D01*
X-85209000Y-68659761D02*
X-85447095Y-69374047D01*
X-84828047Y-69374047D01*
X-84685190Y-69802619D02*
X-83923285Y-69802619D01*
X-83161380Y-69707380D02*
X-83732809Y-69707380D01*
X-83447095Y-69707380D02*
X-83447095Y-68707380D01*
X-83542333Y-68850238D01*
X-83637571Y-68945476D01*
X-83732809Y-68993095D01*
X-82780428Y-68802619D02*
X-82732809Y-68755000D01*
X-82637571Y-68707380D01*
X-82399476Y-68707380D01*
X-82304238Y-68755000D01*
X-82256619Y-68802619D01*
X-82209000Y-68897857D01*
X-82209000Y-68993095D01*
X-82256619Y-69135952D01*
X-82828047Y-69707380D01*
X-82209000Y-69707380D01*
X-87836214Y-87661428D02*
X-87074309Y-87661428D01*
X-87455261Y-88042380D02*
X-87455261Y-87280476D01*
X-86121928Y-87042380D02*
X-86598119Y-87042380D01*
X-86645738Y-87518571D01*
X-86598119Y-87470952D01*
X-86502880Y-87423333D01*
X-86264785Y-87423333D01*
X-86169547Y-87470952D01*
X-86121928Y-87518571D01*
X-86074309Y-87613809D01*
X-86074309Y-87851904D01*
X-86121928Y-87947142D01*
X-86169547Y-87994761D01*
X-86264785Y-88042380D01*
X-86502880Y-88042380D01*
X-86598119Y-87994761D01*
X-86645738Y-87947142D01*
X-85788595Y-87042380D02*
X-85455261Y-88042380D01*
X-85121928Y-87042380D01*
X-87209047Y-83589880D02*
X-86637619Y-83589880D01*
X-86923333Y-84589880D02*
X-86923333Y-83589880D01*
X-86304285Y-84589880D02*
X-86304285Y-83589880D01*
X-85923333Y-83589880D01*
X-85828095Y-83637500D01*
X-85780476Y-83685119D01*
X-85732857Y-83780357D01*
X-85732857Y-83923214D01*
X-85780476Y-84018452D01*
X-85828095Y-84066071D01*
X-85923333Y-84113690D01*
X-86304285Y-84113690D01*
X-85351904Y-83685119D02*
X-85304285Y-83637500D01*
X-85209047Y-83589880D01*
X-84970952Y-83589880D01*
X-84875714Y-83637500D01*
X-84828095Y-83685119D01*
X-84780476Y-83780357D01*
X-84780476Y-83875595D01*
X-84828095Y-84018452D01*
X-85399523Y-84589880D01*
X-84780476Y-84589880D01*
X-84590000Y-84685119D02*
X-83828095Y-84685119D01*
X-83113809Y-83589880D02*
X-83590000Y-83589880D01*
X-83637619Y-84066071D01*
X-83590000Y-84018452D01*
X-83494761Y-83970833D01*
X-83256666Y-83970833D01*
X-83161428Y-84018452D01*
X-83113809Y-84066071D01*
X-83066190Y-84161309D01*
X-83066190Y-84399404D01*
X-83113809Y-84494642D01*
X-83161428Y-84542261D01*
X-83256666Y-84589880D01*
X-83494761Y-84589880D01*
X-83590000Y-84542261D01*
X-83637619Y-84494642D01*
X-81160880Y-85440380D02*
X-81732309Y-85440380D01*
X-81446595Y-85440380D02*
X-81446595Y-84440380D01*
X-81541833Y-84583238D01*
X-81637071Y-84678476D01*
X-81732309Y-84726095D01*
X-80303738Y-84773714D02*
X-80303738Y-85440380D01*
X-80732309Y-84773714D02*
X-80732309Y-85297523D01*
X-80684690Y-85392761D01*
X-80589452Y-85440380D01*
X-80446595Y-85440380D01*
X-80351357Y-85392761D01*
X-80303738Y-85345142D01*
X-79970404Y-84773714D02*
X-79589452Y-84773714D01*
X-79827547Y-85440380D02*
X-79827547Y-84583238D01*
X-79779928Y-84488000D01*
X-79684690Y-84440380D01*
X-79589452Y-84440380D01*
D17*
X-80841833Y-82073714D02*
X-80879928Y-82111809D01*
X-80994214Y-82149904D01*
X-81070404Y-82149904D01*
X-81184690Y-82111809D01*
X-81260880Y-82035619D01*
X-81298976Y-81959428D01*
X-81337071Y-81807047D01*
X-81337071Y-81692761D01*
X-81298976Y-81540380D01*
X-81260880Y-81464190D01*
X-81184690Y-81388000D01*
X-81070404Y-81349904D01*
X-80994214Y-81349904D01*
X-80879928Y-81388000D01*
X-80841833Y-81426095D01*
X-80079928Y-82149904D02*
X-80537071Y-82149904D01*
X-80308500Y-82149904D02*
X-80308500Y-81349904D01*
X-80384690Y-81464190D01*
X-80460880Y-81540380D01*
X-80537071Y-81578476D01*
D13*
X-8135857Y-87257000D02*
X-8231095Y-87209380D01*
X-8373952Y-87209380D01*
X-8516809Y-87257000D01*
X-8612047Y-87352238D01*
X-8659666Y-87447476D01*
X-8707285Y-87637952D01*
X-8707285Y-87780809D01*
X-8659666Y-87971285D01*
X-8612047Y-88066523D01*
X-8516809Y-88161761D01*
X-8373952Y-88209380D01*
X-8278714Y-88209380D01*
X-8135857Y-88161761D01*
X-8088238Y-88114142D01*
X-8088238Y-87780809D01*
X-8278714Y-87780809D01*
X-7659666Y-87542714D02*
X-7659666Y-88209380D01*
X-7659666Y-87637952D02*
X-7612047Y-87590333D01*
X-7516809Y-87542714D01*
X-7373952Y-87542714D01*
X-7278714Y-87590333D01*
X-7231095Y-87685571D01*
X-7231095Y-88209380D01*
X-6326333Y-88209380D02*
X-6326333Y-87209380D01*
X-6326333Y-88161761D02*
X-6421571Y-88209380D01*
X-6612047Y-88209380D01*
X-6707285Y-88161761D01*
X-6754904Y-88114142D01*
X-6802523Y-88018904D01*
X-6802523Y-87733190D01*
X-6754904Y-87637952D01*
X-6707285Y-87590333D01*
X-6612047Y-87542714D01*
X-6421571Y-87542714D01*
X-6326333Y-87590333D01*
X-12247404Y-85280880D02*
X-11675976Y-85280880D01*
X-11961690Y-86280880D02*
X-11961690Y-85280880D01*
X-11342642Y-86280880D02*
X-11342642Y-85280880D01*
X-10961690Y-85280880D01*
X-10866452Y-85328500D01*
X-10818833Y-85376119D01*
X-10771214Y-85471357D01*
X-10771214Y-85614214D01*
X-10818833Y-85709452D01*
X-10866452Y-85757071D01*
X-10961690Y-85804690D01*
X-11342642Y-85804690D01*
X-9866452Y-85280880D02*
X-10342642Y-85280880D01*
X-10390261Y-85757071D01*
X-10342642Y-85709452D01*
X-10247404Y-85661833D01*
X-10009309Y-85661833D01*
X-9914071Y-85709452D01*
X-9866452Y-85757071D01*
X-9818833Y-85852309D01*
X-9818833Y-86090404D01*
X-9866452Y-86185642D01*
X-9914071Y-86233261D01*
X-10009309Y-86280880D01*
X-10247404Y-86280880D01*
X-10342642Y-86233261D01*
X-10390261Y-86185642D01*
X-57229214Y-26633928D02*
X-56467309Y-26633928D01*
X-56848261Y-27014880D02*
X-56848261Y-26252976D01*
X-55514928Y-26014880D02*
X-55991119Y-26014880D01*
X-56038738Y-26491071D01*
X-55991119Y-26443452D01*
X-55895880Y-26395833D01*
X-55657785Y-26395833D01*
X-55562547Y-26443452D01*
X-55514928Y-26491071D01*
X-55467309Y-26586309D01*
X-55467309Y-26824404D01*
X-55514928Y-26919642D01*
X-55562547Y-26967261D01*
X-55657785Y-27014880D01*
X-55895880Y-27014880D01*
X-55991119Y-26967261D01*
X-56038738Y-26919642D01*
X-55181595Y-26014880D02*
X-54848261Y-27014880D01*
X-54514928Y-26014880D01*
D18*
X-57357785Y-23483928D02*
X-57014928Y-23483928D01*
X-57186357Y-24083928D02*
X-57186357Y-23483928D01*
X-56814928Y-24083928D02*
X-56814928Y-23483928D01*
X-56586357Y-23483928D01*
X-56529214Y-23512500D01*
X-56500642Y-23541071D01*
X-56472071Y-23598214D01*
X-56472071Y-23683928D01*
X-56500642Y-23741071D01*
X-56529214Y-23769642D01*
X-56586357Y-23798214D01*
X-56814928Y-23798214D01*
X-55900642Y-24083928D02*
X-56243500Y-24083928D01*
X-56072071Y-24083928D02*
X-56072071Y-23483928D01*
X-56129214Y-23569642D01*
X-56186357Y-23626785D01*
X-56243500Y-23655357D01*
X-55643500Y-23855357D02*
X-55186357Y-23855357D01*
X-55414928Y-24083928D02*
X-55414928Y-23626785D01*
X-54586357Y-24083928D02*
X-54929214Y-24083928D01*
X-54757785Y-24083928D02*
X-54757785Y-23483928D01*
X-54814928Y-23569642D01*
X-54872071Y-23626785D01*
X-54929214Y-23655357D01*
D13*
X-94805404Y-17557500D02*
X-94900642Y-17509880D01*
X-95043500Y-17509880D01*
X-95186357Y-17557500D01*
X-95281595Y-17652738D01*
X-95329214Y-17747976D01*
X-95376833Y-17938452D01*
X-95376833Y-18081309D01*
X-95329214Y-18271785D01*
X-95281595Y-18367023D01*
X-95186357Y-18462261D01*
X-95043500Y-18509880D01*
X-94948261Y-18509880D01*
X-94805404Y-18462261D01*
X-94757785Y-18414642D01*
X-94757785Y-18081309D01*
X-94948261Y-18081309D01*
X-94329214Y-18509880D02*
X-94329214Y-17509880D01*
X-93757785Y-18509880D01*
X-93757785Y-17509880D01*
X-93281595Y-18509880D02*
X-93281595Y-17509880D01*
X-93043500Y-17509880D01*
X-92900642Y-17557500D01*
X-92805404Y-17652738D01*
X-92757785Y-17747976D01*
X-92710166Y-17938452D01*
X-92710166Y-18081309D01*
X-92757785Y-18271785D01*
X-92805404Y-18367023D01*
X-92900642Y-18462261D01*
X-93043500Y-18509880D01*
X-93281595Y-18509880D01*
X-97686357Y-12509880D02*
X-97114928Y-12509880D01*
X-97400642Y-13509880D02*
X-97400642Y-12509880D01*
X-96781595Y-13509880D02*
X-96781595Y-12509880D01*
X-96400642Y-12509880D01*
X-96305404Y-12557500D01*
X-96257785Y-12605119D01*
X-96210166Y-12700357D01*
X-96210166Y-12843214D01*
X-96257785Y-12938452D01*
X-96305404Y-12986071D01*
X-96400642Y-13033690D01*
X-96781595Y-13033690D01*
X-95257785Y-13509880D02*
X-95829214Y-13509880D01*
X-95543500Y-13509880D02*
X-95543500Y-12509880D01*
X-95638738Y-12652738D01*
X-95733976Y-12747976D01*
X-95829214Y-12795595D01*
X-95067309Y-13605119D02*
X-94305404Y-13605119D01*
X-93543500Y-12557500D02*
X-93638738Y-12509880D01*
X-93781595Y-12509880D01*
X-93924452Y-12557500D01*
X-94019690Y-12652738D01*
X-94067309Y-12747976D01*
X-94114928Y-12938452D01*
X-94114928Y-13081309D01*
X-94067309Y-13271785D01*
X-94019690Y-13367023D01*
X-93924452Y-13462261D01*
X-93781595Y-13509880D01*
X-93686357Y-13509880D01*
X-93543500Y-13462261D01*
X-93495880Y-13414642D01*
X-93495880Y-13081309D01*
X-93686357Y-13081309D01*
X-93067309Y-13509880D02*
X-93067309Y-12509880D01*
X-92495880Y-13509880D01*
X-92495880Y-12509880D01*
X-92019690Y-13509880D02*
X-92019690Y-12509880D01*
X-91781595Y-12509880D01*
X-91638738Y-12557500D01*
X-91543500Y-12652738D01*
X-91495880Y-12747976D01*
X-91448261Y-12938452D01*
X-91448261Y-13081309D01*
X-91495880Y-13271785D01*
X-91543500Y-13367023D01*
X-91638738Y-13462261D01*
X-91781595Y-13509880D01*
X-92019690Y-13509880D01*
X-90495880Y-13509880D02*
X-91067309Y-13509880D01*
X-90781595Y-13509880D02*
X-90781595Y-12509880D01*
X-90876833Y-12652738D01*
X-90972071Y-12747976D01*
X-91067309Y-12795595D01*
X-93336642Y-53364261D02*
X-93193785Y-53411880D01*
X-92955690Y-53411880D01*
X-92860452Y-53364261D01*
X-92812833Y-53316642D01*
X-92765214Y-53221404D01*
X-92765214Y-53126166D01*
X-92812833Y-53030928D01*
X-92860452Y-52983309D01*
X-92955690Y-52935690D01*
X-93146166Y-52888071D01*
X-93241404Y-52840452D01*
X-93289023Y-52792833D01*
X-93336642Y-52697595D01*
X-93336642Y-52602357D01*
X-93289023Y-52507119D01*
X-93241404Y-52459500D01*
X-93146166Y-52411880D01*
X-92908071Y-52411880D01*
X-92765214Y-52459500D01*
X-92431880Y-52411880D02*
X-92193785Y-53411880D01*
X-92003309Y-52697595D01*
X-91812833Y-53411880D01*
X-91574738Y-52411880D01*
X-93289023Y-56411880D02*
X-93289023Y-57126166D01*
X-93336642Y-57269023D01*
X-93431880Y-57364261D01*
X-93574738Y-57411880D01*
X-93669976Y-57411880D01*
X-92289023Y-57411880D02*
X-92860452Y-57411880D01*
X-92574738Y-57411880D02*
X-92574738Y-56411880D01*
X-92669976Y-56554738D01*
X-92765214Y-56649976D01*
X-92860452Y-56697595D01*
X-91669976Y-56411880D02*
X-91574738Y-56411880D01*
X-91479500Y-56459500D01*
X-91431880Y-56507119D01*
X-91384261Y-56602357D01*
X-91336642Y-56792833D01*
X-91336642Y-57030928D01*
X-91384261Y-57221404D01*
X-91431880Y-57316642D01*
X-91479500Y-57364261D01*
X-91574738Y-57411880D01*
X-91669976Y-57411880D01*
X-91765214Y-57364261D01*
X-91812833Y-57316642D01*
X-91860452Y-57221404D01*
X-91908071Y-57030928D01*
X-91908071Y-56792833D01*
X-91860452Y-56602357D01*
X-91812833Y-56507119D01*
X-91765214Y-56459500D01*
X-91669976Y-56411880D01*
X-22105309Y-99977142D02*
X-22152928Y-100024761D01*
X-22295785Y-100072380D01*
X-22391023Y-100072380D01*
X-22533880Y-100024761D01*
X-22629119Y-99929523D01*
X-22676738Y-99834285D01*
X-22724357Y-99643809D01*
X-22724357Y-99500952D01*
X-22676738Y-99310476D01*
X-22629119Y-99215238D01*
X-22533880Y-99120000D01*
X-22391023Y-99072380D01*
X-22295785Y-99072380D01*
X-22152928Y-99120000D01*
X-22105309Y-99167619D01*
X-21248166Y-100072380D02*
X-21248166Y-99548571D01*
X-21295785Y-99453333D01*
X-21391023Y-99405714D01*
X-21581500Y-99405714D01*
X-21676738Y-99453333D01*
X-21248166Y-100024761D02*
X-21343404Y-100072380D01*
X-21581500Y-100072380D01*
X-21676738Y-100024761D01*
X-21724357Y-99929523D01*
X-21724357Y-99834285D01*
X-21676738Y-99739047D01*
X-21581500Y-99691428D01*
X-21343404Y-99691428D01*
X-21248166Y-99643809D01*
X-20771976Y-100072380D02*
X-20771976Y-99405714D01*
X-20771976Y-99500952D02*
X-20724357Y-99453333D01*
X-20629119Y-99405714D01*
X-20486261Y-99405714D01*
X-20391023Y-99453333D01*
X-20343404Y-99548571D01*
X-20343404Y-100072380D01*
X-20343404Y-99548571D02*
X-20295785Y-99453333D01*
X-20200547Y-99405714D01*
X-20057690Y-99405714D01*
X-19962452Y-99453333D01*
X-19914833Y-99548571D01*
X-19914833Y-100072380D01*
X-19057690Y-100024761D02*
X-19152928Y-100072380D01*
X-19343404Y-100072380D01*
X-19438642Y-100024761D01*
X-19486261Y-99929523D01*
X-19486261Y-99548571D01*
X-19438642Y-99453333D01*
X-19343404Y-99405714D01*
X-19152928Y-99405714D01*
X-19057690Y-99453333D01*
X-19010071Y-99548571D01*
X-19010071Y-99643809D01*
X-19486261Y-99739047D01*
X-18581500Y-100072380D02*
X-18581500Y-99405714D01*
X-18581500Y-99596190D02*
X-18533880Y-99500952D01*
X-18486261Y-99453333D01*
X-18391023Y-99405714D01*
X-18295785Y-99405714D01*
X-17533880Y-100072380D02*
X-17533880Y-99548571D01*
X-17581500Y-99453333D01*
X-17676738Y-99405714D01*
X-17867214Y-99405714D01*
X-17962452Y-99453333D01*
X-17533880Y-100024761D02*
X-17629119Y-100072380D01*
X-17867214Y-100072380D01*
X-17962452Y-100024761D01*
X-18010071Y-99929523D01*
X-18010071Y-99834285D01*
X-17962452Y-99739047D01*
X-17867214Y-99691428D01*
X-17629119Y-99691428D01*
X-17533880Y-99643809D01*
X-15771976Y-100072380D02*
X-16343404Y-100072380D01*
X-16057690Y-100072380D02*
X-16057690Y-99072380D01*
X-16152928Y-99215238D01*
X-16248166Y-99310476D01*
X-16343404Y-99358095D01*
X-14724357Y-99072380D02*
X-14152928Y-99072380D01*
X-14438642Y-100072380D02*
X-14438642Y-99072380D01*
X-13438642Y-100024761D02*
X-13533880Y-100072380D01*
X-13724357Y-100072380D01*
X-13819595Y-100024761D01*
X-13867214Y-99929523D01*
X-13867214Y-99548571D01*
X-13819595Y-99453333D01*
X-13724357Y-99405714D01*
X-13533880Y-99405714D01*
X-13438642Y-99453333D01*
X-13391023Y-99548571D01*
X-13391023Y-99643809D01*
X-13867214Y-99739047D01*
X-12962452Y-100072380D02*
X-12962452Y-99405714D01*
X-12962452Y-99596190D02*
X-12914833Y-99500952D01*
X-12867214Y-99453333D01*
X-12771976Y-99405714D01*
X-12676738Y-99405714D01*
X-12343404Y-100072380D02*
X-12343404Y-99405714D01*
X-12343404Y-99500952D02*
X-12295785Y-99453333D01*
X-12200547Y-99405714D01*
X-12057690Y-99405714D01*
X-11962452Y-99453333D01*
X-11914833Y-99548571D01*
X-11914833Y-100072380D01*
X-11914833Y-99548571D02*
X-11867214Y-99453333D01*
X-11771976Y-99405714D01*
X-11629119Y-99405714D01*
X-11533880Y-99453333D01*
X-11486261Y-99548571D01*
X-11486261Y-100072380D01*
X-17414833Y-96702380D02*
X-17414833Y-97416666D01*
X-17462452Y-97559523D01*
X-17557690Y-97654761D01*
X-17700547Y-97702380D01*
X-17795785Y-97702380D01*
X-16510071Y-97035714D02*
X-16510071Y-97702380D01*
X-16748166Y-96654761D02*
X-16986261Y-97369047D01*
X-16367214Y-97369047D01*
X-56344357Y-83081142D02*
X-56391976Y-83128761D01*
X-56534833Y-83176380D01*
X-56630071Y-83176380D01*
X-56772928Y-83128761D01*
X-56868166Y-83033523D01*
X-56915785Y-82938285D01*
X-56963404Y-82747809D01*
X-56963404Y-82604952D01*
X-56915785Y-82414476D01*
X-56868166Y-82319238D01*
X-56772928Y-82224000D01*
X-56630071Y-82176380D01*
X-56534833Y-82176380D01*
X-56391976Y-82224000D01*
X-56344357Y-82271619D01*
X-55487214Y-83176380D02*
X-55487214Y-82652571D01*
X-55534833Y-82557333D01*
X-55630071Y-82509714D01*
X-55820547Y-82509714D01*
X-55915785Y-82557333D01*
X-55487214Y-83128761D02*
X-55582452Y-83176380D01*
X-55820547Y-83176380D01*
X-55915785Y-83128761D01*
X-55963404Y-83033523D01*
X-55963404Y-82938285D01*
X-55915785Y-82843047D01*
X-55820547Y-82795428D01*
X-55582452Y-82795428D01*
X-55487214Y-82747809D01*
X-55011023Y-83176380D02*
X-55011023Y-82509714D01*
X-55011023Y-82604952D02*
X-54963404Y-82557333D01*
X-54868166Y-82509714D01*
X-54725309Y-82509714D01*
X-54630071Y-82557333D01*
X-54582452Y-82652571D01*
X-54582452Y-83176380D01*
X-54582452Y-82652571D02*
X-54534833Y-82557333D01*
X-54439595Y-82509714D01*
X-54296738Y-82509714D01*
X-54201500Y-82557333D01*
X-54153880Y-82652571D01*
X-54153880Y-83176380D01*
X-53296738Y-83128761D02*
X-53391976Y-83176380D01*
X-53582452Y-83176380D01*
X-53677690Y-83128761D01*
X-53725309Y-83033523D01*
X-53725309Y-82652571D01*
X-53677690Y-82557333D01*
X-53582452Y-82509714D01*
X-53391976Y-82509714D01*
X-53296738Y-82557333D01*
X-53249119Y-82652571D01*
X-53249119Y-82747809D01*
X-53725309Y-82843047D01*
X-52820547Y-83176380D02*
X-52820547Y-82509714D01*
X-52820547Y-82700190D02*
X-52772928Y-82604952D01*
X-52725309Y-82557333D01*
X-52630071Y-82509714D01*
X-52534833Y-82509714D01*
X-51772928Y-83176380D02*
X-51772928Y-82652571D01*
X-51820547Y-82557333D01*
X-51915785Y-82509714D01*
X-52106261Y-82509714D01*
X-52201500Y-82557333D01*
X-51772928Y-83128761D02*
X-51868166Y-83176380D01*
X-52106261Y-83176380D01*
X-52201500Y-83128761D01*
X-52249119Y-83033523D01*
X-52249119Y-82938285D01*
X-52201500Y-82843047D01*
X-52106261Y-82795428D01*
X-51868166Y-82795428D01*
X-51772928Y-82747809D01*
X-50011023Y-83176380D02*
X-50582452Y-83176380D01*
X-50296738Y-83176380D02*
X-50296738Y-82176380D01*
X-50391976Y-82319238D01*
X-50487214Y-82414476D01*
X-50582452Y-82462095D01*
X-48153880Y-82176380D02*
X-47534833Y-82176380D01*
X-47868166Y-82557333D01*
X-47725309Y-82557333D01*
X-47630071Y-82604952D01*
X-47582452Y-82652571D01*
X-47534833Y-82747809D01*
X-47534833Y-82985904D01*
X-47582452Y-83081142D01*
X-47630071Y-83128761D01*
X-47725309Y-83176380D01*
X-48011023Y-83176380D01*
X-48106261Y-83128761D01*
X-48153880Y-83081142D01*
X-47106261Y-83081142D02*
X-47058642Y-83128761D01*
X-47106261Y-83176380D01*
X-47153880Y-83128761D01*
X-47106261Y-83081142D01*
X-47106261Y-83176380D01*
X-46153880Y-82176380D02*
X-46630071Y-82176380D01*
X-46677690Y-82652571D01*
X-46630071Y-82604952D01*
X-46534833Y-82557333D01*
X-46296738Y-82557333D01*
X-46201500Y-82604952D01*
X-46153880Y-82652571D01*
X-46106261Y-82747809D01*
X-46106261Y-82985904D01*
X-46153880Y-83081142D01*
X-46201500Y-83128761D01*
X-46296738Y-83176380D01*
X-46534833Y-83176380D01*
X-46630071Y-83128761D01*
X-46677690Y-83081142D01*
X-45677690Y-83176380D02*
X-45677690Y-82509714D01*
X-45677690Y-82604952D02*
X-45630071Y-82557333D01*
X-45534833Y-82509714D01*
X-45391976Y-82509714D01*
X-45296738Y-82557333D01*
X-45249119Y-82652571D01*
X-45249119Y-83176380D01*
X-45249119Y-82652571D02*
X-45201500Y-82557333D01*
X-45106261Y-82509714D01*
X-44963404Y-82509714D01*
X-44868166Y-82557333D01*
X-44820547Y-82652571D01*
X-44820547Y-83176380D01*
X-44344357Y-83176380D02*
X-44344357Y-82509714D01*
X-44344357Y-82604952D02*
X-44296738Y-82557333D01*
X-44201500Y-82509714D01*
X-44058642Y-82509714D01*
X-43963404Y-82557333D01*
X-43915785Y-82652571D01*
X-43915785Y-83176380D01*
X-43915785Y-82652571D02*
X-43868166Y-82557333D01*
X-43772928Y-82509714D01*
X-43630071Y-82509714D01*
X-43534833Y-82557333D01*
X-43487214Y-82652571D01*
X-43487214Y-83176380D01*
X-50534833Y-92426380D02*
X-50534833Y-93140666D01*
X-50582452Y-93283523D01*
X-50677690Y-93378761D01*
X-50820547Y-93426380D01*
X-50915785Y-93426380D01*
X-50106261Y-92521619D02*
X-50058642Y-92474000D01*
X-49963404Y-92426380D01*
X-49725309Y-92426380D01*
X-49630071Y-92474000D01*
X-49582452Y-92521619D01*
X-49534833Y-92616857D01*
X-49534833Y-92712095D01*
X-49582452Y-92854952D01*
X-50153880Y-93426380D01*
X-49534833Y-93426380D01*
D19*
X-7709476Y-54144333D02*
X-6802333Y-54144333D01*
X-6620904Y-54204809D01*
X-6499952Y-54325761D01*
X-6439476Y-54507190D01*
X-6439476Y-54628142D01*
X-7165190Y-53358142D02*
X-7225666Y-53479095D01*
X-7286142Y-53539571D01*
X-7407095Y-53600047D01*
X-7467571Y-53600047D01*
X-7588523Y-53539571D01*
X-7649000Y-53479095D01*
X-7709476Y-53358142D01*
X-7709476Y-53116238D01*
X-7649000Y-52995285D01*
X-7588523Y-52934809D01*
X-7467571Y-52874333D01*
X-7407095Y-52874333D01*
X-7286142Y-52934809D01*
X-7225666Y-52995285D01*
X-7165190Y-53116238D01*
X-7165190Y-53358142D01*
X-7104714Y-53479095D01*
X-7044238Y-53539571D01*
X-6923285Y-53600047D01*
X-6681380Y-53600047D01*
X-6560428Y-53539571D01*
X-6499952Y-53479095D01*
X-6439476Y-53358142D01*
X-6439476Y-53116238D01*
X-6499952Y-52995285D01*
X-6560428Y-52934809D01*
X-6681380Y-52874333D01*
X-6923285Y-52874333D01*
X-7044238Y-52934809D01*
X-7104714Y-52995285D01*
X-7165190Y-53116238D01*
X-32109833Y-6445523D02*
X-32109833Y-7352666D01*
X-32170309Y-7534095D01*
X-32291261Y-7655047D01*
X-32472690Y-7715523D01*
X-32593642Y-7715523D01*
X-31626023Y-6445523D02*
X-30779357Y-6445523D01*
X-31323642Y-7715523D01*
D13*
X-52537476Y-38482880D02*
X-52537476Y-37482880D01*
X-52204142Y-38197166D01*
X-51870809Y-37482880D01*
X-51870809Y-38482880D01*
X-50823190Y-38387642D02*
X-50870809Y-38435261D01*
X-51013666Y-38482880D01*
X-51108904Y-38482880D01*
X-51251761Y-38435261D01*
X-51347000Y-38340023D01*
X-51394619Y-38244785D01*
X-51442238Y-38054309D01*
X-51442238Y-37911452D01*
X-51394619Y-37720976D01*
X-51347000Y-37625738D01*
X-51251761Y-37530500D01*
X-51108904Y-37482880D01*
X-51013666Y-37482880D01*
X-50870809Y-37530500D01*
X-50823190Y-37578119D01*
X-50394619Y-38482880D02*
X-50394619Y-37482880D01*
X-50013666Y-37482880D01*
X-49918428Y-37530500D01*
X-49870809Y-37578119D01*
X-49823190Y-37673357D01*
X-49823190Y-37816214D01*
X-49870809Y-37911452D01*
X-49918428Y-37959071D01*
X-50013666Y-38006690D01*
X-50394619Y-38006690D01*
X-49442238Y-37578119D02*
X-49394619Y-37530500D01*
X-49299380Y-37482880D01*
X-49061285Y-37482880D01*
X-48966047Y-37530500D01*
X-48918428Y-37578119D01*
X-48870809Y-37673357D01*
X-48870809Y-37768595D01*
X-48918428Y-37911452D01*
X-49489857Y-38482880D01*
X-48870809Y-38482880D01*
X-48537476Y-37482880D02*
X-47918428Y-37482880D01*
X-48251761Y-37863833D01*
X-48108904Y-37863833D01*
X-48013666Y-37911452D01*
X-47966047Y-37959071D01*
X-47918428Y-38054309D01*
X-47918428Y-38292404D01*
X-47966047Y-38387642D01*
X-48013666Y-38435261D01*
X-48108904Y-38482880D01*
X-48394619Y-38482880D01*
X-48489857Y-38435261D01*
X-48537476Y-38387642D01*
X-47299380Y-37482880D02*
X-47204142Y-37482880D01*
X-47108904Y-37530500D01*
X-47061285Y-37578119D01*
X-47013666Y-37673357D01*
X-46966047Y-37863833D01*
X-46966047Y-38101928D01*
X-47013666Y-38292404D01*
X-47061285Y-38387642D01*
X-47108904Y-38435261D01*
X-47204142Y-38482880D01*
X-47299380Y-38482880D01*
X-47394619Y-38435261D01*
X-47442238Y-38387642D01*
X-47489857Y-38292404D01*
X-47537476Y-38101928D01*
X-47537476Y-37863833D01*
X-47489857Y-37673357D01*
X-47442238Y-37578119D01*
X-47394619Y-37530500D01*
X-47299380Y-37482880D01*
X-46013666Y-38482880D02*
X-46585095Y-38482880D01*
X-46299380Y-38482880D02*
X-46299380Y-37482880D01*
X-46394619Y-37625738D01*
X-46489857Y-37720976D01*
X-46585095Y-37768595D01*
X-45680333Y-37482880D02*
X-45013666Y-37482880D01*
X-45442238Y-38482880D01*
X-44775571Y-37482880D02*
X-44204142Y-37482880D01*
X-44489857Y-38482880D02*
X-44489857Y-37482880D01*
X-43870809Y-38101928D02*
X-43108904Y-38101928D01*
X-42632714Y-37959071D02*
X-42299380Y-37959071D01*
X-42156523Y-38482880D02*
X-42632714Y-38482880D01*
X-42632714Y-37482880D01*
X-42156523Y-37482880D01*
X-41013666Y-37435261D02*
X-41870809Y-38720976D01*
X-40727952Y-38435261D02*
X-40585095Y-38482880D01*
X-40347000Y-38482880D01*
X-40251761Y-38435261D01*
X-40204142Y-38387642D01*
X-40156523Y-38292404D01*
X-40156523Y-38197166D01*
X-40204142Y-38101928D01*
X-40251761Y-38054309D01*
X-40347000Y-38006690D01*
X-40537476Y-37959071D01*
X-40632714Y-37911452D01*
X-40680333Y-37863833D01*
X-40727952Y-37768595D01*
X-40727952Y-37673357D01*
X-40680333Y-37578119D01*
X-40632714Y-37530500D01*
X-40537476Y-37482880D01*
X-40299380Y-37482880D01*
X-40156523Y-37530500D01*
X-39537476Y-37482880D02*
X-39347000Y-37482880D01*
X-39251761Y-37530500D01*
X-39156523Y-37625738D01*
X-39108904Y-37816214D01*
X-39108904Y-38149547D01*
X-39156523Y-38340023D01*
X-39251761Y-38435261D01*
X-39347000Y-38482880D01*
X-39537476Y-38482880D01*
X-39632714Y-38435261D01*
X-39727952Y-38340023D01*
X-39775571Y-38149547D01*
X-39775571Y-37816214D01*
X-39727952Y-37625738D01*
X-39632714Y-37530500D01*
X-39537476Y-37482880D01*
X-46608904Y-27582880D02*
X-46608904Y-28392404D01*
X-46561285Y-28487642D01*
X-46513666Y-28535261D01*
X-46418428Y-28582880D01*
X-46227952Y-28582880D01*
X-46132714Y-28535261D01*
X-46085095Y-28487642D01*
X-46037476Y-28392404D01*
X-46037476Y-27582880D01*
X-45132714Y-27916214D02*
X-45132714Y-28582880D01*
X-45370809Y-27535261D02*
X-45608904Y-28249547D01*
X-44989857Y-28249547D01*
X-45537333Y-54240571D02*
X-45870666Y-54240571D01*
X-45870666Y-54764380D02*
X-45870666Y-53764380D01*
X-45394476Y-53764380D01*
X-45013523Y-54764380D02*
X-45013523Y-54097714D01*
X-45013523Y-53764380D02*
X-45061142Y-53812000D01*
X-45013523Y-53859619D01*
X-44965904Y-53812000D01*
X-45013523Y-53764380D01*
X-45013523Y-53859619D01*
X-44537333Y-54764380D02*
X-44537333Y-54097714D01*
X-44537333Y-54288190D02*
X-44489714Y-54192952D01*
X-44442095Y-54145333D01*
X-44346857Y-54097714D01*
X-44251619Y-54097714D01*
X-43537333Y-54716761D02*
X-43632571Y-54764380D01*
X-43823047Y-54764380D01*
X-43918285Y-54716761D01*
X-43965904Y-54621523D01*
X-43965904Y-54240571D01*
X-43918285Y-54145333D01*
X-43823047Y-54097714D01*
X-43632571Y-54097714D01*
X-43537333Y-54145333D01*
X-43489714Y-54240571D01*
X-43489714Y-54335809D01*
X-43965904Y-54431047D01*
D18*
X-46589714Y-51233428D02*
X-46246857Y-51233428D01*
X-46418285Y-51833428D02*
X-46418285Y-51233428D01*
X-46046857Y-51833428D02*
X-46046857Y-51233428D01*
X-45818285Y-51233428D01*
X-45761142Y-51262000D01*
X-45732571Y-51290571D01*
X-45704000Y-51347714D01*
X-45704000Y-51433428D01*
X-45732571Y-51490571D01*
X-45761142Y-51519142D01*
X-45818285Y-51547714D01*
X-46046857Y-51547714D01*
X-45189714Y-51433428D02*
X-45189714Y-51833428D01*
X-45332571Y-51204857D02*
X-45475428Y-51633428D01*
X-45104000Y-51633428D01*
X-44675428Y-51519142D02*
X-44875428Y-51519142D01*
X-44875428Y-51833428D02*
X-44875428Y-51233428D01*
X-44589714Y-51233428D01*
X-44361142Y-51833428D02*
X-44361142Y-51433428D01*
X-44361142Y-51233428D02*
X-44389714Y-51262000D01*
X-44361142Y-51290571D01*
X-44332571Y-51262000D01*
X-44361142Y-51233428D01*
X-44361142Y-51290571D01*
X-44075428Y-51833428D02*
X-44075428Y-51433428D01*
X-44075428Y-51547714D02*
X-44046857Y-51490571D01*
X-44018285Y-51462000D01*
X-43961142Y-51433428D01*
X-43904000Y-51433428D01*
X-43475428Y-51804857D02*
X-43532571Y-51833428D01*
X-43646857Y-51833428D01*
X-43704000Y-51804857D01*
X-43732571Y-51747714D01*
X-43732571Y-51519142D01*
X-43704000Y-51462000D01*
X-43646857Y-51433428D01*
X-43532571Y-51433428D01*
X-43475428Y-51462000D01*
X-43446857Y-51519142D01*
X-43446857Y-51576285D01*
X-43732571Y-51633428D01*
X-42875428Y-51833428D02*
X-43218285Y-51833428D01*
X-43046857Y-51833428D02*
X-43046857Y-51233428D01*
X-43104000Y-51319142D01*
X-43161142Y-51376285D01*
X-43218285Y-51404857D01*
D13*
X-64674500Y-87724928D02*
X-63912595Y-87724928D01*
X-64293547Y-88105880D02*
X-64293547Y-87343976D01*
X-63531642Y-87105880D02*
X-62912595Y-87105880D01*
X-63245928Y-87486833D01*
X-63103071Y-87486833D01*
X-63007833Y-87534452D01*
X-62960214Y-87582071D01*
X-62912595Y-87677309D01*
X-62912595Y-87915404D01*
X-62960214Y-88010642D01*
X-63007833Y-88058261D01*
X-63103071Y-88105880D01*
X-63388785Y-88105880D01*
X-63484023Y-88058261D01*
X-63531642Y-88010642D01*
X-62484023Y-88010642D02*
X-62436404Y-88058261D01*
X-62484023Y-88105880D01*
X-62531642Y-88058261D01*
X-62484023Y-88010642D01*
X-62484023Y-88105880D01*
X-62103071Y-87105880D02*
X-61484023Y-87105880D01*
X-61817357Y-87486833D01*
X-61674500Y-87486833D01*
X-61579261Y-87534452D01*
X-61531642Y-87582071D01*
X-61484023Y-87677309D01*
X-61484023Y-87915404D01*
X-61531642Y-88010642D01*
X-61579261Y-88058261D01*
X-61674500Y-88105880D01*
X-61960214Y-88105880D01*
X-62055452Y-88058261D01*
X-62103071Y-88010642D01*
X-61198309Y-87105880D02*
X-60864976Y-88105880D01*
X-60531642Y-87105880D01*
X-64571190Y-86891880D02*
X-63999761Y-86891880D01*
X-64285476Y-87891880D02*
X-64285476Y-86891880D01*
X-63666428Y-87891880D02*
X-63666428Y-86891880D01*
X-63285476Y-86891880D01*
X-63190238Y-86939500D01*
X-63142619Y-86987119D01*
X-63095000Y-87082357D01*
X-63095000Y-87225214D01*
X-63142619Y-87320452D01*
X-63190238Y-87368071D01*
X-63285476Y-87415690D01*
X-63666428Y-87415690D01*
X-62761666Y-86891880D02*
X-62142619Y-86891880D01*
X-62475952Y-87272833D01*
X-62333095Y-87272833D01*
X-62237857Y-87320452D01*
X-62190238Y-87368071D01*
X-62142619Y-87463309D01*
X-62142619Y-87701404D01*
X-62190238Y-87796642D01*
X-62237857Y-87844261D01*
X-62333095Y-87891880D01*
X-62618809Y-87891880D01*
X-62714047Y-87844261D01*
X-62761666Y-87796642D01*
X-61952142Y-87987119D02*
X-61190238Y-87987119D01*
X-61047380Y-86891880D02*
X-60428333Y-86891880D01*
X-60761666Y-87272833D01*
X-60618809Y-87272833D01*
X-60523571Y-87320452D01*
X-60475952Y-87368071D01*
X-60428333Y-87463309D01*
X-60428333Y-87701404D01*
X-60475952Y-87796642D01*
X-60523571Y-87844261D01*
X-60618809Y-87891880D01*
X-60904523Y-87891880D01*
X-60999761Y-87844261D01*
X-61047380Y-87796642D01*
X-60237857Y-87987119D02*
X-59475952Y-87987119D01*
X-59333095Y-86891880D02*
X-58714047Y-86891880D01*
X-59047380Y-87272833D01*
X-58904523Y-87272833D01*
X-58809285Y-87320452D01*
X-58761666Y-87368071D01*
X-58714047Y-87463309D01*
X-58714047Y-87701404D01*
X-58761666Y-87796642D01*
X-58809285Y-87844261D01*
X-58904523Y-87891880D01*
X-59190238Y-87891880D01*
X-59285476Y-87844261D01*
X-59333095Y-87796642D01*
X-54943214Y-54791380D02*
X-54276547Y-54791380D01*
X-54705119Y-55791380D01*
X-53419404Y-54791380D02*
X-53895595Y-54791380D01*
X-53943214Y-55267571D01*
X-53895595Y-55219952D01*
X-53800357Y-55172333D01*
X-53562261Y-55172333D01*
X-53467023Y-55219952D01*
X-53419404Y-55267571D01*
X-53371785Y-55362809D01*
X-53371785Y-55600904D01*
X-53419404Y-55696142D01*
X-53467023Y-55743761D01*
X-53562261Y-55791380D01*
X-53800357Y-55791380D01*
X-53895595Y-55743761D01*
X-53943214Y-55696142D01*
X-52752738Y-54791380D02*
X-52657500Y-54791380D01*
X-52562261Y-54839000D01*
X-52514642Y-54886619D01*
X-52467023Y-54981857D01*
X-52419404Y-55172333D01*
X-52419404Y-55410428D01*
X-52467023Y-55600904D01*
X-52514642Y-55696142D01*
X-52562261Y-55743761D01*
X-52657500Y-55791380D01*
X-52752738Y-55791380D01*
X-52847976Y-55743761D01*
X-52895595Y-55696142D01*
X-52943214Y-55600904D01*
X-52990833Y-55410428D01*
X-52990833Y-55172333D01*
X-52943214Y-54981857D01*
X-52895595Y-54886619D01*
X-52847976Y-54839000D01*
X-52752738Y-54791380D01*
D15*
X-53914642Y-56949952D02*
X-54047976Y-56759476D01*
X-54143214Y-56949952D02*
X-54143214Y-56549952D01*
X-53990833Y-56549952D01*
X-53952738Y-56569000D01*
X-53933690Y-56588047D01*
X-53914642Y-56626142D01*
X-53914642Y-56683285D01*
X-53933690Y-56721380D01*
X-53952738Y-56740428D01*
X-53990833Y-56759476D01*
X-54143214Y-56759476D01*
X-53533690Y-56949952D02*
X-53762261Y-56949952D01*
X-53647976Y-56949952D02*
X-53647976Y-56549952D01*
X-53686071Y-56607095D01*
X-53724166Y-56645190D01*
X-53762261Y-56664238D01*
X-53400357Y-56549952D02*
X-53152738Y-56549952D01*
X-53286071Y-56702333D01*
X-53228928Y-56702333D01*
X-53190833Y-56721380D01*
X-53171785Y-56740428D01*
X-53152738Y-56778523D01*
X-53152738Y-56873761D01*
X-53171785Y-56911857D01*
X-53190833Y-56930904D01*
X-53228928Y-56949952D01*
X-53343214Y-56949952D01*
X-53381309Y-56930904D01*
X-53400357Y-56911857D01*
D13*
X-60634476Y-80302380D02*
X-61205904Y-80302380D01*
X-60920190Y-80302380D02*
X-60920190Y-79302380D01*
X-61015428Y-79445238D01*
X-61110666Y-79540476D01*
X-61205904Y-79588095D01*
X-60015428Y-79302380D02*
X-59920190Y-79302380D01*
X-59824952Y-79350000D01*
X-59777333Y-79397619D01*
X-59729714Y-79492857D01*
X-59682095Y-79683333D01*
X-59682095Y-79921428D01*
X-59729714Y-80111904D01*
X-59777333Y-80207142D01*
X-59824952Y-80254761D01*
X-59920190Y-80302380D01*
X-60015428Y-80302380D01*
X-60110666Y-80254761D01*
X-60158285Y-80207142D01*
X-60205904Y-80111904D01*
X-60253523Y-79921428D01*
X-60253523Y-79683333D01*
X-60205904Y-79492857D01*
X-60158285Y-79397619D01*
X-60110666Y-79350000D01*
X-60015428Y-79302380D01*
X-59253523Y-80302380D02*
X-59253523Y-79302380D01*
X-58682095Y-80302380D02*
X-59110666Y-79730952D01*
X-58682095Y-79302380D02*
X-59253523Y-79873809D01*
D15*
X-60201142Y-81460952D02*
X-60334476Y-81270476D01*
X-60429714Y-81460952D02*
X-60429714Y-81060952D01*
X-60277333Y-81060952D01*
X-60239238Y-81080000D01*
X-60220190Y-81099047D01*
X-60201142Y-81137142D01*
X-60201142Y-81194285D01*
X-60220190Y-81232380D01*
X-60239238Y-81251428D01*
X-60277333Y-81270476D01*
X-60429714Y-81270476D01*
X-59820190Y-81460952D02*
X-60048761Y-81460952D01*
X-59934476Y-81460952D02*
X-59934476Y-81060952D01*
X-59972571Y-81118095D01*
X-60010666Y-81156190D01*
X-60048761Y-81175238D01*
X-59667809Y-81099047D02*
X-59648761Y-81080000D01*
X-59610666Y-81060952D01*
X-59515428Y-81060952D01*
X-59477333Y-81080000D01*
X-59458285Y-81099047D01*
X-59439238Y-81137142D01*
X-59439238Y-81175238D01*
X-59458285Y-81232380D01*
X-59686857Y-81460952D01*
X-59439238Y-81460952D01*
D13*
X-59808976Y-84048880D02*
X-60380404Y-84048880D01*
X-60094690Y-84048880D02*
X-60094690Y-83048880D01*
X-60189928Y-83191738D01*
X-60285166Y-83286976D01*
X-60380404Y-83334595D01*
X-59189928Y-83048880D02*
X-59094690Y-83048880D01*
X-58999452Y-83096500D01*
X-58951833Y-83144119D01*
X-58904214Y-83239357D01*
X-58856595Y-83429833D01*
X-58856595Y-83667928D01*
X-58904214Y-83858404D01*
X-58951833Y-83953642D01*
X-58999452Y-84001261D01*
X-59094690Y-84048880D01*
X-59189928Y-84048880D01*
X-59285166Y-84001261D01*
X-59332785Y-83953642D01*
X-59380404Y-83858404D01*
X-59428023Y-83667928D01*
X-59428023Y-83429833D01*
X-59380404Y-83239357D01*
X-59332785Y-83144119D01*
X-59285166Y-83096500D01*
X-59189928Y-83048880D01*
X-58428023Y-84048880D02*
X-58428023Y-83048880D01*
X-57856595Y-84048880D02*
X-58285166Y-83477452D01*
X-57856595Y-83048880D02*
X-58428023Y-83620309D01*
D15*
X-59375642Y-85207452D02*
X-59508976Y-85016976D01*
X-59604214Y-85207452D02*
X-59604214Y-84807452D01*
X-59451833Y-84807452D01*
X-59413738Y-84826500D01*
X-59394690Y-84845547D01*
X-59375642Y-84883642D01*
X-59375642Y-84940785D01*
X-59394690Y-84978880D01*
X-59413738Y-84997928D01*
X-59451833Y-85016976D01*
X-59604214Y-85016976D01*
X-58994690Y-85207452D02*
X-59223261Y-85207452D01*
X-59108976Y-85207452D02*
X-59108976Y-84807452D01*
X-59147071Y-84864595D01*
X-59185166Y-84902690D01*
X-59223261Y-84921738D01*
X-58613738Y-85207452D02*
X-58842309Y-85207452D01*
X-58728023Y-85207452D02*
X-58728023Y-84807452D01*
X-58766119Y-84864595D01*
X-58804214Y-84902690D01*
X-58842309Y-84921738D01*
D13*
X-35727619Y-86280619D02*
X-35727619Y-86185380D01*
X-35680000Y-86090142D01*
X-35632380Y-86042523D01*
X-35537142Y-85994904D01*
X-35346666Y-85947285D01*
X-35108571Y-85947285D01*
X-34918095Y-85994904D01*
X-34822857Y-86042523D01*
X-34775238Y-86090142D01*
X-34727619Y-86185380D01*
X-34727619Y-86280619D01*
X-34775238Y-86375857D01*
X-34822857Y-86423476D01*
X-34918095Y-86471095D01*
X-35108571Y-86518714D01*
X-35346666Y-86518714D01*
X-35537142Y-86471095D01*
X-35632380Y-86423476D01*
X-35680000Y-86375857D01*
X-35727619Y-86280619D01*
D16*
X-36603809Y-86554428D02*
X-36841904Y-86721095D01*
X-36603809Y-86840142D02*
X-37103809Y-86840142D01*
X-37103809Y-86649666D01*
X-37080000Y-86602047D01*
X-37056190Y-86578238D01*
X-37008571Y-86554428D01*
X-36937142Y-86554428D01*
X-36889523Y-86578238D01*
X-36865714Y-86602047D01*
X-36841904Y-86649666D01*
X-36841904Y-86840142D01*
X-36603809Y-86078238D02*
X-36603809Y-86363952D01*
X-36603809Y-86221095D02*
X-37103809Y-86221095D01*
X-37032380Y-86268714D01*
X-36984761Y-86316333D01*
X-36960952Y-86363952D01*
X-37103809Y-85768714D02*
X-37103809Y-85721095D01*
X-37080000Y-85673476D01*
X-37056190Y-85649666D01*
X-37008571Y-85625857D01*
X-36913333Y-85602047D01*
X-36794285Y-85602047D01*
X-36699047Y-85625857D01*
X-36651428Y-85649666D01*
X-36627619Y-85673476D01*
X-36603809Y-85721095D01*
X-36603809Y-85768714D01*
X-36627619Y-85816333D01*
X-36651428Y-85840142D01*
X-36699047Y-85863952D01*
X-36794285Y-85887761D01*
X-36913333Y-85887761D01*
X-37008571Y-85863952D01*
X-37056190Y-85840142D01*
X-37080000Y-85816333D01*
X-37103809Y-85768714D01*
D13*
X-23662619Y-76501619D02*
X-23662619Y-76406380D01*
X-23615000Y-76311142D01*
X-23567380Y-76263523D01*
X-23472142Y-76215904D01*
X-23281666Y-76168285D01*
X-23043571Y-76168285D01*
X-22853095Y-76215904D01*
X-22757857Y-76263523D01*
X-22710238Y-76311142D01*
X-22662619Y-76406380D01*
X-22662619Y-76501619D01*
X-22710238Y-76596857D01*
X-22757857Y-76644476D01*
X-22853095Y-76692095D01*
X-23043571Y-76739714D01*
X-23281666Y-76739714D01*
X-23472142Y-76692095D01*
X-23567380Y-76644476D01*
X-23615000Y-76596857D01*
X-23662619Y-76501619D01*
D16*
X-24538809Y-76537333D02*
X-24776904Y-76704000D01*
X-24538809Y-76823047D02*
X-25038809Y-76823047D01*
X-25038809Y-76632571D01*
X-25015000Y-76584952D01*
X-24991190Y-76561142D01*
X-24943571Y-76537333D01*
X-24872142Y-76537333D01*
X-24824523Y-76561142D01*
X-24800714Y-76584952D01*
X-24776904Y-76632571D01*
X-24776904Y-76823047D01*
X-24538809Y-76299238D02*
X-24538809Y-76204000D01*
X-24562619Y-76156380D01*
X-24586428Y-76132571D01*
X-24657857Y-76084952D01*
X-24753095Y-76061142D01*
X-24943571Y-76061142D01*
X-24991190Y-76084952D01*
X-25015000Y-76108761D01*
X-25038809Y-76156380D01*
X-25038809Y-76251619D01*
X-25015000Y-76299238D01*
X-24991190Y-76323047D01*
X-24943571Y-76346857D01*
X-24824523Y-76346857D01*
X-24776904Y-76323047D01*
X-24753095Y-76299238D01*
X-24729285Y-76251619D01*
X-24729285Y-76156380D01*
X-24753095Y-76108761D01*
X-24776904Y-76084952D01*
X-24824523Y-76061142D01*
D13*
X-42783095Y-80953380D02*
X-43259285Y-80953380D01*
X-43306904Y-81429571D01*
X-43259285Y-81381952D01*
X-43164047Y-81334333D01*
X-42925952Y-81334333D01*
X-42830714Y-81381952D01*
X-42783095Y-81429571D01*
X-42735476Y-81524809D01*
X-42735476Y-81762904D01*
X-42783095Y-81858142D01*
X-42830714Y-81905761D01*
X-42925952Y-81953380D01*
X-43164047Y-81953380D01*
X-43259285Y-81905761D01*
X-43306904Y-81858142D01*
X-41783095Y-81953380D02*
X-42354523Y-81953380D01*
X-42068809Y-81953380D02*
X-42068809Y-80953380D01*
X-42164047Y-81096238D01*
X-42259285Y-81191476D01*
X-42354523Y-81239095D01*
D15*
X-42611666Y-83111952D02*
X-42745000Y-82921476D01*
X-42840238Y-83111952D02*
X-42840238Y-82711952D01*
X-42687857Y-82711952D01*
X-42649761Y-82731000D01*
X-42630714Y-82750047D01*
X-42611666Y-82788142D01*
X-42611666Y-82845285D01*
X-42630714Y-82883380D01*
X-42649761Y-82902428D01*
X-42687857Y-82921476D01*
X-42840238Y-82921476D01*
X-42383095Y-82883380D02*
X-42421190Y-82864333D01*
X-42440238Y-82845285D01*
X-42459285Y-82807190D01*
X-42459285Y-82788142D01*
X-42440238Y-82750047D01*
X-42421190Y-82731000D01*
X-42383095Y-82711952D01*
X-42306904Y-82711952D01*
X-42268809Y-82731000D01*
X-42249761Y-82750047D01*
X-42230714Y-82788142D01*
X-42230714Y-82807190D01*
X-42249761Y-82845285D01*
X-42268809Y-82864333D01*
X-42306904Y-82883380D01*
X-42383095Y-82883380D01*
X-42421190Y-82902428D01*
X-42440238Y-82921476D01*
X-42459285Y-82959571D01*
X-42459285Y-83035761D01*
X-42440238Y-83073857D01*
X-42421190Y-83092904D01*
X-42383095Y-83111952D01*
X-42306904Y-83111952D01*
X-42268809Y-83092904D01*
X-42249761Y-83073857D01*
X-42230714Y-83035761D01*
X-42230714Y-82959571D01*
X-42249761Y-82921476D01*
X-42268809Y-82902428D01*
X-42306904Y-82883380D01*
D13*
X-30821285Y-52616380D02*
X-31392714Y-52616380D01*
X-31107000Y-52616380D02*
X-31107000Y-51616380D01*
X-31202238Y-51759238D01*
X-31297476Y-51854476D01*
X-31392714Y-51902095D01*
X-30392714Y-52616380D02*
X-30392714Y-51616380D01*
X-29821285Y-52616380D02*
X-30249857Y-52044952D01*
X-29821285Y-51616380D02*
X-30392714Y-52187809D01*
D15*
X-30673666Y-53774952D02*
X-30807000Y-53584476D01*
X-30902238Y-53774952D02*
X-30902238Y-53374952D01*
X-30749857Y-53374952D01*
X-30711761Y-53394000D01*
X-30692714Y-53413047D01*
X-30673666Y-53451142D01*
X-30673666Y-53508285D01*
X-30692714Y-53546380D01*
X-30711761Y-53565428D01*
X-30749857Y-53584476D01*
X-30902238Y-53584476D01*
X-30540333Y-53374952D02*
X-30273666Y-53374952D01*
X-30445095Y-53774952D01*
D13*
X-53984119Y-72717095D02*
X-53984119Y-73193285D01*
X-53507928Y-73240904D01*
X-53555547Y-73193285D01*
X-53603166Y-73098047D01*
X-53603166Y-72859952D01*
X-53555547Y-72764714D01*
X-53507928Y-72717095D01*
X-53412690Y-72669476D01*
X-53174595Y-72669476D01*
X-53079357Y-72717095D01*
X-53031738Y-72764714D01*
X-52984119Y-72859952D01*
X-52984119Y-73098047D01*
X-53031738Y-73193285D01*
X-53079357Y-73240904D01*
X-52984119Y-71717095D02*
X-52984119Y-72288523D01*
X-52984119Y-72002809D02*
X-53984119Y-72002809D01*
X-53841261Y-72098047D01*
X-53746023Y-72193285D01*
X-53698404Y-72288523D01*
D15*
X-53032047Y-74006166D02*
X-53222523Y-74139500D01*
X-53032047Y-74234738D02*
X-53432047Y-74234738D01*
X-53432047Y-74082357D01*
X-53413000Y-74044261D01*
X-53393952Y-74025214D01*
X-53355857Y-74006166D01*
X-53298714Y-74006166D01*
X-53260619Y-74025214D01*
X-53241571Y-74044261D01*
X-53222523Y-74082357D01*
X-53222523Y-74234738D01*
X-53432047Y-73663309D02*
X-53432047Y-73739500D01*
X-53413000Y-73777595D01*
X-53393952Y-73796642D01*
X-53336809Y-73834738D01*
X-53260619Y-73853785D01*
X-53108238Y-73853785D01*
X-53070142Y-73834738D01*
X-53051095Y-73815690D01*
X-53032047Y-73777595D01*
X-53032047Y-73701404D01*
X-53051095Y-73663309D01*
X-53070142Y-73644261D01*
X-53108238Y-73625214D01*
X-53203476Y-73625214D01*
X-53241571Y-73644261D01*
X-53260619Y-73663309D01*
X-53279666Y-73701404D01*
X-53279666Y-73777595D01*
X-53260619Y-73815690D01*
X-53241571Y-73834738D01*
X-53203476Y-73853785D01*
D13*
X-42886285Y-56522880D02*
X-43457714Y-56522880D01*
X-43172000Y-56522880D02*
X-43172000Y-55522880D01*
X-43267238Y-55665738D01*
X-43362476Y-55760976D01*
X-43457714Y-55808595D01*
X-42457714Y-56522880D02*
X-42457714Y-55522880D01*
X-41886285Y-56522880D02*
X-42314857Y-55951452D01*
X-41886285Y-55522880D02*
X-42457714Y-56094309D01*
D15*
X-44707166Y-57902452D02*
X-44840500Y-57711976D01*
X-44935738Y-57902452D02*
X-44935738Y-57502452D01*
X-44783357Y-57502452D01*
X-44745261Y-57521500D01*
X-44726214Y-57540547D01*
X-44707166Y-57578642D01*
X-44707166Y-57635785D01*
X-44726214Y-57673880D01*
X-44745261Y-57692928D01*
X-44783357Y-57711976D01*
X-44935738Y-57711976D01*
X-44345261Y-57502452D02*
X-44535738Y-57502452D01*
X-44554785Y-57692928D01*
X-44535738Y-57673880D01*
X-44497642Y-57654833D01*
X-44402404Y-57654833D01*
X-44364309Y-57673880D01*
X-44345261Y-57692928D01*
X-44326214Y-57731023D01*
X-44326214Y-57826261D01*
X-44345261Y-57864357D01*
X-44364309Y-57883404D01*
X-44402404Y-57902452D01*
X-44497642Y-57902452D01*
X-44535738Y-57883404D01*
X-44554785Y-57864357D01*
D13*
X-91717785Y-87226380D02*
X-92289214Y-87226380D01*
X-92003500Y-87226380D02*
X-92003500Y-86226380D01*
X-92098738Y-86369238D01*
X-92193976Y-86464476D01*
X-92289214Y-86512095D01*
X-91289214Y-87226380D02*
X-91289214Y-86226380D01*
X-90717785Y-87226380D02*
X-91146357Y-86654952D01*
X-90717785Y-86226380D02*
X-91289214Y-86797809D01*
D15*
X-91570166Y-85524952D02*
X-91703500Y-85334476D01*
X-91798738Y-85524952D02*
X-91798738Y-85124952D01*
X-91646357Y-85124952D01*
X-91608261Y-85144000D01*
X-91589214Y-85163047D01*
X-91570166Y-85201142D01*
X-91570166Y-85258285D01*
X-91589214Y-85296380D01*
X-91608261Y-85315428D01*
X-91646357Y-85334476D01*
X-91798738Y-85334476D01*
X-91227309Y-85258285D02*
X-91227309Y-85524952D01*
X-91322547Y-85105904D02*
X-91417785Y-85391619D01*
X-91170166Y-85391619D01*
D13*
X-64665619Y-81748285D02*
X-64665619Y-82319714D01*
X-64665619Y-82034000D02*
X-65665619Y-82034000D01*
X-65522761Y-82129238D01*
X-65427523Y-82224476D01*
X-65379904Y-82319714D01*
X-64665619Y-81319714D02*
X-65665619Y-81319714D01*
X-64665619Y-80748285D02*
X-65237047Y-81176857D01*
X-65665619Y-80748285D02*
X-65094190Y-81319714D01*
D15*
X-66367047Y-81600666D02*
X-66557523Y-81734000D01*
X-66367047Y-81829238D02*
X-66767047Y-81829238D01*
X-66767047Y-81676857D01*
X-66748000Y-81638761D01*
X-66728952Y-81619714D01*
X-66690857Y-81600666D01*
X-66633714Y-81600666D01*
X-66595619Y-81619714D01*
X-66576571Y-81638761D01*
X-66557523Y-81676857D01*
X-66557523Y-81829238D01*
X-66767047Y-81467333D02*
X-66767047Y-81219714D01*
X-66614666Y-81353047D01*
X-66614666Y-81295904D01*
X-66595619Y-81257809D01*
X-66576571Y-81238761D01*
X-66538476Y-81219714D01*
X-66443238Y-81219714D01*
X-66405142Y-81238761D01*
X-66386095Y-81257809D01*
X-66367047Y-81295904D01*
X-66367047Y-81410190D01*
X-66386095Y-81448285D01*
X-66405142Y-81467333D01*
D13*
X-67904119Y-83462785D02*
X-67904119Y-84034214D01*
X-67904119Y-83748500D02*
X-68904119Y-83748500D01*
X-68761261Y-83843738D01*
X-68666023Y-83938976D01*
X-68618404Y-84034214D01*
X-67904119Y-83034214D02*
X-68904119Y-83034214D01*
X-67904119Y-82462785D02*
X-68475547Y-82891357D01*
X-68904119Y-82462785D02*
X-68332690Y-83034214D01*
D15*
X-69605547Y-83315166D02*
X-69796023Y-83448500D01*
X-69605547Y-83543738D02*
X-70005547Y-83543738D01*
X-70005547Y-83391357D01*
X-69986500Y-83353261D01*
X-69967452Y-83334214D01*
X-69929357Y-83315166D01*
X-69872214Y-83315166D01*
X-69834119Y-83334214D01*
X-69815071Y-83353261D01*
X-69796023Y-83391357D01*
X-69796023Y-83543738D01*
X-69967452Y-83162785D02*
X-69986500Y-83143738D01*
X-70005547Y-83105642D01*
X-70005547Y-83010404D01*
X-69986500Y-82972309D01*
X-69967452Y-82953261D01*
X-69929357Y-82934214D01*
X-69891261Y-82934214D01*
X-69834119Y-82953261D01*
X-69605547Y-83181833D01*
X-69605547Y-82934214D01*
D13*
X-46996619Y-62753714D02*
X-46996619Y-62087047D01*
X-45996619Y-62515619D01*
X-46996619Y-61229904D02*
X-46996619Y-61706095D01*
X-46520428Y-61753714D01*
X-46568047Y-61706095D01*
X-46615666Y-61610857D01*
X-46615666Y-61372761D01*
X-46568047Y-61277523D01*
X-46520428Y-61229904D01*
X-46425190Y-61182285D01*
X-46187095Y-61182285D01*
X-46091857Y-61229904D01*
X-46044238Y-61277523D01*
X-45996619Y-61372761D01*
X-45996619Y-61610857D01*
X-46044238Y-61706095D01*
X-46091857Y-61753714D01*
X-46996619Y-60563238D02*
X-46996619Y-60468000D01*
X-46949000Y-60372761D01*
X-46901380Y-60325142D01*
X-46806142Y-60277523D01*
X-46615666Y-60229904D01*
X-46377571Y-60229904D01*
X-46187095Y-60277523D01*
X-46091857Y-60325142D01*
X-46044238Y-60372761D01*
X-45996619Y-60468000D01*
X-45996619Y-60563238D01*
X-46044238Y-60658476D01*
X-46091857Y-60706095D01*
X-46187095Y-60753714D01*
X-46377571Y-60801333D01*
X-46615666Y-60801333D01*
X-46806142Y-60753714D01*
X-46901380Y-60706095D01*
X-46949000Y-60658476D01*
X-46996619Y-60563238D01*
D15*
X-47698047Y-61534666D02*
X-47888523Y-61668000D01*
X-47698047Y-61763238D02*
X-48098047Y-61763238D01*
X-48098047Y-61610857D01*
X-48079000Y-61572761D01*
X-48059952Y-61553714D01*
X-48021857Y-61534666D01*
X-47964714Y-61534666D01*
X-47926619Y-61553714D01*
X-47907571Y-61572761D01*
X-47888523Y-61610857D01*
X-47888523Y-61763238D01*
X-47698047Y-61153714D02*
X-47698047Y-61382285D01*
X-47698047Y-61268000D02*
X-48098047Y-61268000D01*
X-48040904Y-61306095D01*
X-48002809Y-61344190D01*
X-47983761Y-61382285D01*
D13*
X-33217976Y-65944380D02*
X-33217976Y-64944380D01*
X-32884642Y-65658666D01*
X-32551309Y-64944380D01*
X-32551309Y-65944380D01*
X-32075119Y-65944380D02*
X-32075119Y-64944380D01*
X-31741785Y-65658666D01*
X-31408452Y-64944380D01*
X-31408452Y-65944380D01*
X-30598928Y-65420571D02*
X-30456071Y-65468190D01*
X-30408452Y-65515809D01*
X-30360833Y-65611047D01*
X-30360833Y-65753904D01*
X-30408452Y-65849142D01*
X-30456071Y-65896761D01*
X-30551309Y-65944380D01*
X-30932261Y-65944380D01*
X-30932261Y-64944380D01*
X-30598928Y-64944380D01*
X-30503690Y-64992000D01*
X-30456071Y-65039619D01*
X-30408452Y-65134857D01*
X-30408452Y-65230095D01*
X-30456071Y-65325333D01*
X-30503690Y-65372952D01*
X-30598928Y-65420571D01*
X-30932261Y-65420571D01*
X-30075119Y-64944380D02*
X-29503690Y-64944380D01*
X-29789404Y-65944380D02*
X-29789404Y-64944380D01*
X-29265595Y-64944380D02*
X-28646547Y-64944380D01*
X-28979880Y-65325333D01*
X-28837023Y-65325333D01*
X-28741785Y-65372952D01*
X-28694166Y-65420571D01*
X-28646547Y-65515809D01*
X-28646547Y-65753904D01*
X-28694166Y-65849142D01*
X-28741785Y-65896761D01*
X-28837023Y-65944380D01*
X-29122738Y-65944380D01*
X-29217976Y-65896761D01*
X-29265595Y-65849142D01*
X-28170357Y-65944380D02*
X-27979880Y-65944380D01*
X-27884642Y-65896761D01*
X-27837023Y-65849142D01*
X-27741785Y-65706285D01*
X-27694166Y-65515809D01*
X-27694166Y-65134857D01*
X-27741785Y-65039619D01*
X-27789404Y-64992000D01*
X-27884642Y-64944380D01*
X-28075119Y-64944380D01*
X-28170357Y-64992000D01*
X-28217976Y-65039619D01*
X-28265595Y-65134857D01*
X-28265595Y-65372952D01*
X-28217976Y-65468190D01*
X-28170357Y-65515809D01*
X-28075119Y-65563428D01*
X-27884642Y-65563428D01*
X-27789404Y-65515809D01*
X-27741785Y-65468190D01*
X-27694166Y-65372952D01*
X-27075119Y-64944380D02*
X-26979880Y-64944380D01*
X-26884642Y-64992000D01*
X-26837023Y-65039619D01*
X-26789404Y-65134857D01*
X-26741785Y-65325333D01*
X-26741785Y-65563428D01*
X-26789404Y-65753904D01*
X-26837023Y-65849142D01*
X-26884642Y-65896761D01*
X-26979880Y-65944380D01*
X-27075119Y-65944380D01*
X-27170357Y-65896761D01*
X-27217976Y-65849142D01*
X-27265595Y-65753904D01*
X-27313214Y-65563428D01*
X-27313214Y-65325333D01*
X-27265595Y-65134857D01*
X-27217976Y-65039619D01*
X-27170357Y-64992000D01*
X-27075119Y-64944380D01*
X-25884642Y-65277714D02*
X-25884642Y-65944380D01*
X-26122738Y-64896761D02*
X-26360833Y-65611047D01*
X-25741785Y-65611047D01*
D14*
X-29253690Y-63039619D02*
X-29277500Y-63087238D01*
X-29325119Y-63134857D01*
X-29396547Y-63206285D01*
X-29420357Y-63253904D01*
X-29420357Y-63301523D01*
X-29301309Y-63277714D02*
X-29325119Y-63325333D01*
X-29372738Y-63372952D01*
X-29467976Y-63396761D01*
X-29634642Y-63396761D01*
X-29729880Y-63372952D01*
X-29777500Y-63325333D01*
X-29801309Y-63277714D01*
X-29801309Y-63182476D01*
X-29777500Y-63134857D01*
X-29729880Y-63087238D01*
X-29634642Y-63063428D01*
X-29467976Y-63063428D01*
X-29372738Y-63087238D01*
X-29325119Y-63134857D01*
X-29301309Y-63182476D01*
X-29301309Y-63277714D01*
X-29801309Y-62896761D02*
X-29801309Y-62587238D01*
X-29610833Y-62753904D01*
X-29610833Y-62682476D01*
X-29587023Y-62634857D01*
X-29563214Y-62611047D01*
X-29515595Y-62587238D01*
X-29396547Y-62587238D01*
X-29348928Y-62611047D01*
X-29325119Y-62634857D01*
X-29301309Y-62682476D01*
X-29301309Y-62825333D01*
X-29325119Y-62872952D01*
X-29348928Y-62896761D01*
D13*
X-47886476Y-64864880D02*
X-47886476Y-63864880D01*
X-47553142Y-64579166D01*
X-47219809Y-63864880D01*
X-47219809Y-64864880D01*
X-46743619Y-64864880D02*
X-46743619Y-63864880D01*
X-46410285Y-64579166D01*
X-46076952Y-63864880D01*
X-46076952Y-64864880D01*
X-45267428Y-64341071D02*
X-45124571Y-64388690D01*
X-45076952Y-64436309D01*
X-45029333Y-64531547D01*
X-45029333Y-64674404D01*
X-45076952Y-64769642D01*
X-45124571Y-64817261D01*
X-45219809Y-64864880D01*
X-45600761Y-64864880D01*
X-45600761Y-63864880D01*
X-45267428Y-63864880D01*
X-45172190Y-63912500D01*
X-45124571Y-63960119D01*
X-45076952Y-64055357D01*
X-45076952Y-64150595D01*
X-45124571Y-64245833D01*
X-45172190Y-64293452D01*
X-45267428Y-64341071D01*
X-45600761Y-64341071D01*
X-44743619Y-63864880D02*
X-44172190Y-63864880D01*
X-44457904Y-64864880D02*
X-44457904Y-63864880D01*
X-43934095Y-63864880D02*
X-43315047Y-63864880D01*
X-43648380Y-64245833D01*
X-43505523Y-64245833D01*
X-43410285Y-64293452D01*
X-43362666Y-64341071D01*
X-43315047Y-64436309D01*
X-43315047Y-64674404D01*
X-43362666Y-64769642D01*
X-43410285Y-64817261D01*
X-43505523Y-64864880D01*
X-43791238Y-64864880D01*
X-43886476Y-64817261D01*
X-43934095Y-64769642D01*
X-42838857Y-64864880D02*
X-42648380Y-64864880D01*
X-42553142Y-64817261D01*
X-42505523Y-64769642D01*
X-42410285Y-64626785D01*
X-42362666Y-64436309D01*
X-42362666Y-64055357D01*
X-42410285Y-63960119D01*
X-42457904Y-63912500D01*
X-42553142Y-63864880D01*
X-42743619Y-63864880D01*
X-42838857Y-63912500D01*
X-42886476Y-63960119D01*
X-42934095Y-64055357D01*
X-42934095Y-64293452D01*
X-42886476Y-64388690D01*
X-42838857Y-64436309D01*
X-42743619Y-64483928D01*
X-42553142Y-64483928D01*
X-42457904Y-64436309D01*
X-42410285Y-64388690D01*
X-42362666Y-64293452D01*
X-41743619Y-63864880D02*
X-41648380Y-63864880D01*
X-41553142Y-63912500D01*
X-41505523Y-63960119D01*
X-41457904Y-64055357D01*
X-41410285Y-64245833D01*
X-41410285Y-64483928D01*
X-41457904Y-64674404D01*
X-41505523Y-64769642D01*
X-41553142Y-64817261D01*
X-41648380Y-64864880D01*
X-41743619Y-64864880D01*
X-41838857Y-64817261D01*
X-41886476Y-64769642D01*
X-41934095Y-64674404D01*
X-41981714Y-64483928D01*
X-41981714Y-64245833D01*
X-41934095Y-64055357D01*
X-41886476Y-63960119D01*
X-41838857Y-63912500D01*
X-41743619Y-63864880D01*
X-40553142Y-64198214D02*
X-40553142Y-64864880D01*
X-40791238Y-63817261D02*
X-41029333Y-64531547D01*
X-40410285Y-64531547D01*
D14*
X-43922190Y-61960119D02*
X-43946000Y-62007738D01*
X-43993619Y-62055357D01*
X-44065047Y-62126785D01*
X-44088857Y-62174404D01*
X-44088857Y-62222023D01*
X-43969809Y-62198214D02*
X-43993619Y-62245833D01*
X-44041238Y-62293452D01*
X-44136476Y-62317261D01*
X-44303142Y-62317261D01*
X-44398380Y-62293452D01*
X-44446000Y-62245833D01*
X-44469809Y-62198214D01*
X-44469809Y-62102976D01*
X-44446000Y-62055357D01*
X-44398380Y-62007738D01*
X-44303142Y-61983928D01*
X-44136476Y-61983928D01*
X-44041238Y-62007738D01*
X-43993619Y-62055357D01*
X-43969809Y-62102976D01*
X-43969809Y-62198214D01*
X-44422190Y-61793452D02*
X-44446000Y-61769642D01*
X-44469809Y-61722023D01*
X-44469809Y-61602976D01*
X-44446000Y-61555357D01*
X-44422190Y-61531547D01*
X-44374571Y-61507738D01*
X-44326952Y-61507738D01*
X-44255523Y-61531547D01*
X-43969809Y-61817261D01*
X-43969809Y-61507738D01*
D13*
X-71937166Y-88788619D02*
X-71889547Y-88741000D01*
X-71794309Y-88693380D01*
X-71556214Y-88693380D01*
X-71460976Y-88741000D01*
X-71413357Y-88788619D01*
X-71365738Y-88883857D01*
X-71365738Y-88979095D01*
X-71413357Y-89121952D01*
X-71984785Y-89693380D01*
X-71365738Y-89693380D01*
X-70984785Y-89645761D02*
X-70841928Y-89693380D01*
X-70603833Y-89693380D01*
X-70508595Y-89645761D01*
X-70460976Y-89598142D01*
X-70413357Y-89502904D01*
X-70413357Y-89407666D01*
X-70460976Y-89312428D01*
X-70508595Y-89264809D01*
X-70603833Y-89217190D01*
X-70794309Y-89169571D01*
X-70889547Y-89121952D01*
X-70937166Y-89074333D01*
X-70984785Y-88979095D01*
X-70984785Y-88883857D01*
X-70937166Y-88788619D01*
X-70889547Y-88741000D01*
X-70794309Y-88693380D01*
X-70556214Y-88693380D01*
X-70413357Y-88741000D01*
X-69413357Y-89598142D02*
X-69460976Y-89645761D01*
X-69603833Y-89693380D01*
X-69699071Y-89693380D01*
X-69841928Y-89645761D01*
X-69937166Y-89550523D01*
X-69984785Y-89455285D01*
X-70032404Y-89264809D01*
X-70032404Y-89121952D01*
X-69984785Y-88931476D01*
X-69937166Y-88836238D01*
X-69841928Y-88741000D01*
X-69699071Y-88693380D01*
X-69603833Y-88693380D01*
X-69460976Y-88741000D01*
X-69413357Y-88788619D01*
X-68460976Y-89693380D02*
X-69032404Y-89693380D01*
X-68746690Y-89693380D02*
X-68746690Y-88693380D01*
X-68841928Y-88836238D01*
X-68937166Y-88931476D01*
X-69032404Y-88979095D01*
X-67889547Y-89121952D02*
X-67984785Y-89074333D01*
X-68032404Y-89026714D01*
X-68080023Y-88931476D01*
X-68080023Y-88883857D01*
X-68032404Y-88788619D01*
X-67984785Y-88741000D01*
X-67889547Y-88693380D01*
X-67699071Y-88693380D01*
X-67603833Y-88741000D01*
X-67556214Y-88788619D01*
X-67508595Y-88883857D01*
X-67508595Y-88931476D01*
X-67556214Y-89026714D01*
X-67603833Y-89074333D01*
X-67699071Y-89121952D01*
X-67889547Y-89121952D01*
X-67984785Y-89169571D01*
X-68032404Y-89217190D01*
X-68080023Y-89312428D01*
X-68080023Y-89502904D01*
X-68032404Y-89598142D01*
X-67984785Y-89645761D01*
X-67889547Y-89693380D01*
X-67699071Y-89693380D01*
X-67603833Y-89645761D01*
X-67556214Y-89598142D01*
X-67508595Y-89502904D01*
X-67508595Y-89312428D01*
X-67556214Y-89217190D01*
X-67603833Y-89169571D01*
X-67699071Y-89121952D01*
X-66556214Y-89693380D02*
X-67127642Y-89693380D01*
X-66841928Y-89693380D02*
X-66841928Y-88693380D01*
X-66937166Y-88836238D01*
X-67032404Y-88931476D01*
X-67127642Y-88979095D01*
X-65651452Y-88693380D02*
X-66127642Y-88693380D01*
X-66175261Y-89169571D01*
X-66127642Y-89121952D01*
X-66032404Y-89074333D01*
X-65794309Y-89074333D01*
X-65699071Y-89121952D01*
X-65651452Y-89169571D01*
X-65603833Y-89264809D01*
X-65603833Y-89502904D01*
X-65651452Y-89598142D01*
X-65699071Y-89645761D01*
X-65794309Y-89693380D01*
X-66032404Y-89693380D01*
X-66127642Y-89645761D01*
X-66175261Y-89598142D01*
D14*
X-68496690Y-86788619D02*
X-68520500Y-86836238D01*
X-68568119Y-86883857D01*
X-68639547Y-86955285D01*
X-68663357Y-87002904D01*
X-68663357Y-87050523D01*
X-68544309Y-87026714D02*
X-68568119Y-87074333D01*
X-68615738Y-87121952D01*
X-68710976Y-87145761D01*
X-68877642Y-87145761D01*
X-68972880Y-87121952D01*
X-69020500Y-87074333D01*
X-69044309Y-87026714D01*
X-69044309Y-86931476D01*
X-69020500Y-86883857D01*
X-68972880Y-86836238D01*
X-68877642Y-86812428D01*
X-68710976Y-86812428D01*
X-68615738Y-86836238D01*
X-68568119Y-86883857D01*
X-68544309Y-86931476D01*
X-68544309Y-87026714D01*
X-68544309Y-86336238D02*
X-68544309Y-86621952D01*
X-68544309Y-86479095D02*
X-69044309Y-86479095D01*
X-68972880Y-86526714D01*
X-68925261Y-86574333D01*
X-68901452Y-86621952D01*
D13*
X-94940261Y-27332380D02*
X-94940261Y-26332380D01*
X-94606928Y-27046666D01*
X-94273595Y-26332380D01*
X-94273595Y-27332380D01*
X-93797404Y-27332380D02*
X-93797404Y-26665714D01*
X-93797404Y-26332380D02*
X-93845023Y-26380000D01*
X-93797404Y-26427619D01*
X-93749785Y-26380000D01*
X-93797404Y-26332380D01*
X-93797404Y-26427619D01*
X-93368833Y-27284761D02*
X-93273595Y-27332380D01*
X-93083119Y-27332380D01*
X-92987880Y-27284761D01*
X-92940261Y-27189523D01*
X-92940261Y-27141904D01*
X-92987880Y-27046666D01*
X-93083119Y-26999047D01*
X-93225976Y-26999047D01*
X-93321214Y-26951428D01*
X-93368833Y-26856190D01*
X-93368833Y-26808571D01*
X-93321214Y-26713333D01*
X-93225976Y-26665714D01*
X-93083119Y-26665714D01*
X-92987880Y-26713333D01*
X-92083119Y-27284761D02*
X-92178357Y-27332380D01*
X-92368833Y-27332380D01*
X-92464071Y-27284761D01*
X-92511690Y-27237142D01*
X-92559309Y-27141904D01*
X-92559309Y-26856190D01*
X-92511690Y-26760952D01*
X-92464071Y-26713333D01*
X-92368833Y-26665714D01*
X-92178357Y-26665714D01*
X-92083119Y-26713333D01*
X-94083119Y-38433333D02*
X-93368833Y-38433333D01*
X-93225976Y-38480952D01*
X-93130738Y-38576190D01*
X-93083119Y-38719047D01*
X-93083119Y-38814285D01*
X-93083119Y-37909523D02*
X-93083119Y-37719047D01*
X-93130738Y-37623809D01*
X-93178357Y-37576190D01*
X-93321214Y-37480952D01*
X-93511690Y-37433333D01*
X-93892642Y-37433333D01*
X-93987880Y-37480952D01*
X-94035500Y-37528571D01*
X-94083119Y-37623809D01*
X-94083119Y-37814285D01*
X-94035500Y-37909523D01*
X-93987880Y-37957142D01*
X-93892642Y-38004761D01*
X-93654547Y-38004761D01*
X-93559309Y-37957142D01*
X-93511690Y-37909523D01*
X-93464071Y-37814285D01*
X-93464071Y-37623809D01*
X-93511690Y-37528571D01*
X-93559309Y-37480952D01*
X-93654547Y-37433333D01*
X-61031285Y-95840714D02*
X-61031285Y-96840714D01*
X-61031285Y-96459761D02*
X-61126523Y-96507380D01*
X-61317000Y-96507380D01*
X-61412238Y-96459761D01*
X-61459857Y-96412142D01*
X-61507476Y-96316904D01*
X-61507476Y-96031190D01*
X-61459857Y-95935952D01*
X-61412238Y-95888333D01*
X-61317000Y-95840714D01*
X-61126523Y-95840714D01*
X-61031285Y-95888333D01*
X-60650333Y-95840714D02*
X-60459857Y-96507380D01*
X-60269380Y-96031190D01*
X-60078904Y-96507380D01*
X-59888428Y-95840714D01*
X-59507476Y-96507380D02*
X-59507476Y-95840714D01*
X-59507476Y-95507380D02*
X-59555095Y-95555000D01*
X-59507476Y-95602619D01*
X-59459857Y-95555000D01*
X-59507476Y-95507380D01*
X-59507476Y-95602619D01*
X-59031285Y-96507380D02*
X-59031285Y-95840714D01*
X-59031285Y-95507380D02*
X-59078904Y-95555000D01*
X-59031285Y-95602619D01*
X-58983666Y-95555000D01*
X-59031285Y-95507380D01*
X-59031285Y-95602619D01*
X-58126523Y-96459761D02*
X-58221761Y-96507380D01*
X-58412238Y-96507380D01*
X-58507476Y-96459761D01*
X-58555095Y-96412142D01*
X-58602714Y-96316904D01*
X-58602714Y-96031190D01*
X-58555095Y-95935952D01*
X-58507476Y-95888333D01*
X-58412238Y-95840714D01*
X-58221761Y-95840714D01*
X-58126523Y-95888333D01*
X-60150333Y-91527380D02*
X-60150333Y-92241666D01*
X-60197952Y-92384523D01*
X-60293190Y-92479761D01*
X-60436047Y-92527380D01*
X-60531285Y-92527380D01*
X-59245571Y-91527380D02*
X-59436047Y-91527380D01*
X-59531285Y-91575000D01*
X-59578904Y-91622619D01*
X-59674142Y-91765476D01*
X-59721761Y-91955952D01*
X-59721761Y-92336904D01*
X-59674142Y-92432142D01*
X-59626523Y-92479761D01*
X-59531285Y-92527380D01*
X-59340809Y-92527380D01*
X-59245571Y-92479761D01*
X-59197952Y-92432142D01*
X-59150333Y-92336904D01*
X-59150333Y-92098809D01*
X-59197952Y-92003571D01*
X-59245571Y-91955952D01*
X-59340809Y-91908333D01*
X-59531285Y-91908333D01*
X-59626523Y-91955952D01*
X-59674142Y-92003571D01*
X-59721761Y-92098809D01*
X-45473261Y-99342142D02*
X-45520880Y-99389761D01*
X-45663738Y-99437380D01*
X-45758976Y-99437380D01*
X-45901833Y-99389761D01*
X-45997071Y-99294523D01*
X-46044690Y-99199285D01*
X-46092309Y-99008809D01*
X-46092309Y-98865952D01*
X-46044690Y-98675476D01*
X-45997071Y-98580238D01*
X-45901833Y-98485000D01*
X-45758976Y-98437380D01*
X-45663738Y-98437380D01*
X-45520880Y-98485000D01*
X-45473261Y-98532619D01*
X-44616119Y-99437380D02*
X-44616119Y-98913571D01*
X-44663738Y-98818333D01*
X-44758976Y-98770714D01*
X-44949452Y-98770714D01*
X-45044690Y-98818333D01*
X-44616119Y-99389761D02*
X-44711357Y-99437380D01*
X-44949452Y-99437380D01*
X-45044690Y-99389761D01*
X-45092309Y-99294523D01*
X-45092309Y-99199285D01*
X-45044690Y-99104047D01*
X-44949452Y-99056428D01*
X-44711357Y-99056428D01*
X-44616119Y-99008809D01*
X-44139928Y-99437380D02*
X-44139928Y-98770714D01*
X-44139928Y-98865952D02*
X-44092309Y-98818333D01*
X-43997071Y-98770714D01*
X-43854214Y-98770714D01*
X-43758976Y-98818333D01*
X-43711357Y-98913571D01*
X-43711357Y-99437380D01*
X-43711357Y-98913571D02*
X-43663738Y-98818333D01*
X-43568500Y-98770714D01*
X-43425642Y-98770714D01*
X-43330404Y-98818333D01*
X-43282785Y-98913571D01*
X-43282785Y-99437380D01*
X-42425642Y-99389761D02*
X-42520880Y-99437380D01*
X-42711357Y-99437380D01*
X-42806595Y-99389761D01*
X-42854214Y-99294523D01*
X-42854214Y-98913571D01*
X-42806595Y-98818333D01*
X-42711357Y-98770714D01*
X-42520880Y-98770714D01*
X-42425642Y-98818333D01*
X-42378023Y-98913571D01*
X-42378023Y-99008809D01*
X-42854214Y-99104047D01*
X-41949452Y-99437380D02*
X-41949452Y-98770714D01*
X-41949452Y-98961190D02*
X-41901833Y-98865952D01*
X-41854214Y-98818333D01*
X-41758976Y-98770714D01*
X-41663738Y-98770714D01*
X-40901833Y-99437380D02*
X-40901833Y-98913571D01*
X-40949452Y-98818333D01*
X-41044690Y-98770714D01*
X-41235166Y-98770714D01*
X-41330404Y-98818333D01*
X-40901833Y-99389761D02*
X-40997071Y-99437380D01*
X-41235166Y-99437380D01*
X-41330404Y-99389761D01*
X-41378023Y-99294523D01*
X-41378023Y-99199285D01*
X-41330404Y-99104047D01*
X-41235166Y-99056428D01*
X-40997071Y-99056428D01*
X-40901833Y-99008809D01*
X-39711357Y-98532619D02*
X-39663738Y-98485000D01*
X-39568500Y-98437380D01*
X-39330404Y-98437380D01*
X-39235166Y-98485000D01*
X-39187547Y-98532619D01*
X-39139928Y-98627857D01*
X-39139928Y-98723095D01*
X-39187547Y-98865952D01*
X-39758976Y-99437380D01*
X-39139928Y-99437380D01*
X-37330404Y-98437380D02*
X-36758976Y-98437380D01*
X-37044690Y-99437380D02*
X-37044690Y-98437380D01*
X-36044690Y-99389761D02*
X-36139928Y-99437380D01*
X-36330404Y-99437380D01*
X-36425642Y-99389761D01*
X-36473261Y-99294523D01*
X-36473261Y-98913571D01*
X-36425642Y-98818333D01*
X-36330404Y-98770714D01*
X-36139928Y-98770714D01*
X-36044690Y-98818333D01*
X-35997071Y-98913571D01*
X-35997071Y-99008809D01*
X-36473261Y-99104047D01*
X-35568500Y-99437380D02*
X-35568500Y-98770714D01*
X-35568500Y-98961190D02*
X-35520880Y-98865952D01*
X-35473261Y-98818333D01*
X-35378023Y-98770714D01*
X-35282785Y-98770714D01*
X-34949452Y-99437380D02*
X-34949452Y-98770714D01*
X-34949452Y-98865952D02*
X-34901833Y-98818333D01*
X-34806595Y-98770714D01*
X-34663738Y-98770714D01*
X-34568500Y-98818333D01*
X-34520880Y-98913571D01*
X-34520880Y-99437380D01*
X-34520880Y-98913571D02*
X-34473261Y-98818333D01*
X-34378023Y-98770714D01*
X-34235166Y-98770714D01*
X-34139928Y-98818333D01*
X-34092309Y-98913571D01*
X-34092309Y-99437380D01*
X-40401833Y-96067380D02*
X-40401833Y-96781666D01*
X-40449452Y-96924523D01*
X-40544690Y-97019761D01*
X-40687547Y-97067380D01*
X-40782785Y-97067380D01*
X-39449452Y-96067380D02*
X-39925642Y-96067380D01*
X-39973261Y-96543571D01*
X-39925642Y-96495952D01*
X-39830404Y-96448333D01*
X-39592309Y-96448333D01*
X-39497071Y-96495952D01*
X-39449452Y-96543571D01*
X-39401833Y-96638809D01*
X-39401833Y-96876904D01*
X-39449452Y-96972142D01*
X-39497071Y-97019761D01*
X-39592309Y-97067380D01*
X-39830404Y-97067380D01*
X-39925642Y-97019761D01*
X-39973261Y-96972142D01*
X-33103357Y-83970142D02*
X-33150976Y-84017761D01*
X-33293833Y-84065380D01*
X-33389071Y-84065380D01*
X-33531928Y-84017761D01*
X-33627166Y-83922523D01*
X-33674785Y-83827285D01*
X-33722404Y-83636809D01*
X-33722404Y-83493952D01*
X-33674785Y-83303476D01*
X-33627166Y-83208238D01*
X-33531928Y-83113000D01*
X-33389071Y-83065380D01*
X-33293833Y-83065380D01*
X-33150976Y-83113000D01*
X-33103357Y-83160619D01*
X-32246214Y-84065380D02*
X-32246214Y-83541571D01*
X-32293833Y-83446333D01*
X-32389071Y-83398714D01*
X-32579547Y-83398714D01*
X-32674785Y-83446333D01*
X-32246214Y-84017761D02*
X-32341452Y-84065380D01*
X-32579547Y-84065380D01*
X-32674785Y-84017761D01*
X-32722404Y-83922523D01*
X-32722404Y-83827285D01*
X-32674785Y-83732047D01*
X-32579547Y-83684428D01*
X-32341452Y-83684428D01*
X-32246214Y-83636809D01*
X-31770023Y-84065380D02*
X-31770023Y-83398714D01*
X-31770023Y-83493952D02*
X-31722404Y-83446333D01*
X-31627166Y-83398714D01*
X-31484309Y-83398714D01*
X-31389071Y-83446333D01*
X-31341452Y-83541571D01*
X-31341452Y-84065380D01*
X-31341452Y-83541571D02*
X-31293833Y-83446333D01*
X-31198595Y-83398714D01*
X-31055738Y-83398714D01*
X-30960500Y-83446333D01*
X-30912880Y-83541571D01*
X-30912880Y-84065380D01*
X-30055738Y-84017761D02*
X-30150976Y-84065380D01*
X-30341452Y-84065380D01*
X-30436690Y-84017761D01*
X-30484309Y-83922523D01*
X-30484309Y-83541571D01*
X-30436690Y-83446333D01*
X-30341452Y-83398714D01*
X-30150976Y-83398714D01*
X-30055738Y-83446333D01*
X-30008119Y-83541571D01*
X-30008119Y-83636809D01*
X-30484309Y-83732047D01*
X-29579547Y-84065380D02*
X-29579547Y-83398714D01*
X-29579547Y-83589190D02*
X-29531928Y-83493952D01*
X-29484309Y-83446333D01*
X-29389071Y-83398714D01*
X-29293833Y-83398714D01*
X-28531928Y-84065380D02*
X-28531928Y-83541571D01*
X-28579547Y-83446333D01*
X-28674785Y-83398714D01*
X-28865261Y-83398714D01*
X-28960500Y-83446333D01*
X-28531928Y-84017761D02*
X-28627166Y-84065380D01*
X-28865261Y-84065380D01*
X-28960500Y-84017761D01*
X-29008119Y-83922523D01*
X-29008119Y-83827285D01*
X-28960500Y-83732047D01*
X-28865261Y-83684428D01*
X-28627166Y-83684428D01*
X-28531928Y-83636809D01*
X-27341452Y-83160619D02*
X-27293833Y-83113000D01*
X-27198595Y-83065380D01*
X-26960500Y-83065380D01*
X-26865261Y-83113000D01*
X-26817642Y-83160619D01*
X-26770023Y-83255857D01*
X-26770023Y-83351095D01*
X-26817642Y-83493952D01*
X-27389071Y-84065380D01*
X-26770023Y-84065380D01*
X-25674785Y-83065380D02*
X-25055738Y-83065380D01*
X-25389071Y-83446333D01*
X-25246214Y-83446333D01*
X-25150976Y-83493952D01*
X-25103357Y-83541571D01*
X-25055738Y-83636809D01*
X-25055738Y-83874904D01*
X-25103357Y-83970142D01*
X-25150976Y-84017761D01*
X-25246214Y-84065380D01*
X-25531928Y-84065380D01*
X-25627166Y-84017761D01*
X-25674785Y-83970142D01*
X-24627166Y-83970142D02*
X-24579547Y-84017761D01*
X-24627166Y-84065380D01*
X-24674785Y-84017761D01*
X-24627166Y-83970142D01*
X-24627166Y-84065380D01*
X-23674785Y-83065380D02*
X-24150976Y-83065380D01*
X-24198595Y-83541571D01*
X-24150976Y-83493952D01*
X-24055738Y-83446333D01*
X-23817642Y-83446333D01*
X-23722404Y-83493952D01*
X-23674785Y-83541571D01*
X-23627166Y-83636809D01*
X-23627166Y-83874904D01*
X-23674785Y-83970142D01*
X-23722404Y-84017761D01*
X-23817642Y-84065380D01*
X-24055738Y-84065380D01*
X-24150976Y-84017761D01*
X-24198595Y-83970142D01*
X-22436690Y-84065380D02*
X-22436690Y-83398714D01*
X-22436690Y-83493952D02*
X-22389071Y-83446333D01*
X-22293833Y-83398714D01*
X-22150976Y-83398714D01*
X-22055738Y-83446333D01*
X-22008119Y-83541571D01*
X-22008119Y-84065380D01*
X-22008119Y-83541571D02*
X-21960500Y-83446333D01*
X-21865261Y-83398714D01*
X-21722404Y-83398714D01*
X-21627166Y-83446333D01*
X-21579547Y-83541571D01*
X-21579547Y-84065380D01*
X-21103357Y-84065380D02*
X-21103357Y-83398714D01*
X-21103357Y-83493952D02*
X-21055738Y-83446333D01*
X-20960500Y-83398714D01*
X-20817642Y-83398714D01*
X-20722404Y-83446333D01*
X-20674785Y-83541571D01*
X-20674785Y-84065380D01*
X-20674785Y-83541571D02*
X-20627166Y-83446333D01*
X-20531928Y-83398714D01*
X-20389071Y-83398714D01*
X-20293833Y-83446333D01*
X-20246214Y-83541571D01*
X-20246214Y-84065380D01*
X-27293833Y-93315380D02*
X-27293833Y-94029666D01*
X-27341452Y-94172523D01*
X-27436690Y-94267761D01*
X-27579547Y-94315380D01*
X-27674785Y-94315380D01*
X-26912880Y-93315380D02*
X-26293833Y-93315380D01*
X-26627166Y-93696333D01*
X-26484309Y-93696333D01*
X-26389071Y-93743952D01*
X-26341452Y-93791571D01*
X-26293833Y-93886809D01*
X-26293833Y-94124904D01*
X-26341452Y-94220142D01*
X-26389071Y-94267761D01*
X-26484309Y-94315380D01*
X-26770023Y-94315380D01*
X-26865261Y-94267761D01*
X-26912880Y-94220142D01*
X-4779904Y-18105380D02*
X-4779904Y-17105380D01*
X-4779904Y-17581571D02*
X-4208476Y-17581571D01*
X-4208476Y-18105380D02*
X-4208476Y-17105380D01*
X-3303714Y-17438714D02*
X-3303714Y-18105380D01*
X-3541809Y-17057761D02*
X-3779904Y-17772047D01*
X-3160857Y-17772047D01*
X-4525904Y-95067380D02*
X-4525904Y-94067380D01*
X-4525904Y-94543571D02*
X-3954476Y-94543571D01*
X-3954476Y-95067380D02*
X-3954476Y-94067380D01*
X-3573523Y-94067380D02*
X-2954476Y-94067380D01*
X-3287809Y-94448333D01*
X-3144952Y-94448333D01*
X-3049714Y-94495952D01*
X-3002095Y-94543571D01*
X-2954476Y-94638809D01*
X-2954476Y-94876904D01*
X-3002095Y-94972142D01*
X-3049714Y-95019761D01*
X-3144952Y-95067380D01*
X-3430666Y-95067380D01*
X-3525904Y-95019761D01*
X-3573523Y-94972142D01*
X-95140404Y-95130880D02*
X-95140404Y-94130880D01*
X-95140404Y-94607071D02*
X-94568976Y-94607071D01*
X-94568976Y-95130880D02*
X-94568976Y-94130880D01*
X-94140404Y-94226119D02*
X-94092785Y-94178500D01*
X-93997547Y-94130880D01*
X-93759452Y-94130880D01*
X-93664214Y-94178500D01*
X-93616595Y-94226119D01*
X-93568976Y-94321357D01*
X-93568976Y-94416595D01*
X-93616595Y-94559452D01*
X-94188023Y-95130880D01*
X-93568976Y-95130880D01*
X-95203904Y-4643380D02*
X-95203904Y-3643380D01*
X-95203904Y-4119571D02*
X-94632476Y-4119571D01*
X-94632476Y-4643380D02*
X-94632476Y-3643380D01*
X-93632476Y-4643380D02*
X-94203904Y-4643380D01*
X-93918190Y-4643380D02*
X-93918190Y-3643380D01*
X-94013428Y-3786238D01*
X-94108666Y-3881476D01*
X-94203904Y-3929095D01*
X-88650428Y-82350761D02*
X-88602809Y-82207904D01*
X-88555190Y-82160285D01*
X-88459952Y-82112666D01*
X-88317095Y-82112666D01*
X-88221857Y-82160285D01*
X-88174238Y-82207904D01*
X-88126619Y-82303142D01*
X-88126619Y-82684095D01*
X-89126619Y-82684095D01*
X-89126619Y-82350761D01*
X-89079000Y-82255523D01*
X-89031380Y-82207904D01*
X-88936142Y-82160285D01*
X-88840904Y-82160285D01*
X-88745666Y-82207904D01*
X-88698047Y-82255523D01*
X-88650428Y-82350761D01*
X-88650428Y-82684095D01*
X-89126619Y-81779333D02*
X-89126619Y-81160285D01*
X-88745666Y-81493619D01*
X-88745666Y-81350761D01*
X-88698047Y-81255523D01*
X-88650428Y-81207904D01*
X-88555190Y-81160285D01*
X-88317095Y-81160285D01*
X-88221857Y-81207904D01*
X-88174238Y-81255523D01*
X-88126619Y-81350761D01*
X-88126619Y-81636476D01*
X-88174238Y-81731714D01*
X-88221857Y-81779333D01*
X-89126619Y-80826952D02*
X-89126619Y-80207904D01*
X-88745666Y-80541238D01*
X-88745666Y-80398380D01*
X-88698047Y-80303142D01*
X-88650428Y-80255523D01*
X-88555190Y-80207904D01*
X-88317095Y-80207904D01*
X-88221857Y-80255523D01*
X-88174238Y-80303142D01*
X-88126619Y-80398380D01*
X-88126619Y-80684095D01*
X-88174238Y-80779333D01*
X-88221857Y-80826952D01*
X-89126619Y-79588857D02*
X-89126619Y-79493619D01*
X-89079000Y-79398380D01*
X-89031380Y-79350761D01*
X-88936142Y-79303142D01*
X-88745666Y-79255523D01*
X-88507571Y-79255523D01*
X-88317095Y-79303142D01*
X-88221857Y-79350761D01*
X-88174238Y-79398380D01*
X-88126619Y-79493619D01*
X-88126619Y-79588857D01*
X-88174238Y-79684095D01*
X-88221857Y-79731714D01*
X-88317095Y-79779333D01*
X-88507571Y-79826952D01*
X-88745666Y-79826952D01*
X-88936142Y-79779333D01*
X-89031380Y-79731714D01*
X-89079000Y-79684095D01*
X-89126619Y-79588857D01*
X-88412333Y-78874571D02*
X-88412333Y-78398380D01*
X-88126619Y-78969809D02*
X-89126619Y-78636476D01*
X-88126619Y-78303142D01*
X-88507571Y-77969809D02*
X-88507571Y-77207904D01*
X-88126619Y-76207904D02*
X-88126619Y-76779333D01*
X-88126619Y-76493619D02*
X-89126619Y-76493619D01*
X-88983761Y-76588857D01*
X-88888523Y-76684095D01*
X-88840904Y-76779333D01*
X-89126619Y-75874571D02*
X-89126619Y-75255523D01*
X-88745666Y-75588857D01*
X-88745666Y-75446000D01*
X-88698047Y-75350761D01*
X-88650428Y-75303142D01*
X-88555190Y-75255523D01*
X-88317095Y-75255523D01*
X-88221857Y-75303142D01*
X-88174238Y-75350761D01*
X-88126619Y-75446000D01*
X-88126619Y-75731714D01*
X-88174238Y-75826952D01*
X-88221857Y-75874571D01*
X-88507571Y-74826952D02*
X-88507571Y-74065047D01*
X-88650428Y-73255523D02*
X-88650428Y-73588857D01*
X-88126619Y-73588857D02*
X-89126619Y-73588857D01*
X-89126619Y-73112666D01*
X-83026619Y-78684095D02*
X-84026619Y-78684095D01*
X-84026619Y-78446000D01*
X-83979000Y-78303142D01*
X-83883761Y-78207904D01*
X-83788523Y-78160285D01*
X-83598047Y-78112666D01*
X-83455190Y-78112666D01*
X-83264714Y-78160285D01*
X-83169476Y-78207904D01*
X-83074238Y-78303142D01*
X-83026619Y-78446000D01*
X-83026619Y-78684095D01*
X-84026619Y-77779333D02*
X-84026619Y-77160285D01*
X-83645666Y-77493619D01*
X-83645666Y-77350761D01*
X-83598047Y-77255523D01*
X-83550428Y-77207904D01*
X-83455190Y-77160285D01*
X-83217095Y-77160285D01*
X-83121857Y-77207904D01*
X-83074238Y-77255523D01*
X-83026619Y-77350761D01*
X-83026619Y-77636476D01*
X-83074238Y-77731714D01*
X-83121857Y-77779333D01*
X-94242619Y-87714833D02*
X-95242619Y-87714833D01*
X-95242619Y-87333880D01*
X-95195000Y-87238642D01*
X-95147380Y-87191023D01*
X-95052142Y-87143404D01*
X-94909285Y-87143404D01*
X-94814047Y-87191023D01*
X-94766428Y-87238642D01*
X-94718809Y-87333880D01*
X-94718809Y-87714833D01*
X-95242619Y-86810071D02*
X-94242619Y-86571976D01*
X-94956904Y-86381500D01*
X-94242619Y-86191023D01*
X-95242619Y-85952928D01*
X-94242619Y-85000547D02*
X-94718809Y-85333880D01*
X-94242619Y-85571976D02*
X-95242619Y-85571976D01*
X-95242619Y-85191023D01*
X-95195000Y-85095785D01*
X-95147380Y-85048166D01*
X-95052142Y-85000547D01*
X-94909285Y-85000547D01*
X-94814047Y-85048166D01*
X-94766428Y-85095785D01*
X-94718809Y-85191023D01*
X-94718809Y-85571976D01*
D15*
X-95944047Y-86676738D02*
X-96344047Y-86676738D01*
X-96344047Y-86581500D01*
X-96325000Y-86524357D01*
X-96286904Y-86486261D01*
X-96248809Y-86467214D01*
X-96172619Y-86448166D01*
X-96115476Y-86448166D01*
X-96039285Y-86467214D01*
X-96001190Y-86486261D01*
X-95963095Y-86524357D01*
X-95944047Y-86581500D01*
X-95944047Y-86676738D01*
X-96305952Y-86295785D02*
X-96325000Y-86276738D01*
X-96344047Y-86238642D01*
X-96344047Y-86143404D01*
X-96325000Y-86105309D01*
X-96305952Y-86086261D01*
X-96267857Y-86067214D01*
X-96229761Y-86067214D01*
X-96172619Y-86086261D01*
X-95944047Y-86314833D01*
X-95944047Y-86067214D01*
D13*
X-91951119Y-13048928D02*
X-91951119Y-12953690D01*
X-91903500Y-12858452D01*
X-91855880Y-12810833D01*
X-91760642Y-12763214D01*
X-91570166Y-12715595D01*
X-91332071Y-12715595D01*
X-91141595Y-12763214D01*
X-91046357Y-12810833D01*
X-90998738Y-12858452D01*
X-90951119Y-12953690D01*
X-90951119Y-13048928D01*
X-90998738Y-13144166D01*
X-91046357Y-13191785D01*
X-91141595Y-13239404D01*
X-91332071Y-13287023D01*
X-91570166Y-13287023D01*
X-91760642Y-13239404D01*
X-91855880Y-13191785D01*
X-91903500Y-13144166D01*
X-91951119Y-13048928D01*
X-91046357Y-12287023D02*
X-90998738Y-12239404D01*
X-90951119Y-12287023D01*
X-90998738Y-12334642D01*
X-91046357Y-12287023D01*
X-90951119Y-12287023D01*
X-91951119Y-11620357D02*
X-91951119Y-11525119D01*
X-91903500Y-11429880D01*
X-91855880Y-11382261D01*
X-91760642Y-11334642D01*
X-91570166Y-11287023D01*
X-91332071Y-11287023D01*
X-91141595Y-11334642D01*
X-91046357Y-11382261D01*
X-90998738Y-11429880D01*
X-90951119Y-11525119D01*
X-90951119Y-11620357D01*
X-90998738Y-11715595D01*
X-91046357Y-11763214D01*
X-91141595Y-11810833D01*
X-91332071Y-11858452D01*
X-91570166Y-11858452D01*
X-91760642Y-11810833D01*
X-91855880Y-11763214D01*
X-91903500Y-11715595D01*
X-91951119Y-11620357D01*
X-90951119Y-10334642D02*
X-90951119Y-10906071D01*
X-90951119Y-10620357D02*
X-91951119Y-10620357D01*
X-91808261Y-10715595D01*
X-91713023Y-10810833D01*
X-91665404Y-10906071D01*
X-91617785Y-9144166D02*
X-90617785Y-9144166D01*
X-91093976Y-8667976D02*
X-90998738Y-8620357D01*
X-90951119Y-8525119D01*
X-91093976Y-9144166D02*
X-90998738Y-9096547D01*
X-90951119Y-9001309D01*
X-90951119Y-8810833D01*
X-90998738Y-8715595D01*
X-91093976Y-8667976D01*
X-91617785Y-8667976D01*
X-91474928Y-7763214D02*
X-91474928Y-8096547D01*
X-90951119Y-8096547D02*
X-91951119Y-8096547D01*
X-91951119Y-7620357D01*
D20*
X-90144214Y-10519166D02*
X-90132309Y-10531071D01*
X-90120404Y-10566785D01*
X-90120404Y-10590595D01*
X-90132309Y-10626309D01*
X-90156119Y-10650119D01*
X-90179928Y-10662023D01*
X-90227547Y-10673928D01*
X-90263261Y-10673928D01*
X-90310880Y-10662023D01*
X-90334690Y-10650119D01*
X-90358500Y-10626309D01*
X-90370404Y-10590595D01*
X-90370404Y-10566785D01*
X-90358500Y-10531071D01*
X-90346595Y-10519166D01*
X-90287071Y-10304880D02*
X-90120404Y-10304880D01*
X-90382309Y-10364404D02*
X-90203738Y-10423928D01*
X-90203738Y-10269166D01*
D13*
X-61480619Y-24986928D02*
X-61480619Y-24891690D01*
X-61433000Y-24796452D01*
X-61385380Y-24748833D01*
X-61290142Y-24701214D01*
X-61099666Y-24653595D01*
X-60861571Y-24653595D01*
X-60671095Y-24701214D01*
X-60575857Y-24748833D01*
X-60528238Y-24796452D01*
X-60480619Y-24891690D01*
X-60480619Y-24986928D01*
X-60528238Y-25082166D01*
X-60575857Y-25129785D01*
X-60671095Y-25177404D01*
X-60861571Y-25225023D01*
X-61099666Y-25225023D01*
X-61290142Y-25177404D01*
X-61385380Y-25129785D01*
X-61433000Y-25082166D01*
X-61480619Y-24986928D01*
X-60575857Y-24225023D02*
X-60528238Y-24177404D01*
X-60480619Y-24225023D01*
X-60528238Y-24272642D01*
X-60575857Y-24225023D01*
X-60480619Y-24225023D01*
X-61480619Y-23558357D02*
X-61480619Y-23463119D01*
X-61433000Y-23367880D01*
X-61385380Y-23320261D01*
X-61290142Y-23272642D01*
X-61099666Y-23225023D01*
X-60861571Y-23225023D01*
X-60671095Y-23272642D01*
X-60575857Y-23320261D01*
X-60528238Y-23367880D01*
X-60480619Y-23463119D01*
X-60480619Y-23558357D01*
X-60528238Y-23653595D01*
X-60575857Y-23701214D01*
X-60671095Y-23748833D01*
X-60861571Y-23796452D01*
X-61099666Y-23796452D01*
X-61290142Y-23748833D01*
X-61385380Y-23701214D01*
X-61433000Y-23653595D01*
X-61480619Y-23558357D01*
X-60480619Y-22272642D02*
X-60480619Y-22844071D01*
X-60480619Y-22558357D02*
X-61480619Y-22558357D01*
X-61337761Y-22653595D01*
X-61242523Y-22748833D01*
X-61194904Y-22844071D01*
X-61147285Y-21082166D02*
X-60147285Y-21082166D01*
X-60623476Y-20605976D02*
X-60528238Y-20558357D01*
X-60480619Y-20463119D01*
X-60623476Y-21082166D02*
X-60528238Y-21034547D01*
X-60480619Y-20939309D01*
X-60480619Y-20748833D01*
X-60528238Y-20653595D01*
X-60623476Y-20605976D01*
X-61147285Y-20605976D01*
X-61004428Y-19701214D02*
X-61004428Y-20034547D01*
X-60480619Y-20034547D02*
X-61480619Y-20034547D01*
X-61480619Y-19558357D01*
D20*
X-62013714Y-22457166D02*
X-62001809Y-22469071D01*
X-61989904Y-22504785D01*
X-61989904Y-22528595D01*
X-62001809Y-22564309D01*
X-62025619Y-22588119D01*
X-62049428Y-22600023D01*
X-62097047Y-22611928D01*
X-62132761Y-22611928D01*
X-62180380Y-22600023D01*
X-62204190Y-22588119D01*
X-62228000Y-22564309D01*
X-62239904Y-22528595D01*
X-62239904Y-22504785D01*
X-62228000Y-22469071D01*
X-62216095Y-22457166D01*
X-62239904Y-22373833D02*
X-62239904Y-22219071D01*
X-62144666Y-22302404D01*
X-62144666Y-22266690D01*
X-62132761Y-22242880D01*
X-62120857Y-22230976D01*
X-62097047Y-22219071D01*
X-62037523Y-22219071D01*
X-62013714Y-22230976D01*
X-62001809Y-22242880D01*
X-61989904Y-22266690D01*
X-61989904Y-22338119D01*
X-62001809Y-22361928D01*
X-62013714Y-22373833D01*
D13*
X-73579380Y-64619000D02*
X-73627000Y-64571380D01*
X-73674619Y-64476142D01*
X-73674619Y-64238047D01*
X-73627000Y-64142809D01*
X-73579380Y-64095190D01*
X-73484142Y-64047571D01*
X-73388904Y-64047571D01*
X-73246047Y-64095190D01*
X-72674619Y-64666619D01*
X-72674619Y-64047571D01*
X-73674619Y-63142809D02*
X-73674619Y-63619000D01*
X-73198428Y-63666619D01*
X-73246047Y-63619000D01*
X-73293666Y-63523761D01*
X-73293666Y-63285666D01*
X-73246047Y-63190428D01*
X-73198428Y-63142809D01*
X-73103190Y-63095190D01*
X-72865095Y-63095190D01*
X-72769857Y-63142809D01*
X-72722238Y-63190428D01*
X-72674619Y-63285666D01*
X-72674619Y-63523761D01*
X-72722238Y-63619000D01*
X-72769857Y-63666619D01*
X-73341285Y-62238047D02*
X-72674619Y-62238047D01*
X-73341285Y-62666619D02*
X-72817476Y-62666619D01*
X-72722238Y-62619000D01*
X-72674619Y-62523761D01*
X-72674619Y-62380904D01*
X-72722238Y-62285666D01*
X-72769857Y-62238047D01*
X-73341285Y-61904714D02*
X-73341285Y-61523761D01*
X-72674619Y-61761857D02*
X-73531761Y-61761857D01*
X-73627000Y-61714238D01*
X-73674619Y-61619000D01*
X-73674619Y-61523761D01*
D17*
X-76041285Y-63252333D02*
X-76003190Y-63290428D01*
X-75965095Y-63404714D01*
X-75965095Y-63480904D01*
X-76003190Y-63595190D01*
X-76079380Y-63671380D01*
X-76155571Y-63709476D01*
X-76307952Y-63747571D01*
X-76422238Y-63747571D01*
X-76574619Y-63709476D01*
X-76650809Y-63671380D01*
X-76727000Y-63595190D01*
X-76765095Y-63480904D01*
X-76765095Y-63404714D01*
X-76727000Y-63290428D01*
X-76688904Y-63252333D01*
X-76688904Y-62947571D02*
X-76727000Y-62909476D01*
X-76765095Y-62833285D01*
X-76765095Y-62642809D01*
X-76727000Y-62566619D01*
X-76688904Y-62528523D01*
X-76612714Y-62490428D01*
X-76536523Y-62490428D01*
X-76422238Y-62528523D01*
X-75965095Y-62985666D01*
X-75965095Y-62490428D01*
D19*
X-75688976Y-27909761D02*
X-76958976Y-27909761D01*
X-75809928Y-26579285D02*
X-75749452Y-26639761D01*
X-75688976Y-26821190D01*
X-75688976Y-26942142D01*
X-75749452Y-27123571D01*
X-75870404Y-27244523D01*
X-75991357Y-27305000D01*
X-76233261Y-27365476D01*
X-76414690Y-27365476D01*
X-76656595Y-27305000D01*
X-76777547Y-27244523D01*
X-76898500Y-27123571D01*
X-76958976Y-26942142D01*
X-76958976Y-26821190D01*
X-76898500Y-26639761D01*
X-76838023Y-26579285D01*
X-75688976Y-25369761D02*
X-75688976Y-26095476D01*
X-75688976Y-25732619D02*
X-76958976Y-25732619D01*
X-76777547Y-25853571D01*
X-76656595Y-25974523D01*
X-76596119Y-26095476D01*
D13*
X-79723500Y-65770666D02*
X-79247309Y-65770666D01*
X-79818738Y-66056380D02*
X-79485404Y-65056380D01*
X-79152071Y-66056380D01*
X-78818738Y-66056380D02*
X-78818738Y-65056380D01*
X-78485404Y-65770666D01*
X-78152071Y-65056380D01*
X-78152071Y-66056380D01*
X-77723500Y-66008761D02*
X-77580642Y-66056380D01*
X-77342547Y-66056380D01*
X-77247309Y-66008761D01*
X-77199690Y-65961142D01*
X-77152071Y-65865904D01*
X-77152071Y-65770666D01*
X-77199690Y-65675428D01*
X-77247309Y-65627809D01*
X-77342547Y-65580190D01*
X-77533023Y-65532571D01*
X-77628261Y-65484952D01*
X-77675880Y-65437333D01*
X-77723500Y-65342095D01*
X-77723500Y-65246857D01*
X-77675880Y-65151619D01*
X-77628261Y-65104000D01*
X-77533023Y-65056380D01*
X-77294928Y-65056380D01*
X-77152071Y-65104000D01*
X-76199690Y-66056380D02*
X-76771119Y-66056380D01*
X-76485404Y-66056380D02*
X-76485404Y-65056380D01*
X-76580642Y-65199238D01*
X-76675880Y-65294476D01*
X-76771119Y-65342095D01*
X-75247309Y-66056380D02*
X-75818738Y-66056380D01*
X-75533023Y-66056380D02*
X-75533023Y-65056380D01*
X-75628261Y-65199238D01*
X-75723500Y-65294476D01*
X-75818738Y-65342095D01*
X-74294928Y-66056380D02*
X-74866357Y-66056380D01*
X-74580642Y-66056380D02*
X-74580642Y-65056380D01*
X-74675880Y-65199238D01*
X-74771119Y-65294476D01*
X-74866357Y-65342095D01*
X-73961595Y-65056380D02*
X-73294928Y-65056380D01*
X-73723500Y-66056380D01*
X-72342547Y-65961142D02*
X-72390166Y-66008761D01*
X-72533023Y-66056380D01*
X-72628261Y-66056380D01*
X-72771119Y-66008761D01*
X-72866357Y-65913523D01*
X-72913976Y-65818285D01*
X-72961595Y-65627809D01*
X-72961595Y-65484952D01*
X-72913976Y-65294476D01*
X-72866357Y-65199238D01*
X-72771119Y-65104000D01*
X-72628261Y-65056380D01*
X-72533023Y-65056380D01*
X-72390166Y-65104000D01*
X-72342547Y-65151619D01*
X-71913976Y-66056380D02*
X-71913976Y-65056380D01*
X-71675880Y-65056380D01*
X-71533023Y-65104000D01*
X-71437785Y-65199238D01*
X-71390166Y-65294476D01*
X-71342547Y-65484952D01*
X-71342547Y-65627809D01*
X-71390166Y-65818285D01*
X-71437785Y-65913523D01*
X-71533023Y-66008761D01*
X-71675880Y-66056380D01*
X-71913976Y-66056380D01*
X-70913976Y-65675428D02*
X-70152071Y-65675428D01*
X-69199690Y-65056380D02*
X-69675880Y-65056380D01*
X-69723500Y-65532571D01*
X-69675880Y-65484952D01*
X-69580642Y-65437333D01*
X-69342547Y-65437333D01*
X-69247309Y-65484952D01*
X-69199690Y-65532571D01*
X-69152071Y-65627809D01*
X-69152071Y-65865904D01*
X-69199690Y-65961142D01*
X-69247309Y-66008761D01*
X-69342547Y-66056380D01*
X-69580642Y-66056380D01*
X-69675880Y-66008761D01*
X-69723500Y-65961142D01*
X-68723500Y-65961142D02*
X-68675880Y-66008761D01*
X-68723500Y-66056380D01*
X-68771119Y-66008761D01*
X-68723500Y-65961142D01*
X-68723500Y-66056380D01*
X-68056833Y-65056380D02*
X-67961595Y-65056380D01*
X-67866357Y-65104000D01*
X-67818738Y-65151619D01*
X-67771119Y-65246857D01*
X-67723500Y-65437333D01*
X-67723500Y-65675428D01*
X-67771119Y-65865904D01*
X-67818738Y-65961142D01*
X-67866357Y-66008761D01*
X-67961595Y-66056380D01*
X-68056833Y-66056380D01*
X-68152071Y-66008761D01*
X-68199690Y-65961142D01*
X-68247309Y-65865904D01*
X-68294928Y-65675428D01*
X-68294928Y-65437333D01*
X-68247309Y-65246857D01*
X-68199690Y-65151619D01*
X-68152071Y-65104000D01*
X-68056833Y-65056380D01*
D17*
X-74161595Y-70713523D02*
X-73513976Y-70713523D01*
X-73437785Y-70675428D01*
X-73399690Y-70637333D01*
X-73361595Y-70561142D01*
X-73361595Y-70408761D01*
X-73399690Y-70332571D01*
X-73437785Y-70294476D01*
X-73513976Y-70256380D01*
X-74161595Y-70256380D01*
X-73361595Y-69456380D02*
X-73361595Y-69913523D01*
X-73361595Y-69684952D02*
X-74161595Y-69684952D01*
X-74047309Y-69761142D01*
X-73971119Y-69837333D01*
X-73933023Y-69913523D01*
D13*
X-20784619Y-36077619D02*
X-19975095Y-36077619D01*
X-19879857Y-36030000D01*
X-19832238Y-35982380D01*
X-19784619Y-35887142D01*
X-19784619Y-35696666D01*
X-19832238Y-35601428D01*
X-19879857Y-35553809D01*
X-19975095Y-35506190D01*
X-20784619Y-35506190D01*
X-19784619Y-34553809D02*
X-19784619Y-35030000D01*
X-20784619Y-35030000D01*
X-19784619Y-34220476D02*
X-20784619Y-34220476D01*
X-19784619Y-33649047D01*
X-20784619Y-33649047D01*
X-20689380Y-33220476D02*
X-20737000Y-33172857D01*
X-20784619Y-33077619D01*
X-20784619Y-32839523D01*
X-20737000Y-32744285D01*
X-20689380Y-32696666D01*
X-20594142Y-32649047D01*
X-20498904Y-32649047D01*
X-20356047Y-32696666D01*
X-19784619Y-33268095D01*
X-19784619Y-32649047D01*
X-20356047Y-32077619D02*
X-20403666Y-32172857D01*
X-20451285Y-32220476D01*
X-20546523Y-32268095D01*
X-20594142Y-32268095D01*
X-20689380Y-32220476D01*
X-20737000Y-32172857D01*
X-20784619Y-32077619D01*
X-20784619Y-31887142D01*
X-20737000Y-31791904D01*
X-20689380Y-31744285D01*
X-20594142Y-31696666D01*
X-20546523Y-31696666D01*
X-20451285Y-31744285D01*
X-20403666Y-31791904D01*
X-20356047Y-31887142D01*
X-20356047Y-32077619D01*
X-20308428Y-32172857D01*
X-20260809Y-32220476D01*
X-20165571Y-32268095D01*
X-19975095Y-32268095D01*
X-19879857Y-32220476D01*
X-19832238Y-32172857D01*
X-19784619Y-32077619D01*
X-19784619Y-31887142D01*
X-19832238Y-31791904D01*
X-19879857Y-31744285D01*
X-19975095Y-31696666D01*
X-20165571Y-31696666D01*
X-20260809Y-31744285D01*
X-20308428Y-31791904D01*
X-20356047Y-31887142D01*
X-20784619Y-31077619D02*
X-20784619Y-30982380D01*
X-20737000Y-30887142D01*
X-20689380Y-30839523D01*
X-20594142Y-30791904D01*
X-20403666Y-30744285D01*
X-20165571Y-30744285D01*
X-19975095Y-30791904D01*
X-19879857Y-30839523D01*
X-19832238Y-30887142D01*
X-19784619Y-30982380D01*
X-19784619Y-31077619D01*
X-19832238Y-31172857D01*
X-19879857Y-31220476D01*
X-19975095Y-31268095D01*
X-20165571Y-31315714D01*
X-20403666Y-31315714D01*
X-20594142Y-31268095D01*
X-20689380Y-31220476D01*
X-20737000Y-31172857D01*
X-20784619Y-31077619D01*
X-20784619Y-30410952D02*
X-20784619Y-29791904D01*
X-20403666Y-30125238D01*
X-20403666Y-29982380D01*
X-20356047Y-29887142D01*
X-20308428Y-29839523D01*
X-20213190Y-29791904D01*
X-19975095Y-29791904D01*
X-19879857Y-29839523D01*
X-19832238Y-29887142D01*
X-19784619Y-29982380D01*
X-19784619Y-30268095D01*
X-19832238Y-30363333D01*
X-19879857Y-30410952D01*
X-20070333Y-29410952D02*
X-20070333Y-28934761D01*
X-19784619Y-29506190D02*
X-20784619Y-29172857D01*
X-19784619Y-28839523D01*
M02*
