%FSLAX45Y45*%
G04 Gerber Fmt 4.5, Leading zero omitted, Abs format (unit mm)*
G04 Created by KiCad (PCBNEW (5.1.4)-1) date 2023-06-30 15:23:16*
%MOMM*%
%LPD*%
G04 APERTURE LIST*
%ADD10C,0.050000*%
%ADD11C,0.200000*%
%ADD12C,0.300000*%
G04 APERTURE END LIST*
D10*
X6457950Y-22618700D02*
X6451600Y-12649200D01*
X13976350Y-22618700D02*
X6457950Y-22618700D01*
X13976350Y-12649200D02*
X13976350Y-22618700D01*
X6451600Y-12649200D02*
X13976350Y-12649200D01*
D11*
X10095550Y-18229900D02*
X10135550Y-18269900D01*
X10135550Y-18229900D02*
X10095550Y-18269900D01*
X10228900Y-17696500D02*
X10268900Y-17736500D01*
X10268900Y-17696500D02*
X10228900Y-17736500D01*
X10626350Y-18151100D02*
X10666350Y-18191100D01*
X10666350Y-18151100D02*
X10626350Y-18191100D01*
X10660700Y-17683800D02*
X10700700Y-17723800D01*
X10700700Y-17683800D02*
X10660700Y-17723800D01*
X11321100Y-18121950D02*
X11361100Y-18161950D01*
X11361100Y-18121950D02*
X11321100Y-18161950D01*
X11359200Y-17702850D02*
X11399200Y-17742850D01*
X11399200Y-17702850D02*
X11359200Y-17742850D01*
X11285850Y-16268700D02*
G75*
G03X11285850Y-16268700I-40000J0D01*
G01*
X12047850Y-16268700D02*
G75*
G03X12047850Y-16268700I-40000J0D01*
G01*
X11292200Y-15487650D02*
G75*
G03X11292200Y-15487650I-40000J0D01*
G01*
X12054200Y-15487650D02*
G75*
G03X12054200Y-15487650I-40000J0D01*
G01*
X11489050Y-21996400D02*
G75*
G03X11489050Y-21996400I-40000J0D01*
G01*
X12251050Y-21996400D02*
G75*
G03X12251050Y-21996400I-40000J0D01*
G01*
X8002900Y-19850100D02*
G75*
G03X8002900Y-19850100I-40000J0D01*
G01*
X8002900Y-20612100D02*
G75*
G03X8002900Y-20612100I-40000J0D01*
G01*
X11425550Y-19831050D02*
G75*
G03X11425550Y-19831050I-40000J0D01*
G01*
X12187550Y-19831050D02*
G75*
G03X12187550Y-19831050I-40000J0D01*
G01*
X11038550Y-14627500D02*
X11038550Y-14737500D01*
X10983550Y-14682500D02*
X11093550Y-14682500D01*
X11038550Y-15107500D02*
X11038550Y-15217500D01*
X10983550Y-15162500D02*
X11093550Y-15162500D01*
X9033800Y-17421500D02*
X9033800Y-17531500D01*
X8978800Y-17476500D02*
X9088800Y-17476500D01*
X9033800Y-17901500D02*
X9033800Y-18011500D01*
X8978800Y-17956500D02*
X9088800Y-17956500D01*
X10873450Y-18475600D02*
X10873450Y-18585600D01*
X10818450Y-18530600D02*
X10928450Y-18530600D01*
X10873450Y-18955600D02*
X10873450Y-19065600D01*
X10818450Y-19010600D02*
X10928450Y-19010600D01*
X10924250Y-16742050D02*
X10924250Y-16852050D01*
X10869250Y-16797050D02*
X10979250Y-16797050D01*
X10924250Y-17222050D02*
X10924250Y-17332050D01*
X10869250Y-17277050D02*
X10979250Y-17277050D01*
X10873450Y-20348850D02*
X10873450Y-20458850D01*
X10818450Y-20403850D02*
X10928450Y-20403850D01*
X10873450Y-20828850D02*
X10873450Y-20938850D01*
X10818450Y-20883850D02*
X10928450Y-20883850D01*
X12978819Y-20516269D02*
X12978819Y-20403131D01*
X12865681Y-20403131D01*
X12865681Y-20516269D01*
X12978819Y-20516269D01*
X12978819Y-21024269D02*
X12978819Y-20911131D01*
X12865681Y-20911131D01*
X12865681Y-21024269D01*
X12978819Y-21024269D01*
X12978819Y-21532269D02*
X12978819Y-21419131D01*
X12865681Y-21419131D01*
X12865681Y-21532269D01*
X12978819Y-21532269D01*
X12978819Y-22040269D02*
X12978819Y-21927131D01*
X12865681Y-21927131D01*
X12865681Y-22040269D01*
X12978819Y-22040269D01*
X8908469Y-19151019D02*
X8908469Y-19037881D01*
X8795331Y-19037881D01*
X8795331Y-19151019D01*
X8908469Y-19151019D01*
X9416469Y-19151019D02*
X9416469Y-19037881D01*
X9303331Y-19037881D01*
X9303331Y-19151019D01*
X9416469Y-19151019D01*
X12997869Y-13918619D02*
X12997869Y-13805481D01*
X12884731Y-13805481D01*
X12884731Y-13918619D01*
X12997869Y-13918619D01*
X12997869Y-14426619D02*
X12997869Y-14313481D01*
X12884731Y-14313481D01*
X12884731Y-14426619D01*
X12997869Y-14426619D01*
X12997869Y-14934619D02*
X12997869Y-14821481D01*
X12884731Y-14821481D01*
X12884731Y-14934619D01*
X12997869Y-14934619D01*
X12997869Y-15442619D02*
X12997869Y-15329481D01*
X12884731Y-15329481D01*
X12884731Y-15442619D01*
X12997869Y-15442619D01*
X12947069Y-16160169D02*
X12947069Y-16047031D01*
X12833931Y-16047031D01*
X12833931Y-16160169D01*
X12947069Y-16160169D01*
X12947069Y-16668169D02*
X12947069Y-16555031D01*
X12833931Y-16555031D01*
X12833931Y-16668169D01*
X12947069Y-16668169D01*
X12947069Y-17176169D02*
X12947069Y-17063031D01*
X12833931Y-17063031D01*
X12833931Y-17176169D01*
X12947069Y-17176169D01*
X12947069Y-17684169D02*
X12947069Y-17571031D01*
X12833931Y-17571031D01*
X12833931Y-17684169D01*
X12947069Y-17684169D01*
X7530519Y-19163719D02*
X7530519Y-19050581D01*
X7417381Y-19050581D01*
X7417381Y-19163719D01*
X7530519Y-19163719D01*
X8038519Y-19163719D02*
X8038519Y-19050581D01*
X7925381Y-19050581D01*
X7925381Y-19163719D01*
X8038519Y-19163719D01*
X7403519Y-17315869D02*
X7403519Y-17202731D01*
X7290381Y-17202731D01*
X7290381Y-17315869D01*
X7403519Y-17315869D01*
X7403519Y-17823869D02*
X7403519Y-17710731D01*
X7290381Y-17710731D01*
X7290381Y-17823869D01*
X7403519Y-17823869D01*
X12997869Y-18363619D02*
X12997869Y-18250481D01*
X12884731Y-18250481D01*
X12884731Y-18363619D01*
X12997869Y-18363619D01*
X12997869Y-18871619D02*
X12997869Y-18758481D01*
X12884731Y-18758481D01*
X12884731Y-18871619D01*
X12997869Y-18871619D01*
X12997869Y-19379619D02*
X12997869Y-19266481D01*
X12884731Y-19266481D01*
X12884731Y-19379619D01*
X12997869Y-19379619D01*
X12997869Y-19887619D02*
X12997869Y-19774481D01*
X12884731Y-19774481D01*
X12884731Y-19887619D01*
X12997869Y-19887619D01*
X8171869Y-13397919D02*
X8171869Y-13284781D01*
X8058731Y-13284781D01*
X8058731Y-13397919D01*
X8171869Y-13397919D01*
X8679869Y-13397919D02*
X8679869Y-13284781D01*
X8566731Y-13284781D01*
X8566731Y-13397919D01*
X8679869Y-13397919D01*
X9187869Y-13397919D02*
X9187869Y-13284781D01*
X9074731Y-13284781D01*
X9074731Y-13397919D01*
X9187869Y-13397919D01*
X9695869Y-13397919D02*
X9695869Y-13284781D01*
X9582731Y-13284781D01*
X9582731Y-13397919D01*
X9695869Y-13397919D01*
X10203869Y-13397919D02*
X10203869Y-13284781D01*
X10090731Y-13284781D01*
X10090731Y-13397919D01*
X10203869Y-13397919D01*
X10711869Y-13397919D02*
X10711869Y-13284781D01*
X10598731Y-13284781D01*
X10598731Y-13397919D01*
X10711869Y-13397919D01*
X9829219Y-15836319D02*
X9829219Y-15723181D01*
X9716081Y-15723181D01*
X9716081Y-15836319D01*
X9829219Y-15836319D01*
X9829219Y-16344319D02*
X9829219Y-16231181D01*
X9716081Y-16231181D01*
X9716081Y-16344319D01*
X9829219Y-16344319D01*
X8193800Y-17801500D02*
X8278800Y-17716500D01*
X8193800Y-17631500D01*
X8108800Y-17716500D01*
X8193800Y-17801500D01*
X9433800Y-17561500D02*
X9518800Y-17476500D01*
X9433800Y-17391500D01*
X9348800Y-17476500D01*
X9433800Y-17561500D01*
X9433800Y-18041500D02*
X9518800Y-17956500D01*
X9433800Y-17871500D01*
X9348800Y-17956500D01*
X9433800Y-18041500D01*
X10473450Y-18615600D02*
X10558450Y-18530600D01*
X10473450Y-18445600D01*
X10388450Y-18530600D01*
X10473450Y-18615600D01*
X10473450Y-19095600D02*
X10558450Y-19010600D01*
X10473450Y-18925600D01*
X10388450Y-19010600D01*
X10473450Y-19095600D01*
X11713450Y-18855600D02*
X11798450Y-18770600D01*
X11713450Y-18685600D01*
X11628450Y-18770600D01*
X11713450Y-18855600D01*
X10524250Y-16882050D02*
X10609250Y-16797050D01*
X10524250Y-16712050D01*
X10439250Y-16797050D01*
X10524250Y-16882050D01*
X10524250Y-17362050D02*
X10609250Y-17277050D01*
X10524250Y-17192050D01*
X10439250Y-17277050D01*
X10524250Y-17362050D01*
X11764250Y-17122050D02*
X11849250Y-17037050D01*
X11764250Y-16952050D01*
X11679250Y-17037050D01*
X11764250Y-17122050D01*
X10473450Y-20488850D02*
X10558450Y-20403850D01*
X10473450Y-20318850D01*
X10388450Y-20403850D01*
X10473450Y-20488850D01*
X10473450Y-20968850D02*
X10558450Y-20883850D01*
X10473450Y-20798850D01*
X10388450Y-20883850D01*
X10473450Y-20968850D01*
X11713450Y-20728850D02*
X11798450Y-20643850D01*
X11713450Y-20558850D01*
X11628450Y-20643850D01*
X11713450Y-20728850D01*
X10638550Y-14767500D02*
X10723550Y-14682500D01*
X10638550Y-14597500D01*
X10553550Y-14682500D01*
X10638550Y-14767500D01*
X10638550Y-15247500D02*
X10723550Y-15162500D01*
X10638550Y-15077500D01*
X10553550Y-15162500D01*
X10638550Y-15247500D01*
X11878550Y-15007500D02*
X11963550Y-14922500D01*
X11878550Y-14837500D01*
X11793550Y-14922500D01*
X11878550Y-15007500D01*
X6745400Y-21801250D02*
X7275400Y-22331250D01*
X7275400Y-21801250D02*
X6745400Y-22331250D01*
X7275400Y-22066250D02*
G75*
G03X7275400Y-22066250I-265000J0D01*
G01*
X11622200Y-12968400D02*
X12152200Y-13498400D01*
X12152200Y-12968400D02*
X11622200Y-13498400D01*
X12152200Y-13233400D02*
G75*
G03X12152200Y-13233400I-265000J0D01*
G01*
X6745400Y-12943000D02*
X7275400Y-13473000D01*
X7275400Y-12943000D02*
X6745400Y-13473000D01*
X7275400Y-13208000D02*
G75*
G03X7275400Y-13208000I-265000J0D01*
G01*
X10453800Y-21782200D02*
X10983800Y-22312200D01*
X10983800Y-21782200D02*
X10453800Y-22312200D01*
X10983800Y-22047200D02*
G75*
G03X10983800Y-22047200I-265000J0D01*
G01*
D12*
X6735528Y-23086914D02*
X6735528Y-22786914D01*
X6806957Y-22786914D01*
X6849814Y-22801200D01*
X6878386Y-22829771D01*
X6892671Y-22858343D01*
X6906957Y-22915486D01*
X6906957Y-22958343D01*
X6892671Y-23015486D01*
X6878386Y-23044057D01*
X6849814Y-23072629D01*
X6806957Y-23086914D01*
X6735528Y-23086914D01*
X7035528Y-23086914D02*
X7035528Y-22886914D01*
X7035528Y-22944057D02*
X7049814Y-22915486D01*
X7064100Y-22901200D01*
X7092671Y-22886914D01*
X7121243Y-22886914D01*
X7221243Y-23086914D02*
X7221243Y-22886914D01*
X7221243Y-22786914D02*
X7206957Y-22801200D01*
X7221243Y-22815486D01*
X7235528Y-22801200D01*
X7221243Y-22786914D01*
X7221243Y-22815486D01*
X7406957Y-23086914D02*
X7378386Y-23072629D01*
X7364100Y-23044057D01*
X7364100Y-22786914D01*
X7564100Y-23086914D02*
X7535528Y-23072629D01*
X7521243Y-23044057D01*
X7521243Y-22786914D01*
X7906957Y-23086914D02*
X7906957Y-22786914D01*
X8006957Y-23001200D01*
X8106957Y-22786914D01*
X8106957Y-23086914D01*
X8378386Y-23086914D02*
X8378386Y-22929771D01*
X8364100Y-22901200D01*
X8335528Y-22886914D01*
X8278386Y-22886914D01*
X8249814Y-22901200D01*
X8378386Y-23072629D02*
X8349814Y-23086914D01*
X8278386Y-23086914D01*
X8249814Y-23072629D01*
X8235528Y-23044057D01*
X8235528Y-23015486D01*
X8249814Y-22986914D01*
X8278386Y-22972629D01*
X8349814Y-22972629D01*
X8378386Y-22958343D01*
X8521243Y-22886914D02*
X8521243Y-23186914D01*
X8521243Y-22901200D02*
X8549814Y-22886914D01*
X8606957Y-22886914D01*
X8635528Y-22901200D01*
X8649814Y-22915486D01*
X8664100Y-22944057D01*
X8664100Y-23029771D01*
X8649814Y-23058343D01*
X8635528Y-23072629D01*
X8606957Y-23086914D01*
X8549814Y-23086914D01*
X8521243Y-23072629D01*
X8792671Y-23058343D02*
X8806957Y-23072629D01*
X8792671Y-23086914D01*
X8778386Y-23072629D01*
X8792671Y-23058343D01*
X8792671Y-23086914D01*
X8792671Y-22901200D02*
X8806957Y-22915486D01*
X8792671Y-22929771D01*
X8778386Y-22915486D01*
X8792671Y-22901200D01*
X8792671Y-22929771D01*
X6409100Y-23561200D02*
X6449100Y-23601200D01*
X6449100Y-23561200D02*
X6409100Y-23601200D01*
X6792671Y-23416914D02*
X6821243Y-23416914D01*
X6849814Y-23431200D01*
X6864100Y-23445486D01*
X6878386Y-23474057D01*
X6892671Y-23531200D01*
X6892671Y-23602629D01*
X6878386Y-23659771D01*
X6864100Y-23688343D01*
X6849814Y-23702629D01*
X6821243Y-23716914D01*
X6792671Y-23716914D01*
X6764100Y-23702629D01*
X6749814Y-23688343D01*
X6735528Y-23659771D01*
X6721243Y-23602629D01*
X6721243Y-23531200D01*
X6735528Y-23474057D01*
X6749814Y-23445486D01*
X6764100Y-23431200D01*
X6792671Y-23416914D01*
X7021243Y-23688343D02*
X7035528Y-23702629D01*
X7021243Y-23716914D01*
X7006957Y-23702629D01*
X7021243Y-23688343D01*
X7021243Y-23716914D01*
X7292671Y-23516914D02*
X7292671Y-23716914D01*
X7221243Y-23402629D02*
X7149814Y-23616914D01*
X7335528Y-23616914D01*
X7506957Y-23416914D02*
X7535528Y-23416914D01*
X7564100Y-23431200D01*
X7578386Y-23445486D01*
X7592671Y-23474057D01*
X7606957Y-23531200D01*
X7606957Y-23602629D01*
X7592671Y-23659771D01*
X7578386Y-23688343D01*
X7564100Y-23702629D01*
X7535528Y-23716914D01*
X7506957Y-23716914D01*
X7478386Y-23702629D01*
X7464100Y-23688343D01*
X7449814Y-23659771D01*
X7435528Y-23602629D01*
X7435528Y-23531200D01*
X7449814Y-23474057D01*
X7464100Y-23445486D01*
X7478386Y-23431200D01*
X7506957Y-23416914D01*
X7735528Y-23716914D02*
X7735528Y-23516914D01*
X7735528Y-23545486D02*
X7749814Y-23531200D01*
X7778386Y-23516914D01*
X7821243Y-23516914D01*
X7849814Y-23531200D01*
X7864100Y-23559771D01*
X7864100Y-23716914D01*
X7864100Y-23559771D02*
X7878386Y-23531200D01*
X7906957Y-23516914D01*
X7949814Y-23516914D01*
X7978386Y-23531200D01*
X7992671Y-23559771D01*
X7992671Y-23716914D01*
X8135528Y-23716914D02*
X8135528Y-23516914D01*
X8135528Y-23545486D02*
X8149814Y-23531200D01*
X8178386Y-23516914D01*
X8221243Y-23516914D01*
X8249814Y-23531200D01*
X8264100Y-23559771D01*
X8264100Y-23716914D01*
X8264100Y-23559771D02*
X8278386Y-23531200D01*
X8306957Y-23516914D01*
X8349814Y-23516914D01*
X8378386Y-23531200D01*
X8392671Y-23559771D01*
X8392671Y-23716914D01*
X8978386Y-23402629D02*
X8721243Y-23788343D01*
X9364100Y-23416914D02*
X9392671Y-23416914D01*
X9421243Y-23431200D01*
X9435528Y-23445486D01*
X9449814Y-23474057D01*
X9464100Y-23531200D01*
X9464100Y-23602629D01*
X9449814Y-23659771D01*
X9435528Y-23688343D01*
X9421243Y-23702629D01*
X9392671Y-23716914D01*
X9364100Y-23716914D01*
X9335528Y-23702629D01*
X9321243Y-23688343D01*
X9306957Y-23659771D01*
X9292671Y-23602629D01*
X9292671Y-23531200D01*
X9306957Y-23474057D01*
X9321243Y-23445486D01*
X9335528Y-23431200D01*
X9364100Y-23416914D01*
X9592671Y-23688343D02*
X9606957Y-23702629D01*
X9592671Y-23716914D01*
X9578386Y-23702629D01*
X9592671Y-23688343D01*
X9592671Y-23716914D01*
X9792671Y-23416914D02*
X9821243Y-23416914D01*
X9849814Y-23431200D01*
X9864100Y-23445486D01*
X9878386Y-23474057D01*
X9892671Y-23531200D01*
X9892671Y-23602629D01*
X9878386Y-23659771D01*
X9864100Y-23688343D01*
X9849814Y-23702629D01*
X9821243Y-23716914D01*
X9792671Y-23716914D01*
X9764100Y-23702629D01*
X9749814Y-23688343D01*
X9735528Y-23659771D01*
X9721243Y-23602629D01*
X9721243Y-23531200D01*
X9735528Y-23474057D01*
X9749814Y-23445486D01*
X9764100Y-23431200D01*
X9792671Y-23416914D01*
X10178386Y-23716914D02*
X10006957Y-23716914D01*
X10092671Y-23716914D02*
X10092671Y-23416914D01*
X10064100Y-23459771D01*
X10035528Y-23488343D01*
X10006957Y-23502629D01*
X10435528Y-23416914D02*
X10378386Y-23416914D01*
X10349814Y-23431200D01*
X10335528Y-23445486D01*
X10306957Y-23488343D01*
X10292671Y-23545486D01*
X10292671Y-23659771D01*
X10306957Y-23688343D01*
X10321243Y-23702629D01*
X10349814Y-23716914D01*
X10406957Y-23716914D01*
X10435528Y-23702629D01*
X10449814Y-23688343D01*
X10464100Y-23659771D01*
X10464100Y-23588343D01*
X10449814Y-23559771D01*
X10435528Y-23545486D01*
X10406957Y-23531200D01*
X10349814Y-23531200D01*
X10321243Y-23545486D01*
X10306957Y-23559771D01*
X10292671Y-23588343D01*
X10578386Y-23416914D02*
X10578386Y-23474057D01*
X10692671Y-23416914D02*
X10692671Y-23474057D01*
X11135528Y-23831200D02*
X11121243Y-23816914D01*
X11092671Y-23774057D01*
X11078386Y-23745486D01*
X11064100Y-23702629D01*
X11049814Y-23631200D01*
X11049814Y-23574057D01*
X11064100Y-23502629D01*
X11078386Y-23459771D01*
X11092671Y-23431200D01*
X11121243Y-23388343D01*
X11135528Y-23374057D01*
X11378386Y-23416914D02*
X11321243Y-23416914D01*
X11292671Y-23431200D01*
X11278386Y-23445486D01*
X11249814Y-23488343D01*
X11235528Y-23545486D01*
X11235528Y-23659771D01*
X11249814Y-23688343D01*
X11264100Y-23702629D01*
X11292671Y-23716914D01*
X11349814Y-23716914D01*
X11378386Y-23702629D01*
X11392671Y-23688343D01*
X11406957Y-23659771D01*
X11406957Y-23588343D01*
X11392671Y-23559771D01*
X11378386Y-23545486D01*
X11349814Y-23531200D01*
X11292671Y-23531200D01*
X11264100Y-23545486D01*
X11249814Y-23559771D01*
X11235528Y-23588343D01*
X11764100Y-23716914D02*
X11764100Y-23416914D01*
X11892671Y-23716914D02*
X11892671Y-23559771D01*
X11878386Y-23531200D01*
X11849814Y-23516914D01*
X11806957Y-23516914D01*
X11778386Y-23531200D01*
X11764100Y-23545486D01*
X12078386Y-23716914D02*
X12049814Y-23702629D01*
X12035528Y-23688343D01*
X12021243Y-23659771D01*
X12021243Y-23574057D01*
X12035528Y-23545486D01*
X12049814Y-23531200D01*
X12078386Y-23516914D01*
X12121243Y-23516914D01*
X12149814Y-23531200D01*
X12164100Y-23545486D01*
X12178386Y-23574057D01*
X12178386Y-23659771D01*
X12164100Y-23688343D01*
X12149814Y-23702629D01*
X12121243Y-23716914D01*
X12078386Y-23716914D01*
X12349814Y-23716914D02*
X12321243Y-23702629D01*
X12306957Y-23674057D01*
X12306957Y-23416914D01*
X12578386Y-23702629D02*
X12549814Y-23716914D01*
X12492671Y-23716914D01*
X12464100Y-23702629D01*
X12449814Y-23674057D01*
X12449814Y-23559771D01*
X12464100Y-23531200D01*
X12492671Y-23516914D01*
X12549814Y-23516914D01*
X12578386Y-23531200D01*
X12592671Y-23559771D01*
X12592671Y-23588343D01*
X12449814Y-23616914D01*
X12706957Y-23702629D02*
X12735528Y-23716914D01*
X12792671Y-23716914D01*
X12821243Y-23702629D01*
X12835528Y-23674057D01*
X12835528Y-23659771D01*
X12821243Y-23631200D01*
X12792671Y-23616914D01*
X12749814Y-23616914D01*
X12721243Y-23602629D01*
X12706957Y-23574057D01*
X12706957Y-23559771D01*
X12721243Y-23531200D01*
X12749814Y-23516914D01*
X12792671Y-23516914D01*
X12821243Y-23531200D01*
X12935528Y-23831200D02*
X12949814Y-23816914D01*
X12978386Y-23774057D01*
X12992671Y-23745486D01*
X13006957Y-23702629D01*
X13021243Y-23631200D01*
X13021243Y-23574057D01*
X13006957Y-23502629D01*
X12992671Y-23459771D01*
X12978386Y-23431200D01*
X12949814Y-23388343D01*
X12935528Y-23374057D01*
X6449100Y-23977200D02*
G75*
G03X6449100Y-23977200I-40000J0D01*
G01*
X6792671Y-23812914D02*
X6821243Y-23812914D01*
X6849814Y-23827200D01*
X6864100Y-23841486D01*
X6878386Y-23870057D01*
X6892671Y-23927200D01*
X6892671Y-23998629D01*
X6878386Y-24055771D01*
X6864100Y-24084343D01*
X6849814Y-24098629D01*
X6821243Y-24112914D01*
X6792671Y-24112914D01*
X6764100Y-24098629D01*
X6749814Y-24084343D01*
X6735528Y-24055771D01*
X6721243Y-23998629D01*
X6721243Y-23927200D01*
X6735528Y-23870057D01*
X6749814Y-23841486D01*
X6764100Y-23827200D01*
X6792671Y-23812914D01*
X7021243Y-24084343D02*
X7035528Y-24098629D01*
X7021243Y-24112914D01*
X7006957Y-24098629D01*
X7021243Y-24084343D01*
X7021243Y-24112914D01*
X7206957Y-23941486D02*
X7178386Y-23927200D01*
X7164100Y-23912914D01*
X7149814Y-23884343D01*
X7149814Y-23870057D01*
X7164100Y-23841486D01*
X7178386Y-23827200D01*
X7206957Y-23812914D01*
X7264100Y-23812914D01*
X7292671Y-23827200D01*
X7306957Y-23841486D01*
X7321243Y-23870057D01*
X7321243Y-23884343D01*
X7306957Y-23912914D01*
X7292671Y-23927200D01*
X7264100Y-23941486D01*
X7206957Y-23941486D01*
X7178386Y-23955771D01*
X7164100Y-23970057D01*
X7149814Y-23998629D01*
X7149814Y-24055771D01*
X7164100Y-24084343D01*
X7178386Y-24098629D01*
X7206957Y-24112914D01*
X7264100Y-24112914D01*
X7292671Y-24098629D01*
X7306957Y-24084343D01*
X7321243Y-24055771D01*
X7321243Y-23998629D01*
X7306957Y-23970057D01*
X7292671Y-23955771D01*
X7264100Y-23941486D01*
X7506957Y-23812914D02*
X7535528Y-23812914D01*
X7564100Y-23827200D01*
X7578386Y-23841486D01*
X7592671Y-23870057D01*
X7606957Y-23927200D01*
X7606957Y-23998629D01*
X7592671Y-24055771D01*
X7578386Y-24084343D01*
X7564100Y-24098629D01*
X7535528Y-24112914D01*
X7506957Y-24112914D01*
X7478386Y-24098629D01*
X7464100Y-24084343D01*
X7449814Y-24055771D01*
X7435528Y-23998629D01*
X7435528Y-23927200D01*
X7449814Y-23870057D01*
X7464100Y-23841486D01*
X7478386Y-23827200D01*
X7506957Y-23812914D01*
X7735528Y-24112914D02*
X7735528Y-23912914D01*
X7735528Y-23941486D02*
X7749814Y-23927200D01*
X7778386Y-23912914D01*
X7821243Y-23912914D01*
X7849814Y-23927200D01*
X7864100Y-23955771D01*
X7864100Y-24112914D01*
X7864100Y-23955771D02*
X7878386Y-23927200D01*
X7906957Y-23912914D01*
X7949814Y-23912914D01*
X7978386Y-23927200D01*
X7992671Y-23955771D01*
X7992671Y-24112914D01*
X8135528Y-24112914D02*
X8135528Y-23912914D01*
X8135528Y-23941486D02*
X8149814Y-23927200D01*
X8178386Y-23912914D01*
X8221243Y-23912914D01*
X8249814Y-23927200D01*
X8264100Y-23955771D01*
X8264100Y-24112914D01*
X8264100Y-23955771D02*
X8278386Y-23927200D01*
X8306957Y-23912914D01*
X8349814Y-23912914D01*
X8378386Y-23927200D01*
X8392671Y-23955771D01*
X8392671Y-24112914D01*
X8978386Y-23798629D02*
X8721243Y-24184343D01*
X9364100Y-23812914D02*
X9392671Y-23812914D01*
X9421243Y-23827200D01*
X9435528Y-23841486D01*
X9449814Y-23870057D01*
X9464100Y-23927200D01*
X9464100Y-23998629D01*
X9449814Y-24055771D01*
X9435528Y-24084343D01*
X9421243Y-24098629D01*
X9392671Y-24112914D01*
X9364100Y-24112914D01*
X9335528Y-24098629D01*
X9321243Y-24084343D01*
X9306957Y-24055771D01*
X9292671Y-23998629D01*
X9292671Y-23927200D01*
X9306957Y-23870057D01*
X9321243Y-23841486D01*
X9335528Y-23827200D01*
X9364100Y-23812914D01*
X9592671Y-24084343D02*
X9606957Y-24098629D01*
X9592671Y-24112914D01*
X9578386Y-24098629D01*
X9592671Y-24084343D01*
X9592671Y-24112914D01*
X9792671Y-23812914D02*
X9821243Y-23812914D01*
X9849814Y-23827200D01*
X9864100Y-23841486D01*
X9878386Y-23870057D01*
X9892671Y-23927200D01*
X9892671Y-23998629D01*
X9878386Y-24055771D01*
X9864100Y-24084343D01*
X9849814Y-24098629D01*
X9821243Y-24112914D01*
X9792671Y-24112914D01*
X9764100Y-24098629D01*
X9749814Y-24084343D01*
X9735528Y-24055771D01*
X9721243Y-23998629D01*
X9721243Y-23927200D01*
X9735528Y-23870057D01*
X9749814Y-23841486D01*
X9764100Y-23827200D01*
X9792671Y-23812914D01*
X9992671Y-23812914D02*
X10178386Y-23812914D01*
X10078386Y-23927200D01*
X10121243Y-23927200D01*
X10149814Y-23941486D01*
X10164100Y-23955771D01*
X10178386Y-23984343D01*
X10178386Y-24055771D01*
X10164100Y-24084343D01*
X10149814Y-24098629D01*
X10121243Y-24112914D01*
X10035528Y-24112914D01*
X10006957Y-24098629D01*
X9992671Y-24084343D01*
X10464100Y-24112914D02*
X10292671Y-24112914D01*
X10378386Y-24112914D02*
X10378386Y-23812914D01*
X10349814Y-23855771D01*
X10321243Y-23884343D01*
X10292671Y-23898629D01*
X10578386Y-23812914D02*
X10578386Y-23870057D01*
X10692671Y-23812914D02*
X10692671Y-23870057D01*
X11135528Y-24227200D02*
X11121243Y-24212914D01*
X11092671Y-24170057D01*
X11078386Y-24141486D01*
X11064100Y-24098629D01*
X11049814Y-24027200D01*
X11049814Y-23970057D01*
X11064100Y-23898629D01*
X11078386Y-23855771D01*
X11092671Y-23827200D01*
X11121243Y-23784343D01*
X11135528Y-23770057D01*
X11406957Y-24112914D02*
X11235528Y-24112914D01*
X11321243Y-24112914D02*
X11321243Y-23812914D01*
X11292671Y-23855771D01*
X11264100Y-23884343D01*
X11235528Y-23898629D01*
X11592671Y-23812914D02*
X11621243Y-23812914D01*
X11649814Y-23827200D01*
X11664100Y-23841486D01*
X11678386Y-23870057D01*
X11692671Y-23927200D01*
X11692671Y-23998629D01*
X11678386Y-24055771D01*
X11664100Y-24084343D01*
X11649814Y-24098629D01*
X11621243Y-24112914D01*
X11592671Y-24112914D01*
X11564100Y-24098629D01*
X11549814Y-24084343D01*
X11535528Y-24055771D01*
X11521243Y-23998629D01*
X11521243Y-23927200D01*
X11535528Y-23870057D01*
X11549814Y-23841486D01*
X11564100Y-23827200D01*
X11592671Y-23812914D01*
X12049814Y-24112914D02*
X12049814Y-23812914D01*
X12178386Y-24112914D02*
X12178386Y-23955771D01*
X12164100Y-23927200D01*
X12135528Y-23912914D01*
X12092671Y-23912914D01*
X12064100Y-23927200D01*
X12049814Y-23941486D01*
X12364100Y-24112914D02*
X12335528Y-24098629D01*
X12321243Y-24084343D01*
X12306957Y-24055771D01*
X12306957Y-23970057D01*
X12321243Y-23941486D01*
X12335528Y-23927200D01*
X12364100Y-23912914D01*
X12406957Y-23912914D01*
X12435528Y-23927200D01*
X12449814Y-23941486D01*
X12464100Y-23970057D01*
X12464100Y-24055771D01*
X12449814Y-24084343D01*
X12435528Y-24098629D01*
X12406957Y-24112914D01*
X12364100Y-24112914D01*
X12635528Y-24112914D02*
X12606957Y-24098629D01*
X12592671Y-24070057D01*
X12592671Y-23812914D01*
X12864100Y-24098629D02*
X12835528Y-24112914D01*
X12778386Y-24112914D01*
X12749814Y-24098629D01*
X12735528Y-24070057D01*
X12735528Y-23955771D01*
X12749814Y-23927200D01*
X12778386Y-23912914D01*
X12835528Y-23912914D01*
X12864100Y-23927200D01*
X12878386Y-23955771D01*
X12878386Y-23984343D01*
X12735528Y-24012914D01*
X12992671Y-24098629D02*
X13021243Y-24112914D01*
X13078386Y-24112914D01*
X13106957Y-24098629D01*
X13121243Y-24070057D01*
X13121243Y-24055771D01*
X13106957Y-24027200D01*
X13078386Y-24012914D01*
X13035528Y-24012914D01*
X13006957Y-23998629D01*
X12992671Y-23970057D01*
X12992671Y-23955771D01*
X13006957Y-23927200D01*
X13035528Y-23912914D01*
X13078386Y-23912914D01*
X13106957Y-23927200D01*
X13221243Y-24227200D02*
X13235528Y-24212914D01*
X13264100Y-24170057D01*
X13278386Y-24141486D01*
X13292671Y-24098629D01*
X13306957Y-24027200D01*
X13306957Y-23970057D01*
X13292671Y-23898629D01*
X13278386Y-23855771D01*
X13264100Y-23827200D01*
X13235528Y-23784343D01*
X13221243Y-23770057D01*
X6394100Y-24318200D02*
X6394100Y-24428200D01*
X6339100Y-24373200D02*
X6449100Y-24373200D01*
X6892671Y-24508914D02*
X6721243Y-24508914D01*
X6806957Y-24508914D02*
X6806957Y-24208914D01*
X6778386Y-24251771D01*
X6749814Y-24280343D01*
X6721243Y-24294629D01*
X7021243Y-24480343D02*
X7035528Y-24494629D01*
X7021243Y-24508914D01*
X7006957Y-24494629D01*
X7021243Y-24480343D01*
X7021243Y-24508914D01*
X7321243Y-24508914D02*
X7149814Y-24508914D01*
X7235528Y-24508914D02*
X7235528Y-24208914D01*
X7206957Y-24251771D01*
X7178386Y-24280343D01*
X7149814Y-24294629D01*
X7506957Y-24208914D02*
X7535528Y-24208914D01*
X7564100Y-24223200D01*
X7578386Y-24237486D01*
X7592671Y-24266057D01*
X7606957Y-24323200D01*
X7606957Y-24394629D01*
X7592671Y-24451771D01*
X7578386Y-24480343D01*
X7564100Y-24494629D01*
X7535528Y-24508914D01*
X7506957Y-24508914D01*
X7478386Y-24494629D01*
X7464100Y-24480343D01*
X7449814Y-24451771D01*
X7435528Y-24394629D01*
X7435528Y-24323200D01*
X7449814Y-24266057D01*
X7464100Y-24237486D01*
X7478386Y-24223200D01*
X7506957Y-24208914D01*
X7735528Y-24508914D02*
X7735528Y-24308914D01*
X7735528Y-24337486D02*
X7749814Y-24323200D01*
X7778386Y-24308914D01*
X7821243Y-24308914D01*
X7849814Y-24323200D01*
X7864100Y-24351771D01*
X7864100Y-24508914D01*
X7864100Y-24351771D02*
X7878386Y-24323200D01*
X7906957Y-24308914D01*
X7949814Y-24308914D01*
X7978386Y-24323200D01*
X7992671Y-24351771D01*
X7992671Y-24508914D01*
X8135528Y-24508914D02*
X8135528Y-24308914D01*
X8135528Y-24337486D02*
X8149814Y-24323200D01*
X8178386Y-24308914D01*
X8221243Y-24308914D01*
X8249814Y-24323200D01*
X8264100Y-24351771D01*
X8264100Y-24508914D01*
X8264100Y-24351771D02*
X8278386Y-24323200D01*
X8306957Y-24308914D01*
X8349814Y-24308914D01*
X8378386Y-24323200D01*
X8392671Y-24351771D01*
X8392671Y-24508914D01*
X8978386Y-24194629D02*
X8721243Y-24580343D01*
X9364100Y-24208914D02*
X9392671Y-24208914D01*
X9421243Y-24223200D01*
X9435528Y-24237486D01*
X9449814Y-24266057D01*
X9464100Y-24323200D01*
X9464100Y-24394629D01*
X9449814Y-24451771D01*
X9435528Y-24480343D01*
X9421243Y-24494629D01*
X9392671Y-24508914D01*
X9364100Y-24508914D01*
X9335528Y-24494629D01*
X9321243Y-24480343D01*
X9306957Y-24451771D01*
X9292671Y-24394629D01*
X9292671Y-24323200D01*
X9306957Y-24266057D01*
X9321243Y-24237486D01*
X9335528Y-24223200D01*
X9364100Y-24208914D01*
X9592671Y-24480343D02*
X9606957Y-24494629D01*
X9592671Y-24508914D01*
X9578386Y-24494629D01*
X9592671Y-24480343D01*
X9592671Y-24508914D01*
X9792671Y-24208914D02*
X9821243Y-24208914D01*
X9849814Y-24223200D01*
X9864100Y-24237486D01*
X9878386Y-24266057D01*
X9892671Y-24323200D01*
X9892671Y-24394629D01*
X9878386Y-24451771D01*
X9864100Y-24480343D01*
X9849814Y-24494629D01*
X9821243Y-24508914D01*
X9792671Y-24508914D01*
X9764100Y-24494629D01*
X9749814Y-24480343D01*
X9735528Y-24451771D01*
X9721243Y-24394629D01*
X9721243Y-24323200D01*
X9735528Y-24266057D01*
X9749814Y-24237486D01*
X9764100Y-24223200D01*
X9792671Y-24208914D01*
X10149814Y-24308914D02*
X10149814Y-24508914D01*
X10078386Y-24194629D02*
X10006957Y-24408914D01*
X10192671Y-24408914D01*
X10278386Y-24208914D02*
X10464100Y-24208914D01*
X10364100Y-24323200D01*
X10406957Y-24323200D01*
X10435528Y-24337486D01*
X10449814Y-24351771D01*
X10464100Y-24380343D01*
X10464100Y-24451771D01*
X10449814Y-24480343D01*
X10435528Y-24494629D01*
X10406957Y-24508914D01*
X10321243Y-24508914D01*
X10292671Y-24494629D01*
X10278386Y-24480343D01*
X10578386Y-24208914D02*
X10578386Y-24266057D01*
X10692671Y-24208914D02*
X10692671Y-24266057D01*
X11135528Y-24623200D02*
X11121243Y-24608914D01*
X11092671Y-24566057D01*
X11078386Y-24537486D01*
X11064100Y-24494629D01*
X11049814Y-24423200D01*
X11049814Y-24366057D01*
X11064100Y-24294629D01*
X11078386Y-24251771D01*
X11092671Y-24223200D01*
X11121243Y-24180343D01*
X11135528Y-24166057D01*
X11406957Y-24508914D02*
X11235528Y-24508914D01*
X11321243Y-24508914D02*
X11321243Y-24208914D01*
X11292671Y-24251771D01*
X11264100Y-24280343D01*
X11235528Y-24294629D01*
X11592671Y-24208914D02*
X11621243Y-24208914D01*
X11649814Y-24223200D01*
X11664100Y-24237486D01*
X11678386Y-24266057D01*
X11692671Y-24323200D01*
X11692671Y-24394629D01*
X11678386Y-24451771D01*
X11664100Y-24480343D01*
X11649814Y-24494629D01*
X11621243Y-24508914D01*
X11592671Y-24508914D01*
X11564100Y-24494629D01*
X11549814Y-24480343D01*
X11535528Y-24451771D01*
X11521243Y-24394629D01*
X11521243Y-24323200D01*
X11535528Y-24266057D01*
X11549814Y-24237486D01*
X11564100Y-24223200D01*
X11592671Y-24208914D01*
X12049814Y-24508914D02*
X12049814Y-24208914D01*
X12178386Y-24508914D02*
X12178386Y-24351771D01*
X12164100Y-24323200D01*
X12135528Y-24308914D01*
X12092671Y-24308914D01*
X12064100Y-24323200D01*
X12049814Y-24337486D01*
X12364100Y-24508914D02*
X12335528Y-24494629D01*
X12321243Y-24480343D01*
X12306957Y-24451771D01*
X12306957Y-24366057D01*
X12321243Y-24337486D01*
X12335528Y-24323200D01*
X12364100Y-24308914D01*
X12406957Y-24308914D01*
X12435528Y-24323200D01*
X12449814Y-24337486D01*
X12464100Y-24366057D01*
X12464100Y-24451771D01*
X12449814Y-24480343D01*
X12435528Y-24494629D01*
X12406957Y-24508914D01*
X12364100Y-24508914D01*
X12635528Y-24508914D02*
X12606957Y-24494629D01*
X12592671Y-24466057D01*
X12592671Y-24208914D01*
X12864100Y-24494629D02*
X12835528Y-24508914D01*
X12778386Y-24508914D01*
X12749814Y-24494629D01*
X12735528Y-24466057D01*
X12735528Y-24351771D01*
X12749814Y-24323200D01*
X12778386Y-24308914D01*
X12835528Y-24308914D01*
X12864100Y-24323200D01*
X12878386Y-24351771D01*
X12878386Y-24380343D01*
X12735528Y-24408914D01*
X12992671Y-24494629D02*
X13021243Y-24508914D01*
X13078386Y-24508914D01*
X13106957Y-24494629D01*
X13121243Y-24466057D01*
X13121243Y-24451771D01*
X13106957Y-24423200D01*
X13078386Y-24408914D01*
X13035528Y-24408914D01*
X13006957Y-24394629D01*
X12992671Y-24366057D01*
X12992671Y-24351771D01*
X13006957Y-24323200D01*
X13035528Y-24308914D01*
X13078386Y-24308914D01*
X13106957Y-24323200D01*
X13221243Y-24623200D02*
X13235528Y-24608914D01*
X13264100Y-24566057D01*
X13278386Y-24537486D01*
X13292671Y-24494629D01*
X13306957Y-24423200D01*
X13306957Y-24366057D01*
X13292671Y-24294629D01*
X13278386Y-24251771D01*
X13264100Y-24223200D01*
X13235528Y-24180343D01*
X13221243Y-24166057D01*
X6425669Y-24825769D02*
X6425669Y-24712631D01*
X6312531Y-24712631D01*
X6312531Y-24825769D01*
X6425669Y-24825769D01*
X6892671Y-24904914D02*
X6721243Y-24904914D01*
X6806957Y-24904914D02*
X6806957Y-24604914D01*
X6778386Y-24647771D01*
X6749814Y-24676343D01*
X6721243Y-24690629D01*
X7021243Y-24876343D02*
X7035528Y-24890629D01*
X7021243Y-24904914D01*
X7006957Y-24890629D01*
X7021243Y-24876343D01*
X7021243Y-24904914D01*
X7292671Y-24604914D02*
X7235528Y-24604914D01*
X7206957Y-24619200D01*
X7192671Y-24633486D01*
X7164100Y-24676343D01*
X7149814Y-24733486D01*
X7149814Y-24847771D01*
X7164100Y-24876343D01*
X7178386Y-24890629D01*
X7206957Y-24904914D01*
X7264100Y-24904914D01*
X7292671Y-24890629D01*
X7306957Y-24876343D01*
X7321243Y-24847771D01*
X7321243Y-24776343D01*
X7306957Y-24747771D01*
X7292671Y-24733486D01*
X7264100Y-24719200D01*
X7206957Y-24719200D01*
X7178386Y-24733486D01*
X7164100Y-24747771D01*
X7149814Y-24776343D01*
X7506957Y-24604914D02*
X7535528Y-24604914D01*
X7564100Y-24619200D01*
X7578386Y-24633486D01*
X7592671Y-24662057D01*
X7606957Y-24719200D01*
X7606957Y-24790629D01*
X7592671Y-24847771D01*
X7578386Y-24876343D01*
X7564100Y-24890629D01*
X7535528Y-24904914D01*
X7506957Y-24904914D01*
X7478386Y-24890629D01*
X7464100Y-24876343D01*
X7449814Y-24847771D01*
X7435528Y-24790629D01*
X7435528Y-24719200D01*
X7449814Y-24662057D01*
X7464100Y-24633486D01*
X7478386Y-24619200D01*
X7506957Y-24604914D01*
X7735528Y-24904914D02*
X7735528Y-24704914D01*
X7735528Y-24733486D02*
X7749814Y-24719200D01*
X7778386Y-24704914D01*
X7821243Y-24704914D01*
X7849814Y-24719200D01*
X7864100Y-24747771D01*
X7864100Y-24904914D01*
X7864100Y-24747771D02*
X7878386Y-24719200D01*
X7906957Y-24704914D01*
X7949814Y-24704914D01*
X7978386Y-24719200D01*
X7992671Y-24747771D01*
X7992671Y-24904914D01*
X8135528Y-24904914D02*
X8135528Y-24704914D01*
X8135528Y-24733486D02*
X8149814Y-24719200D01*
X8178386Y-24704914D01*
X8221243Y-24704914D01*
X8249814Y-24719200D01*
X8264100Y-24747771D01*
X8264100Y-24904914D01*
X8264100Y-24747771D02*
X8278386Y-24719200D01*
X8306957Y-24704914D01*
X8349814Y-24704914D01*
X8378386Y-24719200D01*
X8392671Y-24747771D01*
X8392671Y-24904914D01*
X8978386Y-24590629D02*
X8721243Y-24976343D01*
X9364100Y-24604914D02*
X9392671Y-24604914D01*
X9421243Y-24619200D01*
X9435528Y-24633486D01*
X9449814Y-24662057D01*
X9464100Y-24719200D01*
X9464100Y-24790629D01*
X9449814Y-24847771D01*
X9435528Y-24876343D01*
X9421243Y-24890629D01*
X9392671Y-24904914D01*
X9364100Y-24904914D01*
X9335528Y-24890629D01*
X9321243Y-24876343D01*
X9306957Y-24847771D01*
X9292671Y-24790629D01*
X9292671Y-24719200D01*
X9306957Y-24662057D01*
X9321243Y-24633486D01*
X9335528Y-24619200D01*
X9364100Y-24604914D01*
X9592671Y-24876343D02*
X9606957Y-24890629D01*
X9592671Y-24904914D01*
X9578386Y-24890629D01*
X9592671Y-24876343D01*
X9592671Y-24904914D01*
X9792671Y-24604914D02*
X9821243Y-24604914D01*
X9849814Y-24619200D01*
X9864100Y-24633486D01*
X9878386Y-24662057D01*
X9892671Y-24719200D01*
X9892671Y-24790629D01*
X9878386Y-24847771D01*
X9864100Y-24876343D01*
X9849814Y-24890629D01*
X9821243Y-24904914D01*
X9792671Y-24904914D01*
X9764100Y-24890629D01*
X9749814Y-24876343D01*
X9735528Y-24847771D01*
X9721243Y-24790629D01*
X9721243Y-24719200D01*
X9735528Y-24662057D01*
X9749814Y-24633486D01*
X9764100Y-24619200D01*
X9792671Y-24604914D01*
X10149814Y-24604914D02*
X10092671Y-24604914D01*
X10064100Y-24619200D01*
X10049814Y-24633486D01*
X10021243Y-24676343D01*
X10006957Y-24733486D01*
X10006957Y-24847771D01*
X10021243Y-24876343D01*
X10035528Y-24890629D01*
X10064100Y-24904914D01*
X10121243Y-24904914D01*
X10149814Y-24890629D01*
X10164100Y-24876343D01*
X10178386Y-24847771D01*
X10178386Y-24776343D01*
X10164100Y-24747771D01*
X10149814Y-24733486D01*
X10121243Y-24719200D01*
X10064100Y-24719200D01*
X10035528Y-24733486D01*
X10021243Y-24747771D01*
X10006957Y-24776343D01*
X10278386Y-24604914D02*
X10464100Y-24604914D01*
X10364100Y-24719200D01*
X10406957Y-24719200D01*
X10435528Y-24733486D01*
X10449814Y-24747771D01*
X10464100Y-24776343D01*
X10464100Y-24847771D01*
X10449814Y-24876343D01*
X10435528Y-24890629D01*
X10406957Y-24904914D01*
X10321243Y-24904914D01*
X10292671Y-24890629D01*
X10278386Y-24876343D01*
X10578386Y-24604914D02*
X10578386Y-24662057D01*
X10692671Y-24604914D02*
X10692671Y-24662057D01*
X11135528Y-25019200D02*
X11121243Y-25004914D01*
X11092671Y-24962057D01*
X11078386Y-24933486D01*
X11064100Y-24890629D01*
X11049814Y-24819200D01*
X11049814Y-24762057D01*
X11064100Y-24690629D01*
X11078386Y-24647771D01*
X11092671Y-24619200D01*
X11121243Y-24576343D01*
X11135528Y-24562057D01*
X11221243Y-24604914D02*
X11406957Y-24604914D01*
X11306957Y-24719200D01*
X11349814Y-24719200D01*
X11378386Y-24733486D01*
X11392671Y-24747771D01*
X11406957Y-24776343D01*
X11406957Y-24847771D01*
X11392671Y-24876343D01*
X11378386Y-24890629D01*
X11349814Y-24904914D01*
X11264100Y-24904914D01*
X11235528Y-24890629D01*
X11221243Y-24876343D01*
X11592671Y-24604914D02*
X11621243Y-24604914D01*
X11649814Y-24619200D01*
X11664100Y-24633486D01*
X11678386Y-24662057D01*
X11692671Y-24719200D01*
X11692671Y-24790629D01*
X11678386Y-24847771D01*
X11664100Y-24876343D01*
X11649814Y-24890629D01*
X11621243Y-24904914D01*
X11592671Y-24904914D01*
X11564100Y-24890629D01*
X11549814Y-24876343D01*
X11535528Y-24847771D01*
X11521243Y-24790629D01*
X11521243Y-24719200D01*
X11535528Y-24662057D01*
X11549814Y-24633486D01*
X11564100Y-24619200D01*
X11592671Y-24604914D01*
X12049814Y-24904914D02*
X12049814Y-24604914D01*
X12178386Y-24904914D02*
X12178386Y-24747771D01*
X12164100Y-24719200D01*
X12135528Y-24704914D01*
X12092671Y-24704914D01*
X12064100Y-24719200D01*
X12049814Y-24733486D01*
X12364100Y-24904914D02*
X12335528Y-24890629D01*
X12321243Y-24876343D01*
X12306957Y-24847771D01*
X12306957Y-24762057D01*
X12321243Y-24733486D01*
X12335528Y-24719200D01*
X12364100Y-24704914D01*
X12406957Y-24704914D01*
X12435528Y-24719200D01*
X12449814Y-24733486D01*
X12464100Y-24762057D01*
X12464100Y-24847771D01*
X12449814Y-24876343D01*
X12435528Y-24890629D01*
X12406957Y-24904914D01*
X12364100Y-24904914D01*
X12635528Y-24904914D02*
X12606957Y-24890629D01*
X12592671Y-24862057D01*
X12592671Y-24604914D01*
X12864100Y-24890629D02*
X12835528Y-24904914D01*
X12778386Y-24904914D01*
X12749814Y-24890629D01*
X12735528Y-24862057D01*
X12735528Y-24747771D01*
X12749814Y-24719200D01*
X12778386Y-24704914D01*
X12835528Y-24704914D01*
X12864100Y-24719200D01*
X12878386Y-24747771D01*
X12878386Y-24776343D01*
X12735528Y-24804914D01*
X12992671Y-24890629D02*
X13021243Y-24904914D01*
X13078386Y-24904914D01*
X13106957Y-24890629D01*
X13121243Y-24862057D01*
X13121243Y-24847771D01*
X13106957Y-24819200D01*
X13078386Y-24804914D01*
X13035528Y-24804914D01*
X13006957Y-24790629D01*
X12992671Y-24762057D01*
X12992671Y-24747771D01*
X13006957Y-24719200D01*
X13035528Y-24704914D01*
X13078386Y-24704914D01*
X13106957Y-24719200D01*
X13221243Y-25019200D02*
X13235528Y-25004914D01*
X13264100Y-24962057D01*
X13278386Y-24933486D01*
X13292671Y-24890629D01*
X13306957Y-24819200D01*
X13306957Y-24762057D01*
X13292671Y-24690629D01*
X13278386Y-24647771D01*
X13264100Y-24619200D01*
X13235528Y-24576343D01*
X13221243Y-24562057D01*
X6364100Y-25250200D02*
X6449100Y-25165200D01*
X6364100Y-25080200D01*
X6279100Y-25165200D01*
X6364100Y-25250200D01*
X6892671Y-25300914D02*
X6721243Y-25300914D01*
X6806957Y-25300914D02*
X6806957Y-25000914D01*
X6778386Y-25043771D01*
X6749814Y-25072343D01*
X6721243Y-25086629D01*
X7021243Y-25272343D02*
X7035528Y-25286629D01*
X7021243Y-25300914D01*
X7006957Y-25286629D01*
X7021243Y-25272343D01*
X7021243Y-25300914D01*
X7135528Y-25000914D02*
X7335528Y-25000914D01*
X7206957Y-25300914D01*
X7506957Y-25000914D02*
X7535528Y-25000914D01*
X7564100Y-25015200D01*
X7578386Y-25029486D01*
X7592671Y-25058057D01*
X7606957Y-25115200D01*
X7606957Y-25186629D01*
X7592671Y-25243771D01*
X7578386Y-25272343D01*
X7564100Y-25286629D01*
X7535528Y-25300914D01*
X7506957Y-25300914D01*
X7478386Y-25286629D01*
X7464100Y-25272343D01*
X7449814Y-25243771D01*
X7435528Y-25186629D01*
X7435528Y-25115200D01*
X7449814Y-25058057D01*
X7464100Y-25029486D01*
X7478386Y-25015200D01*
X7506957Y-25000914D01*
X7735528Y-25300914D02*
X7735528Y-25100914D01*
X7735528Y-25129486D02*
X7749814Y-25115200D01*
X7778386Y-25100914D01*
X7821243Y-25100914D01*
X7849814Y-25115200D01*
X7864100Y-25143771D01*
X7864100Y-25300914D01*
X7864100Y-25143771D02*
X7878386Y-25115200D01*
X7906957Y-25100914D01*
X7949814Y-25100914D01*
X7978386Y-25115200D01*
X7992671Y-25143771D01*
X7992671Y-25300914D01*
X8135528Y-25300914D02*
X8135528Y-25100914D01*
X8135528Y-25129486D02*
X8149814Y-25115200D01*
X8178386Y-25100914D01*
X8221243Y-25100914D01*
X8249814Y-25115200D01*
X8264100Y-25143771D01*
X8264100Y-25300914D01*
X8264100Y-25143771D02*
X8278386Y-25115200D01*
X8306957Y-25100914D01*
X8349814Y-25100914D01*
X8378386Y-25115200D01*
X8392671Y-25143771D01*
X8392671Y-25300914D01*
X8978386Y-24986629D02*
X8721243Y-25372343D01*
X9364100Y-25000914D02*
X9392671Y-25000914D01*
X9421243Y-25015200D01*
X9435528Y-25029486D01*
X9449814Y-25058057D01*
X9464100Y-25115200D01*
X9464100Y-25186629D01*
X9449814Y-25243771D01*
X9435528Y-25272343D01*
X9421243Y-25286629D01*
X9392671Y-25300914D01*
X9364100Y-25300914D01*
X9335528Y-25286629D01*
X9321243Y-25272343D01*
X9306957Y-25243771D01*
X9292671Y-25186629D01*
X9292671Y-25115200D01*
X9306957Y-25058057D01*
X9321243Y-25029486D01*
X9335528Y-25015200D01*
X9364100Y-25000914D01*
X9592671Y-25272343D02*
X9606957Y-25286629D01*
X9592671Y-25300914D01*
X9578386Y-25286629D01*
X9592671Y-25272343D01*
X9592671Y-25300914D01*
X9792671Y-25000914D02*
X9821243Y-25000914D01*
X9849814Y-25015200D01*
X9864100Y-25029486D01*
X9878386Y-25058057D01*
X9892671Y-25115200D01*
X9892671Y-25186629D01*
X9878386Y-25243771D01*
X9864100Y-25272343D01*
X9849814Y-25286629D01*
X9821243Y-25300914D01*
X9792671Y-25300914D01*
X9764100Y-25286629D01*
X9749814Y-25272343D01*
X9735528Y-25243771D01*
X9721243Y-25186629D01*
X9721243Y-25115200D01*
X9735528Y-25058057D01*
X9749814Y-25029486D01*
X9764100Y-25015200D01*
X9792671Y-25000914D01*
X10149814Y-25000914D02*
X10092671Y-25000914D01*
X10064100Y-25015200D01*
X10049814Y-25029486D01*
X10021243Y-25072343D01*
X10006957Y-25129486D01*
X10006957Y-25243771D01*
X10021243Y-25272343D01*
X10035528Y-25286629D01*
X10064100Y-25300914D01*
X10121243Y-25300914D01*
X10149814Y-25286629D01*
X10164100Y-25272343D01*
X10178386Y-25243771D01*
X10178386Y-25172343D01*
X10164100Y-25143771D01*
X10149814Y-25129486D01*
X10121243Y-25115200D01*
X10064100Y-25115200D01*
X10035528Y-25129486D01*
X10021243Y-25143771D01*
X10006957Y-25172343D01*
X10278386Y-25000914D02*
X10478386Y-25000914D01*
X10349814Y-25300914D01*
X10578386Y-25000914D02*
X10578386Y-25058057D01*
X10692671Y-25000914D02*
X10692671Y-25058057D01*
X11135528Y-25415200D02*
X11121243Y-25400914D01*
X11092671Y-25358057D01*
X11078386Y-25329486D01*
X11064100Y-25286629D01*
X11049814Y-25215200D01*
X11049814Y-25158057D01*
X11064100Y-25086629D01*
X11078386Y-25043771D01*
X11092671Y-25015200D01*
X11121243Y-24972343D01*
X11135528Y-24958057D01*
X11406957Y-25300914D02*
X11235528Y-25300914D01*
X11321243Y-25300914D02*
X11321243Y-25000914D01*
X11292671Y-25043771D01*
X11264100Y-25072343D01*
X11235528Y-25086629D01*
X11678386Y-25000914D02*
X11535528Y-25000914D01*
X11521243Y-25143771D01*
X11535528Y-25129486D01*
X11564100Y-25115200D01*
X11635528Y-25115200D01*
X11664100Y-25129486D01*
X11678386Y-25143771D01*
X11692671Y-25172343D01*
X11692671Y-25243771D01*
X11678386Y-25272343D01*
X11664100Y-25286629D01*
X11635528Y-25300914D01*
X11564100Y-25300914D01*
X11535528Y-25286629D01*
X11521243Y-25272343D01*
X12049814Y-25300914D02*
X12049814Y-25000914D01*
X12178386Y-25300914D02*
X12178386Y-25143771D01*
X12164100Y-25115200D01*
X12135528Y-25100914D01*
X12092671Y-25100914D01*
X12064100Y-25115200D01*
X12049814Y-25129486D01*
X12364100Y-25300914D02*
X12335528Y-25286629D01*
X12321243Y-25272343D01*
X12306957Y-25243771D01*
X12306957Y-25158057D01*
X12321243Y-25129486D01*
X12335528Y-25115200D01*
X12364100Y-25100914D01*
X12406957Y-25100914D01*
X12435528Y-25115200D01*
X12449814Y-25129486D01*
X12464100Y-25158057D01*
X12464100Y-25243771D01*
X12449814Y-25272343D01*
X12435528Y-25286629D01*
X12406957Y-25300914D01*
X12364100Y-25300914D01*
X12635528Y-25300914D02*
X12606957Y-25286629D01*
X12592671Y-25258057D01*
X12592671Y-25000914D01*
X12864100Y-25286629D02*
X12835528Y-25300914D01*
X12778386Y-25300914D01*
X12749814Y-25286629D01*
X12735528Y-25258057D01*
X12735528Y-25143771D01*
X12749814Y-25115200D01*
X12778386Y-25100914D01*
X12835528Y-25100914D01*
X12864100Y-25115200D01*
X12878386Y-25143771D01*
X12878386Y-25172343D01*
X12735528Y-25200914D01*
X12992671Y-25286629D02*
X13021243Y-25300914D01*
X13078386Y-25300914D01*
X13106957Y-25286629D01*
X13121243Y-25258057D01*
X13121243Y-25243771D01*
X13106957Y-25215200D01*
X13078386Y-25200914D01*
X13035528Y-25200914D01*
X13006957Y-25186629D01*
X12992671Y-25158057D01*
X12992671Y-25143771D01*
X13006957Y-25115200D01*
X13035528Y-25100914D01*
X13078386Y-25100914D01*
X13106957Y-25115200D01*
X13221243Y-25415200D02*
X13235528Y-25400914D01*
X13264100Y-25358057D01*
X13278386Y-25329486D01*
X13292671Y-25286629D01*
X13306957Y-25215200D01*
X13306957Y-25158057D01*
X13292671Y-25086629D01*
X13278386Y-25043771D01*
X13264100Y-25015200D01*
X13235528Y-24972343D01*
X13221243Y-24958057D01*
X5919100Y-25296200D02*
X6449100Y-25826200D01*
X6449100Y-25296200D02*
X5919100Y-25826200D01*
X6449100Y-25561200D02*
G75*
G03X6449100Y-25561200I-265000J0D01*
G01*
X6878386Y-25396914D02*
X6735528Y-25396914D01*
X6721243Y-25539771D01*
X6735528Y-25525486D01*
X6764100Y-25511200D01*
X6835528Y-25511200D01*
X6864100Y-25525486D01*
X6878386Y-25539771D01*
X6892671Y-25568343D01*
X6892671Y-25639771D01*
X6878386Y-25668343D01*
X6864100Y-25682629D01*
X6835528Y-25696914D01*
X6764100Y-25696914D01*
X6735528Y-25682629D01*
X6721243Y-25668343D01*
X7021243Y-25668343D02*
X7035528Y-25682629D01*
X7021243Y-25696914D01*
X7006957Y-25682629D01*
X7021243Y-25668343D01*
X7021243Y-25696914D01*
X7135528Y-25396914D02*
X7321243Y-25396914D01*
X7221243Y-25511200D01*
X7264100Y-25511200D01*
X7292671Y-25525486D01*
X7306957Y-25539771D01*
X7321243Y-25568343D01*
X7321243Y-25639771D01*
X7306957Y-25668343D01*
X7292671Y-25682629D01*
X7264100Y-25696914D01*
X7178386Y-25696914D01*
X7149814Y-25682629D01*
X7135528Y-25668343D01*
X7506957Y-25396914D02*
X7535528Y-25396914D01*
X7564100Y-25411200D01*
X7578386Y-25425486D01*
X7592671Y-25454057D01*
X7606957Y-25511200D01*
X7606957Y-25582629D01*
X7592671Y-25639771D01*
X7578386Y-25668343D01*
X7564100Y-25682629D01*
X7535528Y-25696914D01*
X7506957Y-25696914D01*
X7478386Y-25682629D01*
X7464100Y-25668343D01*
X7449814Y-25639771D01*
X7435528Y-25582629D01*
X7435528Y-25511200D01*
X7449814Y-25454057D01*
X7464100Y-25425486D01*
X7478386Y-25411200D01*
X7506957Y-25396914D01*
X7735528Y-25696914D02*
X7735528Y-25496914D01*
X7735528Y-25525486D02*
X7749814Y-25511200D01*
X7778386Y-25496914D01*
X7821243Y-25496914D01*
X7849814Y-25511200D01*
X7864100Y-25539771D01*
X7864100Y-25696914D01*
X7864100Y-25539771D02*
X7878386Y-25511200D01*
X7906957Y-25496914D01*
X7949814Y-25496914D01*
X7978386Y-25511200D01*
X7992671Y-25539771D01*
X7992671Y-25696914D01*
X8135528Y-25696914D02*
X8135528Y-25496914D01*
X8135528Y-25525486D02*
X8149814Y-25511200D01*
X8178386Y-25496914D01*
X8221243Y-25496914D01*
X8249814Y-25511200D01*
X8264100Y-25539771D01*
X8264100Y-25696914D01*
X8264100Y-25539771D02*
X8278386Y-25511200D01*
X8306957Y-25496914D01*
X8349814Y-25496914D01*
X8378386Y-25511200D01*
X8392671Y-25539771D01*
X8392671Y-25696914D01*
X8978386Y-25382629D02*
X8721243Y-25768343D01*
X9364100Y-25396914D02*
X9392671Y-25396914D01*
X9421243Y-25411200D01*
X9435528Y-25425486D01*
X9449814Y-25454057D01*
X9464100Y-25511200D01*
X9464100Y-25582629D01*
X9449814Y-25639771D01*
X9435528Y-25668343D01*
X9421243Y-25682629D01*
X9392671Y-25696914D01*
X9364100Y-25696914D01*
X9335528Y-25682629D01*
X9321243Y-25668343D01*
X9306957Y-25639771D01*
X9292671Y-25582629D01*
X9292671Y-25511200D01*
X9306957Y-25454057D01*
X9321243Y-25425486D01*
X9335528Y-25411200D01*
X9364100Y-25396914D01*
X9592671Y-25668343D02*
X9606957Y-25682629D01*
X9592671Y-25696914D01*
X9578386Y-25682629D01*
X9592671Y-25668343D01*
X9592671Y-25696914D01*
X9721243Y-25425486D02*
X9735528Y-25411200D01*
X9764100Y-25396914D01*
X9835528Y-25396914D01*
X9864100Y-25411200D01*
X9878386Y-25425486D01*
X9892671Y-25454057D01*
X9892671Y-25482629D01*
X9878386Y-25525486D01*
X9706957Y-25696914D01*
X9892671Y-25696914D01*
X10078386Y-25396914D02*
X10106957Y-25396914D01*
X10135528Y-25411200D01*
X10149814Y-25425486D01*
X10164100Y-25454057D01*
X10178386Y-25511200D01*
X10178386Y-25582629D01*
X10164100Y-25639771D01*
X10149814Y-25668343D01*
X10135528Y-25682629D01*
X10106957Y-25696914D01*
X10078386Y-25696914D01*
X10049814Y-25682629D01*
X10035528Y-25668343D01*
X10021243Y-25639771D01*
X10006957Y-25582629D01*
X10006957Y-25511200D01*
X10021243Y-25454057D01*
X10035528Y-25425486D01*
X10049814Y-25411200D01*
X10078386Y-25396914D01*
X10321243Y-25696914D02*
X10378386Y-25696914D01*
X10406957Y-25682629D01*
X10421243Y-25668343D01*
X10449814Y-25625486D01*
X10464100Y-25568343D01*
X10464100Y-25454057D01*
X10449814Y-25425486D01*
X10435528Y-25411200D01*
X10406957Y-25396914D01*
X10349814Y-25396914D01*
X10321243Y-25411200D01*
X10306957Y-25425486D01*
X10292671Y-25454057D01*
X10292671Y-25525486D01*
X10306957Y-25554057D01*
X10321243Y-25568343D01*
X10349814Y-25582629D01*
X10406957Y-25582629D01*
X10435528Y-25568343D01*
X10449814Y-25554057D01*
X10464100Y-25525486D01*
X10578386Y-25396914D02*
X10578386Y-25454057D01*
X10692671Y-25396914D02*
X10692671Y-25454057D01*
X11135528Y-25811200D02*
X11121243Y-25796914D01*
X11092671Y-25754057D01*
X11078386Y-25725486D01*
X11064100Y-25682629D01*
X11049814Y-25611200D01*
X11049814Y-25554057D01*
X11064100Y-25482629D01*
X11078386Y-25439771D01*
X11092671Y-25411200D01*
X11121243Y-25368343D01*
X11135528Y-25354057D01*
X11378386Y-25496914D02*
X11378386Y-25696914D01*
X11306957Y-25382629D02*
X11235528Y-25596914D01*
X11421243Y-25596914D01*
X11764100Y-25696914D02*
X11764100Y-25396914D01*
X11892671Y-25696914D02*
X11892671Y-25539771D01*
X11878386Y-25511200D01*
X11849814Y-25496914D01*
X11806957Y-25496914D01*
X11778386Y-25511200D01*
X11764100Y-25525486D01*
X12078386Y-25696914D02*
X12049814Y-25682629D01*
X12035528Y-25668343D01*
X12021243Y-25639771D01*
X12021243Y-25554057D01*
X12035528Y-25525486D01*
X12049814Y-25511200D01*
X12078386Y-25496914D01*
X12121243Y-25496914D01*
X12149814Y-25511200D01*
X12164100Y-25525486D01*
X12178386Y-25554057D01*
X12178386Y-25639771D01*
X12164100Y-25668343D01*
X12149814Y-25682629D01*
X12121243Y-25696914D01*
X12078386Y-25696914D01*
X12349814Y-25696914D02*
X12321243Y-25682629D01*
X12306957Y-25654057D01*
X12306957Y-25396914D01*
X12578386Y-25682629D02*
X12549814Y-25696914D01*
X12492671Y-25696914D01*
X12464100Y-25682629D01*
X12449814Y-25654057D01*
X12449814Y-25539771D01*
X12464100Y-25511200D01*
X12492671Y-25496914D01*
X12549814Y-25496914D01*
X12578386Y-25511200D01*
X12592671Y-25539771D01*
X12592671Y-25568343D01*
X12449814Y-25596914D01*
X12706957Y-25682629D02*
X12735528Y-25696914D01*
X12792671Y-25696914D01*
X12821243Y-25682629D01*
X12835528Y-25654057D01*
X12835528Y-25639771D01*
X12821243Y-25611200D01*
X12792671Y-25596914D01*
X12749814Y-25596914D01*
X12721243Y-25582629D01*
X12706957Y-25554057D01*
X12706957Y-25539771D01*
X12721243Y-25511200D01*
X12749814Y-25496914D01*
X12792671Y-25496914D01*
X12821243Y-25511200D01*
X12935528Y-25811200D02*
X12949814Y-25796914D01*
X12978386Y-25754057D01*
X12992671Y-25725486D01*
X13006957Y-25682629D01*
X13021243Y-25611200D01*
X13021243Y-25554057D01*
X13006957Y-25482629D01*
X12992671Y-25439771D01*
X12978386Y-25411200D01*
X12949814Y-25368343D01*
X12935528Y-25354057D01*
M02*
