G04 #@! TF.GenerationSoftware,KiCad,Pcbnew,(5.1.4)-1*
G04 #@! TF.CreationDate,2023-06-30T15:23:11-04:00*
G04 #@! TF.ProjectId,4ChWirelessLaunchController,34436857-6972-4656-9c65-73734c61756e,rev?*
G04 #@! TF.SameCoordinates,Original*
G04 #@! TF.FileFunction,Copper,L1,Top*
G04 #@! TF.FilePolarity,Positive*
%FSLAX46Y46*%
G04 Gerber Fmt 4.6, Leading zero omitted, Abs format (unit mm)*
G04 Created by KiCad (PCBNEW (5.1.4)-1) date 2023-06-30 15:23:11*
%MOMM*%
%LPD*%
G04 APERTURE LIST*
%ADD10C,9.200000*%
%ADD11R,2.400000X2.400000*%
%ADD12C,2.400000*%
%ADD13O,1.600000X1.600000*%
%ADD14C,1.600000*%
%ADD15C,2.550000*%
%ADD16R,2.550000X2.550000*%
%ADD17C,1.650000*%
%ADD18C,0.800000*%
%ADD19C,0.508000*%
%ADD20C,1.905000*%
%ADD21C,0.254000*%
G04 APERTURE END LIST*
D10*
X107188000Y-220472000D03*
X118872000Y-132334000D03*
X70104000Y-220662500D03*
X70104000Y-132080000D03*
D11*
X79819500Y-191071500D03*
D12*
X74739500Y-191071500D03*
D13*
X121475500Y-198310500D03*
D14*
X113855500Y-198310500D03*
D13*
X122110500Y-219964000D03*
D14*
X114490500Y-219964000D03*
D13*
X120078500Y-162687000D03*
D14*
X112458500Y-162687000D03*
D13*
X120142000Y-154876500D03*
D14*
X112522000Y-154876500D03*
D13*
X79629000Y-206121000D03*
D14*
X79629000Y-198501000D03*
D15*
X104734500Y-185306000D03*
X104734500Y-190106000D03*
D16*
X117134500Y-187706000D03*
D17*
X108734500Y-185306000D03*
X108734500Y-190106000D03*
D15*
X104734500Y-204038500D03*
X104734500Y-208838500D03*
D16*
X117134500Y-206438500D03*
D17*
X108734500Y-204038500D03*
X108734500Y-208838500D03*
D15*
X105242500Y-167970500D03*
X105242500Y-172770500D03*
D16*
X117642500Y-170370500D03*
D17*
X109242500Y-167970500D03*
X109242500Y-172770500D03*
D15*
X106385500Y-146825000D03*
X106385500Y-151625000D03*
D16*
X118785500Y-149225000D03*
D17*
X110385500Y-146825000D03*
X110385500Y-151625000D03*
D15*
X94338000Y-179565000D03*
X94338000Y-174765000D03*
D16*
X81938000Y-177165000D03*
D17*
X90338000Y-179565000D03*
X90338000Y-174765000D03*
D11*
X88519000Y-190944500D03*
D12*
X93599000Y-190944500D03*
D11*
X97726500Y-162877500D03*
D12*
X97726500Y-157797500D03*
D11*
X129413000Y-198310500D03*
D12*
X129413000Y-193230500D03*
X129413000Y-188150500D03*
X129413000Y-183070500D03*
D11*
X129222500Y-219837000D03*
D12*
X129222500Y-214757000D03*
X129222500Y-209677000D03*
X129222500Y-204597000D03*
D11*
X128905000Y-161036000D03*
D12*
X128905000Y-166116000D03*
X128905000Y-171196000D03*
X128905000Y-176276000D03*
D11*
X129413000Y-153860500D03*
D12*
X129413000Y-148780500D03*
X129413000Y-143700500D03*
X129413000Y-138620500D03*
D11*
X81153000Y-133413500D03*
D12*
X86233000Y-133413500D03*
X91313000Y-133413500D03*
X96393000Y-133413500D03*
X101473000Y-133413500D03*
X106553000Y-133413500D03*
D11*
X73469500Y-172593000D03*
D12*
X73469500Y-177673000D03*
D18*
X113411000Y-181419500D03*
X113792000Y-177228500D03*
X101155500Y-182499000D03*
X102489000Y-177165000D03*
X106807000Y-177038000D03*
X106463501Y-181711001D03*
D19*
X73469500Y-189801500D02*
X74739500Y-191071500D01*
X73469500Y-177673000D02*
X73469500Y-189801500D01*
X81153000Y-131705500D02*
X83699500Y-129159000D01*
X81153000Y-133413500D02*
X81153000Y-131705500D01*
X83699500Y-129159000D02*
X110807500Y-129159000D01*
X110807500Y-129159000D02*
X112839500Y-131191000D01*
X112839500Y-144371000D02*
X110385500Y-146825000D01*
X112839500Y-131191000D02*
X112839500Y-144371000D01*
X110385500Y-146825000D02*
X114617500Y-151057000D01*
X114617500Y-162595500D02*
X109242500Y-167970500D01*
X114617500Y-151057000D02*
X114617500Y-162595500D01*
X110409226Y-167970500D02*
X113792000Y-171353274D01*
X109242500Y-167970500D02*
X110409226Y-167970500D01*
X113792000Y-171353274D02*
X113792000Y-177228500D01*
X109901226Y-185306000D02*
X113411000Y-181796226D01*
X108734500Y-185306000D02*
X109901226Y-185306000D01*
X113411000Y-181796226D02*
X113411000Y-181419500D01*
X113411000Y-181419500D02*
X113411000Y-181419500D01*
X113792000Y-177228500D02*
X113792000Y-177228500D01*
X116903500Y-200342500D02*
X113207500Y-204038500D01*
X108734500Y-185306000D02*
X116903500Y-193475000D01*
X90338000Y-190131422D02*
X95215078Y-195008500D01*
X90338000Y-179565000D02*
X90338000Y-190131422D01*
X116903500Y-193475000D02*
X116903500Y-200342500D01*
X95215078Y-195008500D02*
X95215078Y-203355578D01*
X95215078Y-203355578D02*
X106045000Y-214185500D01*
X106045000Y-214185500D02*
X110998000Y-214185500D01*
X112826500Y-212357000D02*
X112826500Y-204038500D01*
X110998000Y-214185500D02*
X112826500Y-212357000D01*
X113207500Y-204038500D02*
X112826500Y-204038500D01*
X112826500Y-204038500D02*
X108734500Y-204038500D01*
X90338000Y-137518500D02*
X86233000Y-133413500D01*
X90338000Y-174765000D02*
X90338000Y-137518500D01*
X110236000Y-130492500D02*
X94234000Y-130492500D01*
X110871000Y-131127500D02*
X110236000Y-130492500D01*
X110934500Y-144145000D02*
X110934500Y-133604000D01*
X110934500Y-133604000D02*
X110871000Y-133540500D01*
X94234000Y-130492500D02*
X91313000Y-133413500D01*
X110871000Y-133540500D02*
X110871000Y-131127500D01*
X109106499Y-145973001D02*
X110934500Y-144145000D01*
X109106499Y-150345999D02*
X109106499Y-145973001D01*
X110385500Y-151625000D02*
X109106499Y-150345999D01*
X106971501Y-169332775D02*
X106971501Y-155993501D01*
X109242500Y-172770500D02*
X109242500Y-171603774D01*
X109242500Y-171603774D02*
X106971501Y-169332775D01*
X96393000Y-145415000D02*
X96393000Y-133413500D01*
X106971501Y-155993501D02*
X96393000Y-145415000D01*
X94738999Y-132619579D02*
X94738999Y-148015499D01*
X95599079Y-131759499D02*
X94738999Y-132619579D01*
X101473000Y-133413500D02*
X99818999Y-131759499D01*
X99818999Y-131759499D02*
X95599079Y-131759499D01*
X94738999Y-148015499D02*
X102552500Y-155829000D01*
X102552500Y-155829000D02*
X102552500Y-176657000D01*
X106463501Y-194393923D02*
X101155500Y-189085922D01*
X108734500Y-208838500D02*
X106463501Y-206567501D01*
X106463501Y-206567501D02*
X106463501Y-194393923D01*
X101155500Y-189085922D02*
X101155500Y-182499000D01*
X101155500Y-182499000D02*
X101155500Y-182499000D01*
X102552500Y-176657000D02*
X102552500Y-177101500D01*
X110521501Y-173384421D02*
X106867922Y-177038000D01*
X108712000Y-166608078D02*
X107963499Y-167356579D01*
X107963499Y-167356579D02*
X107963499Y-168584421D01*
X107963499Y-168584421D02*
X110521501Y-171142423D01*
X110521501Y-171142423D02*
X110521501Y-173384421D01*
X106867922Y-177038000D02*
X106807000Y-177038000D01*
X106463501Y-187835001D02*
X106463501Y-181711001D01*
X108734500Y-190106000D02*
X106463501Y-187835001D01*
X106807000Y-177038000D02*
X105981500Y-177038000D01*
X106463501Y-181711001D02*
X106463501Y-181711001D01*
X107752999Y-134613499D02*
X106553000Y-133413500D01*
X108114501Y-134975001D02*
X107752999Y-134613499D01*
X108114501Y-150355278D02*
X108114501Y-134975001D01*
X108712000Y-150952777D02*
X108114501Y-150355278D01*
X108712000Y-166608078D02*
X108712000Y-150952777D01*
X128397000Y-154876500D02*
X129413000Y-153860500D01*
X120142000Y-154876500D02*
X128397000Y-154876500D01*
D20*
X125616000Y-179565000D02*
X128905000Y-176276000D01*
X130104999Y-167315999D02*
X128905000Y-166116000D01*
X131257501Y-168468501D02*
X130104999Y-167315999D01*
X131257501Y-175620555D02*
X131257501Y-168468501D01*
X130602056Y-176276000D02*
X131257501Y-175620555D01*
X128905000Y-176276000D02*
X130602056Y-176276000D01*
X133985000Y-161036000D02*
X133985000Y-151384000D01*
X128905000Y-166116000D02*
X133985000Y-161036000D01*
X132016500Y-151384000D02*
X129413000Y-148780500D01*
X133985000Y-151384000D02*
X132016500Y-151384000D01*
X129413000Y-148780500D02*
X133604000Y-144589500D01*
X133604000Y-142811500D02*
X129413000Y-138620500D01*
X133604000Y-144589500D02*
X133604000Y-142811500D01*
X125907500Y-179565000D02*
X129413000Y-183070500D01*
X125616000Y-179565000D02*
X125907500Y-179565000D01*
X129413000Y-183070500D02*
X133413500Y-187071000D01*
X133413500Y-189230000D02*
X129413000Y-193230500D01*
X133413500Y-187071000D02*
X133413500Y-189230000D01*
X130612999Y-194430499D02*
X130866999Y-194430499D01*
X129413000Y-193230500D02*
X130612999Y-194430499D01*
X130866999Y-194430499D02*
X133540500Y-197104000D01*
X133540500Y-200279000D02*
X129222500Y-204597000D01*
X133540500Y-197104000D02*
X133540500Y-200279000D01*
X129222500Y-204597000D02*
X132461000Y-207835500D01*
X132461000Y-207835500D02*
X132461000Y-213042500D01*
X130937000Y-213042500D02*
X129222500Y-214757000D01*
X132461000Y-213042500D02*
X130937000Y-213042500D01*
D19*
X94338000Y-190205500D02*
X93599000Y-190944500D01*
X94338000Y-179565000D02*
X94338000Y-190205500D01*
X97726500Y-173255500D02*
X97726500Y-162877500D01*
X95612999Y-178290001D02*
X95612999Y-178262501D01*
X94338000Y-179565000D02*
X95612999Y-178290001D01*
X97726500Y-176149000D02*
X97726500Y-173255500D01*
X95612999Y-178262501D02*
X97726500Y-176149000D01*
D20*
X123888500Y-149225000D02*
X129413000Y-143700500D01*
X118785500Y-149225000D02*
X123888500Y-149225000D01*
D19*
X127254000Y-162687000D02*
X128905000Y-161036000D01*
X120078500Y-162687000D02*
X127254000Y-162687000D01*
D20*
X128079500Y-170370500D02*
X128905000Y-171196000D01*
X117642500Y-170370500D02*
X128079500Y-170370500D01*
D19*
X129095500Y-219964000D02*
X129222500Y-219837000D01*
X122110500Y-219964000D02*
X129095500Y-219964000D01*
D20*
X117134500Y-206438500D02*
X125984000Y-206438500D01*
X125984000Y-206438500D02*
X129222500Y-209677000D01*
D19*
X121475500Y-198310500D02*
X129413000Y-198310500D01*
D20*
X128968500Y-187706000D02*
X129413000Y-188150500D01*
X117134500Y-187706000D02*
X128968500Y-187706000D01*
D19*
X94338000Y-174765000D02*
X92509500Y-176593500D01*
X92509500Y-176593500D02*
X88646000Y-176593500D01*
X88519000Y-176720500D02*
X88519000Y-190944500D01*
X88646000Y-176593500D02*
X88519000Y-176720500D01*
X79819500Y-194627500D02*
X79565500Y-194881500D01*
X79819500Y-191071500D02*
X79819500Y-194627500D01*
X79629000Y-194945000D02*
X79629000Y-198501000D01*
X79565500Y-194881500D02*
X79629000Y-194945000D01*
D21*
G36*
X132972714Y-174306433D02*
G01*
X133282478Y-184652569D01*
X130432156Y-184536702D01*
X130511374Y-184348480D01*
X129413000Y-183250105D01*
X128314626Y-184348480D01*
X128358364Y-184452402D01*
X125732382Y-184345655D01*
X125756003Y-183125184D01*
X127569933Y-183125184D01*
X127616015Y-183483698D01*
X127731154Y-183826333D01*
X127850164Y-184048986D01*
X128135020Y-184168874D01*
X129233395Y-183070500D01*
X129592605Y-183070500D01*
X130690980Y-184168874D01*
X130975836Y-184048986D01*
X131136699Y-183725290D01*
X131231322Y-183376431D01*
X131256067Y-183015816D01*
X131209985Y-182657302D01*
X131094846Y-182314667D01*
X130975836Y-182092014D01*
X130690980Y-181972126D01*
X129592605Y-183070500D01*
X129233395Y-183070500D01*
X128135020Y-181972126D01*
X127850164Y-182092014D01*
X127689301Y-182415710D01*
X127594678Y-182764569D01*
X127569933Y-183125184D01*
X125756003Y-183125184D01*
X125781796Y-181792520D01*
X128314626Y-181792520D01*
X129413000Y-182890895D01*
X130511374Y-181792520D01*
X130391486Y-181507664D01*
X130067790Y-181346801D01*
X129718931Y-181252178D01*
X129358316Y-181227433D01*
X128999802Y-181273515D01*
X128657167Y-181388654D01*
X128434514Y-181507664D01*
X128314626Y-181792520D01*
X125781796Y-181792520D01*
X125863833Y-177553980D01*
X127806626Y-177553980D01*
X127926514Y-177838836D01*
X128250210Y-177999699D01*
X128599069Y-178094322D01*
X128959684Y-178119067D01*
X129318198Y-178072985D01*
X129660833Y-177957846D01*
X129883486Y-177838836D01*
X130003374Y-177553980D01*
X128905000Y-176455605D01*
X127806626Y-177553980D01*
X125863833Y-177553980D01*
X125887510Y-176330684D01*
X127061933Y-176330684D01*
X127108015Y-176689198D01*
X127223154Y-177031833D01*
X127342164Y-177254486D01*
X127627020Y-177374374D01*
X128725395Y-176276000D01*
X129084605Y-176276000D01*
X130182980Y-177374374D01*
X130467836Y-177254486D01*
X130628699Y-176930790D01*
X130723322Y-176581931D01*
X130748067Y-176221316D01*
X130701985Y-175862802D01*
X130586846Y-175520167D01*
X130467836Y-175297514D01*
X130182980Y-175177626D01*
X129084605Y-176276000D01*
X128725395Y-176276000D01*
X127627020Y-175177626D01*
X127342164Y-175297514D01*
X127181301Y-175621210D01*
X127086678Y-175970069D01*
X127061933Y-176330684D01*
X125887510Y-176330684D01*
X125913303Y-174998020D01*
X127806626Y-174998020D01*
X128905000Y-176096395D01*
X130003374Y-174998020D01*
X129883486Y-174713164D01*
X129559790Y-174552301D01*
X129210931Y-174457678D01*
X128850316Y-174432933D01*
X128491802Y-174479015D01*
X128149167Y-174594154D01*
X127926514Y-174713164D01*
X127806626Y-174998020D01*
X125913303Y-174998020D01*
X125920476Y-174627458D01*
X125920500Y-174625000D01*
X125920500Y-174245109D01*
X132972714Y-174306433D01*
X132972714Y-174306433D01*
G37*
X132972714Y-174306433D02*
X133282478Y-184652569D01*
X130432156Y-184536702D01*
X130511374Y-184348480D01*
X129413000Y-183250105D01*
X128314626Y-184348480D01*
X128358364Y-184452402D01*
X125732382Y-184345655D01*
X125756003Y-183125184D01*
X127569933Y-183125184D01*
X127616015Y-183483698D01*
X127731154Y-183826333D01*
X127850164Y-184048986D01*
X128135020Y-184168874D01*
X129233395Y-183070500D01*
X129592605Y-183070500D01*
X130690980Y-184168874D01*
X130975836Y-184048986D01*
X131136699Y-183725290D01*
X131231322Y-183376431D01*
X131256067Y-183015816D01*
X131209985Y-182657302D01*
X131094846Y-182314667D01*
X130975836Y-182092014D01*
X130690980Y-181972126D01*
X129592605Y-183070500D01*
X129233395Y-183070500D01*
X128135020Y-181972126D01*
X127850164Y-182092014D01*
X127689301Y-182415710D01*
X127594678Y-182764569D01*
X127569933Y-183125184D01*
X125756003Y-183125184D01*
X125781796Y-181792520D01*
X128314626Y-181792520D01*
X129413000Y-182890895D01*
X130511374Y-181792520D01*
X130391486Y-181507664D01*
X130067790Y-181346801D01*
X129718931Y-181252178D01*
X129358316Y-181227433D01*
X128999802Y-181273515D01*
X128657167Y-181388654D01*
X128434514Y-181507664D01*
X128314626Y-181792520D01*
X125781796Y-181792520D01*
X125863833Y-177553980D01*
X127806626Y-177553980D01*
X127926514Y-177838836D01*
X128250210Y-177999699D01*
X128599069Y-178094322D01*
X128959684Y-178119067D01*
X129318198Y-178072985D01*
X129660833Y-177957846D01*
X129883486Y-177838836D01*
X130003374Y-177553980D01*
X128905000Y-176455605D01*
X127806626Y-177553980D01*
X125863833Y-177553980D01*
X125887510Y-176330684D01*
X127061933Y-176330684D01*
X127108015Y-176689198D01*
X127223154Y-177031833D01*
X127342164Y-177254486D01*
X127627020Y-177374374D01*
X128725395Y-176276000D01*
X129084605Y-176276000D01*
X130182980Y-177374374D01*
X130467836Y-177254486D01*
X130628699Y-176930790D01*
X130723322Y-176581931D01*
X130748067Y-176221316D01*
X130701985Y-175862802D01*
X130586846Y-175520167D01*
X130467836Y-175297514D01*
X130182980Y-175177626D01*
X129084605Y-176276000D01*
X128725395Y-176276000D01*
X127627020Y-175177626D01*
X127342164Y-175297514D01*
X127181301Y-175621210D01*
X127086678Y-175970069D01*
X127061933Y-176330684D01*
X125887510Y-176330684D01*
X125913303Y-174998020D01*
X127806626Y-174998020D01*
X128905000Y-176096395D01*
X130003374Y-174998020D01*
X129883486Y-174713164D01*
X129559790Y-174552301D01*
X129210931Y-174457678D01*
X128850316Y-174432933D01*
X128491802Y-174479015D01*
X128149167Y-174594154D01*
X127926514Y-174713164D01*
X127806626Y-174998020D01*
X125913303Y-174998020D01*
X125920476Y-174627458D01*
X125920500Y-174625000D01*
X125920500Y-174245109D01*
X132972714Y-174306433D01*
G36*
X138655325Y-135586540D02*
G01*
X138746951Y-135624493D01*
X138825632Y-135684868D01*
X138886007Y-135763549D01*
X138923960Y-135855175D01*
X138938000Y-135961821D01*
X138938000Y-215701179D01*
X138923960Y-215807825D01*
X138886007Y-215899451D01*
X138825632Y-215978132D01*
X138746951Y-216038507D01*
X138655325Y-216076460D01*
X138548679Y-216090500D01*
X130297507Y-216090500D01*
X130320874Y-216034980D01*
X129222500Y-214936605D01*
X128124126Y-216034980D01*
X128147493Y-216090500D01*
X124087321Y-216090500D01*
X123980675Y-216076460D01*
X123889049Y-216038507D01*
X123810368Y-215978132D01*
X123749993Y-215899451D01*
X123712040Y-215807825D01*
X123698000Y-215701179D01*
X123698000Y-214811684D01*
X127379433Y-214811684D01*
X127425515Y-215170198D01*
X127540654Y-215512833D01*
X127659664Y-215735486D01*
X127944520Y-215855374D01*
X129042895Y-214757000D01*
X129402105Y-214757000D01*
X130500480Y-215855374D01*
X130785336Y-215735486D01*
X130946199Y-215411790D01*
X131040822Y-215062931D01*
X131065567Y-214702316D01*
X131019485Y-214343802D01*
X130904346Y-214001167D01*
X130785336Y-213778514D01*
X130500480Y-213658626D01*
X129402105Y-214757000D01*
X129042895Y-214757000D01*
X127944520Y-213658626D01*
X127659664Y-213778514D01*
X127498801Y-214102210D01*
X127404178Y-214451069D01*
X127379433Y-214811684D01*
X123698000Y-214811684D01*
X123698000Y-213479020D01*
X128124126Y-213479020D01*
X129222500Y-214577395D01*
X130320874Y-213479020D01*
X130200986Y-213194164D01*
X129877290Y-213033301D01*
X129528431Y-212938678D01*
X129167816Y-212913933D01*
X128809302Y-212960015D01*
X128466667Y-213075154D01*
X128244014Y-213194164D01*
X128124126Y-213479020D01*
X123698000Y-213479020D01*
X123698000Y-208026000D01*
X125326437Y-208026000D01*
X127444444Y-210144008D01*
X127458018Y-210212250D01*
X127596344Y-210546199D01*
X127797162Y-210846744D01*
X128052756Y-211102338D01*
X128353301Y-211303156D01*
X128687250Y-211441482D01*
X129041768Y-211512000D01*
X129403232Y-211512000D01*
X129757750Y-211441482D01*
X130091699Y-211303156D01*
X130392244Y-211102338D01*
X130647838Y-210846744D01*
X130848656Y-210546199D01*
X130986982Y-210212250D01*
X131057500Y-209857732D01*
X131057500Y-209496268D01*
X130986982Y-209141750D01*
X130848656Y-208807801D01*
X130647838Y-208507256D01*
X130392244Y-208251662D01*
X130091699Y-208050844D01*
X129757750Y-207912518D01*
X129689508Y-207898944D01*
X127665544Y-205874980D01*
X128124126Y-205874980D01*
X128244014Y-206159836D01*
X128567710Y-206320699D01*
X128916569Y-206415322D01*
X129277184Y-206440067D01*
X129635698Y-206393985D01*
X129978333Y-206278846D01*
X130200986Y-206159836D01*
X130320874Y-205874980D01*
X129222500Y-204776605D01*
X128124126Y-205874980D01*
X127665544Y-205874980D01*
X127161680Y-205371117D01*
X127111963Y-205310537D01*
X126870235Y-205112155D01*
X126594449Y-204964745D01*
X126295204Y-204873970D01*
X126061986Y-204851000D01*
X126061979Y-204851000D01*
X125984000Y-204843320D01*
X125906021Y-204851000D01*
X123698000Y-204851000D01*
X123698000Y-204651684D01*
X127379433Y-204651684D01*
X127425515Y-205010198D01*
X127540654Y-205352833D01*
X127659664Y-205575486D01*
X127944520Y-205695374D01*
X129042895Y-204597000D01*
X129402105Y-204597000D01*
X130500480Y-205695374D01*
X130785336Y-205575486D01*
X130946199Y-205251790D01*
X131040822Y-204902931D01*
X131065567Y-204542316D01*
X131019485Y-204183802D01*
X130904346Y-203841167D01*
X130785336Y-203618514D01*
X130500480Y-203498626D01*
X129402105Y-204597000D01*
X129042895Y-204597000D01*
X127944520Y-203498626D01*
X127659664Y-203618514D01*
X127498801Y-203942210D01*
X127404178Y-204291069D01*
X127379433Y-204651684D01*
X123698000Y-204651684D01*
X123698000Y-203319020D01*
X128124126Y-203319020D01*
X129222500Y-204417395D01*
X130320874Y-203319020D01*
X130200986Y-203034164D01*
X129877290Y-202873301D01*
X129528431Y-202778678D01*
X129167816Y-202753933D01*
X128809302Y-202800015D01*
X128466667Y-202915154D01*
X128244014Y-203034164D01*
X128124126Y-203319020D01*
X123698000Y-203319020D01*
X123698000Y-199199500D01*
X127574928Y-199199500D01*
X127574928Y-199510500D01*
X127587188Y-199634982D01*
X127623498Y-199754680D01*
X127682463Y-199864994D01*
X127761815Y-199961685D01*
X127858506Y-200041037D01*
X127968820Y-200100002D01*
X128088518Y-200136312D01*
X128213000Y-200148572D01*
X130613000Y-200148572D01*
X130737482Y-200136312D01*
X130857180Y-200100002D01*
X130967494Y-200041037D01*
X131064185Y-199961685D01*
X131143537Y-199864994D01*
X131202502Y-199754680D01*
X131238812Y-199634982D01*
X131251072Y-199510500D01*
X131251072Y-197110500D01*
X131238812Y-196986018D01*
X131202502Y-196866320D01*
X131143537Y-196756006D01*
X131064185Y-196659315D01*
X130967494Y-196579963D01*
X130857180Y-196520998D01*
X130737482Y-196484688D01*
X130613000Y-196472428D01*
X128213000Y-196472428D01*
X128088518Y-196484688D01*
X127968820Y-196520998D01*
X127858506Y-196579963D01*
X127761815Y-196659315D01*
X127682463Y-196756006D01*
X127623498Y-196866320D01*
X127587188Y-196986018D01*
X127574928Y-197110500D01*
X127574928Y-197421500D01*
X123698000Y-197421500D01*
X123698000Y-194508480D01*
X128314626Y-194508480D01*
X128434514Y-194793336D01*
X128758210Y-194954199D01*
X129107069Y-195048822D01*
X129467684Y-195073567D01*
X129826198Y-195027485D01*
X130168833Y-194912346D01*
X130391486Y-194793336D01*
X130511374Y-194508480D01*
X129413000Y-193410105D01*
X128314626Y-194508480D01*
X123698000Y-194508480D01*
X123698000Y-193285184D01*
X127569933Y-193285184D01*
X127616015Y-193643698D01*
X127731154Y-193986333D01*
X127850164Y-194208986D01*
X128135020Y-194328874D01*
X129233395Y-193230500D01*
X129592605Y-193230500D01*
X130690980Y-194328874D01*
X130975836Y-194208986D01*
X131136699Y-193885290D01*
X131231322Y-193536431D01*
X131256067Y-193175816D01*
X131209985Y-192817302D01*
X131094846Y-192474667D01*
X130975836Y-192252014D01*
X130690980Y-192132126D01*
X129592605Y-193230500D01*
X129233395Y-193230500D01*
X128135020Y-192132126D01*
X127850164Y-192252014D01*
X127689301Y-192575710D01*
X127594678Y-192924569D01*
X127569933Y-193285184D01*
X123698000Y-193285184D01*
X123698000Y-191952520D01*
X128314626Y-191952520D01*
X129413000Y-193050895D01*
X130511374Y-191952520D01*
X130391486Y-191667664D01*
X130067790Y-191506801D01*
X129718931Y-191412178D01*
X129358316Y-191387433D01*
X128999802Y-191433515D01*
X128657167Y-191548654D01*
X128434514Y-191667664D01*
X128314626Y-191952520D01*
X123698000Y-191952520D01*
X123698000Y-189293500D01*
X127969792Y-189293500D01*
X127987662Y-189320244D01*
X128243256Y-189575838D01*
X128543801Y-189776656D01*
X128877750Y-189914982D01*
X129232268Y-189985500D01*
X129593732Y-189985500D01*
X129948250Y-189914982D01*
X130282199Y-189776656D01*
X130582744Y-189575838D01*
X130838338Y-189320244D01*
X131039156Y-189019699D01*
X131177482Y-188685750D01*
X131248000Y-188331232D01*
X131248000Y-187969768D01*
X131177482Y-187615250D01*
X131039156Y-187281301D01*
X130838338Y-186980756D01*
X130582744Y-186725162D01*
X130282199Y-186524344D01*
X129948250Y-186386018D01*
X129818268Y-186360163D01*
X129578949Y-186232245D01*
X129279704Y-186141470D01*
X129046486Y-186118500D01*
X129046479Y-186118500D01*
X128968500Y-186110820D01*
X128890521Y-186118500D01*
X123698000Y-186118500D01*
X123698000Y-184348480D01*
X128314626Y-184348480D01*
X128434514Y-184633336D01*
X128758210Y-184794199D01*
X129107069Y-184888822D01*
X129467684Y-184913567D01*
X129826198Y-184867485D01*
X130168833Y-184752346D01*
X130391486Y-184633336D01*
X130511374Y-184348480D01*
X129413000Y-183250105D01*
X128314626Y-184348480D01*
X123698000Y-184348480D01*
X123698000Y-183125184D01*
X127569933Y-183125184D01*
X127616015Y-183483698D01*
X127731154Y-183826333D01*
X127850164Y-184048986D01*
X128135020Y-184168874D01*
X129233395Y-183070500D01*
X129592605Y-183070500D01*
X130690980Y-184168874D01*
X130975836Y-184048986D01*
X131136699Y-183725290D01*
X131231322Y-183376431D01*
X131256067Y-183015816D01*
X131209985Y-182657302D01*
X131094846Y-182314667D01*
X130975836Y-182092014D01*
X130690980Y-181972126D01*
X129592605Y-183070500D01*
X129233395Y-183070500D01*
X128135020Y-181972126D01*
X127850164Y-182092014D01*
X127689301Y-182415710D01*
X127594678Y-182764569D01*
X127569933Y-183125184D01*
X123698000Y-183125184D01*
X123698000Y-183092387D01*
X123696946Y-183076057D01*
X123680147Y-182946498D01*
X123671817Y-182914917D01*
X123622531Y-182793926D01*
X123606422Y-182765513D01*
X123527909Y-182661094D01*
X123505088Y-182637731D01*
X123402541Y-182556788D01*
X123374515Y-182540016D01*
X123254715Y-182487903D01*
X123223337Y-182478834D01*
X123094208Y-182458999D01*
X123077908Y-182457562D01*
X114177257Y-182248545D01*
X114236303Y-182138077D01*
X114286736Y-181971819D01*
X114328205Y-181909756D01*
X114376766Y-181792520D01*
X128314626Y-181792520D01*
X129413000Y-182890895D01*
X130511374Y-181792520D01*
X130391486Y-181507664D01*
X130067790Y-181346801D01*
X129718931Y-181252178D01*
X129358316Y-181227433D01*
X128999802Y-181273515D01*
X128657167Y-181388654D01*
X128434514Y-181507664D01*
X128314626Y-181792520D01*
X114376766Y-181792520D01*
X114406226Y-181721398D01*
X114446000Y-181521439D01*
X114446000Y-181317561D01*
X114406226Y-181117602D01*
X114328205Y-180929244D01*
X114214937Y-180759726D01*
X114070774Y-180615563D01*
X113901256Y-180502295D01*
X113712898Y-180424274D01*
X113512939Y-180384500D01*
X113309061Y-180384500D01*
X113109102Y-180424274D01*
X112920744Y-180502295D01*
X112751226Y-180615563D01*
X112607063Y-180759726D01*
X112493795Y-180929244D01*
X112415774Y-181117602D01*
X112376000Y-181317561D01*
X112376000Y-181521439D01*
X112384719Y-181565271D01*
X111758252Y-182191738D01*
X107426782Y-182090021D01*
X107458727Y-182012899D01*
X107498501Y-181812940D01*
X107498501Y-181609062D01*
X107458727Y-181409103D01*
X107380706Y-181220745D01*
X107267438Y-181051227D01*
X107123275Y-180907064D01*
X106953757Y-180793796D01*
X106765399Y-180715775D01*
X106565440Y-180676001D01*
X106361562Y-180676001D01*
X106161603Y-180715775D01*
X105973245Y-180793796D01*
X105803727Y-180907064D01*
X105659564Y-181051227D01*
X105546296Y-181220745D01*
X105468275Y-181409103D01*
X105428501Y-181609062D01*
X105428501Y-181812940D01*
X105468275Y-182012899D01*
X105481296Y-182044334D01*
X102042527Y-181963580D01*
X101959437Y-181839226D01*
X101815274Y-181695063D01*
X101645756Y-181581795D01*
X101457398Y-181503774D01*
X101257439Y-181464000D01*
X101053561Y-181464000D01*
X100853602Y-181503774D01*
X100665244Y-181581795D01*
X100495726Y-181695063D01*
X100351563Y-181839226D01*
X100295879Y-181922563D01*
X92895378Y-181748774D01*
X92771394Y-181726596D01*
X92668664Y-181672582D01*
X92587063Y-181590044D01*
X92534226Y-181486699D01*
X92513467Y-181362475D01*
X92507852Y-180896415D01*
X93186190Y-180896415D01*
X93315116Y-181188945D01*
X93651586Y-181357296D01*
X94014435Y-181456771D01*
X94389718Y-181483545D01*
X94763015Y-181436591D01*
X95119978Y-181317713D01*
X95360884Y-181188945D01*
X95489810Y-180896415D01*
X94338000Y-179744605D01*
X93186190Y-180896415D01*
X92507852Y-180896415D01*
X92498077Y-180085106D01*
X92585287Y-180346978D01*
X92714055Y-180587884D01*
X93006585Y-180716810D01*
X94158395Y-179565000D01*
X94517605Y-179565000D01*
X95669415Y-180716810D01*
X95961945Y-180587884D01*
X96130296Y-180251414D01*
X96229771Y-179888565D01*
X96256545Y-179513282D01*
X96209591Y-179139985D01*
X96090713Y-178783022D01*
X95961945Y-178542116D01*
X95669415Y-178413190D01*
X94517605Y-179565000D01*
X94158395Y-179565000D01*
X93006585Y-178413190D01*
X92714055Y-178542116D01*
X92545704Y-178878586D01*
X92486157Y-179095791D01*
X92475770Y-178233585D01*
X93186190Y-178233585D01*
X94338000Y-179385395D01*
X95489810Y-178233585D01*
X95360884Y-177941055D01*
X95024414Y-177772704D01*
X94661565Y-177673229D01*
X94286282Y-177646455D01*
X93912985Y-177693409D01*
X93556022Y-177812287D01*
X93315116Y-177941055D01*
X93186190Y-178233585D01*
X92475770Y-178233585D01*
X92466721Y-177482587D01*
X92509500Y-177486800D01*
X92553160Y-177482500D01*
X92553167Y-177482500D01*
X92683774Y-177469636D01*
X92851351Y-177418803D01*
X93005791Y-177336253D01*
X93141159Y-177225159D01*
X93168999Y-177191236D01*
X93637191Y-176723045D01*
X101545415Y-176738431D01*
X101493774Y-176863102D01*
X101454000Y-177063061D01*
X101454000Y-177266939D01*
X101493774Y-177466898D01*
X101571795Y-177655256D01*
X101685063Y-177824774D01*
X101829226Y-177968937D01*
X101998744Y-178082205D01*
X102187102Y-178160226D01*
X102387061Y-178200000D01*
X102590939Y-178200000D01*
X102790898Y-178160226D01*
X102979256Y-178082205D01*
X103148774Y-177968937D01*
X103292937Y-177824774D01*
X103406205Y-177655256D01*
X103484226Y-177466898D01*
X103524000Y-177266939D01*
X103524000Y-177063061D01*
X103484226Y-176863102D01*
X103441500Y-176759953D01*
X103441500Y-176742120D01*
X105141249Y-176745427D01*
X105105364Y-176863726D01*
X105088199Y-177038000D01*
X105105364Y-177212274D01*
X105156197Y-177379851D01*
X105238747Y-177534291D01*
X105349841Y-177669659D01*
X105485209Y-177780753D01*
X105639649Y-177863303D01*
X105807226Y-177914136D01*
X105937833Y-177927000D01*
X106274532Y-177927000D01*
X106316744Y-177955205D01*
X106505102Y-178033226D01*
X106705061Y-178073000D01*
X106908939Y-178073000D01*
X107108898Y-178033226D01*
X107297256Y-177955205D01*
X107466774Y-177841937D01*
X107610937Y-177697774D01*
X107724205Y-177528256D01*
X107787353Y-177375804D01*
X108411368Y-176751789D01*
X112865595Y-176760455D01*
X112796774Y-176926602D01*
X112757000Y-177126561D01*
X112757000Y-177330439D01*
X112796774Y-177530398D01*
X112874795Y-177718756D01*
X112988063Y-177888274D01*
X113132226Y-178032437D01*
X113301744Y-178145705D01*
X113490102Y-178223726D01*
X113690061Y-178263500D01*
X113893939Y-178263500D01*
X114093898Y-178223726D01*
X114282256Y-178145705D01*
X114451774Y-178032437D01*
X114595937Y-177888274D01*
X114709205Y-177718756D01*
X114777457Y-177553980D01*
X127806626Y-177553980D01*
X127926514Y-177838836D01*
X128250210Y-177999699D01*
X128599069Y-178094322D01*
X128959684Y-178119067D01*
X129318198Y-178072985D01*
X129660833Y-177957846D01*
X129883486Y-177838836D01*
X130003374Y-177553980D01*
X128905000Y-176455605D01*
X127806626Y-177553980D01*
X114777457Y-177553980D01*
X114787226Y-177530398D01*
X114827000Y-177330439D01*
X114827000Y-177126561D01*
X114787226Y-176926602D01*
X114719899Y-176764062D01*
X123061765Y-176780292D01*
X123078364Y-176779235D01*
X123210036Y-176762139D01*
X123242114Y-176753599D01*
X123364859Y-176702966D01*
X123393627Y-176686406D01*
X123499059Y-176605695D01*
X123522554Y-176582246D01*
X123603469Y-176476972D01*
X123620085Y-176448236D01*
X123668844Y-176330684D01*
X127061933Y-176330684D01*
X127108015Y-176689198D01*
X127223154Y-177031833D01*
X127342164Y-177254486D01*
X127627020Y-177374374D01*
X128725395Y-176276000D01*
X129084605Y-176276000D01*
X130182980Y-177374374D01*
X130467836Y-177254486D01*
X130628699Y-176930790D01*
X130723322Y-176581931D01*
X130748067Y-176221316D01*
X130701985Y-175862802D01*
X130586846Y-175520167D01*
X130467836Y-175297514D01*
X130182980Y-175177626D01*
X129084605Y-176276000D01*
X128725395Y-176276000D01*
X127627020Y-175177626D01*
X127342164Y-175297514D01*
X127181301Y-175621210D01*
X127086678Y-175970069D01*
X127061933Y-176330684D01*
X123668844Y-176330684D01*
X123670957Y-176325590D01*
X123679559Y-176293529D01*
X123696911Y-176161890D01*
X123698000Y-176145293D01*
X123698000Y-174998020D01*
X127806626Y-174998020D01*
X128905000Y-176096395D01*
X130003374Y-174998020D01*
X129883486Y-174713164D01*
X129559790Y-174552301D01*
X129210931Y-174457678D01*
X128850316Y-174432933D01*
X128491802Y-174479015D01*
X128149167Y-174594154D01*
X127926514Y-174713164D01*
X127806626Y-174998020D01*
X123698000Y-174998020D01*
X123698000Y-171958000D01*
X127234441Y-171958000D01*
X127278844Y-172065199D01*
X127479662Y-172365744D01*
X127735256Y-172621338D01*
X128035801Y-172822156D01*
X128369750Y-172960482D01*
X128724268Y-173031000D01*
X129085732Y-173031000D01*
X129440250Y-172960482D01*
X129774199Y-172822156D01*
X130074744Y-172621338D01*
X130330338Y-172365744D01*
X130531156Y-172065199D01*
X130669482Y-171731250D01*
X130740000Y-171376732D01*
X130740000Y-171015268D01*
X130669482Y-170660750D01*
X130531156Y-170326801D01*
X130330338Y-170026256D01*
X130074744Y-169770662D01*
X129774199Y-169569844D01*
X129440250Y-169431518D01*
X129372007Y-169417944D01*
X129257180Y-169303117D01*
X129207463Y-169242537D01*
X128965735Y-169044155D01*
X128689949Y-168896745D01*
X128390704Y-168805970D01*
X128157486Y-168783000D01*
X128157479Y-168783000D01*
X128079500Y-168775320D01*
X128001521Y-168783000D01*
X123698000Y-168783000D01*
X123698000Y-167393980D01*
X127806626Y-167393980D01*
X127926514Y-167678836D01*
X128250210Y-167839699D01*
X128599069Y-167934322D01*
X128959684Y-167959067D01*
X129318198Y-167912985D01*
X129660833Y-167797846D01*
X129883486Y-167678836D01*
X130003374Y-167393980D01*
X128905000Y-166295605D01*
X127806626Y-167393980D01*
X123698000Y-167393980D01*
X123698000Y-166170684D01*
X127061933Y-166170684D01*
X127108015Y-166529198D01*
X127223154Y-166871833D01*
X127342164Y-167094486D01*
X127627020Y-167214374D01*
X128725395Y-166116000D01*
X129084605Y-166116000D01*
X130182980Y-167214374D01*
X130467836Y-167094486D01*
X130628699Y-166770790D01*
X130723322Y-166421931D01*
X130748067Y-166061316D01*
X130701985Y-165702802D01*
X130586846Y-165360167D01*
X130467836Y-165137514D01*
X130182980Y-165017626D01*
X129084605Y-166116000D01*
X128725395Y-166116000D01*
X127627020Y-165017626D01*
X127342164Y-165137514D01*
X127181301Y-165461210D01*
X127086678Y-165810069D01*
X127061933Y-166170684D01*
X123698000Y-166170684D01*
X123698000Y-164838020D01*
X127806626Y-164838020D01*
X128905000Y-165936395D01*
X130003374Y-164838020D01*
X129883486Y-164553164D01*
X129559790Y-164392301D01*
X129210931Y-164297678D01*
X128850316Y-164272933D01*
X128491802Y-164319015D01*
X128149167Y-164434154D01*
X127926514Y-164553164D01*
X127806626Y-164838020D01*
X123698000Y-164838020D01*
X123698000Y-163576000D01*
X127210340Y-163576000D01*
X127254000Y-163580300D01*
X127297660Y-163576000D01*
X127297667Y-163576000D01*
X127428274Y-163563136D01*
X127595851Y-163512303D01*
X127750291Y-163429753D01*
X127885659Y-163318659D01*
X127913499Y-163284736D01*
X128324163Y-162874072D01*
X130105000Y-162874072D01*
X130229482Y-162861812D01*
X130349180Y-162825502D01*
X130459494Y-162766537D01*
X130556185Y-162687185D01*
X130635537Y-162590494D01*
X130694502Y-162480180D01*
X130730812Y-162360482D01*
X130743072Y-162236000D01*
X130743072Y-159836000D01*
X130730812Y-159711518D01*
X130694502Y-159591820D01*
X130635537Y-159481506D01*
X130556185Y-159384815D01*
X130459494Y-159305463D01*
X130349180Y-159246498D01*
X130229482Y-159210188D01*
X130105000Y-159197928D01*
X127705000Y-159197928D01*
X127580518Y-159210188D01*
X127460820Y-159246498D01*
X127350506Y-159305463D01*
X127253815Y-159384815D01*
X127174463Y-159481506D01*
X127115498Y-159591820D01*
X127079188Y-159711518D01*
X127066928Y-159836000D01*
X127066928Y-161616837D01*
X126885765Y-161798000D01*
X123698000Y-161798000D01*
X123698000Y-155765500D01*
X128353340Y-155765500D01*
X128397000Y-155769800D01*
X128440660Y-155765500D01*
X128440667Y-155765500D01*
X128571274Y-155752636D01*
X128738851Y-155701803D01*
X128744896Y-155698572D01*
X130613000Y-155698572D01*
X130737482Y-155686312D01*
X130857180Y-155650002D01*
X130967494Y-155591037D01*
X131064185Y-155511685D01*
X131143537Y-155414994D01*
X131202502Y-155304680D01*
X131238812Y-155184982D01*
X131251072Y-155060500D01*
X131251072Y-152660500D01*
X131238812Y-152536018D01*
X131202502Y-152416320D01*
X131143537Y-152306006D01*
X131064185Y-152209315D01*
X130967494Y-152129963D01*
X130857180Y-152070998D01*
X130737482Y-152034688D01*
X130613000Y-152022428D01*
X128213000Y-152022428D01*
X128088518Y-152034688D01*
X127968820Y-152070998D01*
X127858506Y-152129963D01*
X127761815Y-152209315D01*
X127682463Y-152306006D01*
X127623498Y-152416320D01*
X127587188Y-152536018D01*
X127574928Y-152660500D01*
X127574928Y-153987500D01*
X123698000Y-153987500D01*
X123698000Y-150812500D01*
X123810521Y-150812500D01*
X123888500Y-150820180D01*
X123966479Y-150812500D01*
X123966486Y-150812500D01*
X124199704Y-150789530D01*
X124498949Y-150698755D01*
X124774735Y-150551345D01*
X125016463Y-150352963D01*
X125066180Y-150292383D01*
X125300083Y-150058480D01*
X128314626Y-150058480D01*
X128434514Y-150343336D01*
X128758210Y-150504199D01*
X129107069Y-150598822D01*
X129467684Y-150623567D01*
X129826198Y-150577485D01*
X130168833Y-150462346D01*
X130391486Y-150343336D01*
X130511374Y-150058480D01*
X129413000Y-148960105D01*
X128314626Y-150058480D01*
X125300083Y-150058480D01*
X126523379Y-148835184D01*
X127569933Y-148835184D01*
X127616015Y-149193698D01*
X127731154Y-149536333D01*
X127850164Y-149758986D01*
X128135020Y-149878874D01*
X129233395Y-148780500D01*
X129592605Y-148780500D01*
X130690980Y-149878874D01*
X130975836Y-149758986D01*
X131136699Y-149435290D01*
X131231322Y-149086431D01*
X131256067Y-148725816D01*
X131209985Y-148367302D01*
X131094846Y-148024667D01*
X130975836Y-147802014D01*
X130690980Y-147682126D01*
X129592605Y-148780500D01*
X129233395Y-148780500D01*
X128135020Y-147682126D01*
X127850164Y-147802014D01*
X127689301Y-148125710D01*
X127594678Y-148474569D01*
X127569933Y-148835184D01*
X126523379Y-148835184D01*
X127856043Y-147502520D01*
X128314626Y-147502520D01*
X129413000Y-148600895D01*
X130511374Y-147502520D01*
X130391486Y-147217664D01*
X130067790Y-147056801D01*
X129718931Y-146962178D01*
X129358316Y-146937433D01*
X128999802Y-146983515D01*
X128657167Y-147098654D01*
X128434514Y-147217664D01*
X128314626Y-147502520D01*
X127856043Y-147502520D01*
X129880008Y-145478556D01*
X129948250Y-145464982D01*
X130282199Y-145326656D01*
X130582744Y-145125838D01*
X130838338Y-144870244D01*
X131039156Y-144569699D01*
X131177482Y-144235750D01*
X131248000Y-143881232D01*
X131248000Y-143519768D01*
X131177482Y-143165250D01*
X131039156Y-142831301D01*
X130838338Y-142530756D01*
X130582744Y-142275162D01*
X130282199Y-142074344D01*
X129948250Y-141936018D01*
X129593732Y-141865500D01*
X129232268Y-141865500D01*
X128877750Y-141936018D01*
X128543801Y-142074344D01*
X128243256Y-142275162D01*
X127987662Y-142530756D01*
X127786844Y-142831301D01*
X127648518Y-143165250D01*
X127634944Y-143233492D01*
X123698000Y-147170437D01*
X123698000Y-139898480D01*
X128314626Y-139898480D01*
X128434514Y-140183336D01*
X128758210Y-140344199D01*
X129107069Y-140438822D01*
X129467684Y-140463567D01*
X129826198Y-140417485D01*
X130168833Y-140302346D01*
X130391486Y-140183336D01*
X130511374Y-139898480D01*
X129413000Y-138800105D01*
X128314626Y-139898480D01*
X123698000Y-139898480D01*
X123698000Y-138675184D01*
X127569933Y-138675184D01*
X127616015Y-139033698D01*
X127731154Y-139376333D01*
X127850164Y-139598986D01*
X128135020Y-139718874D01*
X129233395Y-138620500D01*
X129592605Y-138620500D01*
X130690980Y-139718874D01*
X130975836Y-139598986D01*
X131136699Y-139275290D01*
X131231322Y-138926431D01*
X131256067Y-138565816D01*
X131209985Y-138207302D01*
X131094846Y-137864667D01*
X130975836Y-137642014D01*
X130690980Y-137522126D01*
X129592605Y-138620500D01*
X129233395Y-138620500D01*
X128135020Y-137522126D01*
X127850164Y-137642014D01*
X127689301Y-137965710D01*
X127594678Y-138314569D01*
X127569933Y-138675184D01*
X123698000Y-138675184D01*
X123698000Y-137342520D01*
X128314626Y-137342520D01*
X129413000Y-138440895D01*
X130511374Y-137342520D01*
X130391486Y-137057664D01*
X130067790Y-136896801D01*
X129718931Y-136802178D01*
X129358316Y-136777433D01*
X128999802Y-136823515D01*
X128657167Y-136938654D01*
X128434514Y-137057664D01*
X128314626Y-137342520D01*
X123698000Y-137342520D01*
X123698000Y-135961821D01*
X123712040Y-135855175D01*
X123749993Y-135763549D01*
X123810368Y-135684868D01*
X123889049Y-135624493D01*
X123980675Y-135586540D01*
X124087321Y-135572500D01*
X138548679Y-135572500D01*
X138655325Y-135586540D01*
X138655325Y-135586540D01*
G37*
X138655325Y-135586540D02*
X138746951Y-135624493D01*
X138825632Y-135684868D01*
X138886007Y-135763549D01*
X138923960Y-135855175D01*
X138938000Y-135961821D01*
X138938000Y-215701179D01*
X138923960Y-215807825D01*
X138886007Y-215899451D01*
X138825632Y-215978132D01*
X138746951Y-216038507D01*
X138655325Y-216076460D01*
X138548679Y-216090500D01*
X130297507Y-216090500D01*
X130320874Y-216034980D01*
X129222500Y-214936605D01*
X128124126Y-216034980D01*
X128147493Y-216090500D01*
X124087321Y-216090500D01*
X123980675Y-216076460D01*
X123889049Y-216038507D01*
X123810368Y-215978132D01*
X123749993Y-215899451D01*
X123712040Y-215807825D01*
X123698000Y-215701179D01*
X123698000Y-214811684D01*
X127379433Y-214811684D01*
X127425515Y-215170198D01*
X127540654Y-215512833D01*
X127659664Y-215735486D01*
X127944520Y-215855374D01*
X129042895Y-214757000D01*
X129402105Y-214757000D01*
X130500480Y-215855374D01*
X130785336Y-215735486D01*
X130946199Y-215411790D01*
X131040822Y-215062931D01*
X131065567Y-214702316D01*
X131019485Y-214343802D01*
X130904346Y-214001167D01*
X130785336Y-213778514D01*
X130500480Y-213658626D01*
X129402105Y-214757000D01*
X129042895Y-214757000D01*
X127944520Y-213658626D01*
X127659664Y-213778514D01*
X127498801Y-214102210D01*
X127404178Y-214451069D01*
X127379433Y-214811684D01*
X123698000Y-214811684D01*
X123698000Y-213479020D01*
X128124126Y-213479020D01*
X129222500Y-214577395D01*
X130320874Y-213479020D01*
X130200986Y-213194164D01*
X129877290Y-213033301D01*
X129528431Y-212938678D01*
X129167816Y-212913933D01*
X128809302Y-212960015D01*
X128466667Y-213075154D01*
X128244014Y-213194164D01*
X128124126Y-213479020D01*
X123698000Y-213479020D01*
X123698000Y-208026000D01*
X125326437Y-208026000D01*
X127444444Y-210144008D01*
X127458018Y-210212250D01*
X127596344Y-210546199D01*
X127797162Y-210846744D01*
X128052756Y-211102338D01*
X128353301Y-211303156D01*
X128687250Y-211441482D01*
X129041768Y-211512000D01*
X129403232Y-211512000D01*
X129757750Y-211441482D01*
X130091699Y-211303156D01*
X130392244Y-211102338D01*
X130647838Y-210846744D01*
X130848656Y-210546199D01*
X130986982Y-210212250D01*
X131057500Y-209857732D01*
X131057500Y-209496268D01*
X130986982Y-209141750D01*
X130848656Y-208807801D01*
X130647838Y-208507256D01*
X130392244Y-208251662D01*
X130091699Y-208050844D01*
X129757750Y-207912518D01*
X129689508Y-207898944D01*
X127665544Y-205874980D01*
X128124126Y-205874980D01*
X128244014Y-206159836D01*
X128567710Y-206320699D01*
X128916569Y-206415322D01*
X129277184Y-206440067D01*
X129635698Y-206393985D01*
X129978333Y-206278846D01*
X130200986Y-206159836D01*
X130320874Y-205874980D01*
X129222500Y-204776605D01*
X128124126Y-205874980D01*
X127665544Y-205874980D01*
X127161680Y-205371117D01*
X127111963Y-205310537D01*
X126870235Y-205112155D01*
X126594449Y-204964745D01*
X126295204Y-204873970D01*
X126061986Y-204851000D01*
X126061979Y-204851000D01*
X125984000Y-204843320D01*
X125906021Y-204851000D01*
X123698000Y-204851000D01*
X123698000Y-204651684D01*
X127379433Y-204651684D01*
X127425515Y-205010198D01*
X127540654Y-205352833D01*
X127659664Y-205575486D01*
X127944520Y-205695374D01*
X129042895Y-204597000D01*
X129402105Y-204597000D01*
X130500480Y-205695374D01*
X130785336Y-205575486D01*
X130946199Y-205251790D01*
X131040822Y-204902931D01*
X131065567Y-204542316D01*
X131019485Y-204183802D01*
X130904346Y-203841167D01*
X130785336Y-203618514D01*
X130500480Y-203498626D01*
X129402105Y-204597000D01*
X129042895Y-204597000D01*
X127944520Y-203498626D01*
X127659664Y-203618514D01*
X127498801Y-203942210D01*
X127404178Y-204291069D01*
X127379433Y-204651684D01*
X123698000Y-204651684D01*
X123698000Y-203319020D01*
X128124126Y-203319020D01*
X129222500Y-204417395D01*
X130320874Y-203319020D01*
X130200986Y-203034164D01*
X129877290Y-202873301D01*
X129528431Y-202778678D01*
X129167816Y-202753933D01*
X128809302Y-202800015D01*
X128466667Y-202915154D01*
X128244014Y-203034164D01*
X128124126Y-203319020D01*
X123698000Y-203319020D01*
X123698000Y-199199500D01*
X127574928Y-199199500D01*
X127574928Y-199510500D01*
X127587188Y-199634982D01*
X127623498Y-199754680D01*
X127682463Y-199864994D01*
X127761815Y-199961685D01*
X127858506Y-200041037D01*
X127968820Y-200100002D01*
X128088518Y-200136312D01*
X128213000Y-200148572D01*
X130613000Y-200148572D01*
X130737482Y-200136312D01*
X130857180Y-200100002D01*
X130967494Y-200041037D01*
X131064185Y-199961685D01*
X131143537Y-199864994D01*
X131202502Y-199754680D01*
X131238812Y-199634982D01*
X131251072Y-199510500D01*
X131251072Y-197110500D01*
X131238812Y-196986018D01*
X131202502Y-196866320D01*
X131143537Y-196756006D01*
X131064185Y-196659315D01*
X130967494Y-196579963D01*
X130857180Y-196520998D01*
X130737482Y-196484688D01*
X130613000Y-196472428D01*
X128213000Y-196472428D01*
X128088518Y-196484688D01*
X127968820Y-196520998D01*
X127858506Y-196579963D01*
X127761815Y-196659315D01*
X127682463Y-196756006D01*
X127623498Y-196866320D01*
X127587188Y-196986018D01*
X127574928Y-197110500D01*
X127574928Y-197421500D01*
X123698000Y-197421500D01*
X123698000Y-194508480D01*
X128314626Y-194508480D01*
X128434514Y-194793336D01*
X128758210Y-194954199D01*
X129107069Y-195048822D01*
X129467684Y-195073567D01*
X129826198Y-195027485D01*
X130168833Y-194912346D01*
X130391486Y-194793336D01*
X130511374Y-194508480D01*
X129413000Y-193410105D01*
X128314626Y-194508480D01*
X123698000Y-194508480D01*
X123698000Y-193285184D01*
X127569933Y-193285184D01*
X127616015Y-193643698D01*
X127731154Y-193986333D01*
X127850164Y-194208986D01*
X128135020Y-194328874D01*
X129233395Y-193230500D01*
X129592605Y-193230500D01*
X130690980Y-194328874D01*
X130975836Y-194208986D01*
X131136699Y-193885290D01*
X131231322Y-193536431D01*
X131256067Y-193175816D01*
X131209985Y-192817302D01*
X131094846Y-192474667D01*
X130975836Y-192252014D01*
X130690980Y-192132126D01*
X129592605Y-193230500D01*
X129233395Y-193230500D01*
X128135020Y-192132126D01*
X127850164Y-192252014D01*
X127689301Y-192575710D01*
X127594678Y-192924569D01*
X127569933Y-193285184D01*
X123698000Y-193285184D01*
X123698000Y-191952520D01*
X128314626Y-191952520D01*
X129413000Y-193050895D01*
X130511374Y-191952520D01*
X130391486Y-191667664D01*
X130067790Y-191506801D01*
X129718931Y-191412178D01*
X129358316Y-191387433D01*
X128999802Y-191433515D01*
X128657167Y-191548654D01*
X128434514Y-191667664D01*
X128314626Y-191952520D01*
X123698000Y-191952520D01*
X123698000Y-189293500D01*
X127969792Y-189293500D01*
X127987662Y-189320244D01*
X128243256Y-189575838D01*
X128543801Y-189776656D01*
X128877750Y-189914982D01*
X129232268Y-189985500D01*
X129593732Y-189985500D01*
X129948250Y-189914982D01*
X130282199Y-189776656D01*
X130582744Y-189575838D01*
X130838338Y-189320244D01*
X131039156Y-189019699D01*
X131177482Y-188685750D01*
X131248000Y-188331232D01*
X131248000Y-187969768D01*
X131177482Y-187615250D01*
X131039156Y-187281301D01*
X130838338Y-186980756D01*
X130582744Y-186725162D01*
X130282199Y-186524344D01*
X129948250Y-186386018D01*
X129818268Y-186360163D01*
X129578949Y-186232245D01*
X129279704Y-186141470D01*
X129046486Y-186118500D01*
X129046479Y-186118500D01*
X128968500Y-186110820D01*
X128890521Y-186118500D01*
X123698000Y-186118500D01*
X123698000Y-184348480D01*
X128314626Y-184348480D01*
X128434514Y-184633336D01*
X128758210Y-184794199D01*
X129107069Y-184888822D01*
X129467684Y-184913567D01*
X129826198Y-184867485D01*
X130168833Y-184752346D01*
X130391486Y-184633336D01*
X130511374Y-184348480D01*
X129413000Y-183250105D01*
X128314626Y-184348480D01*
X123698000Y-184348480D01*
X123698000Y-183125184D01*
X127569933Y-183125184D01*
X127616015Y-183483698D01*
X127731154Y-183826333D01*
X127850164Y-184048986D01*
X128135020Y-184168874D01*
X129233395Y-183070500D01*
X129592605Y-183070500D01*
X130690980Y-184168874D01*
X130975836Y-184048986D01*
X131136699Y-183725290D01*
X131231322Y-183376431D01*
X131256067Y-183015816D01*
X131209985Y-182657302D01*
X131094846Y-182314667D01*
X130975836Y-182092014D01*
X130690980Y-181972126D01*
X129592605Y-183070500D01*
X129233395Y-183070500D01*
X128135020Y-181972126D01*
X127850164Y-182092014D01*
X127689301Y-182415710D01*
X127594678Y-182764569D01*
X127569933Y-183125184D01*
X123698000Y-183125184D01*
X123698000Y-183092387D01*
X123696946Y-183076057D01*
X123680147Y-182946498D01*
X123671817Y-182914917D01*
X123622531Y-182793926D01*
X123606422Y-182765513D01*
X123527909Y-182661094D01*
X123505088Y-182637731D01*
X123402541Y-182556788D01*
X123374515Y-182540016D01*
X123254715Y-182487903D01*
X123223337Y-182478834D01*
X123094208Y-182458999D01*
X123077908Y-182457562D01*
X114177257Y-182248545D01*
X114236303Y-182138077D01*
X114286736Y-181971819D01*
X114328205Y-181909756D01*
X114376766Y-181792520D01*
X128314626Y-181792520D01*
X129413000Y-182890895D01*
X130511374Y-181792520D01*
X130391486Y-181507664D01*
X130067790Y-181346801D01*
X129718931Y-181252178D01*
X129358316Y-181227433D01*
X128999802Y-181273515D01*
X128657167Y-181388654D01*
X128434514Y-181507664D01*
X128314626Y-181792520D01*
X114376766Y-181792520D01*
X114406226Y-181721398D01*
X114446000Y-181521439D01*
X114446000Y-181317561D01*
X114406226Y-181117602D01*
X114328205Y-180929244D01*
X114214937Y-180759726D01*
X114070774Y-180615563D01*
X113901256Y-180502295D01*
X113712898Y-180424274D01*
X113512939Y-180384500D01*
X113309061Y-180384500D01*
X113109102Y-180424274D01*
X112920744Y-180502295D01*
X112751226Y-180615563D01*
X112607063Y-180759726D01*
X112493795Y-180929244D01*
X112415774Y-181117602D01*
X112376000Y-181317561D01*
X112376000Y-181521439D01*
X112384719Y-181565271D01*
X111758252Y-182191738D01*
X107426782Y-182090021D01*
X107458727Y-182012899D01*
X107498501Y-181812940D01*
X107498501Y-181609062D01*
X107458727Y-181409103D01*
X107380706Y-181220745D01*
X107267438Y-181051227D01*
X107123275Y-180907064D01*
X106953757Y-180793796D01*
X106765399Y-180715775D01*
X106565440Y-180676001D01*
X106361562Y-180676001D01*
X106161603Y-180715775D01*
X105973245Y-180793796D01*
X105803727Y-180907064D01*
X105659564Y-181051227D01*
X105546296Y-181220745D01*
X105468275Y-181409103D01*
X105428501Y-181609062D01*
X105428501Y-181812940D01*
X105468275Y-182012899D01*
X105481296Y-182044334D01*
X102042527Y-181963580D01*
X101959437Y-181839226D01*
X101815274Y-181695063D01*
X101645756Y-181581795D01*
X101457398Y-181503774D01*
X101257439Y-181464000D01*
X101053561Y-181464000D01*
X100853602Y-181503774D01*
X100665244Y-181581795D01*
X100495726Y-181695063D01*
X100351563Y-181839226D01*
X100295879Y-181922563D01*
X92895378Y-181748774D01*
X92771394Y-181726596D01*
X92668664Y-181672582D01*
X92587063Y-181590044D01*
X92534226Y-181486699D01*
X92513467Y-181362475D01*
X92507852Y-180896415D01*
X93186190Y-180896415D01*
X93315116Y-181188945D01*
X93651586Y-181357296D01*
X94014435Y-181456771D01*
X94389718Y-181483545D01*
X94763015Y-181436591D01*
X95119978Y-181317713D01*
X95360884Y-181188945D01*
X95489810Y-180896415D01*
X94338000Y-179744605D01*
X93186190Y-180896415D01*
X92507852Y-180896415D01*
X92498077Y-180085106D01*
X92585287Y-180346978D01*
X92714055Y-180587884D01*
X93006585Y-180716810D01*
X94158395Y-179565000D01*
X94517605Y-179565000D01*
X95669415Y-180716810D01*
X95961945Y-180587884D01*
X96130296Y-180251414D01*
X96229771Y-179888565D01*
X96256545Y-179513282D01*
X96209591Y-179139985D01*
X96090713Y-178783022D01*
X95961945Y-178542116D01*
X95669415Y-178413190D01*
X94517605Y-179565000D01*
X94158395Y-179565000D01*
X93006585Y-178413190D01*
X92714055Y-178542116D01*
X92545704Y-178878586D01*
X92486157Y-179095791D01*
X92475770Y-178233585D01*
X93186190Y-178233585D01*
X94338000Y-179385395D01*
X95489810Y-178233585D01*
X95360884Y-177941055D01*
X95024414Y-177772704D01*
X94661565Y-177673229D01*
X94286282Y-177646455D01*
X93912985Y-177693409D01*
X93556022Y-177812287D01*
X93315116Y-177941055D01*
X93186190Y-178233585D01*
X92475770Y-178233585D01*
X92466721Y-177482587D01*
X92509500Y-177486800D01*
X92553160Y-177482500D01*
X92553167Y-177482500D01*
X92683774Y-177469636D01*
X92851351Y-177418803D01*
X93005791Y-177336253D01*
X93141159Y-177225159D01*
X93168999Y-177191236D01*
X93637191Y-176723045D01*
X101545415Y-176738431D01*
X101493774Y-176863102D01*
X101454000Y-177063061D01*
X101454000Y-177266939D01*
X101493774Y-177466898D01*
X101571795Y-177655256D01*
X101685063Y-177824774D01*
X101829226Y-177968937D01*
X101998744Y-178082205D01*
X102187102Y-178160226D01*
X102387061Y-178200000D01*
X102590939Y-178200000D01*
X102790898Y-178160226D01*
X102979256Y-178082205D01*
X103148774Y-177968937D01*
X103292937Y-177824774D01*
X103406205Y-177655256D01*
X103484226Y-177466898D01*
X103524000Y-177266939D01*
X103524000Y-177063061D01*
X103484226Y-176863102D01*
X103441500Y-176759953D01*
X103441500Y-176742120D01*
X105141249Y-176745427D01*
X105105364Y-176863726D01*
X105088199Y-177038000D01*
X105105364Y-177212274D01*
X105156197Y-177379851D01*
X105238747Y-177534291D01*
X105349841Y-177669659D01*
X105485209Y-177780753D01*
X105639649Y-177863303D01*
X105807226Y-177914136D01*
X105937833Y-177927000D01*
X106274532Y-177927000D01*
X106316744Y-177955205D01*
X106505102Y-178033226D01*
X106705061Y-178073000D01*
X106908939Y-178073000D01*
X107108898Y-178033226D01*
X107297256Y-177955205D01*
X107466774Y-177841937D01*
X107610937Y-177697774D01*
X107724205Y-177528256D01*
X107787353Y-177375804D01*
X108411368Y-176751789D01*
X112865595Y-176760455D01*
X112796774Y-176926602D01*
X112757000Y-177126561D01*
X112757000Y-177330439D01*
X112796774Y-177530398D01*
X112874795Y-177718756D01*
X112988063Y-177888274D01*
X113132226Y-178032437D01*
X113301744Y-178145705D01*
X113490102Y-178223726D01*
X113690061Y-178263500D01*
X113893939Y-178263500D01*
X114093898Y-178223726D01*
X114282256Y-178145705D01*
X114451774Y-178032437D01*
X114595937Y-177888274D01*
X114709205Y-177718756D01*
X114777457Y-177553980D01*
X127806626Y-177553980D01*
X127926514Y-177838836D01*
X128250210Y-177999699D01*
X128599069Y-178094322D01*
X128959684Y-178119067D01*
X129318198Y-178072985D01*
X129660833Y-177957846D01*
X129883486Y-177838836D01*
X130003374Y-177553980D01*
X128905000Y-176455605D01*
X127806626Y-177553980D01*
X114777457Y-177553980D01*
X114787226Y-177530398D01*
X114827000Y-177330439D01*
X114827000Y-177126561D01*
X114787226Y-176926602D01*
X114719899Y-176764062D01*
X123061765Y-176780292D01*
X123078364Y-176779235D01*
X123210036Y-176762139D01*
X123242114Y-176753599D01*
X123364859Y-176702966D01*
X123393627Y-176686406D01*
X123499059Y-176605695D01*
X123522554Y-176582246D01*
X123603469Y-176476972D01*
X123620085Y-176448236D01*
X123668844Y-176330684D01*
X127061933Y-176330684D01*
X127108015Y-176689198D01*
X127223154Y-177031833D01*
X127342164Y-177254486D01*
X127627020Y-177374374D01*
X128725395Y-176276000D01*
X129084605Y-176276000D01*
X130182980Y-177374374D01*
X130467836Y-177254486D01*
X130628699Y-176930790D01*
X130723322Y-176581931D01*
X130748067Y-176221316D01*
X130701985Y-175862802D01*
X130586846Y-175520167D01*
X130467836Y-175297514D01*
X130182980Y-175177626D01*
X129084605Y-176276000D01*
X128725395Y-176276000D01*
X127627020Y-175177626D01*
X127342164Y-175297514D01*
X127181301Y-175621210D01*
X127086678Y-175970069D01*
X127061933Y-176330684D01*
X123668844Y-176330684D01*
X123670957Y-176325590D01*
X123679559Y-176293529D01*
X123696911Y-176161890D01*
X123698000Y-176145293D01*
X123698000Y-174998020D01*
X127806626Y-174998020D01*
X128905000Y-176096395D01*
X130003374Y-174998020D01*
X129883486Y-174713164D01*
X129559790Y-174552301D01*
X129210931Y-174457678D01*
X128850316Y-174432933D01*
X128491802Y-174479015D01*
X128149167Y-174594154D01*
X127926514Y-174713164D01*
X127806626Y-174998020D01*
X123698000Y-174998020D01*
X123698000Y-171958000D01*
X127234441Y-171958000D01*
X127278844Y-172065199D01*
X127479662Y-172365744D01*
X127735256Y-172621338D01*
X128035801Y-172822156D01*
X128369750Y-172960482D01*
X128724268Y-173031000D01*
X129085732Y-173031000D01*
X129440250Y-172960482D01*
X129774199Y-172822156D01*
X130074744Y-172621338D01*
X130330338Y-172365744D01*
X130531156Y-172065199D01*
X130669482Y-171731250D01*
X130740000Y-171376732D01*
X130740000Y-171015268D01*
X130669482Y-170660750D01*
X130531156Y-170326801D01*
X130330338Y-170026256D01*
X130074744Y-169770662D01*
X129774199Y-169569844D01*
X129440250Y-169431518D01*
X129372007Y-169417944D01*
X129257180Y-169303117D01*
X129207463Y-169242537D01*
X128965735Y-169044155D01*
X128689949Y-168896745D01*
X128390704Y-168805970D01*
X128157486Y-168783000D01*
X128157479Y-168783000D01*
X128079500Y-168775320D01*
X128001521Y-168783000D01*
X123698000Y-168783000D01*
X123698000Y-167393980D01*
X127806626Y-167393980D01*
X127926514Y-167678836D01*
X128250210Y-167839699D01*
X128599069Y-167934322D01*
X128959684Y-167959067D01*
X129318198Y-167912985D01*
X129660833Y-167797846D01*
X129883486Y-167678836D01*
X130003374Y-167393980D01*
X128905000Y-166295605D01*
X127806626Y-167393980D01*
X123698000Y-167393980D01*
X123698000Y-166170684D01*
X127061933Y-166170684D01*
X127108015Y-166529198D01*
X127223154Y-166871833D01*
X127342164Y-167094486D01*
X127627020Y-167214374D01*
X128725395Y-166116000D01*
X129084605Y-166116000D01*
X130182980Y-167214374D01*
X130467836Y-167094486D01*
X130628699Y-166770790D01*
X130723322Y-166421931D01*
X130748067Y-166061316D01*
X130701985Y-165702802D01*
X130586846Y-165360167D01*
X130467836Y-165137514D01*
X130182980Y-165017626D01*
X129084605Y-166116000D01*
X128725395Y-166116000D01*
X127627020Y-165017626D01*
X127342164Y-165137514D01*
X127181301Y-165461210D01*
X127086678Y-165810069D01*
X127061933Y-166170684D01*
X123698000Y-166170684D01*
X123698000Y-164838020D01*
X127806626Y-164838020D01*
X128905000Y-165936395D01*
X130003374Y-164838020D01*
X129883486Y-164553164D01*
X129559790Y-164392301D01*
X129210931Y-164297678D01*
X128850316Y-164272933D01*
X128491802Y-164319015D01*
X128149167Y-164434154D01*
X127926514Y-164553164D01*
X127806626Y-164838020D01*
X123698000Y-164838020D01*
X123698000Y-163576000D01*
X127210340Y-163576000D01*
X127254000Y-163580300D01*
X127297660Y-163576000D01*
X127297667Y-163576000D01*
X127428274Y-163563136D01*
X127595851Y-163512303D01*
X127750291Y-163429753D01*
X127885659Y-163318659D01*
X127913499Y-163284736D01*
X128324163Y-162874072D01*
X130105000Y-162874072D01*
X130229482Y-162861812D01*
X130349180Y-162825502D01*
X130459494Y-162766537D01*
X130556185Y-162687185D01*
X130635537Y-162590494D01*
X130694502Y-162480180D01*
X130730812Y-162360482D01*
X130743072Y-162236000D01*
X130743072Y-159836000D01*
X130730812Y-159711518D01*
X130694502Y-159591820D01*
X130635537Y-159481506D01*
X130556185Y-159384815D01*
X130459494Y-159305463D01*
X130349180Y-159246498D01*
X130229482Y-159210188D01*
X130105000Y-159197928D01*
X127705000Y-159197928D01*
X127580518Y-159210188D01*
X127460820Y-159246498D01*
X127350506Y-159305463D01*
X127253815Y-159384815D01*
X127174463Y-159481506D01*
X127115498Y-159591820D01*
X127079188Y-159711518D01*
X127066928Y-159836000D01*
X127066928Y-161616837D01*
X126885765Y-161798000D01*
X123698000Y-161798000D01*
X123698000Y-155765500D01*
X128353340Y-155765500D01*
X128397000Y-155769800D01*
X128440660Y-155765500D01*
X128440667Y-155765500D01*
X128571274Y-155752636D01*
X128738851Y-155701803D01*
X128744896Y-155698572D01*
X130613000Y-155698572D01*
X130737482Y-155686312D01*
X130857180Y-155650002D01*
X130967494Y-155591037D01*
X131064185Y-155511685D01*
X131143537Y-155414994D01*
X131202502Y-155304680D01*
X131238812Y-155184982D01*
X131251072Y-155060500D01*
X131251072Y-152660500D01*
X131238812Y-152536018D01*
X131202502Y-152416320D01*
X131143537Y-152306006D01*
X131064185Y-152209315D01*
X130967494Y-152129963D01*
X130857180Y-152070998D01*
X130737482Y-152034688D01*
X130613000Y-152022428D01*
X128213000Y-152022428D01*
X128088518Y-152034688D01*
X127968820Y-152070998D01*
X127858506Y-152129963D01*
X127761815Y-152209315D01*
X127682463Y-152306006D01*
X127623498Y-152416320D01*
X127587188Y-152536018D01*
X127574928Y-152660500D01*
X127574928Y-153987500D01*
X123698000Y-153987500D01*
X123698000Y-150812500D01*
X123810521Y-150812500D01*
X123888500Y-150820180D01*
X123966479Y-150812500D01*
X123966486Y-150812500D01*
X124199704Y-150789530D01*
X124498949Y-150698755D01*
X124774735Y-150551345D01*
X125016463Y-150352963D01*
X125066180Y-150292383D01*
X125300083Y-150058480D01*
X128314626Y-150058480D01*
X128434514Y-150343336D01*
X128758210Y-150504199D01*
X129107069Y-150598822D01*
X129467684Y-150623567D01*
X129826198Y-150577485D01*
X130168833Y-150462346D01*
X130391486Y-150343336D01*
X130511374Y-150058480D01*
X129413000Y-148960105D01*
X128314626Y-150058480D01*
X125300083Y-150058480D01*
X126523379Y-148835184D01*
X127569933Y-148835184D01*
X127616015Y-149193698D01*
X127731154Y-149536333D01*
X127850164Y-149758986D01*
X128135020Y-149878874D01*
X129233395Y-148780500D01*
X129592605Y-148780500D01*
X130690980Y-149878874D01*
X130975836Y-149758986D01*
X131136699Y-149435290D01*
X131231322Y-149086431D01*
X131256067Y-148725816D01*
X131209985Y-148367302D01*
X131094846Y-148024667D01*
X130975836Y-147802014D01*
X130690980Y-147682126D01*
X129592605Y-148780500D01*
X129233395Y-148780500D01*
X128135020Y-147682126D01*
X127850164Y-147802014D01*
X127689301Y-148125710D01*
X127594678Y-148474569D01*
X127569933Y-148835184D01*
X126523379Y-148835184D01*
X127856043Y-147502520D01*
X128314626Y-147502520D01*
X129413000Y-148600895D01*
X130511374Y-147502520D01*
X130391486Y-147217664D01*
X130067790Y-147056801D01*
X129718931Y-146962178D01*
X129358316Y-146937433D01*
X128999802Y-146983515D01*
X128657167Y-147098654D01*
X128434514Y-147217664D01*
X128314626Y-147502520D01*
X127856043Y-147502520D01*
X129880008Y-145478556D01*
X129948250Y-145464982D01*
X130282199Y-145326656D01*
X130582744Y-145125838D01*
X130838338Y-144870244D01*
X131039156Y-144569699D01*
X131177482Y-144235750D01*
X131248000Y-143881232D01*
X131248000Y-143519768D01*
X131177482Y-143165250D01*
X131039156Y-142831301D01*
X130838338Y-142530756D01*
X130582744Y-142275162D01*
X130282199Y-142074344D01*
X129948250Y-141936018D01*
X129593732Y-141865500D01*
X129232268Y-141865500D01*
X128877750Y-141936018D01*
X128543801Y-142074344D01*
X128243256Y-142275162D01*
X127987662Y-142530756D01*
X127786844Y-142831301D01*
X127648518Y-143165250D01*
X127634944Y-143233492D01*
X123698000Y-147170437D01*
X123698000Y-139898480D01*
X128314626Y-139898480D01*
X128434514Y-140183336D01*
X128758210Y-140344199D01*
X129107069Y-140438822D01*
X129467684Y-140463567D01*
X129826198Y-140417485D01*
X130168833Y-140302346D01*
X130391486Y-140183336D01*
X130511374Y-139898480D01*
X129413000Y-138800105D01*
X128314626Y-139898480D01*
X123698000Y-139898480D01*
X123698000Y-138675184D01*
X127569933Y-138675184D01*
X127616015Y-139033698D01*
X127731154Y-139376333D01*
X127850164Y-139598986D01*
X128135020Y-139718874D01*
X129233395Y-138620500D01*
X129592605Y-138620500D01*
X130690980Y-139718874D01*
X130975836Y-139598986D01*
X131136699Y-139275290D01*
X131231322Y-138926431D01*
X131256067Y-138565816D01*
X131209985Y-138207302D01*
X131094846Y-137864667D01*
X130975836Y-137642014D01*
X130690980Y-137522126D01*
X129592605Y-138620500D01*
X129233395Y-138620500D01*
X128135020Y-137522126D01*
X127850164Y-137642014D01*
X127689301Y-137965710D01*
X127594678Y-138314569D01*
X127569933Y-138675184D01*
X123698000Y-138675184D01*
X123698000Y-137342520D01*
X128314626Y-137342520D01*
X129413000Y-138440895D01*
X130511374Y-137342520D01*
X130391486Y-137057664D01*
X130067790Y-136896801D01*
X129718931Y-136802178D01*
X129358316Y-136777433D01*
X128999802Y-136823515D01*
X128657167Y-136938654D01*
X128434514Y-137057664D01*
X128314626Y-137342520D01*
X123698000Y-137342520D01*
X123698000Y-135961821D01*
X123712040Y-135855175D01*
X123749993Y-135763549D01*
X123810368Y-135684868D01*
X123889049Y-135624493D01*
X123980675Y-135586540D01*
X124087321Y-135572500D01*
X138548679Y-135572500D01*
X138655325Y-135586540D01*
G36*
X85038060Y-174893092D02*
G01*
X85108715Y-174929326D01*
X85164616Y-174985721D01*
X85200231Y-175056693D01*
X85213546Y-175145278D01*
X85156905Y-181602286D01*
X85142354Y-181689688D01*
X85106266Y-181759452D01*
X85050488Y-181814743D01*
X84980413Y-181850216D01*
X84892887Y-181864000D01*
X71317143Y-181864000D01*
X71229611Y-181850215D01*
X71159535Y-181814739D01*
X71103755Y-181759442D01*
X71067670Y-181689675D01*
X71053125Y-181602269D01*
X71030071Y-178950980D01*
X72371126Y-178950980D01*
X72491014Y-179235836D01*
X72814710Y-179396699D01*
X73163569Y-179491322D01*
X73524184Y-179516067D01*
X73882698Y-179469985D01*
X74225333Y-179354846D01*
X74447986Y-179235836D01*
X74567874Y-178950980D01*
X73469500Y-177852605D01*
X72371126Y-178950980D01*
X71030071Y-178950980D01*
X71019433Y-177727684D01*
X71626433Y-177727684D01*
X71672515Y-178086198D01*
X71787654Y-178428833D01*
X71906664Y-178651486D01*
X72191520Y-178771374D01*
X73289895Y-177673000D01*
X73649105Y-177673000D01*
X74747480Y-178771374D01*
X75032336Y-178651486D01*
X75137435Y-178440000D01*
X80024928Y-178440000D01*
X80037188Y-178564482D01*
X80073498Y-178684180D01*
X80132463Y-178794494D01*
X80211815Y-178891185D01*
X80308506Y-178970537D01*
X80418820Y-179029502D01*
X80538518Y-179065812D01*
X80663000Y-179078072D01*
X81652250Y-179075000D01*
X81811000Y-178916250D01*
X81811000Y-177292000D01*
X82065000Y-177292000D01*
X82065000Y-178916250D01*
X82223750Y-179075000D01*
X83213000Y-179078072D01*
X83337482Y-179065812D01*
X83457180Y-179029502D01*
X83567494Y-178970537D01*
X83664185Y-178891185D01*
X83743537Y-178794494D01*
X83802502Y-178684180D01*
X83838812Y-178564482D01*
X83851072Y-178440000D01*
X83848000Y-177450750D01*
X83689250Y-177292000D01*
X82065000Y-177292000D01*
X81811000Y-177292000D01*
X80186750Y-177292000D01*
X80028000Y-177450750D01*
X80024928Y-178440000D01*
X75137435Y-178440000D01*
X75193199Y-178327790D01*
X75287822Y-177978931D01*
X75312567Y-177618316D01*
X75266485Y-177259802D01*
X75151346Y-176917167D01*
X75032336Y-176694514D01*
X74747480Y-176574626D01*
X73649105Y-177673000D01*
X73289895Y-177673000D01*
X72191520Y-176574626D01*
X71906664Y-176694514D01*
X71745801Y-177018210D01*
X71651178Y-177367069D01*
X71626433Y-177727684D01*
X71019433Y-177727684D01*
X71007845Y-176395020D01*
X72371126Y-176395020D01*
X73469500Y-177493395D01*
X74567874Y-176395020D01*
X74447986Y-176110164D01*
X74124290Y-175949301D01*
X73905658Y-175890000D01*
X80024928Y-175890000D01*
X80028000Y-176879250D01*
X80186750Y-177038000D01*
X81811000Y-177038000D01*
X81811000Y-175413750D01*
X82065000Y-175413750D01*
X82065000Y-177038000D01*
X83689250Y-177038000D01*
X83848000Y-176879250D01*
X83851072Y-175890000D01*
X83838812Y-175765518D01*
X83802502Y-175645820D01*
X83743537Y-175535506D01*
X83664185Y-175438815D01*
X83567494Y-175359463D01*
X83457180Y-175300498D01*
X83337482Y-175264188D01*
X83213000Y-175251928D01*
X82223750Y-175255000D01*
X82065000Y-175413750D01*
X81811000Y-175413750D01*
X81652250Y-175255000D01*
X80663000Y-175251928D01*
X80538518Y-175264188D01*
X80418820Y-175300498D01*
X80308506Y-175359463D01*
X80211815Y-175438815D01*
X80132463Y-175535506D01*
X80073498Y-175645820D01*
X80037188Y-175765518D01*
X80024928Y-175890000D01*
X73905658Y-175890000D01*
X73775431Y-175854678D01*
X73414816Y-175829933D01*
X73056302Y-175876015D01*
X72713667Y-175991154D01*
X72491014Y-176110164D01*
X72371126Y-176395020D01*
X71007845Y-176395020D01*
X70996976Y-175145260D01*
X71010297Y-175056677D01*
X71045914Y-174985709D01*
X71101813Y-174929322D01*
X71172467Y-174893090D01*
X71260930Y-174879000D01*
X84949590Y-174879000D01*
X85038060Y-174893092D01*
X85038060Y-174893092D01*
G37*
X85038060Y-174893092D02*
X85108715Y-174929326D01*
X85164616Y-174985721D01*
X85200231Y-175056693D01*
X85213546Y-175145278D01*
X85156905Y-181602286D01*
X85142354Y-181689688D01*
X85106266Y-181759452D01*
X85050488Y-181814743D01*
X84980413Y-181850216D01*
X84892887Y-181864000D01*
X71317143Y-181864000D01*
X71229611Y-181850215D01*
X71159535Y-181814739D01*
X71103755Y-181759442D01*
X71067670Y-181689675D01*
X71053125Y-181602269D01*
X71030071Y-178950980D01*
X72371126Y-178950980D01*
X72491014Y-179235836D01*
X72814710Y-179396699D01*
X73163569Y-179491322D01*
X73524184Y-179516067D01*
X73882698Y-179469985D01*
X74225333Y-179354846D01*
X74447986Y-179235836D01*
X74567874Y-178950980D01*
X73469500Y-177852605D01*
X72371126Y-178950980D01*
X71030071Y-178950980D01*
X71019433Y-177727684D01*
X71626433Y-177727684D01*
X71672515Y-178086198D01*
X71787654Y-178428833D01*
X71906664Y-178651486D01*
X72191520Y-178771374D01*
X73289895Y-177673000D01*
X73649105Y-177673000D01*
X74747480Y-178771374D01*
X75032336Y-178651486D01*
X75137435Y-178440000D01*
X80024928Y-178440000D01*
X80037188Y-178564482D01*
X80073498Y-178684180D01*
X80132463Y-178794494D01*
X80211815Y-178891185D01*
X80308506Y-178970537D01*
X80418820Y-179029502D01*
X80538518Y-179065812D01*
X80663000Y-179078072D01*
X81652250Y-179075000D01*
X81811000Y-178916250D01*
X81811000Y-177292000D01*
X82065000Y-177292000D01*
X82065000Y-178916250D01*
X82223750Y-179075000D01*
X83213000Y-179078072D01*
X83337482Y-179065812D01*
X83457180Y-179029502D01*
X83567494Y-178970537D01*
X83664185Y-178891185D01*
X83743537Y-178794494D01*
X83802502Y-178684180D01*
X83838812Y-178564482D01*
X83851072Y-178440000D01*
X83848000Y-177450750D01*
X83689250Y-177292000D01*
X82065000Y-177292000D01*
X81811000Y-177292000D01*
X80186750Y-177292000D01*
X80028000Y-177450750D01*
X80024928Y-178440000D01*
X75137435Y-178440000D01*
X75193199Y-178327790D01*
X75287822Y-177978931D01*
X75312567Y-177618316D01*
X75266485Y-177259802D01*
X75151346Y-176917167D01*
X75032336Y-176694514D01*
X74747480Y-176574626D01*
X73649105Y-177673000D01*
X73289895Y-177673000D01*
X72191520Y-176574626D01*
X71906664Y-176694514D01*
X71745801Y-177018210D01*
X71651178Y-177367069D01*
X71626433Y-177727684D01*
X71019433Y-177727684D01*
X71007845Y-176395020D01*
X72371126Y-176395020D01*
X73469500Y-177493395D01*
X74567874Y-176395020D01*
X74447986Y-176110164D01*
X74124290Y-175949301D01*
X73905658Y-175890000D01*
X80024928Y-175890000D01*
X80028000Y-176879250D01*
X80186750Y-177038000D01*
X81811000Y-177038000D01*
X81811000Y-175413750D01*
X82065000Y-175413750D01*
X82065000Y-177038000D01*
X83689250Y-177038000D01*
X83848000Y-176879250D01*
X83851072Y-175890000D01*
X83838812Y-175765518D01*
X83802502Y-175645820D01*
X83743537Y-175535506D01*
X83664185Y-175438815D01*
X83567494Y-175359463D01*
X83457180Y-175300498D01*
X83337482Y-175264188D01*
X83213000Y-175251928D01*
X82223750Y-175255000D01*
X82065000Y-175413750D01*
X81811000Y-175413750D01*
X81652250Y-175255000D01*
X80663000Y-175251928D01*
X80538518Y-175264188D01*
X80418820Y-175300498D01*
X80308506Y-175359463D01*
X80211815Y-175438815D01*
X80132463Y-175535506D01*
X80073498Y-175645820D01*
X80037188Y-175765518D01*
X80024928Y-175890000D01*
X73905658Y-175890000D01*
X73775431Y-175854678D01*
X73414816Y-175829933D01*
X73056302Y-175876015D01*
X72713667Y-175991154D01*
X72491014Y-176110164D01*
X72371126Y-176395020D01*
X71007845Y-176395020D01*
X70996976Y-175145260D01*
X71010297Y-175056677D01*
X71045914Y-174985709D01*
X71101813Y-174929322D01*
X71172467Y-174893090D01*
X71260930Y-174879000D01*
X84949590Y-174879000D01*
X85038060Y-174893092D01*
M02*
