G04 #@! TF.GenerationSoftware,KiCad,Pcbnew,(5.1.4)-1*
G04 #@! TF.CreationDate,2023-06-30T15:23:11-04:00*
G04 #@! TF.ProjectId,4ChWirelessLaunchController,34436857-6972-4656-9c65-73734c61756e,rev?*
G04 #@! TF.SameCoordinates,Original*
G04 #@! TF.FileFunction,Legend,Top*
G04 #@! TF.FilePolarity,Positive*
%FSLAX46Y46*%
G04 Gerber Fmt 4.6, Leading zero omitted, Abs format (unit mm)*
G04 Created by KiCad (PCBNEW (5.1.4)-1) date 2023-06-30 15:23:11*
%MOMM*%
%LPD*%
G04 APERTURE LIST*
%ADD10C,0.150000*%
%ADD11C,0.120000*%
%ADD12C,0.127000*%
%ADD13C,0.200000*%
G04 APERTURE END LIST*
D10*
X53554380Y-179442619D02*
X53554380Y-178823571D01*
X53935333Y-179156904D01*
X53935333Y-179014047D01*
X53982952Y-178918809D01*
X54030571Y-178871190D01*
X54125809Y-178823571D01*
X54363904Y-178823571D01*
X54459142Y-178871190D01*
X54506761Y-178918809D01*
X54554380Y-179014047D01*
X54554380Y-179299761D01*
X54506761Y-179395000D01*
X54459142Y-179442619D01*
X54459142Y-178395000D02*
X54506761Y-178347380D01*
X54554380Y-178395000D01*
X54506761Y-178442619D01*
X54459142Y-178395000D01*
X54554380Y-178395000D01*
X53554380Y-177442619D02*
X53554380Y-177918809D01*
X54030571Y-177966428D01*
X53982952Y-177918809D01*
X53935333Y-177823571D01*
X53935333Y-177585476D01*
X53982952Y-177490238D01*
X54030571Y-177442619D01*
X54125809Y-177395000D01*
X54363904Y-177395000D01*
X54459142Y-177442619D01*
X54506761Y-177490238D01*
X54554380Y-177585476D01*
X54554380Y-177823571D01*
X54506761Y-177918809D01*
X54459142Y-177966428D01*
X54554380Y-176442619D02*
X54554380Y-177014047D01*
X54554380Y-176728333D02*
X53554380Y-176728333D01*
X53697238Y-176823571D01*
X53792476Y-176918809D01*
X53840095Y-177014047D01*
X53554380Y-175823571D02*
X53554380Y-175728333D01*
X53602000Y-175633095D01*
X53649619Y-175585476D01*
X53744857Y-175537857D01*
X53935333Y-175490238D01*
X54173428Y-175490238D01*
X54363904Y-175537857D01*
X54459142Y-175585476D01*
X54506761Y-175633095D01*
X54554380Y-175728333D01*
X54554380Y-175823571D01*
X54506761Y-175918809D01*
X54459142Y-175966428D01*
X54363904Y-176014047D01*
X54173428Y-176061666D01*
X53935333Y-176061666D01*
X53744857Y-176014047D01*
X53649619Y-175966428D01*
X53602000Y-175918809D01*
X53554380Y-175823571D01*
X53554380Y-174871190D02*
X53554380Y-174775952D01*
X53602000Y-174680714D01*
X53649619Y-174633095D01*
X53744857Y-174585476D01*
X53935333Y-174537857D01*
X54173428Y-174537857D01*
X54363904Y-174585476D01*
X54459142Y-174633095D01*
X54506761Y-174680714D01*
X54554380Y-174775952D01*
X54554380Y-174871190D01*
X54506761Y-174966428D01*
X54459142Y-175014047D01*
X54363904Y-175061666D01*
X54173428Y-175109285D01*
X53935333Y-175109285D01*
X53744857Y-175061666D01*
X53649619Y-175014047D01*
X53602000Y-174966428D01*
X53554380Y-174871190D01*
X54554380Y-173347380D02*
X53887714Y-173347380D01*
X53554380Y-173347380D02*
X53602000Y-173395000D01*
X53649619Y-173347380D01*
X53602000Y-173299761D01*
X53554380Y-173347380D01*
X53649619Y-173347380D01*
X53887714Y-172871190D02*
X54554380Y-172871190D01*
X53982952Y-172871190D02*
X53935333Y-172823571D01*
X53887714Y-172728333D01*
X53887714Y-172585476D01*
X53935333Y-172490238D01*
X54030571Y-172442619D01*
X54554380Y-172442619D01*
D11*
X55372000Y-220472000D02*
X55372000Y-131318000D01*
X70358000Y-220472000D02*
X54785579Y-220472000D01*
X70358000Y-131318000D02*
X54785579Y-131318000D01*
X55372000Y-131318000D02*
X55958421Y-132444504D01*
X55372000Y-131318000D02*
X54785579Y-132444504D01*
X55372000Y-220472000D02*
X55958421Y-219345496D01*
X55372000Y-220472000D02*
X54785579Y-219345496D01*
D10*
X92110503Y-112663289D02*
X91539144Y-112654361D01*
X91824823Y-112658825D02*
X91840447Y-111658947D01*
X91742988Y-111800299D01*
X91646274Y-111894038D01*
X91550303Y-111940163D01*
X92540510Y-112574758D02*
X92587379Y-112623115D01*
X92539022Y-112669985D01*
X92492153Y-112621627D01*
X92540510Y-112574758D01*
X92539022Y-112669985D01*
X93062768Y-112678168D02*
X93253221Y-112681144D01*
X93349191Y-112635019D01*
X93397548Y-112588149D01*
X93495007Y-112446797D01*
X93545596Y-112257088D01*
X93551547Y-111876183D01*
X93505422Y-111780212D01*
X93458553Y-111731855D01*
X93364070Y-111682754D01*
X93173617Y-111679778D01*
X93077647Y-111725903D01*
X93029290Y-111772773D01*
X92980188Y-111867255D01*
X92976469Y-112105321D01*
X93022594Y-112201292D01*
X93069463Y-112249649D01*
X93163946Y-112298750D01*
X93354399Y-112301726D01*
X93450369Y-112255601D01*
X93498726Y-112208731D01*
X93547827Y-112114249D01*
X93933941Y-111786908D02*
X93982298Y-111740038D01*
X94078269Y-111693913D01*
X94316335Y-111697633D01*
X94410817Y-111746734D01*
X94457687Y-111795091D01*
X94503812Y-111891062D01*
X94502324Y-111986288D01*
X94452479Y-112128384D01*
X93872193Y-112690815D01*
X94491165Y-112700487D01*
X95125760Y-111710280D02*
X95220986Y-111711768D01*
X95315469Y-111760869D01*
X95362338Y-111809226D01*
X95408463Y-111905197D01*
X95453101Y-112096394D01*
X95449381Y-112334460D01*
X95398792Y-112524169D01*
X95349691Y-112618651D01*
X95301334Y-112665521D01*
X95205363Y-112711646D01*
X95110137Y-112710158D01*
X95015654Y-112661057D01*
X94968785Y-112612700D01*
X94922660Y-112516729D01*
X94878022Y-112325533D01*
X94881742Y-112087466D01*
X94932331Y-111897757D01*
X94981432Y-111803275D01*
X95029789Y-111756406D01*
X95125760Y-111710280D01*
X95838470Y-111816666D02*
X95886828Y-111769797D01*
X95982798Y-111723671D01*
X96220864Y-111727391D01*
X96315347Y-111776492D01*
X96362216Y-111824850D01*
X96408341Y-111920820D01*
X96406853Y-112016046D01*
X96357008Y-112158142D01*
X95776722Y-112720574D01*
X96395694Y-112730245D01*
X97586025Y-112748844D02*
X97596440Y-112082259D01*
X97601648Y-111748966D02*
X97553291Y-111795835D01*
X97600160Y-111844192D01*
X97648517Y-111797323D01*
X97601648Y-111748966D01*
X97600160Y-111844192D01*
X98072573Y-112089698D02*
X98062157Y-112756283D01*
X98071085Y-112184925D02*
X98119442Y-112138055D01*
X98215412Y-112091930D01*
X98358252Y-112094162D01*
X98452735Y-112143263D01*
X98498860Y-112239234D01*
X98490677Y-112762979D01*
D11*
X70641944Y-113145562D02*
X119409944Y-113907562D01*
X70358000Y-131318000D02*
X70651106Y-112559213D01*
X119126000Y-132080000D02*
X119419106Y-113321213D01*
X119409944Y-113907562D02*
X118274416Y-114476312D01*
X119409944Y-113907562D02*
X118292739Y-113303613D01*
X70641944Y-113145562D02*
X71759149Y-113749511D01*
X70641944Y-113145562D02*
X71777472Y-112576812D01*
D10*
X86053481Y-245023947D02*
X85482106Y-245031774D01*
X85767794Y-245027860D02*
X85754096Y-244027954D01*
X85660824Y-244172102D01*
X85566899Y-244268636D01*
X85472322Y-244317555D01*
X86480708Y-244922847D02*
X86528975Y-244969810D01*
X86482012Y-245018076D01*
X86433746Y-244971114D01*
X86480708Y-244922847D01*
X86482012Y-245018076D01*
X87377558Y-244339079D02*
X87386689Y-245005684D01*
X87134267Y-243961424D02*
X86905978Y-244678904D01*
X87524967Y-244670425D01*
X88325284Y-243992732D02*
X88134825Y-243995341D01*
X88040249Y-244044260D01*
X87993286Y-244092527D01*
X87900014Y-244236675D01*
X87855008Y-244427786D01*
X87860226Y-244808703D01*
X87909145Y-244903280D01*
X87957412Y-244950242D01*
X88053294Y-244996552D01*
X88243752Y-244993943D01*
X88338329Y-244945024D01*
X88385291Y-244896757D01*
X88431601Y-244800876D01*
X88428340Y-244562803D01*
X88379421Y-244468226D01*
X88331154Y-244421263D01*
X88235273Y-244374953D01*
X88044814Y-244377562D01*
X87950237Y-244426482D01*
X87903275Y-244474748D01*
X87856965Y-244570630D01*
X89039502Y-243982948D02*
X89134732Y-243981644D01*
X89230613Y-244027954D01*
X89278880Y-244074916D01*
X89327799Y-244169493D01*
X89378023Y-244359299D01*
X89381284Y-244597372D01*
X89336278Y-244788483D01*
X89289968Y-244884364D01*
X89243006Y-244932631D01*
X89148429Y-244981550D01*
X89053200Y-244982855D01*
X88957318Y-244936545D01*
X88909052Y-244889582D01*
X88860132Y-244795005D01*
X88809909Y-244605199D01*
X88806648Y-244367126D01*
X88851653Y-244176016D01*
X88897963Y-244080134D01*
X88944926Y-244031868D01*
X89039502Y-243982948D01*
X90338793Y-244965244D02*
X89767418Y-244973071D01*
X90053106Y-244969157D02*
X90039409Y-243969251D01*
X89946136Y-244113399D01*
X89852212Y-244209933D01*
X89757635Y-244258852D01*
X91529158Y-244948937D02*
X91520026Y-244282333D01*
X91515461Y-243949031D02*
X91468498Y-243997298D01*
X91516765Y-244044260D01*
X91563727Y-243995994D01*
X91515461Y-243949031D01*
X91516765Y-244044260D01*
X91996172Y-244275811D02*
X92005304Y-244942415D01*
X91997477Y-244371040D02*
X92044439Y-244322773D01*
X92139016Y-244273854D01*
X92281860Y-244271897D01*
X92377741Y-244318207D01*
X92426660Y-244412784D01*
X92433835Y-244936545D01*
D11*
X70416186Y-243515614D02*
X107500186Y-243007614D01*
X70104000Y-220726000D02*
X70424219Y-244101980D01*
X107188000Y-220218000D02*
X107508219Y-243593980D01*
X107500186Y-243007614D02*
X106381820Y-243609410D01*
X107500186Y-243007614D02*
X106365756Y-242436678D01*
X70416186Y-243515614D02*
X71550616Y-244086550D01*
X70416186Y-243515614D02*
X71534552Y-242913818D01*
D10*
X142097069Y-172760095D02*
X142108093Y-173379044D01*
X141721265Y-173052548D01*
X141723809Y-173195382D01*
X141677894Y-173291453D01*
X141631130Y-173339913D01*
X141536755Y-173389221D01*
X141298698Y-173393461D01*
X141202627Y-173347545D01*
X141154167Y-173300782D01*
X141104860Y-173206407D01*
X141099771Y-172920738D01*
X141145687Y-172824667D01*
X141192450Y-172776207D01*
X141211107Y-173823660D02*
X141164344Y-173872120D01*
X141115884Y-173825356D01*
X141162648Y-173776897D01*
X141211107Y-173823660D01*
X141115884Y-173825356D01*
X141125213Y-174349083D02*
X141128605Y-174539529D01*
X141177912Y-174633904D01*
X141226372Y-174680667D01*
X141370902Y-174773346D01*
X141562196Y-174817565D01*
X141943088Y-174810781D01*
X142037463Y-174761473D01*
X142084227Y-174713014D01*
X142130142Y-174616943D01*
X142126750Y-174426497D01*
X142077442Y-174332122D01*
X142028983Y-174285359D01*
X141932912Y-174239443D01*
X141694854Y-174243683D01*
X141600479Y-174292991D01*
X141553716Y-174341450D01*
X141507801Y-174437521D01*
X141511193Y-174627967D01*
X141560500Y-174722342D01*
X141608960Y-174769106D01*
X141705031Y-174815021D01*
X142139471Y-175140669D02*
X142150495Y-175759619D01*
X141763667Y-175433123D01*
X141766211Y-175575957D01*
X141720296Y-175672028D01*
X141673532Y-175720488D01*
X141579157Y-175769795D01*
X141341100Y-175774036D01*
X141245029Y-175728120D01*
X141196569Y-175681357D01*
X141147262Y-175586982D01*
X141142173Y-175301313D01*
X141188089Y-175205242D01*
X141234852Y-175156782D01*
X142161520Y-176378568D02*
X142163216Y-176473791D01*
X142117300Y-176569862D01*
X142070537Y-176618322D01*
X141976162Y-176667629D01*
X141786564Y-176718633D01*
X141548507Y-176722873D01*
X141357213Y-176678654D01*
X141261142Y-176632739D01*
X141212682Y-176585975D01*
X141163374Y-176491600D01*
X141161678Y-176396377D01*
X141207594Y-176300306D01*
X141254357Y-176251847D01*
X141348732Y-176202539D01*
X141538330Y-176151535D01*
X141776388Y-176147295D01*
X141967682Y-176191514D01*
X142063753Y-176237430D01*
X142112212Y-176284193D01*
X142161520Y-176378568D01*
X142182721Y-177568856D02*
X142179329Y-177378410D01*
X142130021Y-177284035D01*
X142081562Y-177237271D01*
X141937031Y-177144592D01*
X141745737Y-177100373D01*
X141364845Y-177107157D01*
X141270470Y-177156465D01*
X141223707Y-177204925D01*
X141177791Y-177300996D01*
X141181183Y-177491442D01*
X141230491Y-177585816D01*
X141278950Y-177632580D01*
X141375021Y-177678495D01*
X141613079Y-177674255D01*
X141707454Y-177624948D01*
X141754217Y-177576488D01*
X141800133Y-177480417D01*
X141796741Y-177289971D01*
X141747433Y-177195596D01*
X141698973Y-177148833D01*
X141602902Y-177102917D01*
X141205777Y-178872175D02*
X141872337Y-178860302D01*
X142205618Y-178854366D02*
X142157158Y-178807603D01*
X142110395Y-178856062D01*
X142158854Y-178902826D01*
X142205618Y-178854366D01*
X142110395Y-178856062D01*
X141880818Y-179336417D02*
X141214257Y-179348290D01*
X141785595Y-179338113D02*
X141834054Y-179384877D01*
X141883362Y-179479252D01*
X141885906Y-179622086D01*
X141839991Y-179718157D01*
X141745616Y-179767465D01*
X141221889Y-179776793D01*
D11*
X139453917Y-126428521D02*
X141231917Y-226250521D01*
X135890000Y-126492000D02*
X140040244Y-126418077D01*
X137668000Y-226314000D02*
X141818244Y-226240077D01*
X141231917Y-226250521D02*
X140625527Y-225134639D01*
X141231917Y-226250521D02*
X141798183Y-225113752D01*
X139453917Y-126428521D02*
X138887651Y-127565290D01*
X139453917Y-126428521D02*
X140060307Y-127544403D01*
D10*
X98573507Y-234866682D02*
X98621286Y-234819224D01*
X98716685Y-234771927D01*
X98954779Y-234772731D01*
X99049855Y-234820672D01*
X99097313Y-234868451D01*
X99144610Y-234963850D01*
X99144289Y-235059087D01*
X99096187Y-235201783D01*
X98522831Y-235771278D01*
X99141875Y-235773369D01*
X99570766Y-235679579D02*
X99618224Y-235727359D01*
X99570444Y-235774817D01*
X99522987Y-235727037D01*
X99570766Y-235679579D01*
X99570444Y-235774817D01*
X100094251Y-235776587D02*
X100284726Y-235777230D01*
X100380125Y-235729933D01*
X100427904Y-235682475D01*
X100523624Y-235539941D01*
X100571887Y-235349626D01*
X100573174Y-234968676D01*
X100525877Y-234873278D01*
X100478419Y-234825498D01*
X100383342Y-234777558D01*
X100192867Y-234776914D01*
X100097468Y-234824211D01*
X100049689Y-234871669D01*
X100001748Y-234966746D01*
X100000944Y-235204840D01*
X100048241Y-235300238D01*
X100095699Y-235348018D01*
X100190776Y-235395958D01*
X100381251Y-235396602D01*
X100476649Y-235349305D01*
X100524429Y-235301847D01*
X100572369Y-235206770D01*
X101430955Y-234781097D02*
X101240480Y-234780453D01*
X101145082Y-234827750D01*
X101097302Y-234875208D01*
X101001582Y-235017743D01*
X100953319Y-235208057D01*
X100952032Y-235589007D01*
X100999329Y-235684406D01*
X101046787Y-235732185D01*
X101141864Y-235780126D01*
X101332339Y-235780769D01*
X101427738Y-235733472D01*
X101475517Y-235686014D01*
X101523458Y-235590938D01*
X101524262Y-235352844D01*
X101476965Y-235257445D01*
X101429507Y-235209666D01*
X101334431Y-235161725D01*
X101143955Y-235161082D01*
X101048557Y-235208379D01*
X101000777Y-235255837D01*
X100952837Y-235350913D01*
X102145237Y-234783510D02*
X102240474Y-234783832D01*
X102335551Y-234831772D01*
X102383009Y-234879552D01*
X102430306Y-234974950D01*
X102477281Y-235165586D01*
X102476477Y-235403680D01*
X102428215Y-235593994D01*
X102380274Y-235689071D01*
X102332494Y-235736529D01*
X102237096Y-235783826D01*
X102141858Y-235783504D01*
X102046782Y-235735564D01*
X101999324Y-235687784D01*
X101952027Y-235592386D01*
X101905051Y-235401750D01*
X101905856Y-235163656D01*
X101954118Y-234973341D01*
X102002059Y-234878265D01*
X102049838Y-234830807D01*
X102145237Y-234783510D01*
X103097612Y-234786727D02*
X103192850Y-234787049D01*
X103287926Y-234834990D01*
X103335384Y-234882769D01*
X103382681Y-234978168D01*
X103429657Y-235168804D01*
X103428852Y-235406898D01*
X103380590Y-235597212D01*
X103332650Y-235692288D01*
X103284870Y-235739746D01*
X103189471Y-235787043D01*
X103094234Y-235786722D01*
X102999157Y-235738781D01*
X102951699Y-235691001D01*
X102904402Y-235595603D01*
X102857427Y-235404967D01*
X102858231Y-235166873D01*
X102906494Y-234976559D01*
X102954434Y-234881482D01*
X103002214Y-234834024D01*
X103097612Y-234786727D01*
X104618035Y-235791870D02*
X104620287Y-235125207D01*
X104621413Y-234791875D02*
X104573633Y-234839333D01*
X104621091Y-234887113D01*
X104668871Y-234839655D01*
X104621413Y-234791875D01*
X104621091Y-234887113D01*
X105096475Y-235126816D02*
X105094222Y-235793478D01*
X105096153Y-235222053D02*
X105143933Y-235174595D01*
X105239331Y-235127298D01*
X105382187Y-235127781D01*
X105477264Y-235175721D01*
X105524561Y-235271120D01*
X105522791Y-235794926D01*
D11*
X64484250Y-233933892D02*
X139668250Y-234187892D01*
X64516000Y-224536000D02*
X64482269Y-234520310D01*
X139700000Y-224790000D02*
X139666269Y-234774310D01*
X139668250Y-234187892D02*
X138539772Y-234770504D01*
X139668250Y-234187892D02*
X138543734Y-233597669D01*
X64484250Y-233933892D02*
X65608766Y-234524115D01*
X64484250Y-233933892D02*
X65612728Y-233351280D01*
D12*
X82359500Y-186171500D02*
X82359500Y-196421500D01*
X72199500Y-196421500D02*
X72199500Y-186171500D01*
X82359500Y-196421500D02*
X72199500Y-196421500D01*
X72199500Y-186171500D02*
X82359500Y-186171500D01*
D13*
X79919500Y-185171500D02*
G75*
G03X79919500Y-185171500I-100000J0D01*
G01*
D11*
X120935500Y-199680500D02*
X120935500Y-199350500D01*
X114395500Y-199680500D02*
X120935500Y-199680500D01*
X114395500Y-199350500D02*
X114395500Y-199680500D01*
X120935500Y-196940500D02*
X120935500Y-197270500D01*
X114395500Y-196940500D02*
X120935500Y-196940500D01*
X114395500Y-197270500D02*
X114395500Y-196940500D01*
X121570500Y-221334000D02*
X121570500Y-221004000D01*
X115030500Y-221334000D02*
X121570500Y-221334000D01*
X115030500Y-221004000D02*
X115030500Y-221334000D01*
X121570500Y-218594000D02*
X121570500Y-218924000D01*
X115030500Y-218594000D02*
X121570500Y-218594000D01*
X115030500Y-218924000D02*
X115030500Y-218594000D01*
X119538500Y-164057000D02*
X119538500Y-163727000D01*
X112998500Y-164057000D02*
X119538500Y-164057000D01*
X112998500Y-163727000D02*
X112998500Y-164057000D01*
X119538500Y-161317000D02*
X119538500Y-161647000D01*
X112998500Y-161317000D02*
X119538500Y-161317000D01*
X112998500Y-161647000D02*
X112998500Y-161317000D01*
X119602000Y-156246500D02*
X119602000Y-155916500D01*
X113062000Y-156246500D02*
X119602000Y-156246500D01*
X113062000Y-155916500D02*
X113062000Y-156246500D01*
X119602000Y-153506500D02*
X119602000Y-153836500D01*
X113062000Y-153506500D02*
X119602000Y-153506500D01*
X113062000Y-153836500D02*
X113062000Y-153506500D01*
X78259000Y-205581000D02*
X78589000Y-205581000D01*
X78259000Y-199041000D02*
X78259000Y-205581000D01*
X78589000Y-199041000D02*
X78259000Y-199041000D01*
X80999000Y-205581000D02*
X80669000Y-205581000D01*
X80999000Y-199041000D02*
X80999000Y-205581000D01*
X80669000Y-199041000D02*
X80999000Y-199041000D01*
D12*
X105934500Y-184106000D02*
X117934500Y-184106000D01*
X117934500Y-184106000D02*
X117934500Y-186056000D01*
X117934500Y-189356000D02*
X117934500Y-191306000D01*
X117934500Y-191306000D02*
X105934500Y-191306000D01*
X103934500Y-186906000D02*
X103934500Y-188506000D01*
D13*
X119234500Y-187806000D02*
G75*
G03X119234500Y-187806000I-100000J0D01*
G01*
D12*
X105934500Y-202838500D02*
X117934500Y-202838500D01*
X117934500Y-202838500D02*
X117934500Y-204788500D01*
X117934500Y-208088500D02*
X117934500Y-210038500D01*
X117934500Y-210038500D02*
X105934500Y-210038500D01*
X103934500Y-205638500D02*
X103934500Y-207238500D01*
D13*
X119234500Y-206538500D02*
G75*
G03X119234500Y-206538500I-100000J0D01*
G01*
D12*
X106442500Y-166770500D02*
X118442500Y-166770500D01*
X118442500Y-166770500D02*
X118442500Y-168720500D01*
X118442500Y-172020500D02*
X118442500Y-173970500D01*
X118442500Y-173970500D02*
X106442500Y-173970500D01*
X104442500Y-169570500D02*
X104442500Y-171170500D01*
D13*
X119742500Y-170470500D02*
G75*
G03X119742500Y-170470500I-100000J0D01*
G01*
D12*
X107585500Y-145625000D02*
X119585500Y-145625000D01*
X119585500Y-145625000D02*
X119585500Y-147575000D01*
X119585500Y-150875000D02*
X119585500Y-152825000D01*
X119585500Y-152825000D02*
X107585500Y-152825000D01*
X105585500Y-148425000D02*
X105585500Y-150025000D01*
D13*
X120885500Y-149325000D02*
G75*
G03X120885500Y-149325000I-100000J0D01*
G01*
D12*
X93138000Y-180765000D02*
X81138000Y-180765000D01*
X81138000Y-180765000D02*
X81138000Y-178815000D01*
X81138000Y-175515000D02*
X81138000Y-173565000D01*
X81138000Y-173565000D02*
X93138000Y-173565000D01*
X95138000Y-177965000D02*
X95138000Y-176365000D01*
D13*
X80038000Y-177065000D02*
G75*
G03X80038000Y-177065000I-100000J0D01*
G01*
D12*
X85979000Y-195844500D02*
X85979000Y-185594500D01*
X96139000Y-185594500D02*
X96139000Y-195844500D01*
X85979000Y-185594500D02*
X96139000Y-185594500D01*
X96139000Y-195844500D02*
X85979000Y-195844500D01*
D13*
X88619000Y-196844500D02*
G75*
G03X88619000Y-196844500I-100000J0D01*
G01*
D12*
X102626500Y-165417500D02*
X92376500Y-165417500D01*
X92376500Y-155257500D02*
X102626500Y-155257500D01*
X92376500Y-165417500D02*
X92376500Y-155257500D01*
X102626500Y-155257500D02*
X102626500Y-165417500D01*
D13*
X103726500Y-162877500D02*
G75*
G03X103726500Y-162877500I-100000J0D01*
G01*
D12*
X134313000Y-200850500D02*
X124063000Y-200850500D01*
X124063000Y-180530500D02*
X134313000Y-180530500D01*
X124063000Y-200850500D02*
X124063000Y-180530500D01*
X134313000Y-180530500D02*
X134313000Y-200850500D01*
D13*
X135413000Y-198310500D02*
G75*
G03X135413000Y-198310500I-100000J0D01*
G01*
D12*
X134122500Y-222377000D02*
X123872500Y-222377000D01*
X123872500Y-202057000D02*
X134122500Y-202057000D01*
X123872500Y-222377000D02*
X123872500Y-202057000D01*
X134122500Y-202057000D02*
X134122500Y-222377000D01*
D13*
X135222500Y-219837000D02*
G75*
G03X135222500Y-219837000I-100000J0D01*
G01*
D12*
X124005000Y-158496000D02*
X134255000Y-158496000D01*
X134255000Y-178816000D02*
X124005000Y-178816000D01*
X134255000Y-158496000D02*
X134255000Y-178816000D01*
X124005000Y-178816000D02*
X124005000Y-158496000D01*
D13*
X123105000Y-161036000D02*
G75*
G03X123105000Y-161036000I-100000J0D01*
G01*
D12*
X134313000Y-156400500D02*
X124063000Y-156400500D01*
X124063000Y-136080500D02*
X134313000Y-136080500D01*
X124063000Y-156400500D02*
X124063000Y-136080500D01*
X134313000Y-136080500D02*
X134313000Y-156400500D01*
D13*
X135413000Y-153860500D02*
G75*
G03X135413000Y-153860500I-100000J0D01*
G01*
D12*
X78613000Y-138313500D02*
X78613000Y-128063500D01*
X109093000Y-128063500D02*
X109093000Y-138313500D01*
X78613000Y-128063500D02*
X109093000Y-128063500D01*
X109093000Y-138313500D02*
X78613000Y-138313500D01*
D13*
X81253000Y-139313500D02*
G75*
G03X81253000Y-139313500I-100000J0D01*
G01*
D12*
X68569500Y-170053000D02*
X78819500Y-170053000D01*
X78819500Y-180213000D02*
X68569500Y-180213000D01*
X78819500Y-170053000D02*
X78819500Y-180213000D01*
X68569500Y-180213000D02*
X68569500Y-170053000D01*
D13*
X67669500Y-172593000D02*
G75*
G03X67669500Y-172593000I-100000J0D01*
G01*
D10*
X106426095Y-215324380D02*
X106426095Y-214324380D01*
X106426095Y-214800571D02*
X106997523Y-214800571D01*
X106997523Y-215324380D02*
X106997523Y-214324380D01*
X107902285Y-214657714D02*
X107902285Y-215324380D01*
X107664190Y-214276761D02*
X107426095Y-214991047D01*
X108045142Y-214991047D01*
X118110095Y-127186380D02*
X118110095Y-126186380D01*
X118110095Y-126662571D02*
X118681523Y-126662571D01*
X118681523Y-127186380D02*
X118681523Y-126186380D01*
X119062476Y-126186380D02*
X119681523Y-126186380D01*
X119348190Y-126567333D01*
X119491047Y-126567333D01*
X119586285Y-126614952D01*
X119633904Y-126662571D01*
X119681523Y-126757809D01*
X119681523Y-126995904D01*
X119633904Y-127091142D01*
X119586285Y-127138761D01*
X119491047Y-127186380D01*
X119205333Y-127186380D01*
X119110095Y-127138761D01*
X119062476Y-127091142D01*
X69342095Y-215514880D02*
X69342095Y-214514880D01*
X69342095Y-214991071D02*
X69913523Y-214991071D01*
X69913523Y-215514880D02*
X69913523Y-214514880D01*
X70342095Y-214610119D02*
X70389714Y-214562500D01*
X70484952Y-214514880D01*
X70723047Y-214514880D01*
X70818285Y-214562500D01*
X70865904Y-214610119D01*
X70913523Y-214705357D01*
X70913523Y-214800595D01*
X70865904Y-214943452D01*
X70294476Y-215514880D01*
X70913523Y-215514880D01*
X69342095Y-126932380D02*
X69342095Y-125932380D01*
X69342095Y-126408571D02*
X69913523Y-126408571D01*
X69913523Y-126932380D02*
X69913523Y-125932380D01*
X70913523Y-126932380D02*
X70342095Y-126932380D01*
X70627809Y-126932380D02*
X70627809Y-125932380D01*
X70532571Y-126075238D01*
X70437333Y-126170476D01*
X70342095Y-126218095D01*
X78447833Y-199067833D02*
X78447833Y-200067833D01*
X78381166Y-200267833D01*
X78247833Y-200401166D01*
X78047833Y-200467833D01*
X77914500Y-200467833D01*
X79181166Y-200467833D02*
X79447833Y-200467833D01*
X79581166Y-200401166D01*
X79647833Y-200334500D01*
X79781166Y-200134500D01*
X79847833Y-199867833D01*
X79847833Y-199334500D01*
X79781166Y-199201166D01*
X79714500Y-199134500D01*
X79581166Y-199067833D01*
X79314500Y-199067833D01*
X79181166Y-199134500D01*
X79114500Y-199201166D01*
X79047833Y-199334500D01*
X79047833Y-199667833D01*
X79114500Y-199801166D01*
X79181166Y-199867833D01*
X79314500Y-199934500D01*
X79581166Y-199934500D01*
X79714500Y-199867833D01*
X79781166Y-199801166D01*
X79847833Y-199667833D01*
X117498833Y-196392880D02*
X117165500Y-195916690D01*
X116927404Y-196392880D02*
X116927404Y-195392880D01*
X117308357Y-195392880D01*
X117403595Y-195440500D01*
X117451214Y-195488119D01*
X117498833Y-195583357D01*
X117498833Y-195726214D01*
X117451214Y-195821452D01*
X117403595Y-195869071D01*
X117308357Y-195916690D01*
X116927404Y-195916690D01*
X118403595Y-195392880D02*
X117927404Y-195392880D01*
X117879785Y-195869071D01*
X117927404Y-195821452D01*
X118022642Y-195773833D01*
X118260738Y-195773833D01*
X118355976Y-195821452D01*
X118403595Y-195869071D01*
X118451214Y-195964309D01*
X118451214Y-196202404D01*
X118403595Y-196297642D01*
X118355976Y-196345261D01*
X118260738Y-196392880D01*
X118022642Y-196392880D01*
X117927404Y-196345261D01*
X117879785Y-196297642D01*
X118133833Y-218046380D02*
X117800500Y-217570190D01*
X117562404Y-218046380D02*
X117562404Y-217046380D01*
X117943357Y-217046380D01*
X118038595Y-217094000D01*
X118086214Y-217141619D01*
X118133833Y-217236857D01*
X118133833Y-217379714D01*
X118086214Y-217474952D01*
X118038595Y-217522571D01*
X117943357Y-217570190D01*
X117562404Y-217570190D01*
X118990976Y-217379714D02*
X118990976Y-218046380D01*
X118752880Y-216998761D02*
X118514785Y-217713047D01*
X119133833Y-217713047D01*
X116101833Y-160769380D02*
X115768500Y-160293190D01*
X115530404Y-160769380D02*
X115530404Y-159769380D01*
X115911357Y-159769380D01*
X116006595Y-159817000D01*
X116054214Y-159864619D01*
X116101833Y-159959857D01*
X116101833Y-160102714D01*
X116054214Y-160197952D01*
X116006595Y-160245571D01*
X115911357Y-160293190D01*
X115530404Y-160293190D01*
X116435166Y-159769380D02*
X117054214Y-159769380D01*
X116720880Y-160150333D01*
X116863738Y-160150333D01*
X116958976Y-160197952D01*
X117006595Y-160245571D01*
X117054214Y-160340809D01*
X117054214Y-160578904D01*
X117006595Y-160674142D01*
X116958976Y-160721761D01*
X116863738Y-160769380D01*
X116578023Y-160769380D01*
X116482785Y-160721761D01*
X116435166Y-160674142D01*
X116165333Y-152958880D02*
X115832000Y-152482690D01*
X115593904Y-152958880D02*
X115593904Y-151958880D01*
X115974857Y-151958880D01*
X116070095Y-152006500D01*
X116117714Y-152054119D01*
X116165333Y-152149357D01*
X116165333Y-152292214D01*
X116117714Y-152387452D01*
X116070095Y-152435071D01*
X115974857Y-152482690D01*
X115593904Y-152482690D01*
X116546285Y-152054119D02*
X116593904Y-152006500D01*
X116689142Y-151958880D01*
X116927238Y-151958880D01*
X117022476Y-152006500D01*
X117070095Y-152054119D01*
X117117714Y-152149357D01*
X117117714Y-152244595D01*
X117070095Y-152387452D01*
X116498666Y-152958880D01*
X117117714Y-152958880D01*
X82451380Y-202477666D02*
X81975190Y-202811000D01*
X82451380Y-203049095D02*
X81451380Y-203049095D01*
X81451380Y-202668142D01*
X81499000Y-202572904D01*
X81546619Y-202525285D01*
X81641857Y-202477666D01*
X81784714Y-202477666D01*
X81879952Y-202525285D01*
X81927571Y-202572904D01*
X81975190Y-202668142D01*
X81975190Y-203049095D01*
X82451380Y-201525285D02*
X82451380Y-202096714D01*
X82451380Y-201811000D02*
X81451380Y-201811000D01*
X81594238Y-201906238D01*
X81689476Y-202001476D01*
X81737095Y-202096714D01*
X105751404Y-182443380D02*
X105751404Y-181443380D01*
X106322833Y-182443380D02*
X105894261Y-181871952D01*
X106322833Y-181443380D02*
X105751404Y-182014809D01*
X107227595Y-181443380D02*
X106751404Y-181443380D01*
X106703785Y-181919571D01*
X106751404Y-181871952D01*
X106846642Y-181824333D01*
X107084738Y-181824333D01*
X107179976Y-181871952D01*
X107227595Y-181919571D01*
X107275214Y-182014809D01*
X107275214Y-182252904D01*
X107227595Y-182348142D01*
X107179976Y-182395761D01*
X107084738Y-182443380D01*
X106846642Y-182443380D01*
X106751404Y-182395761D01*
X106703785Y-182348142D01*
X105751404Y-201175880D02*
X105751404Y-200175880D01*
X106322833Y-201175880D02*
X105894261Y-200604452D01*
X106322833Y-200175880D02*
X105751404Y-200747309D01*
X107179976Y-200509214D02*
X107179976Y-201175880D01*
X106941880Y-200128261D02*
X106703785Y-200842547D01*
X107322833Y-200842547D01*
X106259404Y-165107880D02*
X106259404Y-164107880D01*
X106830833Y-165107880D02*
X106402261Y-164536452D01*
X106830833Y-164107880D02*
X106259404Y-164679309D01*
X107164166Y-164107880D02*
X107783214Y-164107880D01*
X107449880Y-164488833D01*
X107592738Y-164488833D01*
X107687976Y-164536452D01*
X107735595Y-164584071D01*
X107783214Y-164679309D01*
X107783214Y-164917404D01*
X107735595Y-165012642D01*
X107687976Y-165060261D01*
X107592738Y-165107880D01*
X107307023Y-165107880D01*
X107211785Y-165060261D01*
X107164166Y-165012642D01*
X107402404Y-143962380D02*
X107402404Y-142962380D01*
X107973833Y-143962380D02*
X107545261Y-143390952D01*
X107973833Y-142962380D02*
X107402404Y-143533809D01*
X108354785Y-143057619D02*
X108402404Y-143010000D01*
X108497642Y-142962380D01*
X108735738Y-142962380D01*
X108830976Y-143010000D01*
X108878595Y-143057619D01*
X108926214Y-143152857D01*
X108926214Y-143248095D01*
X108878595Y-143390952D01*
X108307166Y-143962380D01*
X108926214Y-143962380D01*
X91844904Y-183332380D02*
X91844904Y-182332380D01*
X92416333Y-183332380D02*
X91987761Y-182760952D01*
X92416333Y-182332380D02*
X91844904Y-182903809D01*
X93368714Y-183332380D02*
X92797285Y-183332380D01*
X93083000Y-183332380D02*
X93083000Y-182332380D01*
X92987761Y-182475238D01*
X92892523Y-182570476D01*
X92797285Y-182618095D01*
X88957333Y-182938833D02*
X88957333Y-183938833D01*
X88890666Y-184138833D01*
X88757333Y-184272166D01*
X88557333Y-184338833D01*
X88424000Y-184338833D01*
X89824000Y-183538833D02*
X89690666Y-183472166D01*
X89624000Y-183405500D01*
X89557333Y-183272166D01*
X89557333Y-183205500D01*
X89624000Y-183072166D01*
X89690666Y-183005500D01*
X89824000Y-182938833D01*
X90090666Y-182938833D01*
X90224000Y-183005500D01*
X90290666Y-183072166D01*
X90357333Y-183205500D01*
X90357333Y-183272166D01*
X90290666Y-183405500D01*
X90224000Y-183472166D01*
X90090666Y-183538833D01*
X89824000Y-183538833D01*
X89690666Y-183605500D01*
X89624000Y-183672166D01*
X89557333Y-183805500D01*
X89557333Y-184072166D01*
X89624000Y-184205500D01*
X89690666Y-184272166D01*
X89824000Y-184338833D01*
X90090666Y-184338833D01*
X90224000Y-184272166D01*
X90290666Y-184205500D01*
X90357333Y-184072166D01*
X90357333Y-183805500D01*
X90290666Y-183672166D01*
X90224000Y-183605500D01*
X90090666Y-183538833D01*
X89720833Y-162439166D02*
X90720833Y-162439166D01*
X90920833Y-162505833D01*
X91054166Y-162639166D01*
X91120833Y-162839166D01*
X91120833Y-162972500D01*
X89720833Y-161905833D02*
X89720833Y-160972500D01*
X91120833Y-161572500D01*
X121407333Y-197872166D02*
X122407333Y-197872166D01*
X122607333Y-197938833D01*
X122740666Y-198072166D01*
X122807333Y-198272166D01*
X122807333Y-198405500D01*
X121407333Y-196605500D02*
X121407333Y-196872166D01*
X121474000Y-197005500D01*
X121540666Y-197072166D01*
X121740666Y-197205500D01*
X122007333Y-197272166D01*
X122540666Y-197272166D01*
X122674000Y-197205500D01*
X122740666Y-197138833D01*
X122807333Y-197005500D01*
X122807333Y-196738833D01*
X122740666Y-196605500D01*
X122674000Y-196538833D01*
X122540666Y-196472166D01*
X122207333Y-196472166D01*
X122074000Y-196538833D01*
X122007333Y-196605500D01*
X121940666Y-196738833D01*
X121940666Y-197005500D01*
X122007333Y-197138833D01*
X122074000Y-197205500D01*
X122207333Y-197272166D01*
X121216833Y-219398666D02*
X122216833Y-219398666D01*
X122416833Y-219465333D01*
X122550166Y-219598666D01*
X122616833Y-219798666D01*
X122616833Y-219932000D01*
X121216833Y-218065333D02*
X121216833Y-218732000D01*
X121883500Y-218798666D01*
X121816833Y-218732000D01*
X121750166Y-218598666D01*
X121750166Y-218265333D01*
X121816833Y-218132000D01*
X121883500Y-218065333D01*
X122016833Y-217998666D01*
X122350166Y-217998666D01*
X122483500Y-218065333D01*
X122550166Y-218132000D01*
X122616833Y-218265333D01*
X122616833Y-218598666D01*
X122550166Y-218732000D01*
X122483500Y-218798666D01*
X135377333Y-162407666D02*
X136377333Y-162407666D01*
X136577333Y-162474333D01*
X136710666Y-162607666D01*
X136777333Y-162807666D01*
X136777333Y-162941000D01*
X135844000Y-161141000D02*
X136777333Y-161141000D01*
X135310666Y-161474333D02*
X136310666Y-161807666D01*
X136310666Y-160941000D01*
X121407333Y-153422166D02*
X122407333Y-153422166D01*
X122607333Y-153488833D01*
X122740666Y-153622166D01*
X122807333Y-153822166D01*
X122807333Y-153955500D01*
X121407333Y-152888833D02*
X121407333Y-152022166D01*
X121940666Y-152488833D01*
X121940666Y-152288833D01*
X122007333Y-152155500D01*
X122074000Y-152088833D01*
X122207333Y-152022166D01*
X122540666Y-152022166D01*
X122674000Y-152088833D01*
X122740666Y-152155500D01*
X122807333Y-152288833D01*
X122807333Y-152688833D01*
X122740666Y-152822166D01*
X122674000Y-152888833D01*
X81591333Y-125407833D02*
X81591333Y-126407833D01*
X81524666Y-126607833D01*
X81391333Y-126741166D01*
X81191333Y-126807833D01*
X81058000Y-126807833D01*
X82191333Y-125541166D02*
X82258000Y-125474500D01*
X82391333Y-125407833D01*
X82724666Y-125407833D01*
X82858000Y-125474500D01*
X82924666Y-125541166D01*
X82991333Y-125674500D01*
X82991333Y-125807833D01*
X82924666Y-126007833D01*
X82124666Y-126807833D01*
X82991333Y-126807833D01*
X79941833Y-173964666D02*
X80941833Y-173964666D01*
X81141833Y-174031333D01*
X81275166Y-174164666D01*
X81341833Y-174364666D01*
X81341833Y-174498000D01*
X81341833Y-172564666D02*
X81341833Y-173364666D01*
X81341833Y-172964666D02*
X79941833Y-172964666D01*
X80141833Y-173098000D01*
X80275166Y-173231333D01*
X80341833Y-173364666D01*
M02*
