M48
; DRILL file {KiCad (5.1.4)-1} date 6/30/2023 3:23:15 PM
; FORMAT={-:-/ absolute / metric / decimal}
; #@! TF.CreationDate,2023-06-30T15:23:15-04:00
; #@! TF.GenerationSoftware,Kicad,Pcbnew,(5.1.4)-1
; #@! TF.FileFunction,Plated,1,2,PTH
FMAT,2
METRIC
T1C0.400
T2C0.800
T3C1.100
T4C1.600
T5C1.700
T6C5.300
%
G90
G05
T1
X101.155Y-182.499
X102.489Y-177.165
X106.464Y-181.711
X106.807Y-177.038
X113.411Y-181.419
X113.792Y-177.228
T2
X112.459Y-162.687
X120.078Y-162.687
X112.522Y-154.876
X120.142Y-154.876
X114.49Y-219.964
X122.11Y-219.964
X79.629Y-198.501
X79.629Y-206.121
X113.855Y-198.31
X121.475Y-198.31
T3
X110.385Y-146.825
X110.385Y-151.625
X90.338Y-174.765
X90.338Y-179.565
X108.734Y-185.306
X108.734Y-190.106
X109.242Y-167.97
X109.242Y-172.77
X108.734Y-204.038
X108.734Y-208.838
T4
X129.222Y-204.597
X129.222Y-209.677
X129.222Y-214.757
X129.222Y-219.837
X88.519Y-190.945
X93.599Y-190.945
X129.413Y-138.62
X129.413Y-143.701
X129.413Y-148.78
X129.413Y-153.861
X128.905Y-161.036
X128.905Y-166.116
X128.905Y-171.196
X128.905Y-176.276
X74.739Y-191.071
X79.819Y-191.071
X73.469Y-172.593
X73.469Y-177.673
X129.413Y-183.07
X129.413Y-188.15
X129.413Y-193.23
X129.413Y-198.31
X81.153Y-133.413
X86.233Y-133.413
X91.313Y-133.413
X96.393Y-133.413
X101.473Y-133.413
X106.553Y-133.413
X97.727Y-157.797
X97.727Y-162.877
T5
X81.938Y-177.165
X94.338Y-174.765
X94.338Y-179.565
X104.734Y-185.306
X104.734Y-190.106
X117.134Y-187.706
X105.242Y-167.97
X105.242Y-172.77
X117.642Y-170.37
X104.734Y-204.038
X104.734Y-208.838
X117.134Y-206.439
X106.385Y-146.825
X106.385Y-151.625
X118.785Y-149.225
T6
X70.104Y-220.662
X118.872Y-132.334
X70.104Y-132.08
X107.188Y-220.472
T0
M30
