G04 #@! TF.GenerationSoftware,KiCad,Pcbnew,(5.1.4)-1*
G04 #@! TF.CreationDate,2023-06-30T15:23:11-04:00*
G04 #@! TF.ProjectId,4ChWirelessLaunchController,34436857-6972-4656-9c65-73734c61756e,rev?*
G04 #@! TF.SameCoordinates,Original*
G04 #@! TF.FileFunction,Soldermask,Bot*
G04 #@! TF.FilePolarity,Negative*
%FSLAX46Y46*%
G04 Gerber Fmt 4.6, Leading zero omitted, Abs format (unit mm)*
G04 Created by KiCad (PCBNEW (5.1.4)-1) date 2023-06-30 15:23:11*
%MOMM*%
%LPD*%
G04 APERTURE LIST*
%ADD10C,0.100000*%
G04 APERTURE END LIST*
D10*
G36*
X71460646Y-216190235D02*
G01*
X71811248Y-216335459D01*
X72307075Y-216540837D01*
X73068840Y-217049833D01*
X73716667Y-217697660D01*
X74225663Y-218459425D01*
X74431040Y-218955251D01*
X74576265Y-219305854D01*
X74755000Y-220204415D01*
X74755000Y-221120585D01*
X74576265Y-222019146D01*
X74431040Y-222369749D01*
X74225663Y-222865575D01*
X73716667Y-223627340D01*
X73068840Y-224275167D01*
X72307075Y-224784163D01*
X71811248Y-224989541D01*
X71460646Y-225134765D01*
X70562085Y-225313500D01*
X69645915Y-225313500D01*
X68747354Y-225134765D01*
X68396752Y-224989541D01*
X67900925Y-224784163D01*
X67139160Y-224275167D01*
X66491333Y-223627340D01*
X65982337Y-222865575D01*
X65776960Y-222369749D01*
X65631735Y-222019146D01*
X65453000Y-221120585D01*
X65453000Y-220204415D01*
X65631735Y-219305854D01*
X65776959Y-218955252D01*
X65982337Y-218459425D01*
X66491333Y-217697660D01*
X67139160Y-217049833D01*
X67900925Y-216540837D01*
X68396752Y-216335459D01*
X68747354Y-216190235D01*
X69645915Y-216011500D01*
X70562085Y-216011500D01*
X71460646Y-216190235D01*
X71460646Y-216190235D01*
G37*
G36*
X108544646Y-215999735D02*
G01*
X108895249Y-216144960D01*
X109391075Y-216350337D01*
X110152840Y-216859333D01*
X110800667Y-217507160D01*
X111309663Y-218268925D01*
X111388570Y-218459425D01*
X111660265Y-219115354D01*
X111839000Y-220013915D01*
X111839000Y-220930085D01*
X111660265Y-221828646D01*
X111581357Y-222019146D01*
X111309663Y-222675075D01*
X110800667Y-223436840D01*
X110152840Y-224084667D01*
X109391075Y-224593663D01*
X108931166Y-224784163D01*
X108544646Y-224944265D01*
X107646085Y-225123000D01*
X106729915Y-225123000D01*
X105831354Y-224944265D01*
X105444834Y-224784163D01*
X104984925Y-224593663D01*
X104223160Y-224084667D01*
X103575333Y-223436840D01*
X103066337Y-222675075D01*
X102794643Y-222019146D01*
X102715735Y-221828646D01*
X102537000Y-220930085D01*
X102537000Y-220013915D01*
X102715735Y-219115354D01*
X102987430Y-218459425D01*
X103066337Y-218268925D01*
X103575333Y-217507160D01*
X104223160Y-216859333D01*
X104984925Y-216350337D01*
X105480751Y-216144960D01*
X105831354Y-215999735D01*
X106729915Y-215821000D01*
X107646085Y-215821000D01*
X108544646Y-215999735D01*
X108544646Y-215999735D01*
G37*
G36*
X130473500Y-221088000D02*
G01*
X127971500Y-221088000D01*
X127971500Y-218586000D01*
X130473500Y-218586000D01*
X130473500Y-221088000D01*
X130473500Y-221088000D01*
G37*
G36*
X114738728Y-219145703D02*
G01*
X114893600Y-219209853D01*
X115032981Y-219302985D01*
X115151515Y-219421519D01*
X115244647Y-219560900D01*
X115308797Y-219715772D01*
X115341500Y-219880184D01*
X115341500Y-220047816D01*
X115308797Y-220212228D01*
X115244647Y-220367100D01*
X115151515Y-220506481D01*
X115032981Y-220625015D01*
X114893600Y-220718147D01*
X114738728Y-220782297D01*
X114574316Y-220815000D01*
X114406684Y-220815000D01*
X114242272Y-220782297D01*
X114087400Y-220718147D01*
X113948019Y-220625015D01*
X113829485Y-220506481D01*
X113736353Y-220367100D01*
X113672203Y-220212228D01*
X113639500Y-220047816D01*
X113639500Y-219880184D01*
X113672203Y-219715772D01*
X113736353Y-219560900D01*
X113829485Y-219421519D01*
X113948019Y-219302985D01*
X114087400Y-219209853D01*
X114242272Y-219145703D01*
X114406684Y-219113000D01*
X114574316Y-219113000D01*
X114738728Y-219145703D01*
X114738728Y-219145703D01*
G37*
G36*
X122277323Y-219125313D02*
G01*
X122437742Y-219173976D01*
X122504861Y-219209852D01*
X122585578Y-219252996D01*
X122715159Y-219359341D01*
X122821504Y-219488922D01*
X122821505Y-219488924D01*
X122900524Y-219636758D01*
X122949187Y-219797177D01*
X122965617Y-219964000D01*
X122949187Y-220130823D01*
X122900524Y-220291242D01*
X122859977Y-220367100D01*
X122821504Y-220439078D01*
X122715159Y-220568659D01*
X122585578Y-220675004D01*
X122585576Y-220675005D01*
X122437742Y-220754024D01*
X122277323Y-220802687D01*
X122152304Y-220815000D01*
X122068696Y-220815000D01*
X121943677Y-220802687D01*
X121783258Y-220754024D01*
X121635424Y-220675005D01*
X121635422Y-220675004D01*
X121505841Y-220568659D01*
X121399496Y-220439078D01*
X121361023Y-220367100D01*
X121320476Y-220291242D01*
X121271813Y-220130823D01*
X121255383Y-219964000D01*
X121271813Y-219797177D01*
X121320476Y-219636758D01*
X121399495Y-219488924D01*
X121399496Y-219488922D01*
X121505841Y-219359341D01*
X121635422Y-219252996D01*
X121716139Y-219209852D01*
X121783258Y-219173976D01*
X121943677Y-219125313D01*
X122068696Y-219113000D01*
X122152304Y-219113000D01*
X122277323Y-219125313D01*
X122277323Y-219125313D01*
G37*
G36*
X129587403Y-213554075D02*
G01*
X129815071Y-213648378D01*
X130019966Y-213785285D01*
X130194215Y-213959534D01*
X130331122Y-214164429D01*
X130425425Y-214392097D01*
X130473500Y-214633787D01*
X130473500Y-214880213D01*
X130425425Y-215121903D01*
X130331122Y-215349571D01*
X130194215Y-215554466D01*
X130019966Y-215728715D01*
X129815071Y-215865622D01*
X129815070Y-215865623D01*
X129815069Y-215865623D01*
X129587403Y-215959925D01*
X129345714Y-216008000D01*
X129099286Y-216008000D01*
X128857597Y-215959925D01*
X128629931Y-215865623D01*
X128629930Y-215865623D01*
X128629929Y-215865622D01*
X128425034Y-215728715D01*
X128250785Y-215554466D01*
X128113878Y-215349571D01*
X128019575Y-215121903D01*
X127971500Y-214880213D01*
X127971500Y-214633787D01*
X128019575Y-214392097D01*
X128113878Y-214164429D01*
X128250785Y-213959534D01*
X128425034Y-213785285D01*
X128629929Y-213648378D01*
X128857597Y-213554075D01*
X129099286Y-213506000D01*
X129345714Y-213506000D01*
X129587403Y-213554075D01*
X129587403Y-213554075D01*
G37*
G36*
X129475017Y-208451720D02*
G01*
X129587403Y-208474075D01*
X129815071Y-208568378D01*
X130019966Y-208705285D01*
X130194215Y-208879534D01*
X130254061Y-208969100D01*
X130331123Y-209084431D01*
X130425425Y-209312097D01*
X130473500Y-209553786D01*
X130473500Y-209800214D01*
X130431058Y-210013586D01*
X130425425Y-210041903D01*
X130331122Y-210269571D01*
X130194215Y-210474466D01*
X130019966Y-210648715D01*
X129815071Y-210785622D01*
X129815070Y-210785623D01*
X129815069Y-210785623D01*
X129587403Y-210879925D01*
X129345714Y-210928000D01*
X129099286Y-210928000D01*
X128857597Y-210879925D01*
X128629931Y-210785623D01*
X128629930Y-210785623D01*
X128629929Y-210785622D01*
X128425034Y-210648715D01*
X128250785Y-210474466D01*
X128113878Y-210269571D01*
X128019575Y-210041903D01*
X128013942Y-210013586D01*
X127971500Y-209800214D01*
X127971500Y-209553786D01*
X128019575Y-209312097D01*
X128113877Y-209084431D01*
X128190939Y-208969100D01*
X128250785Y-208879534D01*
X128425034Y-208705285D01*
X128629929Y-208568378D01*
X128857597Y-208474075D01*
X128969983Y-208451720D01*
X129099286Y-208426000D01*
X129345714Y-208426000D01*
X129475017Y-208451720D01*
X129475017Y-208451720D01*
G37*
G36*
X104993190Y-207537978D02*
G01*
X105121280Y-207563457D01*
X105362597Y-207663414D01*
X105471924Y-207736464D01*
X105579775Y-207808528D01*
X105764472Y-207993225D01*
X105810559Y-208062199D01*
X105909586Y-208210403D01*
X106009543Y-208451720D01*
X106060500Y-208707900D01*
X106060500Y-208969100D01*
X106009543Y-209225280D01*
X105997878Y-209253442D01*
X105909587Y-209466595D01*
X105766436Y-209680836D01*
X105764471Y-209683776D01*
X105579776Y-209868471D01*
X105362597Y-210013586D01*
X105121280Y-210113543D01*
X104993190Y-210139021D01*
X104865101Y-210164500D01*
X104603899Y-210164500D01*
X104475810Y-210139022D01*
X104347720Y-210113543D01*
X104106403Y-210013586D01*
X103889224Y-209868471D01*
X103704529Y-209683776D01*
X103702565Y-209680836D01*
X103559413Y-209466595D01*
X103471122Y-209253442D01*
X103459457Y-209225280D01*
X103408500Y-208969100D01*
X103408500Y-208707900D01*
X103459457Y-208451720D01*
X103559414Y-208210403D01*
X103658441Y-208062199D01*
X103704528Y-207993225D01*
X103889225Y-207808528D01*
X103997076Y-207736464D01*
X104106403Y-207663414D01*
X104347720Y-207563457D01*
X104475810Y-207537978D01*
X104603899Y-207512500D01*
X104865101Y-207512500D01*
X104993190Y-207537978D01*
X104993190Y-207537978D01*
G37*
G36*
X108905399Y-207979332D02*
G01*
X108990020Y-207996164D01*
X109149442Y-208062199D01*
X109292918Y-208158066D01*
X109414934Y-208280082D01*
X109510801Y-208423558D01*
X109576836Y-208582980D01*
X109610500Y-208752221D01*
X109610500Y-208924779D01*
X109576836Y-209094020D01*
X109510801Y-209253442D01*
X109414934Y-209396918D01*
X109292918Y-209518934D01*
X109149442Y-209614801D01*
X108990020Y-209680836D01*
X108905399Y-209697668D01*
X108820780Y-209714500D01*
X108648220Y-209714500D01*
X108563601Y-209697668D01*
X108478980Y-209680836D01*
X108319558Y-209614801D01*
X108176082Y-209518934D01*
X108054066Y-209396918D01*
X107958199Y-209253442D01*
X107892164Y-209094020D01*
X107858500Y-208924779D01*
X107858500Y-208752221D01*
X107892164Y-208582980D01*
X107958199Y-208423558D01*
X108054066Y-208280082D01*
X108176082Y-208158066D01*
X108319558Y-208062199D01*
X108478980Y-207996164D01*
X108648220Y-207962500D01*
X108820780Y-207962500D01*
X108905399Y-207979332D01*
X108905399Y-207979332D01*
G37*
G36*
X118460500Y-207764500D02*
G01*
X115808500Y-207764500D01*
X115808500Y-205112500D01*
X118460500Y-205112500D01*
X118460500Y-207764500D01*
X118460500Y-207764500D01*
G37*
G36*
X79795823Y-205282313D02*
G01*
X79956242Y-205330976D01*
X80075023Y-205394466D01*
X80104078Y-205409996D01*
X80233659Y-205516341D01*
X80340004Y-205645922D01*
X80340005Y-205645924D01*
X80419024Y-205793758D01*
X80467687Y-205954177D01*
X80484117Y-206121000D01*
X80467687Y-206287823D01*
X80419024Y-206448242D01*
X80348114Y-206580906D01*
X80340004Y-206596078D01*
X80233659Y-206725659D01*
X80104078Y-206832004D01*
X80104076Y-206832005D01*
X79956242Y-206911024D01*
X79795823Y-206959687D01*
X79670804Y-206972000D01*
X79587196Y-206972000D01*
X79462177Y-206959687D01*
X79301758Y-206911024D01*
X79153924Y-206832005D01*
X79153922Y-206832004D01*
X79024341Y-206725659D01*
X78917996Y-206596078D01*
X78909886Y-206580906D01*
X78838976Y-206448242D01*
X78790313Y-206287823D01*
X78773883Y-206121000D01*
X78790313Y-205954177D01*
X78838976Y-205793758D01*
X78917995Y-205645924D01*
X78917996Y-205645922D01*
X79024341Y-205516341D01*
X79153922Y-205409996D01*
X79182977Y-205394466D01*
X79301758Y-205330976D01*
X79462177Y-205282313D01*
X79587196Y-205270000D01*
X79670804Y-205270000D01*
X79795823Y-205282313D01*
X79795823Y-205282313D01*
G37*
G36*
X129587403Y-203394075D02*
G01*
X129815071Y-203488378D01*
X130019966Y-203625285D01*
X130194215Y-203799534D01*
X130331122Y-204004429D01*
X130331123Y-204004431D01*
X130425425Y-204232097D01*
X130463852Y-204425280D01*
X130473500Y-204473787D01*
X130473500Y-204720213D01*
X130425425Y-204961903D01*
X130331122Y-205189571D01*
X130194215Y-205394466D01*
X130019966Y-205568715D01*
X129815071Y-205705622D01*
X129815070Y-205705623D01*
X129815069Y-205705623D01*
X129587403Y-205799925D01*
X129345714Y-205848000D01*
X129099286Y-205848000D01*
X128857597Y-205799925D01*
X128629931Y-205705623D01*
X128629930Y-205705623D01*
X128629929Y-205705622D01*
X128425034Y-205568715D01*
X128250785Y-205394466D01*
X128113878Y-205189571D01*
X128019575Y-204961903D01*
X127971500Y-204720213D01*
X127971500Y-204473787D01*
X127981149Y-204425280D01*
X128019575Y-204232097D01*
X128113877Y-204004431D01*
X128113878Y-204004429D01*
X128250785Y-203799534D01*
X128425034Y-203625285D01*
X128629929Y-203488378D01*
X128857597Y-203394075D01*
X129099286Y-203346000D01*
X129345714Y-203346000D01*
X129587403Y-203394075D01*
X129587403Y-203394075D01*
G37*
G36*
X104993190Y-202737979D02*
G01*
X105121280Y-202763457D01*
X105362597Y-202863414D01*
X105471924Y-202936464D01*
X105579775Y-203008528D01*
X105764472Y-203193225D01*
X105810559Y-203262199D01*
X105909586Y-203410403D01*
X106009543Y-203651720D01*
X106060500Y-203907900D01*
X106060500Y-204169100D01*
X106009543Y-204425280D01*
X105938863Y-204595916D01*
X105909587Y-204666595D01*
X105766436Y-204880836D01*
X105764471Y-204883776D01*
X105579776Y-205068471D01*
X105362597Y-205213586D01*
X105121280Y-205313543D01*
X104993190Y-205339022D01*
X104865101Y-205364500D01*
X104603899Y-205364500D01*
X104475810Y-205339022D01*
X104347720Y-205313543D01*
X104106403Y-205213586D01*
X103889224Y-205068471D01*
X103704529Y-204883776D01*
X103702565Y-204880836D01*
X103559413Y-204666595D01*
X103530137Y-204595916D01*
X103459457Y-204425280D01*
X103408500Y-204169100D01*
X103408500Y-203907900D01*
X103459457Y-203651720D01*
X103559414Y-203410403D01*
X103658441Y-203262199D01*
X103704528Y-203193225D01*
X103889225Y-203008528D01*
X103997076Y-202936464D01*
X104106403Y-202863414D01*
X104347720Y-202763457D01*
X104475810Y-202737979D01*
X104603899Y-202712500D01*
X104865101Y-202712500D01*
X104993190Y-202737979D01*
X104993190Y-202737979D01*
G37*
G36*
X108905399Y-203179332D02*
G01*
X108990020Y-203196164D01*
X109149442Y-203262199D01*
X109292918Y-203358066D01*
X109414934Y-203480082D01*
X109510801Y-203623558D01*
X109576836Y-203782980D01*
X109610500Y-203952221D01*
X109610500Y-204124779D01*
X109576836Y-204294020D01*
X109510801Y-204453442D01*
X109414934Y-204596918D01*
X109292918Y-204718934D01*
X109149442Y-204814801D01*
X108990020Y-204880836D01*
X108905399Y-204897668D01*
X108820780Y-204914500D01*
X108648220Y-204914500D01*
X108563601Y-204897668D01*
X108478980Y-204880836D01*
X108319558Y-204814801D01*
X108176082Y-204718934D01*
X108054066Y-204596918D01*
X107958199Y-204453442D01*
X107892164Y-204294020D01*
X107858500Y-204124779D01*
X107858500Y-203952221D01*
X107892164Y-203782980D01*
X107958199Y-203623558D01*
X108054066Y-203480082D01*
X108176082Y-203358066D01*
X108319558Y-203262199D01*
X108478980Y-203196164D01*
X108563601Y-203179332D01*
X108648220Y-203162500D01*
X108820780Y-203162500D01*
X108905399Y-203179332D01*
X108905399Y-203179332D01*
G37*
G36*
X130664000Y-199561500D02*
G01*
X128162000Y-199561500D01*
X128162000Y-197059500D01*
X130664000Y-197059500D01*
X130664000Y-199561500D01*
X130664000Y-199561500D01*
G37*
G36*
X79877228Y-197682703D02*
G01*
X80032100Y-197746853D01*
X80171481Y-197839985D01*
X80290015Y-197958519D01*
X80383147Y-198097900D01*
X80447297Y-198252772D01*
X80480000Y-198417184D01*
X80480000Y-198584816D01*
X80447297Y-198749228D01*
X80383147Y-198904100D01*
X80290015Y-199043481D01*
X80171481Y-199162015D01*
X80032100Y-199255147D01*
X79877228Y-199319297D01*
X79712816Y-199352000D01*
X79545184Y-199352000D01*
X79380772Y-199319297D01*
X79225900Y-199255147D01*
X79086519Y-199162015D01*
X78967985Y-199043481D01*
X78874853Y-198904100D01*
X78810703Y-198749228D01*
X78778000Y-198584816D01*
X78778000Y-198417184D01*
X78810703Y-198252772D01*
X78874853Y-198097900D01*
X78967985Y-197958519D01*
X79086519Y-197839985D01*
X79225900Y-197746853D01*
X79380772Y-197682703D01*
X79545184Y-197650000D01*
X79712816Y-197650000D01*
X79877228Y-197682703D01*
X79877228Y-197682703D01*
G37*
G36*
X114103728Y-197492203D02*
G01*
X114258600Y-197556353D01*
X114397981Y-197649485D01*
X114516515Y-197768019D01*
X114609647Y-197907400D01*
X114673797Y-198062272D01*
X114706500Y-198226684D01*
X114706500Y-198394316D01*
X114673797Y-198558728D01*
X114609647Y-198713600D01*
X114516515Y-198852981D01*
X114397981Y-198971515D01*
X114258600Y-199064647D01*
X114103728Y-199128797D01*
X113939316Y-199161500D01*
X113771684Y-199161500D01*
X113607272Y-199128797D01*
X113452400Y-199064647D01*
X113313019Y-198971515D01*
X113194485Y-198852981D01*
X113101353Y-198713600D01*
X113037203Y-198558728D01*
X113004500Y-198394316D01*
X113004500Y-198226684D01*
X113037203Y-198062272D01*
X113101353Y-197907400D01*
X113194485Y-197768019D01*
X113313019Y-197649485D01*
X113452400Y-197556353D01*
X113607272Y-197492203D01*
X113771684Y-197459500D01*
X113939316Y-197459500D01*
X114103728Y-197492203D01*
X114103728Y-197492203D01*
G37*
G36*
X121642323Y-197471813D02*
G01*
X121802742Y-197520476D01*
X121869861Y-197556352D01*
X121950578Y-197599496D01*
X122080159Y-197705841D01*
X122186504Y-197835422D01*
X122186505Y-197835424D01*
X122265524Y-197983258D01*
X122314187Y-198143677D01*
X122330617Y-198310500D01*
X122314187Y-198477323D01*
X122265524Y-198637742D01*
X122224977Y-198713600D01*
X122186504Y-198785578D01*
X122080159Y-198915159D01*
X121950578Y-199021504D01*
X121950576Y-199021505D01*
X121802742Y-199100524D01*
X121642323Y-199149187D01*
X121517304Y-199161500D01*
X121433696Y-199161500D01*
X121308677Y-199149187D01*
X121148258Y-199100524D01*
X121000424Y-199021505D01*
X121000422Y-199021504D01*
X120870841Y-198915159D01*
X120764496Y-198785578D01*
X120726023Y-198713600D01*
X120685476Y-198637742D01*
X120636813Y-198477323D01*
X120620383Y-198310500D01*
X120636813Y-198143677D01*
X120685476Y-197983258D01*
X120764495Y-197835424D01*
X120764496Y-197835422D01*
X120870841Y-197705841D01*
X121000422Y-197599496D01*
X121081139Y-197556352D01*
X121148258Y-197520476D01*
X121308677Y-197471813D01*
X121433696Y-197459500D01*
X121517304Y-197459500D01*
X121642323Y-197471813D01*
X121642323Y-197471813D01*
G37*
G36*
X129777903Y-192027575D02*
G01*
X129839582Y-192053123D01*
X130005571Y-192121878D01*
X130210466Y-192258785D01*
X130384715Y-192433034D01*
X130521622Y-192637929D01*
X130615925Y-192865597D01*
X130664000Y-193107287D01*
X130664000Y-193353713D01*
X130615925Y-193595403D01*
X130521622Y-193823071D01*
X130384715Y-194027966D01*
X130210466Y-194202215D01*
X130005571Y-194339122D01*
X130005570Y-194339123D01*
X130005569Y-194339123D01*
X129777903Y-194433425D01*
X129536214Y-194481500D01*
X129289786Y-194481500D01*
X129048097Y-194433425D01*
X128820431Y-194339123D01*
X128820430Y-194339123D01*
X128820429Y-194339122D01*
X128615534Y-194202215D01*
X128441285Y-194027966D01*
X128304378Y-193823071D01*
X128210075Y-193595403D01*
X128162000Y-193353713D01*
X128162000Y-193107287D01*
X128210075Y-192865597D01*
X128304378Y-192637929D01*
X128441285Y-192433034D01*
X128615534Y-192258785D01*
X128820429Y-192121878D01*
X128986419Y-192053123D01*
X129048097Y-192027575D01*
X129289786Y-191979500D01*
X129536214Y-191979500D01*
X129777903Y-192027575D01*
X129777903Y-192027575D01*
G37*
G36*
X81070500Y-192322500D02*
G01*
X78568500Y-192322500D01*
X78568500Y-189820500D01*
X81070500Y-189820500D01*
X81070500Y-192322500D01*
X81070500Y-192322500D01*
G37*
G36*
X74940019Y-189835877D02*
G01*
X75104403Y-189868575D01*
X75332071Y-189962878D01*
X75536966Y-190099785D01*
X75711215Y-190274034D01*
X75848122Y-190478929D01*
X75848123Y-190478931D01*
X75942425Y-190706597D01*
X75990500Y-190948286D01*
X75990500Y-191194714D01*
X75973319Y-191281087D01*
X75942425Y-191436403D01*
X75848122Y-191664071D01*
X75711215Y-191868966D01*
X75536966Y-192043215D01*
X75332071Y-192180122D01*
X75332070Y-192180123D01*
X75332069Y-192180123D01*
X75104403Y-192274425D01*
X74862714Y-192322500D01*
X74616286Y-192322500D01*
X74374597Y-192274425D01*
X74146931Y-192180123D01*
X74146930Y-192180123D01*
X74146929Y-192180122D01*
X73942034Y-192043215D01*
X73767785Y-191868966D01*
X73630878Y-191664071D01*
X73536575Y-191436403D01*
X73505681Y-191281087D01*
X73488500Y-191194714D01*
X73488500Y-190948286D01*
X73536575Y-190706597D01*
X73630877Y-190478931D01*
X73630878Y-190478929D01*
X73767785Y-190274034D01*
X73942034Y-190099785D01*
X74146929Y-189962878D01*
X74374597Y-189868575D01*
X74538981Y-189835877D01*
X74616286Y-189820500D01*
X74862714Y-189820500D01*
X74940019Y-189835877D01*
X74940019Y-189835877D01*
G37*
G36*
X93963903Y-189741575D02*
G01*
X94154446Y-189820500D01*
X94191571Y-189835878D01*
X94396466Y-189972785D01*
X94570715Y-190147034D01*
X94630561Y-190236600D01*
X94707623Y-190351931D01*
X94801925Y-190579597D01*
X94850000Y-190821286D01*
X94850000Y-191067714D01*
X94824738Y-191194713D01*
X94801925Y-191309403D01*
X94707622Y-191537071D01*
X94570715Y-191741966D01*
X94396466Y-191916215D01*
X94191571Y-192053122D01*
X94191570Y-192053123D01*
X94191569Y-192053123D01*
X93963903Y-192147425D01*
X93722214Y-192195500D01*
X93475786Y-192195500D01*
X93234097Y-192147425D01*
X93006431Y-192053123D01*
X93006430Y-192053123D01*
X93006429Y-192053122D01*
X92801534Y-191916215D01*
X92627285Y-191741966D01*
X92490378Y-191537071D01*
X92396075Y-191309403D01*
X92373262Y-191194713D01*
X92348000Y-191067714D01*
X92348000Y-190821286D01*
X92396075Y-190579597D01*
X92490377Y-190351931D01*
X92567439Y-190236600D01*
X92627285Y-190147034D01*
X92801534Y-189972785D01*
X93006429Y-189835878D01*
X93043555Y-189820500D01*
X93234097Y-189741575D01*
X93475786Y-189693500D01*
X93722214Y-189693500D01*
X93963903Y-189741575D01*
X93963903Y-189741575D01*
G37*
G36*
X89770000Y-192195500D02*
G01*
X87268000Y-192195500D01*
X87268000Y-189693500D01*
X89770000Y-189693500D01*
X89770000Y-192195500D01*
X89770000Y-192195500D01*
G37*
G36*
X104993190Y-188805479D02*
G01*
X105121280Y-188830957D01*
X105362597Y-188930914D01*
X105388114Y-188947964D01*
X105579775Y-189076028D01*
X105764472Y-189260725D01*
X105810559Y-189329699D01*
X105909586Y-189477903D01*
X106009543Y-189719220D01*
X106060500Y-189975400D01*
X106060500Y-190236600D01*
X106009543Y-190492780D01*
X105997878Y-190520942D01*
X105909587Y-190734095D01*
X105766436Y-190948336D01*
X105764471Y-190951276D01*
X105579776Y-191135971D01*
X105362597Y-191281086D01*
X105121280Y-191381043D01*
X104993190Y-191406522D01*
X104865101Y-191432000D01*
X104603899Y-191432000D01*
X104475810Y-191406522D01*
X104347720Y-191381043D01*
X104106403Y-191281086D01*
X103889224Y-191135971D01*
X103704529Y-190951276D01*
X103702565Y-190948336D01*
X103559413Y-190734095D01*
X103471122Y-190520942D01*
X103459457Y-190492780D01*
X103408500Y-190236600D01*
X103408500Y-189975400D01*
X103459457Y-189719220D01*
X103559414Y-189477903D01*
X103658441Y-189329699D01*
X103704528Y-189260725D01*
X103889225Y-189076028D01*
X104080886Y-188947964D01*
X104106403Y-188930914D01*
X104347720Y-188830957D01*
X104475810Y-188805479D01*
X104603899Y-188780000D01*
X104865101Y-188780000D01*
X104993190Y-188805479D01*
X104993190Y-188805479D01*
G37*
G36*
X108905399Y-189246832D02*
G01*
X108990020Y-189263664D01*
X109149442Y-189329699D01*
X109292918Y-189425566D01*
X109414934Y-189547582D01*
X109510801Y-189691058D01*
X109576836Y-189850480D01*
X109610500Y-190019721D01*
X109610500Y-190192279D01*
X109576836Y-190361520D01*
X109510801Y-190520942D01*
X109414934Y-190664418D01*
X109292918Y-190786434D01*
X109149442Y-190882301D01*
X108990020Y-190948336D01*
X108820780Y-190982000D01*
X108648220Y-190982000D01*
X108478980Y-190948336D01*
X108319558Y-190882301D01*
X108176082Y-190786434D01*
X108054066Y-190664418D01*
X107958199Y-190520942D01*
X107892164Y-190361520D01*
X107858500Y-190192279D01*
X107858500Y-190019721D01*
X107892164Y-189850480D01*
X107958199Y-189691058D01*
X108054066Y-189547582D01*
X108176082Y-189425566D01*
X108319558Y-189329699D01*
X108478980Y-189263664D01*
X108563601Y-189246832D01*
X108648220Y-189230000D01*
X108820780Y-189230000D01*
X108905399Y-189246832D01*
X108905399Y-189246832D01*
G37*
G36*
X129777903Y-186947575D02*
G01*
X130005571Y-187041878D01*
X130210466Y-187178785D01*
X130384715Y-187353034D01*
X130521622Y-187557929D01*
X130615925Y-187785597D01*
X130664000Y-188027287D01*
X130664000Y-188273713D01*
X130615925Y-188515403D01*
X130521622Y-188743071D01*
X130384715Y-188947966D01*
X130210466Y-189122215D01*
X130005571Y-189259122D01*
X130005570Y-189259123D01*
X130005569Y-189259123D01*
X129777903Y-189353425D01*
X129536214Y-189401500D01*
X129289786Y-189401500D01*
X129048097Y-189353425D01*
X128820431Y-189259123D01*
X128820430Y-189259123D01*
X128820429Y-189259122D01*
X128615534Y-189122215D01*
X128441285Y-188947966D01*
X128304378Y-188743071D01*
X128210075Y-188515403D01*
X128162000Y-188273713D01*
X128162000Y-188027287D01*
X128210075Y-187785597D01*
X128304378Y-187557929D01*
X128441285Y-187353034D01*
X128615534Y-187178785D01*
X128820429Y-187041878D01*
X129048097Y-186947575D01*
X129289786Y-186899500D01*
X129536214Y-186899500D01*
X129777903Y-186947575D01*
X129777903Y-186947575D01*
G37*
G36*
X118460500Y-189032000D02*
G01*
X115808500Y-189032000D01*
X115808500Y-186380000D01*
X118460500Y-186380000D01*
X118460500Y-189032000D01*
X118460500Y-189032000D01*
G37*
G36*
X104993190Y-184005479D02*
G01*
X105121280Y-184030957D01*
X105362597Y-184130914D01*
X105471924Y-184203964D01*
X105579775Y-184276028D01*
X105764472Y-184460725D01*
X105810559Y-184529699D01*
X105909586Y-184677903D01*
X106009543Y-184919220D01*
X106060500Y-185175400D01*
X106060500Y-185436600D01*
X106009543Y-185692780D01*
X105997878Y-185720942D01*
X105909587Y-185934095D01*
X105766436Y-186148336D01*
X105764471Y-186151276D01*
X105579776Y-186335971D01*
X105362597Y-186481086D01*
X105121280Y-186581043D01*
X104993190Y-186606522D01*
X104865101Y-186632000D01*
X104603899Y-186632000D01*
X104475810Y-186606522D01*
X104347720Y-186581043D01*
X104106403Y-186481086D01*
X103889224Y-186335971D01*
X103704529Y-186151276D01*
X103702565Y-186148336D01*
X103559413Y-185934095D01*
X103471122Y-185720942D01*
X103459457Y-185692780D01*
X103408500Y-185436600D01*
X103408500Y-185175400D01*
X103459457Y-184919220D01*
X103559414Y-184677903D01*
X103658441Y-184529699D01*
X103704528Y-184460725D01*
X103889225Y-184276028D01*
X103997076Y-184203964D01*
X104106403Y-184130914D01*
X104347720Y-184030957D01*
X104475810Y-184005479D01*
X104603899Y-183980000D01*
X104865101Y-183980000D01*
X104993190Y-184005479D01*
X104993190Y-184005479D01*
G37*
G36*
X108905399Y-184446832D02*
G01*
X108990020Y-184463664D01*
X109149442Y-184529699D01*
X109292918Y-184625566D01*
X109414934Y-184747582D01*
X109510801Y-184891058D01*
X109576836Y-185050480D01*
X109610500Y-185219721D01*
X109610500Y-185392279D01*
X109576836Y-185561520D01*
X109510801Y-185720942D01*
X109414934Y-185864418D01*
X109292918Y-185986434D01*
X109149442Y-186082301D01*
X108990020Y-186148336D01*
X108905399Y-186165168D01*
X108820780Y-186182000D01*
X108648220Y-186182000D01*
X108563601Y-186165168D01*
X108478980Y-186148336D01*
X108319558Y-186082301D01*
X108176082Y-185986434D01*
X108054066Y-185864418D01*
X107958199Y-185720942D01*
X107892164Y-185561520D01*
X107858500Y-185392279D01*
X107858500Y-185219721D01*
X107892164Y-185050480D01*
X107958199Y-184891058D01*
X108054066Y-184747582D01*
X108176082Y-184625566D01*
X108319558Y-184529699D01*
X108478980Y-184463664D01*
X108563601Y-184446832D01*
X108648220Y-184430000D01*
X108820780Y-184430000D01*
X108905399Y-184446832D01*
X108905399Y-184446832D01*
G37*
G36*
X129777903Y-181867575D02*
G01*
X130005571Y-181961878D01*
X130210466Y-182098785D01*
X130384715Y-182273034D01*
X130521622Y-182477929D01*
X130615925Y-182705597D01*
X130664000Y-182947287D01*
X130664000Y-183193713D01*
X130615925Y-183435403D01*
X130521622Y-183663071D01*
X130384715Y-183867966D01*
X130210466Y-184042215D01*
X130005571Y-184179122D01*
X130005570Y-184179123D01*
X130005569Y-184179123D01*
X129777903Y-184273425D01*
X129536214Y-184321500D01*
X129289786Y-184321500D01*
X129048097Y-184273425D01*
X128820431Y-184179123D01*
X128820430Y-184179123D01*
X128820429Y-184179122D01*
X128615534Y-184042215D01*
X128441285Y-183867966D01*
X128304378Y-183663071D01*
X128210075Y-183435403D01*
X128162000Y-183193713D01*
X128162000Y-182947287D01*
X128210075Y-182705597D01*
X128304378Y-182477929D01*
X128441285Y-182273034D01*
X128615534Y-182098785D01*
X128820429Y-181961878D01*
X129048097Y-181867575D01*
X129289786Y-181819500D01*
X129536214Y-181819500D01*
X129777903Y-181867575D01*
X129777903Y-181867575D01*
G37*
G36*
X94596690Y-178264478D02*
G01*
X94724780Y-178289957D01*
X94966097Y-178389914D01*
X95075424Y-178462964D01*
X95183275Y-178535028D01*
X95367972Y-178719725D01*
X95409330Y-178781622D01*
X95513086Y-178936903D01*
X95613043Y-179178220D01*
X95664000Y-179434400D01*
X95664000Y-179695600D01*
X95613043Y-179951780D01*
X95601378Y-179979942D01*
X95513087Y-180193095D01*
X95369936Y-180407336D01*
X95367971Y-180410276D01*
X95183276Y-180594971D01*
X94966097Y-180740086D01*
X94724780Y-180840043D01*
X94596690Y-180865522D01*
X94468601Y-180891000D01*
X94207399Y-180891000D01*
X94079310Y-180865522D01*
X93951220Y-180840043D01*
X93709903Y-180740086D01*
X93492724Y-180594971D01*
X93308029Y-180410276D01*
X93306065Y-180407336D01*
X93162913Y-180193095D01*
X93074622Y-179979942D01*
X93062957Y-179951780D01*
X93012000Y-179695600D01*
X93012000Y-179434400D01*
X93062957Y-179178220D01*
X93162914Y-178936903D01*
X93266670Y-178781622D01*
X93308028Y-178719725D01*
X93492725Y-178535028D01*
X93600576Y-178462964D01*
X93709903Y-178389914D01*
X93951220Y-178289957D01*
X94079310Y-178264478D01*
X94207399Y-178239000D01*
X94468601Y-178239000D01*
X94596690Y-178264478D01*
X94596690Y-178264478D01*
G37*
G36*
X90508899Y-178705832D02*
G01*
X90593520Y-178722664D01*
X90752942Y-178788699D01*
X90896418Y-178884566D01*
X91018434Y-179006582D01*
X91114301Y-179150058D01*
X91180336Y-179309480D01*
X91214000Y-179478721D01*
X91214000Y-179651279D01*
X91180336Y-179820520D01*
X91114301Y-179979942D01*
X91018434Y-180123418D01*
X90896418Y-180245434D01*
X90752942Y-180341301D01*
X90593520Y-180407336D01*
X90508899Y-180424168D01*
X90424280Y-180441000D01*
X90251720Y-180441000D01*
X90167101Y-180424168D01*
X90082480Y-180407336D01*
X89923058Y-180341301D01*
X89779582Y-180245434D01*
X89657566Y-180123418D01*
X89561699Y-179979942D01*
X89495664Y-179820520D01*
X89462000Y-179651279D01*
X89462000Y-179478721D01*
X89495664Y-179309480D01*
X89561699Y-179150058D01*
X89657566Y-179006582D01*
X89779582Y-178884566D01*
X89923058Y-178788699D01*
X90082480Y-178722664D01*
X90167101Y-178705832D01*
X90251720Y-178689000D01*
X90424280Y-178689000D01*
X90508899Y-178705832D01*
X90508899Y-178705832D01*
G37*
G36*
X73834403Y-176470075D02*
G01*
X74062071Y-176564378D01*
X74266966Y-176701285D01*
X74441215Y-176875534D01*
X74441216Y-176875536D01*
X74578123Y-177080431D01*
X74672425Y-177308097D01*
X74715968Y-177527000D01*
X74720500Y-177549787D01*
X74720500Y-177796213D01*
X74672425Y-178037903D01*
X74578122Y-178265571D01*
X74441215Y-178470466D01*
X74266966Y-178644715D01*
X74062071Y-178781622D01*
X74062070Y-178781623D01*
X74062069Y-178781623D01*
X73834403Y-178875925D01*
X73592714Y-178924000D01*
X73346286Y-178924000D01*
X73104597Y-178875925D01*
X72876931Y-178781623D01*
X72876930Y-178781623D01*
X72876929Y-178781622D01*
X72672034Y-178644715D01*
X72497785Y-178470466D01*
X72360878Y-178265571D01*
X72266575Y-178037903D01*
X72218500Y-177796213D01*
X72218500Y-177549787D01*
X72223033Y-177527000D01*
X72266575Y-177308097D01*
X72360877Y-177080431D01*
X72497784Y-176875536D01*
X72497785Y-176875534D01*
X72672034Y-176701285D01*
X72876929Y-176564378D01*
X73104597Y-176470075D01*
X73346286Y-176422000D01*
X73592714Y-176422000D01*
X73834403Y-176470075D01*
X73834403Y-176470075D01*
G37*
G36*
X83264000Y-178491000D02*
G01*
X80612000Y-178491000D01*
X80612000Y-175839000D01*
X83264000Y-175839000D01*
X83264000Y-178491000D01*
X83264000Y-178491000D01*
G37*
G36*
X129269903Y-175073075D02*
G01*
X129497571Y-175167378D01*
X129702466Y-175304285D01*
X129876715Y-175478534D01*
X130013622Y-175683429D01*
X130013623Y-175683431D01*
X130107925Y-175911097D01*
X130156000Y-176152786D01*
X130156000Y-176399214D01*
X130141905Y-176470075D01*
X130107925Y-176640903D01*
X130013622Y-176868571D01*
X129876715Y-177073466D01*
X129702466Y-177247715D01*
X129497571Y-177384622D01*
X129497570Y-177384623D01*
X129497569Y-177384623D01*
X129269903Y-177478925D01*
X129028214Y-177527000D01*
X128781786Y-177527000D01*
X128540097Y-177478925D01*
X128312431Y-177384623D01*
X128312430Y-177384623D01*
X128312429Y-177384622D01*
X128107534Y-177247715D01*
X127933285Y-177073466D01*
X127796378Y-176868571D01*
X127702075Y-176640903D01*
X127668095Y-176470075D01*
X127654000Y-176399214D01*
X127654000Y-176152786D01*
X127702075Y-175911097D01*
X127796377Y-175683431D01*
X127796378Y-175683429D01*
X127933285Y-175478534D01*
X128107534Y-175304285D01*
X128312429Y-175167378D01*
X128540097Y-175073075D01*
X128781786Y-175025000D01*
X129028214Y-175025000D01*
X129269903Y-175073075D01*
X129269903Y-175073075D01*
G37*
G36*
X94528597Y-173450934D02*
G01*
X94724780Y-173489957D01*
X94966097Y-173589914D01*
X95075424Y-173662964D01*
X95183275Y-173735028D01*
X95367972Y-173919725D01*
X95385252Y-173945586D01*
X95513086Y-174136903D01*
X95613043Y-174378220D01*
X95664000Y-174634400D01*
X95664000Y-174895600D01*
X95613043Y-175151780D01*
X95513086Y-175393097D01*
X95455997Y-175478536D01*
X95369936Y-175607336D01*
X95367971Y-175610276D01*
X95183276Y-175794971D01*
X94966097Y-175940086D01*
X94724780Y-176040043D01*
X94596690Y-176065522D01*
X94468601Y-176091000D01*
X94207399Y-176091000D01*
X94079310Y-176065522D01*
X93951220Y-176040043D01*
X93709903Y-175940086D01*
X93492724Y-175794971D01*
X93308029Y-175610276D01*
X93306065Y-175607336D01*
X93220003Y-175478536D01*
X93162914Y-175393097D01*
X93062957Y-175151780D01*
X93012000Y-174895600D01*
X93012000Y-174634400D01*
X93062957Y-174378220D01*
X93162914Y-174136903D01*
X93290748Y-173945586D01*
X93308028Y-173919725D01*
X93492725Y-173735028D01*
X93600576Y-173662964D01*
X93709903Y-173589914D01*
X93951220Y-173489957D01*
X94147403Y-173450934D01*
X94207399Y-173439000D01*
X94468601Y-173439000D01*
X94528597Y-173450934D01*
X94528597Y-173450934D01*
G37*
G36*
X90508899Y-173905832D02*
G01*
X90593520Y-173922664D01*
X90752942Y-173988699D01*
X90896418Y-174084566D01*
X91018434Y-174206582D01*
X91114301Y-174350058D01*
X91180336Y-174509480D01*
X91214000Y-174678721D01*
X91214000Y-174851279D01*
X91180336Y-175020520D01*
X91114301Y-175179942D01*
X91018434Y-175323418D01*
X90896418Y-175445434D01*
X90752942Y-175541301D01*
X90593520Y-175607336D01*
X90508899Y-175624168D01*
X90424280Y-175641000D01*
X90251720Y-175641000D01*
X90167101Y-175624168D01*
X90082480Y-175607336D01*
X89923058Y-175541301D01*
X89779582Y-175445434D01*
X89657566Y-175323418D01*
X89561699Y-175179942D01*
X89495664Y-175020520D01*
X89462000Y-174851279D01*
X89462000Y-174678721D01*
X89495664Y-174509480D01*
X89561699Y-174350058D01*
X89657566Y-174206582D01*
X89779582Y-174084566D01*
X89923058Y-173988699D01*
X90082480Y-173922664D01*
X90167101Y-173905832D01*
X90251720Y-173889000D01*
X90424280Y-173889000D01*
X90508899Y-173905832D01*
X90508899Y-173905832D01*
G37*
G36*
X105501190Y-171469978D02*
G01*
X105629280Y-171495457D01*
X105870597Y-171595414D01*
X105979924Y-171668464D01*
X106087775Y-171740528D01*
X106272472Y-171925225D01*
X106318068Y-171993464D01*
X106417586Y-172142403D01*
X106517543Y-172383720D01*
X106568500Y-172639900D01*
X106568500Y-172901100D01*
X106517543Y-173157280D01*
X106505878Y-173185442D01*
X106417587Y-173398595D01*
X106274436Y-173612836D01*
X106272471Y-173615776D01*
X106087776Y-173800471D01*
X105870597Y-173945586D01*
X105629280Y-174045543D01*
X105501190Y-174071021D01*
X105373101Y-174096500D01*
X105111899Y-174096500D01*
X104983810Y-174071021D01*
X104855720Y-174045543D01*
X104614403Y-173945586D01*
X104397224Y-173800471D01*
X104212529Y-173615776D01*
X104210565Y-173612836D01*
X104067413Y-173398595D01*
X103979122Y-173185442D01*
X103967457Y-173157280D01*
X103916500Y-172901100D01*
X103916500Y-172639900D01*
X103967457Y-172383720D01*
X104067414Y-172142403D01*
X104166932Y-171993464D01*
X104212528Y-171925225D01*
X104397225Y-171740528D01*
X104505076Y-171668464D01*
X104614403Y-171595414D01*
X104855720Y-171495457D01*
X104983810Y-171469978D01*
X105111899Y-171444500D01*
X105373101Y-171444500D01*
X105501190Y-171469978D01*
X105501190Y-171469978D01*
G37*
G36*
X74720500Y-173844000D02*
G01*
X72218500Y-173844000D01*
X72218500Y-171342000D01*
X74720500Y-171342000D01*
X74720500Y-173844000D01*
X74720500Y-173844000D01*
G37*
G36*
X109413399Y-171911332D02*
G01*
X109498020Y-171928164D01*
X109657442Y-171994199D01*
X109800918Y-172090066D01*
X109922934Y-172212082D01*
X110018801Y-172355558D01*
X110084836Y-172514980D01*
X110118500Y-172684221D01*
X110118500Y-172856779D01*
X110084836Y-173026020D01*
X110018801Y-173185442D01*
X109922934Y-173328918D01*
X109800918Y-173450934D01*
X109657442Y-173546801D01*
X109498020Y-173612836D01*
X109328780Y-173646500D01*
X109156220Y-173646500D01*
X108986980Y-173612836D01*
X108827558Y-173546801D01*
X108684082Y-173450934D01*
X108562066Y-173328918D01*
X108466199Y-173185442D01*
X108400164Y-173026020D01*
X108366500Y-172856779D01*
X108366500Y-172684221D01*
X108400164Y-172514980D01*
X108466199Y-172355558D01*
X108562066Y-172212082D01*
X108684082Y-172090066D01*
X108827558Y-171994199D01*
X108986980Y-171928164D01*
X109071601Y-171911332D01*
X109156220Y-171894500D01*
X109328780Y-171894500D01*
X109413399Y-171911332D01*
X109413399Y-171911332D01*
G37*
G36*
X129269903Y-169993075D02*
G01*
X129497571Y-170087378D01*
X129702466Y-170224285D01*
X129876715Y-170398534D01*
X129876716Y-170398536D01*
X130013623Y-170603431D01*
X130107925Y-170831097D01*
X130156000Y-171072786D01*
X130156000Y-171319214D01*
X130131079Y-171444500D01*
X130107925Y-171560903D01*
X130013622Y-171788571D01*
X129876715Y-171993466D01*
X129702466Y-172167715D01*
X129497571Y-172304622D01*
X129497570Y-172304623D01*
X129497569Y-172304623D01*
X129269903Y-172398925D01*
X129028214Y-172447000D01*
X128781786Y-172447000D01*
X128540097Y-172398925D01*
X128312431Y-172304623D01*
X128312430Y-172304623D01*
X128312429Y-172304622D01*
X128107534Y-172167715D01*
X127933285Y-171993466D01*
X127796378Y-171788571D01*
X127702075Y-171560903D01*
X127678921Y-171444500D01*
X127654000Y-171319214D01*
X127654000Y-171072786D01*
X127702075Y-170831097D01*
X127796377Y-170603431D01*
X127933284Y-170398536D01*
X127933285Y-170398534D01*
X128107534Y-170224285D01*
X128312429Y-170087378D01*
X128540097Y-169993075D01*
X128781786Y-169945000D01*
X129028214Y-169945000D01*
X129269903Y-169993075D01*
X129269903Y-169993075D01*
G37*
G36*
X118968500Y-171696500D02*
G01*
X116316500Y-171696500D01*
X116316500Y-169044500D01*
X118968500Y-169044500D01*
X118968500Y-171696500D01*
X118968500Y-171696500D01*
G37*
G36*
X105501190Y-166669978D02*
G01*
X105629280Y-166695457D01*
X105870597Y-166795414D01*
X105979924Y-166868464D01*
X106087775Y-166940528D01*
X106272472Y-167125225D01*
X106417587Y-167342405D01*
X106446448Y-167412082D01*
X106517543Y-167583720D01*
X106568500Y-167839900D01*
X106568500Y-168101100D01*
X106517543Y-168357280D01*
X106505878Y-168385442D01*
X106417587Y-168598595D01*
X106274436Y-168812836D01*
X106272471Y-168815776D01*
X106087776Y-169000471D01*
X105870597Y-169145586D01*
X105629280Y-169245543D01*
X105501190Y-169271022D01*
X105373101Y-169296500D01*
X105111899Y-169296500D01*
X104983810Y-169271022D01*
X104855720Y-169245543D01*
X104614403Y-169145586D01*
X104397224Y-169000471D01*
X104212529Y-168815776D01*
X104210565Y-168812836D01*
X104067413Y-168598595D01*
X103979122Y-168385442D01*
X103967457Y-168357280D01*
X103916500Y-168101100D01*
X103916500Y-167839900D01*
X103967457Y-167583720D01*
X104038552Y-167412082D01*
X104067413Y-167342405D01*
X104212528Y-167125225D01*
X104397225Y-166940528D01*
X104505076Y-166868464D01*
X104614403Y-166795414D01*
X104855720Y-166695457D01*
X104983810Y-166669978D01*
X105111899Y-166644500D01*
X105373101Y-166644500D01*
X105501190Y-166669978D01*
X105501190Y-166669978D01*
G37*
G36*
X109413399Y-167111332D02*
G01*
X109498020Y-167128164D01*
X109657442Y-167194199D01*
X109800918Y-167290066D01*
X109922934Y-167412082D01*
X110018801Y-167555558D01*
X110084836Y-167714980D01*
X110118500Y-167884221D01*
X110118500Y-168056779D01*
X110084836Y-168226020D01*
X110018801Y-168385442D01*
X109922934Y-168528918D01*
X109800918Y-168650934D01*
X109657442Y-168746801D01*
X109498020Y-168812836D01*
X109413399Y-168829668D01*
X109328780Y-168846500D01*
X109156220Y-168846500D01*
X109071601Y-168829668D01*
X108986980Y-168812836D01*
X108827558Y-168746801D01*
X108684082Y-168650934D01*
X108562066Y-168528918D01*
X108466199Y-168385442D01*
X108400164Y-168226020D01*
X108366500Y-168056779D01*
X108366500Y-167884221D01*
X108400164Y-167714980D01*
X108466199Y-167555558D01*
X108562066Y-167412082D01*
X108684082Y-167290066D01*
X108827558Y-167194199D01*
X108986980Y-167128164D01*
X109071601Y-167111332D01*
X109156220Y-167094500D01*
X109328780Y-167094500D01*
X109413399Y-167111332D01*
X109413399Y-167111332D01*
G37*
G36*
X129269903Y-164913075D02*
G01*
X129497571Y-165007378D01*
X129702466Y-165144285D01*
X129876715Y-165318534D01*
X130013622Y-165523429D01*
X130107925Y-165751097D01*
X130156000Y-165992787D01*
X130156000Y-166239213D01*
X130107925Y-166480903D01*
X130013622Y-166708571D01*
X129876715Y-166913466D01*
X129702466Y-167087715D01*
X129497571Y-167224622D01*
X129497570Y-167224623D01*
X129497569Y-167224623D01*
X129269903Y-167318925D01*
X129028214Y-167367000D01*
X128781786Y-167367000D01*
X128540097Y-167318925D01*
X128312431Y-167224623D01*
X128312430Y-167224623D01*
X128312429Y-167224622D01*
X128107534Y-167087715D01*
X127933285Y-166913466D01*
X127796378Y-166708571D01*
X127702075Y-166480903D01*
X127654000Y-166239213D01*
X127654000Y-165992787D01*
X127702075Y-165751097D01*
X127796378Y-165523429D01*
X127933285Y-165318534D01*
X128107534Y-165144285D01*
X128312429Y-165007378D01*
X128540097Y-164913075D01*
X128781786Y-164865000D01*
X129028214Y-164865000D01*
X129269903Y-164913075D01*
X129269903Y-164913075D01*
G37*
G36*
X98977500Y-164128500D02*
G01*
X96475500Y-164128500D01*
X96475500Y-161626500D01*
X98977500Y-161626500D01*
X98977500Y-164128500D01*
X98977500Y-164128500D01*
G37*
G36*
X112706728Y-161868703D02*
G01*
X112861600Y-161932853D01*
X113000981Y-162025985D01*
X113119515Y-162144519D01*
X113212647Y-162283900D01*
X113276797Y-162438772D01*
X113309500Y-162603184D01*
X113309500Y-162770816D01*
X113276797Y-162935228D01*
X113212647Y-163090100D01*
X113119515Y-163229481D01*
X113000981Y-163348015D01*
X112861600Y-163441147D01*
X112706728Y-163505297D01*
X112542316Y-163538000D01*
X112374684Y-163538000D01*
X112210272Y-163505297D01*
X112055400Y-163441147D01*
X111916019Y-163348015D01*
X111797485Y-163229481D01*
X111704353Y-163090100D01*
X111640203Y-162935228D01*
X111607500Y-162770816D01*
X111607500Y-162603184D01*
X111640203Y-162438772D01*
X111704353Y-162283900D01*
X111797485Y-162144519D01*
X111916019Y-162025985D01*
X112055400Y-161932853D01*
X112210272Y-161868703D01*
X112374684Y-161836000D01*
X112542316Y-161836000D01*
X112706728Y-161868703D01*
X112706728Y-161868703D01*
G37*
G36*
X120245323Y-161848313D02*
G01*
X120405742Y-161896976D01*
X120472861Y-161932852D01*
X120553578Y-161975996D01*
X120683159Y-162082341D01*
X120789504Y-162211922D01*
X120789505Y-162211924D01*
X120868524Y-162359758D01*
X120917187Y-162520177D01*
X120933617Y-162687000D01*
X120917187Y-162853823D01*
X120868524Y-163014242D01*
X120827977Y-163090100D01*
X120789504Y-163162078D01*
X120683159Y-163291659D01*
X120553578Y-163398004D01*
X120553576Y-163398005D01*
X120405742Y-163477024D01*
X120245323Y-163525687D01*
X120120304Y-163538000D01*
X120036696Y-163538000D01*
X119911677Y-163525687D01*
X119751258Y-163477024D01*
X119603424Y-163398005D01*
X119603422Y-163398004D01*
X119473841Y-163291659D01*
X119367496Y-163162078D01*
X119329023Y-163090100D01*
X119288476Y-163014242D01*
X119239813Y-162853823D01*
X119223383Y-162687000D01*
X119239813Y-162520177D01*
X119288476Y-162359758D01*
X119367495Y-162211924D01*
X119367496Y-162211922D01*
X119473841Y-162082341D01*
X119603422Y-161975996D01*
X119684139Y-161932852D01*
X119751258Y-161896976D01*
X119911677Y-161848313D01*
X120036696Y-161836000D01*
X120120304Y-161836000D01*
X120245323Y-161848313D01*
X120245323Y-161848313D01*
G37*
G36*
X130156000Y-162287000D02*
G01*
X127654000Y-162287000D01*
X127654000Y-159785000D01*
X130156000Y-159785000D01*
X130156000Y-162287000D01*
X130156000Y-162287000D01*
G37*
G36*
X98091403Y-156594575D02*
G01*
X98319071Y-156688878D01*
X98523966Y-156825785D01*
X98698215Y-157000034D01*
X98835122Y-157204929D01*
X98929425Y-157432597D01*
X98977500Y-157674287D01*
X98977500Y-157920713D01*
X98929425Y-158162403D01*
X98835122Y-158390071D01*
X98698215Y-158594966D01*
X98523966Y-158769215D01*
X98319071Y-158906122D01*
X98319070Y-158906123D01*
X98319069Y-158906123D01*
X98091403Y-159000425D01*
X97849714Y-159048500D01*
X97603286Y-159048500D01*
X97361597Y-159000425D01*
X97133931Y-158906123D01*
X97133930Y-158906123D01*
X97133929Y-158906122D01*
X96929034Y-158769215D01*
X96754785Y-158594966D01*
X96617878Y-158390071D01*
X96523575Y-158162403D01*
X96475500Y-157920713D01*
X96475500Y-157674287D01*
X96523575Y-157432597D01*
X96617878Y-157204929D01*
X96754785Y-157000034D01*
X96929034Y-156825785D01*
X97133929Y-156688878D01*
X97361597Y-156594575D01*
X97603286Y-156546500D01*
X97849714Y-156546500D01*
X98091403Y-156594575D01*
X98091403Y-156594575D01*
G37*
G36*
X112770228Y-154058203D02*
G01*
X112925100Y-154122353D01*
X113064481Y-154215485D01*
X113183015Y-154334019D01*
X113276147Y-154473400D01*
X113340297Y-154628272D01*
X113373000Y-154792684D01*
X113373000Y-154960316D01*
X113340297Y-155124728D01*
X113276147Y-155279600D01*
X113183015Y-155418981D01*
X113064481Y-155537515D01*
X112925100Y-155630647D01*
X112770228Y-155694797D01*
X112605816Y-155727500D01*
X112438184Y-155727500D01*
X112273772Y-155694797D01*
X112118900Y-155630647D01*
X111979519Y-155537515D01*
X111860985Y-155418981D01*
X111767853Y-155279600D01*
X111703703Y-155124728D01*
X111671000Y-154960316D01*
X111671000Y-154792684D01*
X111703703Y-154628272D01*
X111767853Y-154473400D01*
X111860985Y-154334019D01*
X111979519Y-154215485D01*
X112118900Y-154122353D01*
X112273772Y-154058203D01*
X112438184Y-154025500D01*
X112605816Y-154025500D01*
X112770228Y-154058203D01*
X112770228Y-154058203D01*
G37*
G36*
X120308823Y-154037813D02*
G01*
X120469242Y-154086476D01*
X120536361Y-154122352D01*
X120617078Y-154165496D01*
X120746659Y-154271841D01*
X120853004Y-154401422D01*
X120853005Y-154401424D01*
X120932024Y-154549258D01*
X120980687Y-154709677D01*
X120997117Y-154876500D01*
X120980687Y-155043323D01*
X120932024Y-155203742D01*
X120891477Y-155279600D01*
X120853004Y-155351578D01*
X120746659Y-155481159D01*
X120617078Y-155587504D01*
X120617076Y-155587505D01*
X120469242Y-155666524D01*
X120308823Y-155715187D01*
X120183804Y-155727500D01*
X120100196Y-155727500D01*
X119975177Y-155715187D01*
X119814758Y-155666524D01*
X119666924Y-155587505D01*
X119666922Y-155587504D01*
X119537341Y-155481159D01*
X119430996Y-155351578D01*
X119392523Y-155279600D01*
X119351976Y-155203742D01*
X119303313Y-155043323D01*
X119286883Y-154876500D01*
X119303313Y-154709677D01*
X119351976Y-154549258D01*
X119430995Y-154401424D01*
X119430996Y-154401422D01*
X119537341Y-154271841D01*
X119666922Y-154165496D01*
X119747639Y-154122352D01*
X119814758Y-154086476D01*
X119975177Y-154037813D01*
X120100196Y-154025500D01*
X120183804Y-154025500D01*
X120308823Y-154037813D01*
X120308823Y-154037813D01*
G37*
G36*
X130664000Y-155111500D02*
G01*
X128162000Y-155111500D01*
X128162000Y-152609500D01*
X130664000Y-152609500D01*
X130664000Y-155111500D01*
X130664000Y-155111500D01*
G37*
G36*
X106644190Y-150324478D02*
G01*
X106772280Y-150349957D01*
X107013597Y-150449914D01*
X107122924Y-150522964D01*
X107230775Y-150595028D01*
X107415472Y-150779725D01*
X107461559Y-150848699D01*
X107560586Y-150996903D01*
X107660543Y-151238220D01*
X107711500Y-151494400D01*
X107711500Y-151755600D01*
X107660543Y-152011780D01*
X107648878Y-152039942D01*
X107560587Y-152253095D01*
X107417436Y-152467336D01*
X107415471Y-152470276D01*
X107230776Y-152654971D01*
X107013597Y-152800086D01*
X106772280Y-152900043D01*
X106644190Y-152925522D01*
X106516101Y-152951000D01*
X106254899Y-152951000D01*
X106126810Y-152925522D01*
X105998720Y-152900043D01*
X105757403Y-152800086D01*
X105540224Y-152654971D01*
X105355529Y-152470276D01*
X105353565Y-152467336D01*
X105210413Y-152253095D01*
X105122122Y-152039942D01*
X105110457Y-152011780D01*
X105059500Y-151755600D01*
X105059500Y-151494400D01*
X105110457Y-151238220D01*
X105210414Y-150996903D01*
X105309441Y-150848699D01*
X105355528Y-150779725D01*
X105540225Y-150595028D01*
X105648076Y-150522964D01*
X105757403Y-150449914D01*
X105998720Y-150349957D01*
X106126810Y-150324478D01*
X106254899Y-150299000D01*
X106516101Y-150299000D01*
X106644190Y-150324478D01*
X106644190Y-150324478D01*
G37*
G36*
X110556399Y-150765832D02*
G01*
X110641020Y-150782664D01*
X110800442Y-150848699D01*
X110943918Y-150944566D01*
X111065934Y-151066582D01*
X111161801Y-151210058D01*
X111227836Y-151369480D01*
X111261500Y-151538721D01*
X111261500Y-151711279D01*
X111227836Y-151880520D01*
X111161801Y-152039942D01*
X111065934Y-152183418D01*
X110943918Y-152305434D01*
X110800442Y-152401301D01*
X110641020Y-152467336D01*
X110471780Y-152501000D01*
X110299220Y-152501000D01*
X110129980Y-152467336D01*
X109970558Y-152401301D01*
X109827082Y-152305434D01*
X109705066Y-152183418D01*
X109609199Y-152039942D01*
X109543164Y-151880520D01*
X109509500Y-151711279D01*
X109509500Y-151538721D01*
X109543164Y-151369480D01*
X109609199Y-151210058D01*
X109705066Y-151066582D01*
X109827082Y-150944566D01*
X109970558Y-150848699D01*
X110129980Y-150782664D01*
X110214601Y-150765832D01*
X110299220Y-150749000D01*
X110471780Y-150749000D01*
X110556399Y-150765832D01*
X110556399Y-150765832D01*
G37*
G36*
X120111500Y-150551000D02*
G01*
X117459500Y-150551000D01*
X117459500Y-147899000D01*
X120111500Y-147899000D01*
X120111500Y-150551000D01*
X120111500Y-150551000D01*
G37*
G36*
X129777903Y-147577575D02*
G01*
X130001704Y-147670276D01*
X130005571Y-147671878D01*
X130210466Y-147808785D01*
X130384715Y-147983034D01*
X130521622Y-148187929D01*
X130615925Y-148415597D01*
X130664000Y-148657287D01*
X130664000Y-148903713D01*
X130615925Y-149145403D01*
X130521622Y-149373071D01*
X130384715Y-149577966D01*
X130210466Y-149752215D01*
X130005571Y-149889122D01*
X130005570Y-149889123D01*
X130005569Y-149889123D01*
X129777903Y-149983425D01*
X129536214Y-150031500D01*
X129289786Y-150031500D01*
X129048097Y-149983425D01*
X128820431Y-149889123D01*
X128820430Y-149889123D01*
X128820429Y-149889122D01*
X128615534Y-149752215D01*
X128441285Y-149577966D01*
X128304378Y-149373071D01*
X128210075Y-149145403D01*
X128162000Y-148903713D01*
X128162000Y-148657287D01*
X128210075Y-148415597D01*
X128304378Y-148187929D01*
X128441285Y-147983034D01*
X128615534Y-147808785D01*
X128820429Y-147671878D01*
X128824297Y-147670276D01*
X129048097Y-147577575D01*
X129289786Y-147529500D01*
X129536214Y-147529500D01*
X129777903Y-147577575D01*
X129777903Y-147577575D01*
G37*
G36*
X106644190Y-145524479D02*
G01*
X106772280Y-145549957D01*
X107013597Y-145649914D01*
X107122924Y-145722964D01*
X107230775Y-145795028D01*
X107415472Y-145979725D01*
X107461559Y-146048699D01*
X107560586Y-146196903D01*
X107660543Y-146438220D01*
X107711500Y-146694400D01*
X107711500Y-146955600D01*
X107660543Y-147211780D01*
X107648878Y-147239942D01*
X107560587Y-147453095D01*
X107417436Y-147667336D01*
X107415471Y-147670276D01*
X107230776Y-147854971D01*
X107013597Y-148000086D01*
X106772280Y-148100043D01*
X106644190Y-148125521D01*
X106516101Y-148151000D01*
X106254899Y-148151000D01*
X106126810Y-148125521D01*
X105998720Y-148100043D01*
X105757403Y-148000086D01*
X105540224Y-147854971D01*
X105355529Y-147670276D01*
X105353565Y-147667336D01*
X105210413Y-147453095D01*
X105122122Y-147239942D01*
X105110457Y-147211780D01*
X105059500Y-146955600D01*
X105059500Y-146694400D01*
X105110457Y-146438220D01*
X105210414Y-146196903D01*
X105309441Y-146048699D01*
X105355528Y-145979725D01*
X105540225Y-145795028D01*
X105648076Y-145722964D01*
X105757403Y-145649914D01*
X105998720Y-145549957D01*
X106126810Y-145524479D01*
X106254899Y-145499000D01*
X106516101Y-145499000D01*
X106644190Y-145524479D01*
X106644190Y-145524479D01*
G37*
G36*
X110556399Y-145965832D02*
G01*
X110641020Y-145982664D01*
X110800442Y-146048699D01*
X110943918Y-146144566D01*
X111065934Y-146266582D01*
X111161801Y-146410058D01*
X111227836Y-146569480D01*
X111261500Y-146738721D01*
X111261500Y-146911279D01*
X111227836Y-147080520D01*
X111161801Y-147239942D01*
X111065934Y-147383418D01*
X110943918Y-147505434D01*
X110800442Y-147601301D01*
X110641020Y-147667336D01*
X110556399Y-147684168D01*
X110471780Y-147701000D01*
X110299220Y-147701000D01*
X110214601Y-147684168D01*
X110129980Y-147667336D01*
X109970558Y-147601301D01*
X109827082Y-147505434D01*
X109705066Y-147383418D01*
X109609199Y-147239942D01*
X109543164Y-147080520D01*
X109509500Y-146911279D01*
X109509500Y-146738721D01*
X109543164Y-146569480D01*
X109609199Y-146410058D01*
X109705066Y-146266582D01*
X109827082Y-146144566D01*
X109970558Y-146048699D01*
X110129980Y-145982664D01*
X110214601Y-145965832D01*
X110299220Y-145949000D01*
X110471780Y-145949000D01*
X110556399Y-145965832D01*
X110556399Y-145965832D01*
G37*
G36*
X129777903Y-142497575D02*
G01*
X130005571Y-142591878D01*
X130210466Y-142728785D01*
X130384715Y-142903034D01*
X130521622Y-143107929D01*
X130615925Y-143335597D01*
X130664000Y-143577287D01*
X130664000Y-143823713D01*
X130615925Y-144065403D01*
X130521622Y-144293071D01*
X130384715Y-144497966D01*
X130210466Y-144672215D01*
X130005571Y-144809122D01*
X130005570Y-144809123D01*
X130005569Y-144809123D01*
X129777903Y-144903425D01*
X129536214Y-144951500D01*
X129289786Y-144951500D01*
X129048097Y-144903425D01*
X128820431Y-144809123D01*
X128820430Y-144809123D01*
X128820429Y-144809122D01*
X128615534Y-144672215D01*
X128441285Y-144497966D01*
X128304378Y-144293071D01*
X128210075Y-144065403D01*
X128162000Y-143823713D01*
X128162000Y-143577287D01*
X128210075Y-143335597D01*
X128304378Y-143107929D01*
X128441285Y-142903034D01*
X128615534Y-142728785D01*
X128820429Y-142591878D01*
X129048097Y-142497575D01*
X129289786Y-142449500D01*
X129536214Y-142449500D01*
X129777903Y-142497575D01*
X129777903Y-142497575D01*
G37*
G36*
X129777903Y-137417575D02*
G01*
X130005571Y-137511878D01*
X130210466Y-137648785D01*
X130384715Y-137823034D01*
X130521622Y-138027929D01*
X130615925Y-138255597D01*
X130664000Y-138497287D01*
X130664000Y-138743713D01*
X130615925Y-138985403D01*
X130521622Y-139213071D01*
X130384715Y-139417966D01*
X130210466Y-139592215D01*
X130005571Y-139729122D01*
X130005570Y-139729123D01*
X130005569Y-139729123D01*
X129777903Y-139823425D01*
X129536214Y-139871500D01*
X129289786Y-139871500D01*
X129048097Y-139823425D01*
X128820431Y-139729123D01*
X128820430Y-139729123D01*
X128820429Y-139729122D01*
X128615534Y-139592215D01*
X128441285Y-139417966D01*
X128304378Y-139213071D01*
X128210075Y-138985403D01*
X128162000Y-138743713D01*
X128162000Y-138497287D01*
X128210075Y-138255597D01*
X128304378Y-138027929D01*
X128441285Y-137823034D01*
X128615534Y-137648785D01*
X128820429Y-137511878D01*
X129048097Y-137417575D01*
X129289786Y-137369500D01*
X129536214Y-137369500D01*
X129777903Y-137417575D01*
X129777903Y-137417575D01*
G37*
G36*
X120228646Y-127861735D02*
G01*
X120579248Y-128006959D01*
X121075075Y-128212337D01*
X121836840Y-128721333D01*
X122484667Y-129369160D01*
X122993663Y-130130925D01*
X123199040Y-130626751D01*
X123344265Y-130977354D01*
X123523000Y-131875915D01*
X123523000Y-132792085D01*
X123344265Y-133690646D01*
X123199041Y-134041248D01*
X122993663Y-134537075D01*
X122484667Y-135298840D01*
X121836840Y-135946667D01*
X121075075Y-136455663D01*
X120579249Y-136661040D01*
X120228646Y-136806265D01*
X119330085Y-136985000D01*
X118413915Y-136985000D01*
X117515354Y-136806265D01*
X117164751Y-136661040D01*
X116668925Y-136455663D01*
X115907160Y-135946667D01*
X115259333Y-135298840D01*
X114750337Y-134537075D01*
X114544959Y-134041248D01*
X114399735Y-133690646D01*
X114221000Y-132792085D01*
X114221000Y-131875915D01*
X114399735Y-130977354D01*
X114544960Y-130626751D01*
X114750337Y-130130925D01*
X115259333Y-129369160D01*
X115907160Y-128721333D01*
X116668925Y-128212337D01*
X117164752Y-128006959D01*
X117515354Y-127861735D01*
X118413915Y-127683000D01*
X119330085Y-127683000D01*
X120228646Y-127861735D01*
X120228646Y-127861735D01*
G37*
G36*
X71460646Y-127607735D02*
G01*
X71811249Y-127752960D01*
X72307075Y-127958337D01*
X73068840Y-128467333D01*
X73716667Y-129115160D01*
X74225663Y-129876925D01*
X74431041Y-130372752D01*
X74576265Y-130723354D01*
X74755000Y-131621915D01*
X74755000Y-132538085D01*
X74576265Y-133436646D01*
X74471054Y-133690647D01*
X74225663Y-134283075D01*
X73716667Y-135044840D01*
X73068840Y-135692667D01*
X72307075Y-136201663D01*
X71811249Y-136407040D01*
X71460646Y-136552265D01*
X70562085Y-136731000D01*
X69645915Y-136731000D01*
X68747354Y-136552265D01*
X68396751Y-136407040D01*
X67900925Y-136201663D01*
X67139160Y-135692667D01*
X66491333Y-135044840D01*
X65982337Y-134283075D01*
X65736946Y-133690647D01*
X65631735Y-133436646D01*
X65453000Y-132538085D01*
X65453000Y-131621915D01*
X65631735Y-130723354D01*
X65776960Y-130372751D01*
X65982337Y-129876925D01*
X66491333Y-129115160D01*
X67139160Y-128467333D01*
X67900925Y-127958337D01*
X68396751Y-127752960D01*
X68747354Y-127607735D01*
X69645915Y-127429000D01*
X70562085Y-127429000D01*
X71460646Y-127607735D01*
X71460646Y-127607735D01*
G37*
G36*
X101837903Y-132210575D02*
G01*
X102065571Y-132304878D01*
X102270466Y-132441785D01*
X102444715Y-132616034D01*
X102581622Y-132820929D01*
X102675925Y-133048597D01*
X102724000Y-133290287D01*
X102724000Y-133536713D01*
X102675925Y-133778403D01*
X102581622Y-134006071D01*
X102444715Y-134210966D01*
X102270466Y-134385215D01*
X102065571Y-134522122D01*
X102065570Y-134522123D01*
X102065569Y-134522123D01*
X101837903Y-134616425D01*
X101596214Y-134664500D01*
X101349786Y-134664500D01*
X101108097Y-134616425D01*
X100880431Y-134522123D01*
X100880430Y-134522123D01*
X100880429Y-134522122D01*
X100675534Y-134385215D01*
X100501285Y-134210966D01*
X100364378Y-134006071D01*
X100270075Y-133778403D01*
X100222000Y-133536713D01*
X100222000Y-133290287D01*
X100270075Y-133048597D01*
X100364378Y-132820929D01*
X100501285Y-132616034D01*
X100675534Y-132441785D01*
X100880429Y-132304878D01*
X101108097Y-132210575D01*
X101349786Y-132162500D01*
X101596214Y-132162500D01*
X101837903Y-132210575D01*
X101837903Y-132210575D01*
G37*
G36*
X106917903Y-132210575D02*
G01*
X107145571Y-132304878D01*
X107350466Y-132441785D01*
X107524715Y-132616034D01*
X107661622Y-132820929D01*
X107755925Y-133048597D01*
X107804000Y-133290287D01*
X107804000Y-133536713D01*
X107755925Y-133778403D01*
X107661622Y-134006071D01*
X107524715Y-134210966D01*
X107350466Y-134385215D01*
X107145571Y-134522122D01*
X107145570Y-134522123D01*
X107145569Y-134522123D01*
X106917903Y-134616425D01*
X106676214Y-134664500D01*
X106429786Y-134664500D01*
X106188097Y-134616425D01*
X105960431Y-134522123D01*
X105960430Y-134522123D01*
X105960429Y-134522122D01*
X105755534Y-134385215D01*
X105581285Y-134210966D01*
X105444378Y-134006071D01*
X105350075Y-133778403D01*
X105302000Y-133536713D01*
X105302000Y-133290287D01*
X105350075Y-133048597D01*
X105444378Y-132820929D01*
X105581285Y-132616034D01*
X105755534Y-132441785D01*
X105960429Y-132304878D01*
X106188097Y-132210575D01*
X106429786Y-132162500D01*
X106676214Y-132162500D01*
X106917903Y-132210575D01*
X106917903Y-132210575D01*
G37*
G36*
X82404000Y-134664500D02*
G01*
X79902000Y-134664500D01*
X79902000Y-132162500D01*
X82404000Y-132162500D01*
X82404000Y-134664500D01*
X82404000Y-134664500D01*
G37*
G36*
X86597903Y-132210575D02*
G01*
X86825571Y-132304878D01*
X87030466Y-132441785D01*
X87204715Y-132616034D01*
X87341622Y-132820929D01*
X87435925Y-133048597D01*
X87484000Y-133290287D01*
X87484000Y-133536713D01*
X87435925Y-133778403D01*
X87341622Y-134006071D01*
X87204715Y-134210966D01*
X87030466Y-134385215D01*
X86825571Y-134522122D01*
X86825570Y-134522123D01*
X86825569Y-134522123D01*
X86597903Y-134616425D01*
X86356214Y-134664500D01*
X86109786Y-134664500D01*
X85868097Y-134616425D01*
X85640431Y-134522123D01*
X85640430Y-134522123D01*
X85640429Y-134522122D01*
X85435534Y-134385215D01*
X85261285Y-134210966D01*
X85124378Y-134006071D01*
X85030075Y-133778403D01*
X84982000Y-133536713D01*
X84982000Y-133290287D01*
X85030075Y-133048597D01*
X85124378Y-132820929D01*
X85261285Y-132616034D01*
X85435534Y-132441785D01*
X85640429Y-132304878D01*
X85868097Y-132210575D01*
X86109786Y-132162500D01*
X86356214Y-132162500D01*
X86597903Y-132210575D01*
X86597903Y-132210575D01*
G37*
G36*
X96757903Y-132210575D02*
G01*
X96985571Y-132304878D01*
X97190466Y-132441785D01*
X97364715Y-132616034D01*
X97501622Y-132820929D01*
X97595925Y-133048597D01*
X97644000Y-133290287D01*
X97644000Y-133536713D01*
X97595925Y-133778403D01*
X97501622Y-134006071D01*
X97364715Y-134210966D01*
X97190466Y-134385215D01*
X96985571Y-134522122D01*
X96985570Y-134522123D01*
X96985569Y-134522123D01*
X96757903Y-134616425D01*
X96516214Y-134664500D01*
X96269786Y-134664500D01*
X96028097Y-134616425D01*
X95800431Y-134522123D01*
X95800430Y-134522123D01*
X95800429Y-134522122D01*
X95595534Y-134385215D01*
X95421285Y-134210966D01*
X95284378Y-134006071D01*
X95190075Y-133778403D01*
X95142000Y-133536713D01*
X95142000Y-133290287D01*
X95190075Y-133048597D01*
X95284378Y-132820929D01*
X95421285Y-132616034D01*
X95595534Y-132441785D01*
X95800429Y-132304878D01*
X96028097Y-132210575D01*
X96269786Y-132162500D01*
X96516214Y-132162500D01*
X96757903Y-132210575D01*
X96757903Y-132210575D01*
G37*
G36*
X91677903Y-132210575D02*
G01*
X91905571Y-132304878D01*
X92110466Y-132441785D01*
X92284715Y-132616034D01*
X92421622Y-132820929D01*
X92515925Y-133048597D01*
X92564000Y-133290287D01*
X92564000Y-133536713D01*
X92515925Y-133778403D01*
X92421622Y-134006071D01*
X92284715Y-134210966D01*
X92110466Y-134385215D01*
X91905571Y-134522122D01*
X91905570Y-134522123D01*
X91905569Y-134522123D01*
X91677903Y-134616425D01*
X91436214Y-134664500D01*
X91189786Y-134664500D01*
X90948097Y-134616425D01*
X90720431Y-134522123D01*
X90720430Y-134522123D01*
X90720429Y-134522122D01*
X90515534Y-134385215D01*
X90341285Y-134210966D01*
X90204378Y-134006071D01*
X90110075Y-133778403D01*
X90062000Y-133536713D01*
X90062000Y-133290287D01*
X90110075Y-133048597D01*
X90204378Y-132820929D01*
X90341285Y-132616034D01*
X90515534Y-132441785D01*
X90720429Y-132304878D01*
X90948097Y-132210575D01*
X91189786Y-132162500D01*
X91436214Y-132162500D01*
X91677903Y-132210575D01*
X91677903Y-132210575D01*
G37*
M02*
