G04 #@! TF.GenerationSoftware,KiCad,Pcbnew,(5.1.4)-1*
G04 #@! TF.CreationDate,2023-06-30T15:23:11-04:00*
G04 #@! TF.ProjectId,4ChWirelessLaunchController,34436857-6972-4656-9c65-73734c61756e,rev?*
G04 #@! TF.SameCoordinates,Original*
G04 #@! TF.FileFunction,Copper,L2,Bot*
G04 #@! TF.FilePolarity,Positive*
%FSLAX46Y46*%
G04 Gerber Fmt 4.6, Leading zero omitted, Abs format (unit mm)*
G04 Created by KiCad (PCBNEW (5.1.4)-1) date 2023-06-30 15:23:11*
%MOMM*%
%LPD*%
G04 APERTURE LIST*
%ADD10C,9.200000*%
%ADD11R,2.400000X2.400000*%
%ADD12C,2.400000*%
%ADD13O,1.600000X1.600000*%
%ADD14C,1.600000*%
%ADD15C,2.550000*%
%ADD16R,2.550000X2.550000*%
%ADD17C,1.650000*%
%ADD18C,0.800000*%
%ADD19C,0.508000*%
%ADD20C,0.254000*%
G04 APERTURE END LIST*
D10*
X107188000Y-220472000D03*
X118872000Y-132334000D03*
X70104000Y-220662500D03*
X70104000Y-132080000D03*
D11*
X79819500Y-191071500D03*
D12*
X74739500Y-191071500D03*
D13*
X121475500Y-198310500D03*
D14*
X113855500Y-198310500D03*
D13*
X122110500Y-219964000D03*
D14*
X114490500Y-219964000D03*
D13*
X120078500Y-162687000D03*
D14*
X112458500Y-162687000D03*
D13*
X120142000Y-154876500D03*
D14*
X112522000Y-154876500D03*
D13*
X79629000Y-206121000D03*
D14*
X79629000Y-198501000D03*
D15*
X104734500Y-185306000D03*
X104734500Y-190106000D03*
D16*
X117134500Y-187706000D03*
D17*
X108734500Y-185306000D03*
X108734500Y-190106000D03*
D15*
X104734500Y-204038500D03*
X104734500Y-208838500D03*
D16*
X117134500Y-206438500D03*
D17*
X108734500Y-204038500D03*
X108734500Y-208838500D03*
D15*
X105242500Y-167970500D03*
X105242500Y-172770500D03*
D16*
X117642500Y-170370500D03*
D17*
X109242500Y-167970500D03*
X109242500Y-172770500D03*
D15*
X106385500Y-146825000D03*
X106385500Y-151625000D03*
D16*
X118785500Y-149225000D03*
D17*
X110385500Y-146825000D03*
X110385500Y-151625000D03*
D15*
X94338000Y-179565000D03*
X94338000Y-174765000D03*
D16*
X81938000Y-177165000D03*
D17*
X90338000Y-179565000D03*
X90338000Y-174765000D03*
D11*
X88519000Y-190944500D03*
D12*
X93599000Y-190944500D03*
D11*
X97726500Y-162877500D03*
D12*
X97726500Y-157797500D03*
D11*
X129413000Y-198310500D03*
D12*
X129413000Y-193230500D03*
X129413000Y-188150500D03*
X129413000Y-183070500D03*
D11*
X129222500Y-219837000D03*
D12*
X129222500Y-214757000D03*
X129222500Y-209677000D03*
X129222500Y-204597000D03*
D11*
X128905000Y-161036000D03*
D12*
X128905000Y-166116000D03*
X128905000Y-171196000D03*
X128905000Y-176276000D03*
D11*
X129413000Y-153860500D03*
D12*
X129413000Y-148780500D03*
X129413000Y-143700500D03*
X129413000Y-138620500D03*
D11*
X81153000Y-133413500D03*
D12*
X86233000Y-133413500D03*
X91313000Y-133413500D03*
X96393000Y-133413500D03*
X101473000Y-133413500D03*
X106553000Y-133413500D03*
D11*
X73469500Y-172593000D03*
D12*
X73469500Y-177673000D03*
D18*
X113411000Y-181419500D03*
X113792000Y-177228500D03*
X101155500Y-182499000D03*
X102489000Y-177165000D03*
X106807000Y-177038000D03*
X106463501Y-181711001D03*
D19*
X113411000Y-177609500D02*
X113792000Y-177228500D01*
X113411000Y-181419500D02*
X113411000Y-177609500D01*
X102489000Y-181165500D02*
X102489000Y-177165000D01*
X101155500Y-182499000D02*
X102489000Y-181165500D01*
X106463501Y-177381499D02*
X106807000Y-177038000D01*
X106463501Y-181711001D02*
X106463501Y-177381499D01*
D20*
G36*
X117345007Y-127300178D02*
G01*
X116392298Y-127694803D01*
X115534882Y-128267710D01*
X114805710Y-128996882D01*
X114232803Y-129854298D01*
X113838178Y-130807007D01*
X113637000Y-131818397D01*
X113637000Y-132849603D01*
X113838178Y-133860993D01*
X114232803Y-134813702D01*
X114805710Y-135671118D01*
X115534882Y-136400290D01*
X116392298Y-136973197D01*
X117345007Y-137367822D01*
X118356397Y-137569000D01*
X119387603Y-137569000D01*
X120398993Y-137367822D01*
X121351702Y-136973197D01*
X122209118Y-136400290D01*
X122938290Y-135671118D01*
X123511197Y-134813702D01*
X123905822Y-133860993D01*
X124107000Y-132849603D01*
X124107000Y-131818397D01*
X123905822Y-130807007D01*
X123511197Y-129854298D01*
X122938290Y-128996882D01*
X122209118Y-128267710D01*
X121351702Y-127694803D01*
X120398993Y-127300178D01*
X119654052Y-127152000D01*
X139103500Y-127152000D01*
X139103501Y-225527000D01*
X108608524Y-225527000D01*
X108714993Y-225505822D01*
X109667702Y-225111197D01*
X110525118Y-224538290D01*
X111254290Y-223809118D01*
X111827197Y-222951702D01*
X112221822Y-221998993D01*
X112423000Y-220987603D01*
X112423000Y-220956702D01*
X113677403Y-220956702D01*
X113748986Y-221200671D01*
X114004496Y-221321571D01*
X114278684Y-221390300D01*
X114561012Y-221404217D01*
X114840630Y-221362787D01*
X115106792Y-221267603D01*
X115232014Y-221200671D01*
X115303597Y-220956702D01*
X114490500Y-220143605D01*
X113677403Y-220956702D01*
X112423000Y-220956702D01*
X112423000Y-220034512D01*
X113050283Y-220034512D01*
X113091713Y-220314130D01*
X113186897Y-220580292D01*
X113253829Y-220705514D01*
X113497798Y-220777097D01*
X114310895Y-219964000D01*
X114670105Y-219964000D01*
X115483202Y-220777097D01*
X115727171Y-220705514D01*
X115848071Y-220450004D01*
X115916800Y-220175816D01*
X115927241Y-219964000D01*
X120668557Y-219964000D01*
X120696264Y-220245309D01*
X120778318Y-220515808D01*
X120911568Y-220765101D01*
X121090892Y-220983608D01*
X121309399Y-221162932D01*
X121558692Y-221296182D01*
X121829191Y-221378236D01*
X122040008Y-221399000D01*
X122180992Y-221399000D01*
X122391809Y-221378236D01*
X122662308Y-221296182D01*
X122911601Y-221162932D01*
X123130108Y-220983608D01*
X123309432Y-220765101D01*
X123442682Y-220515808D01*
X123524736Y-220245309D01*
X123552443Y-219964000D01*
X123524736Y-219682691D01*
X123442682Y-219412192D01*
X123309432Y-219162899D01*
X123130108Y-218944392D01*
X122911601Y-218765068D01*
X122672003Y-218637000D01*
X127384428Y-218637000D01*
X127384428Y-221037000D01*
X127396688Y-221161482D01*
X127432998Y-221281180D01*
X127491963Y-221391494D01*
X127571315Y-221488185D01*
X127668006Y-221567537D01*
X127778320Y-221626502D01*
X127898018Y-221662812D01*
X128022500Y-221675072D01*
X130422500Y-221675072D01*
X130546982Y-221662812D01*
X130666680Y-221626502D01*
X130776994Y-221567537D01*
X130873685Y-221488185D01*
X130953037Y-221391494D01*
X131012002Y-221281180D01*
X131048312Y-221161482D01*
X131060572Y-221037000D01*
X131060572Y-218637000D01*
X131048312Y-218512518D01*
X131012002Y-218392820D01*
X130953037Y-218282506D01*
X130873685Y-218185815D01*
X130776994Y-218106463D01*
X130666680Y-218047498D01*
X130546982Y-218011188D01*
X130422500Y-217998928D01*
X128022500Y-217998928D01*
X127898018Y-218011188D01*
X127778320Y-218047498D01*
X127668006Y-218106463D01*
X127571315Y-218185815D01*
X127491963Y-218282506D01*
X127432998Y-218392820D01*
X127396688Y-218512518D01*
X127384428Y-218637000D01*
X122672003Y-218637000D01*
X122662308Y-218631818D01*
X122391809Y-218549764D01*
X122180992Y-218529000D01*
X122040008Y-218529000D01*
X121829191Y-218549764D01*
X121558692Y-218631818D01*
X121309399Y-218765068D01*
X121090892Y-218944392D01*
X120911568Y-219162899D01*
X120778318Y-219412192D01*
X120696264Y-219682691D01*
X120668557Y-219964000D01*
X115927241Y-219964000D01*
X115930717Y-219893488D01*
X115889287Y-219613870D01*
X115794103Y-219347708D01*
X115727171Y-219222486D01*
X115483202Y-219150903D01*
X114670105Y-219964000D01*
X114310895Y-219964000D01*
X113497798Y-219150903D01*
X113253829Y-219222486D01*
X113132929Y-219477996D01*
X113064200Y-219752184D01*
X113050283Y-220034512D01*
X112423000Y-220034512D01*
X112423000Y-219956397D01*
X112227052Y-218971298D01*
X113677403Y-218971298D01*
X114490500Y-219784395D01*
X115303597Y-218971298D01*
X115232014Y-218727329D01*
X114976504Y-218606429D01*
X114702316Y-218537700D01*
X114419988Y-218523783D01*
X114140370Y-218565213D01*
X113874208Y-218660397D01*
X113748986Y-218727329D01*
X113677403Y-218971298D01*
X112227052Y-218971298D01*
X112221822Y-218945007D01*
X111827197Y-217992298D01*
X111254290Y-217134882D01*
X110525118Y-216405710D01*
X109667702Y-215832803D01*
X108714993Y-215438178D01*
X107703603Y-215237000D01*
X106672397Y-215237000D01*
X105661007Y-215438178D01*
X104708298Y-215832803D01*
X103850882Y-216405710D01*
X103121710Y-217134882D01*
X102548803Y-217992298D01*
X102154178Y-218945007D01*
X101953000Y-219956397D01*
X101953000Y-220987603D01*
X102154178Y-221998993D01*
X102548803Y-222951702D01*
X103121710Y-223809118D01*
X103850882Y-224538290D01*
X104708298Y-225111197D01*
X105661007Y-225505822D01*
X105767476Y-225527000D01*
X72039772Y-225527000D01*
X72583702Y-225301697D01*
X73441118Y-224728790D01*
X74170290Y-223999618D01*
X74743197Y-223142202D01*
X75137822Y-222189493D01*
X75339000Y-221178103D01*
X75339000Y-220146897D01*
X75137822Y-219135507D01*
X74743197Y-218182798D01*
X74170290Y-217325382D01*
X73441118Y-216596210D01*
X72583702Y-216023303D01*
X71630993Y-215628678D01*
X70619603Y-215427500D01*
X69588397Y-215427500D01*
X68577007Y-215628678D01*
X67624298Y-216023303D01*
X66766882Y-216596210D01*
X66037710Y-217325382D01*
X65464803Y-218182798D01*
X65234755Y-218738183D01*
X65232105Y-214576268D01*
X127387500Y-214576268D01*
X127387500Y-214937732D01*
X127458018Y-215292250D01*
X127596344Y-215626199D01*
X127797162Y-215926744D01*
X128052756Y-216182338D01*
X128353301Y-216383156D01*
X128687250Y-216521482D01*
X129041768Y-216592000D01*
X129403232Y-216592000D01*
X129757750Y-216521482D01*
X130091699Y-216383156D01*
X130392244Y-216182338D01*
X130647838Y-215926744D01*
X130848656Y-215626199D01*
X130986982Y-215292250D01*
X131057500Y-214937732D01*
X131057500Y-214576268D01*
X130986982Y-214221750D01*
X130848656Y-213887801D01*
X130647838Y-213587256D01*
X130392244Y-213331662D01*
X130091699Y-213130844D01*
X129757750Y-212992518D01*
X129403232Y-212922000D01*
X129041768Y-212922000D01*
X128687250Y-212992518D01*
X128353301Y-213130844D01*
X128052756Y-213331662D01*
X127797162Y-213587256D01*
X127596344Y-213887801D01*
X127458018Y-214221750D01*
X127387500Y-214576268D01*
X65232105Y-214576268D01*
X65228331Y-208650381D01*
X102824500Y-208650381D01*
X102824500Y-209026619D01*
X102897900Y-209395627D01*
X103041880Y-209743224D01*
X103250906Y-210056054D01*
X103516946Y-210322094D01*
X103829776Y-210531120D01*
X104177373Y-210675100D01*
X104546381Y-210748500D01*
X104922619Y-210748500D01*
X105291627Y-210675100D01*
X105639224Y-210531120D01*
X105952054Y-210322094D01*
X106218094Y-210056054D01*
X106427120Y-209743224D01*
X106571100Y-209395627D01*
X106644500Y-209026619D01*
X106644500Y-208694703D01*
X107274500Y-208694703D01*
X107274500Y-208982297D01*
X107330607Y-209264366D01*
X107440665Y-209530069D01*
X107600444Y-209769196D01*
X107803804Y-209972556D01*
X108042931Y-210132335D01*
X108308634Y-210242393D01*
X108590703Y-210298500D01*
X108878297Y-210298500D01*
X109160366Y-210242393D01*
X109426069Y-210132335D01*
X109665196Y-209972556D01*
X109868556Y-209769196D01*
X110028335Y-209530069D01*
X110042335Y-209496268D01*
X127387500Y-209496268D01*
X127387500Y-209857732D01*
X127458018Y-210212250D01*
X127596344Y-210546199D01*
X127797162Y-210846744D01*
X128052756Y-211102338D01*
X128353301Y-211303156D01*
X128687250Y-211441482D01*
X129041768Y-211512000D01*
X129403232Y-211512000D01*
X129757750Y-211441482D01*
X130091699Y-211303156D01*
X130392244Y-211102338D01*
X130647838Y-210846744D01*
X130848656Y-210546199D01*
X130986982Y-210212250D01*
X131057500Y-209857732D01*
X131057500Y-209496268D01*
X130986982Y-209141750D01*
X130848656Y-208807801D01*
X130647838Y-208507256D01*
X130392244Y-208251662D01*
X130091699Y-208050844D01*
X129757750Y-207912518D01*
X129403232Y-207842000D01*
X129041768Y-207842000D01*
X128687250Y-207912518D01*
X128353301Y-208050844D01*
X128052756Y-208251662D01*
X127797162Y-208507256D01*
X127596344Y-208807801D01*
X127458018Y-209141750D01*
X127387500Y-209496268D01*
X110042335Y-209496268D01*
X110138393Y-209264366D01*
X110194500Y-208982297D01*
X110194500Y-208694703D01*
X110138393Y-208412634D01*
X110028335Y-208146931D01*
X109868556Y-207907804D01*
X109665196Y-207704444D01*
X109426069Y-207544665D01*
X109160366Y-207434607D01*
X108878297Y-207378500D01*
X108590703Y-207378500D01*
X108308634Y-207434607D01*
X108042931Y-207544665D01*
X107803804Y-207704444D01*
X107600444Y-207907804D01*
X107440665Y-208146931D01*
X107330607Y-208412634D01*
X107274500Y-208694703D01*
X106644500Y-208694703D01*
X106644500Y-208650381D01*
X106571100Y-208281373D01*
X106427120Y-207933776D01*
X106218094Y-207620946D01*
X105952054Y-207354906D01*
X105639224Y-207145880D01*
X105291627Y-207001900D01*
X104922619Y-206928500D01*
X104546381Y-206928500D01*
X104177373Y-207001900D01*
X103829776Y-207145880D01*
X103516946Y-207354906D01*
X103250906Y-207620946D01*
X103041880Y-207933776D01*
X102897900Y-208281373D01*
X102824500Y-208650381D01*
X65228331Y-208650381D01*
X65226942Y-206470040D01*
X78237091Y-206470040D01*
X78331930Y-206734881D01*
X78476615Y-206976131D01*
X78665586Y-207184519D01*
X78891580Y-207352037D01*
X79145913Y-207472246D01*
X79279961Y-207512904D01*
X79502000Y-207390915D01*
X79502000Y-206248000D01*
X79756000Y-206248000D01*
X79756000Y-207390915D01*
X79978039Y-207512904D01*
X80112087Y-207472246D01*
X80366420Y-207352037D01*
X80592414Y-207184519D01*
X80781385Y-206976131D01*
X80926070Y-206734881D01*
X81020909Y-206470040D01*
X80899624Y-206248000D01*
X79756000Y-206248000D01*
X79502000Y-206248000D01*
X78358376Y-206248000D01*
X78237091Y-206470040D01*
X65226942Y-206470040D01*
X65226498Y-205771960D01*
X78237091Y-205771960D01*
X78358376Y-205994000D01*
X79502000Y-205994000D01*
X79502000Y-204851085D01*
X79756000Y-204851085D01*
X79756000Y-205994000D01*
X80899624Y-205994000D01*
X81020909Y-205771960D01*
X80926070Y-205507119D01*
X80843785Y-205369915D01*
X103582690Y-205369915D01*
X103711616Y-205662445D01*
X104048086Y-205830796D01*
X104410935Y-205930271D01*
X104786218Y-205957045D01*
X105159515Y-205910091D01*
X105516478Y-205791213D01*
X105757384Y-205662445D01*
X105886310Y-205369915D01*
X104734500Y-204218105D01*
X103582690Y-205369915D01*
X80843785Y-205369915D01*
X80781385Y-205265869D01*
X80592414Y-205057481D01*
X80366420Y-204889963D01*
X80112087Y-204769754D01*
X79978039Y-204729096D01*
X79756000Y-204851085D01*
X79502000Y-204851085D01*
X79279961Y-204729096D01*
X79145913Y-204769754D01*
X78891580Y-204889963D01*
X78665586Y-205057481D01*
X78476615Y-205265869D01*
X78331930Y-205507119D01*
X78237091Y-205771960D01*
X65226498Y-205771960D01*
X65225427Y-204090218D01*
X102815955Y-204090218D01*
X102862909Y-204463515D01*
X102981787Y-204820478D01*
X103110555Y-205061384D01*
X103403085Y-205190310D01*
X104554895Y-204038500D01*
X104914105Y-204038500D01*
X106065915Y-205190310D01*
X106358445Y-205061384D01*
X106526796Y-204724914D01*
X106626271Y-204362065D01*
X106653045Y-203986782D01*
X106641464Y-203894703D01*
X107274500Y-203894703D01*
X107274500Y-204182297D01*
X107330607Y-204464366D01*
X107440665Y-204730069D01*
X107600444Y-204969196D01*
X107803804Y-205172556D01*
X108042931Y-205332335D01*
X108308634Y-205442393D01*
X108590703Y-205498500D01*
X108878297Y-205498500D01*
X109160366Y-205442393D01*
X109426069Y-205332335D01*
X109665196Y-205172556D01*
X109674252Y-205163500D01*
X115221428Y-205163500D01*
X115221428Y-207713500D01*
X115233688Y-207837982D01*
X115269998Y-207957680D01*
X115328963Y-208067994D01*
X115408315Y-208164685D01*
X115505006Y-208244037D01*
X115615320Y-208303002D01*
X115735018Y-208339312D01*
X115859500Y-208351572D01*
X118409500Y-208351572D01*
X118533982Y-208339312D01*
X118653680Y-208303002D01*
X118763994Y-208244037D01*
X118860685Y-208164685D01*
X118940037Y-208067994D01*
X118999002Y-207957680D01*
X119035312Y-207837982D01*
X119047572Y-207713500D01*
X119047572Y-205163500D01*
X119035312Y-205039018D01*
X118999002Y-204919320D01*
X118940037Y-204809006D01*
X118860685Y-204712315D01*
X118763994Y-204632963D01*
X118653680Y-204573998D01*
X118533982Y-204537688D01*
X118409500Y-204525428D01*
X115859500Y-204525428D01*
X115735018Y-204537688D01*
X115615320Y-204573998D01*
X115505006Y-204632963D01*
X115408315Y-204712315D01*
X115328963Y-204809006D01*
X115269998Y-204919320D01*
X115233688Y-205039018D01*
X115221428Y-205163500D01*
X109674252Y-205163500D01*
X109868556Y-204969196D01*
X110028335Y-204730069D01*
X110138393Y-204464366D01*
X110147960Y-204416268D01*
X127387500Y-204416268D01*
X127387500Y-204777732D01*
X127458018Y-205132250D01*
X127596344Y-205466199D01*
X127797162Y-205766744D01*
X128052756Y-206022338D01*
X128353301Y-206223156D01*
X128687250Y-206361482D01*
X129041768Y-206432000D01*
X129403232Y-206432000D01*
X129757750Y-206361482D01*
X130091699Y-206223156D01*
X130392244Y-206022338D01*
X130647838Y-205766744D01*
X130848656Y-205466199D01*
X130986982Y-205132250D01*
X131057500Y-204777732D01*
X131057500Y-204416268D01*
X130986982Y-204061750D01*
X130848656Y-203727801D01*
X130647838Y-203427256D01*
X130392244Y-203171662D01*
X130091699Y-202970844D01*
X129757750Y-202832518D01*
X129403232Y-202762000D01*
X129041768Y-202762000D01*
X128687250Y-202832518D01*
X128353301Y-202970844D01*
X128052756Y-203171662D01*
X127797162Y-203427256D01*
X127596344Y-203727801D01*
X127458018Y-204061750D01*
X127387500Y-204416268D01*
X110147960Y-204416268D01*
X110194500Y-204182297D01*
X110194500Y-203894703D01*
X110138393Y-203612634D01*
X110028335Y-203346931D01*
X109868556Y-203107804D01*
X109665196Y-202904444D01*
X109426069Y-202744665D01*
X109160366Y-202634607D01*
X108878297Y-202578500D01*
X108590703Y-202578500D01*
X108308634Y-202634607D01*
X108042931Y-202744665D01*
X107803804Y-202904444D01*
X107600444Y-203107804D01*
X107440665Y-203346931D01*
X107330607Y-203612634D01*
X107274500Y-203894703D01*
X106641464Y-203894703D01*
X106606091Y-203613485D01*
X106487213Y-203256522D01*
X106358445Y-203015616D01*
X106065915Y-202886690D01*
X104914105Y-204038500D01*
X104554895Y-204038500D01*
X103403085Y-202886690D01*
X103110555Y-203015616D01*
X102942204Y-203352086D01*
X102842729Y-203714935D01*
X102815955Y-204090218D01*
X65225427Y-204090218D01*
X65224546Y-202707085D01*
X103582690Y-202707085D01*
X104734500Y-203858895D01*
X105886310Y-202707085D01*
X105757384Y-202414555D01*
X105420914Y-202246204D01*
X105058065Y-202146729D01*
X104682782Y-202119955D01*
X104309485Y-202166909D01*
X103952522Y-202285787D01*
X103711616Y-202414555D01*
X103582690Y-202707085D01*
X65224546Y-202707085D01*
X65221776Y-198359665D01*
X78194000Y-198359665D01*
X78194000Y-198642335D01*
X78249147Y-198919574D01*
X78357320Y-199180727D01*
X78514363Y-199415759D01*
X78714241Y-199615637D01*
X78949273Y-199772680D01*
X79210426Y-199880853D01*
X79487665Y-199936000D01*
X79770335Y-199936000D01*
X80047574Y-199880853D01*
X80308727Y-199772680D01*
X80543759Y-199615637D01*
X80743637Y-199415759D01*
X80818845Y-199303202D01*
X113042403Y-199303202D01*
X113113986Y-199547171D01*
X113369496Y-199668071D01*
X113643684Y-199736800D01*
X113926012Y-199750717D01*
X114205630Y-199709287D01*
X114471792Y-199614103D01*
X114597014Y-199547171D01*
X114668597Y-199303202D01*
X113855500Y-198490105D01*
X113042403Y-199303202D01*
X80818845Y-199303202D01*
X80900680Y-199180727D01*
X81008853Y-198919574D01*
X81064000Y-198642335D01*
X81064000Y-198381012D01*
X112415283Y-198381012D01*
X112456713Y-198660630D01*
X112551897Y-198926792D01*
X112618829Y-199052014D01*
X112862798Y-199123597D01*
X113675895Y-198310500D01*
X114035105Y-198310500D01*
X114848202Y-199123597D01*
X115092171Y-199052014D01*
X115213071Y-198796504D01*
X115281800Y-198522316D01*
X115292241Y-198310500D01*
X120033557Y-198310500D01*
X120061264Y-198591809D01*
X120143318Y-198862308D01*
X120276568Y-199111601D01*
X120455892Y-199330108D01*
X120674399Y-199509432D01*
X120923692Y-199642682D01*
X121194191Y-199724736D01*
X121405008Y-199745500D01*
X121545992Y-199745500D01*
X121756809Y-199724736D01*
X122027308Y-199642682D01*
X122276601Y-199509432D01*
X122495108Y-199330108D01*
X122674432Y-199111601D01*
X122807682Y-198862308D01*
X122889736Y-198591809D01*
X122917443Y-198310500D01*
X122889736Y-198029191D01*
X122807682Y-197758692D01*
X122674432Y-197509399D01*
X122495108Y-197290892D01*
X122276601Y-197111568D01*
X122274603Y-197110500D01*
X127574928Y-197110500D01*
X127574928Y-199510500D01*
X127587188Y-199634982D01*
X127623498Y-199754680D01*
X127682463Y-199864994D01*
X127761815Y-199961685D01*
X127858506Y-200041037D01*
X127968820Y-200100002D01*
X128088518Y-200136312D01*
X128213000Y-200148572D01*
X130613000Y-200148572D01*
X130737482Y-200136312D01*
X130857180Y-200100002D01*
X130967494Y-200041037D01*
X131064185Y-199961685D01*
X131143537Y-199864994D01*
X131202502Y-199754680D01*
X131238812Y-199634982D01*
X131251072Y-199510500D01*
X131251072Y-197110500D01*
X131238812Y-196986018D01*
X131202502Y-196866320D01*
X131143537Y-196756006D01*
X131064185Y-196659315D01*
X130967494Y-196579963D01*
X130857180Y-196520998D01*
X130737482Y-196484688D01*
X130613000Y-196472428D01*
X128213000Y-196472428D01*
X128088518Y-196484688D01*
X127968820Y-196520998D01*
X127858506Y-196579963D01*
X127761815Y-196659315D01*
X127682463Y-196756006D01*
X127623498Y-196866320D01*
X127587188Y-196986018D01*
X127574928Y-197110500D01*
X122274603Y-197110500D01*
X122027308Y-196978318D01*
X121756809Y-196896264D01*
X121545992Y-196875500D01*
X121405008Y-196875500D01*
X121194191Y-196896264D01*
X120923692Y-196978318D01*
X120674399Y-197111568D01*
X120455892Y-197290892D01*
X120276568Y-197509399D01*
X120143318Y-197758692D01*
X120061264Y-198029191D01*
X120033557Y-198310500D01*
X115292241Y-198310500D01*
X115295717Y-198239988D01*
X115254287Y-197960370D01*
X115159103Y-197694208D01*
X115092171Y-197568986D01*
X114848202Y-197497403D01*
X114035105Y-198310500D01*
X113675895Y-198310500D01*
X112862798Y-197497403D01*
X112618829Y-197568986D01*
X112497929Y-197824496D01*
X112429200Y-198098684D01*
X112415283Y-198381012D01*
X81064000Y-198381012D01*
X81064000Y-198359665D01*
X81008853Y-198082426D01*
X80900680Y-197821273D01*
X80743637Y-197586241D01*
X80543759Y-197386363D01*
X80441144Y-197317798D01*
X113042403Y-197317798D01*
X113855500Y-198130895D01*
X114668597Y-197317798D01*
X114597014Y-197073829D01*
X114341504Y-196952929D01*
X114067316Y-196884200D01*
X113784988Y-196870283D01*
X113505370Y-196911713D01*
X113239208Y-197006897D01*
X113113986Y-197073829D01*
X113042403Y-197317798D01*
X80441144Y-197317798D01*
X80308727Y-197229320D01*
X80047574Y-197121147D01*
X79770335Y-197066000D01*
X79487665Y-197066000D01*
X79210426Y-197121147D01*
X78949273Y-197229320D01*
X78714241Y-197386363D01*
X78514363Y-197586241D01*
X78357320Y-197821273D01*
X78249147Y-198082426D01*
X78194000Y-198359665D01*
X65221776Y-198359665D01*
X65218395Y-193049768D01*
X127578000Y-193049768D01*
X127578000Y-193411232D01*
X127648518Y-193765750D01*
X127786844Y-194099699D01*
X127987662Y-194400244D01*
X128243256Y-194655838D01*
X128543801Y-194856656D01*
X128877750Y-194994982D01*
X129232268Y-195065500D01*
X129593732Y-195065500D01*
X129948250Y-194994982D01*
X130282199Y-194856656D01*
X130582744Y-194655838D01*
X130838338Y-194400244D01*
X131039156Y-194099699D01*
X131177482Y-193765750D01*
X131248000Y-193411232D01*
X131248000Y-193049768D01*
X131177482Y-192695250D01*
X131039156Y-192361301D01*
X130838338Y-192060756D01*
X130582744Y-191805162D01*
X130282199Y-191604344D01*
X129948250Y-191466018D01*
X129593732Y-191395500D01*
X129232268Y-191395500D01*
X128877750Y-191466018D01*
X128543801Y-191604344D01*
X128243256Y-191805162D01*
X127987662Y-192060756D01*
X127786844Y-192361301D01*
X127648518Y-192695250D01*
X127578000Y-193049768D01*
X65218395Y-193049768D01*
X65217019Y-190890768D01*
X72904500Y-190890768D01*
X72904500Y-191252232D01*
X72975018Y-191606750D01*
X73113344Y-191940699D01*
X73314162Y-192241244D01*
X73569756Y-192496838D01*
X73870301Y-192697656D01*
X74204250Y-192835982D01*
X74558768Y-192906500D01*
X74920232Y-192906500D01*
X75274750Y-192835982D01*
X75608699Y-192697656D01*
X75909244Y-192496838D01*
X76164838Y-192241244D01*
X76365656Y-191940699D01*
X76503982Y-191606750D01*
X76574500Y-191252232D01*
X76574500Y-190890768D01*
X76503982Y-190536250D01*
X76365656Y-190202301D01*
X76164838Y-189901756D01*
X76134582Y-189871500D01*
X77981428Y-189871500D01*
X77981428Y-192271500D01*
X77993688Y-192395982D01*
X78029998Y-192515680D01*
X78088963Y-192625994D01*
X78168315Y-192722685D01*
X78265006Y-192802037D01*
X78375320Y-192861002D01*
X78495018Y-192897312D01*
X78619500Y-192909572D01*
X81019500Y-192909572D01*
X81143982Y-192897312D01*
X81263680Y-192861002D01*
X81373994Y-192802037D01*
X81470685Y-192722685D01*
X81550037Y-192625994D01*
X81609002Y-192515680D01*
X81645312Y-192395982D01*
X81657572Y-192271500D01*
X81657572Y-189871500D01*
X81645312Y-189747018D01*
X81644549Y-189744500D01*
X86680928Y-189744500D01*
X86680928Y-192144500D01*
X86693188Y-192268982D01*
X86729498Y-192388680D01*
X86788463Y-192498994D01*
X86867815Y-192595685D01*
X86964506Y-192675037D01*
X87074820Y-192734002D01*
X87194518Y-192770312D01*
X87319000Y-192782572D01*
X89719000Y-192782572D01*
X89843482Y-192770312D01*
X89963180Y-192734002D01*
X90073494Y-192675037D01*
X90170185Y-192595685D01*
X90249537Y-192498994D01*
X90308502Y-192388680D01*
X90344812Y-192268982D01*
X90357072Y-192144500D01*
X90357072Y-190763768D01*
X91764000Y-190763768D01*
X91764000Y-191125232D01*
X91834518Y-191479750D01*
X91972844Y-191813699D01*
X92173662Y-192114244D01*
X92429256Y-192369838D01*
X92729801Y-192570656D01*
X93063750Y-192708982D01*
X93418268Y-192779500D01*
X93779732Y-192779500D01*
X94134250Y-192708982D01*
X94468199Y-192570656D01*
X94768744Y-192369838D01*
X95024338Y-192114244D01*
X95225156Y-191813699D01*
X95363482Y-191479750D01*
X95434000Y-191125232D01*
X95434000Y-190763768D01*
X95363482Y-190409250D01*
X95225156Y-190075301D01*
X95119972Y-189917881D01*
X102824500Y-189917881D01*
X102824500Y-190294119D01*
X102897900Y-190663127D01*
X103041880Y-191010724D01*
X103250906Y-191323554D01*
X103516946Y-191589594D01*
X103829776Y-191798620D01*
X104177373Y-191942600D01*
X104546381Y-192016000D01*
X104922619Y-192016000D01*
X105291627Y-191942600D01*
X105639224Y-191798620D01*
X105952054Y-191589594D01*
X106218094Y-191323554D01*
X106427120Y-191010724D01*
X106571100Y-190663127D01*
X106644500Y-190294119D01*
X106644500Y-189962203D01*
X107274500Y-189962203D01*
X107274500Y-190249797D01*
X107330607Y-190531866D01*
X107440665Y-190797569D01*
X107600444Y-191036696D01*
X107803804Y-191240056D01*
X108042931Y-191399835D01*
X108308634Y-191509893D01*
X108590703Y-191566000D01*
X108878297Y-191566000D01*
X109160366Y-191509893D01*
X109426069Y-191399835D01*
X109665196Y-191240056D01*
X109868556Y-191036696D01*
X110028335Y-190797569D01*
X110138393Y-190531866D01*
X110194500Y-190249797D01*
X110194500Y-189962203D01*
X110138393Y-189680134D01*
X110028335Y-189414431D01*
X109868556Y-189175304D01*
X109665196Y-188971944D01*
X109426069Y-188812165D01*
X109160366Y-188702107D01*
X108878297Y-188646000D01*
X108590703Y-188646000D01*
X108308634Y-188702107D01*
X108042931Y-188812165D01*
X107803804Y-188971944D01*
X107600444Y-189175304D01*
X107440665Y-189414431D01*
X107330607Y-189680134D01*
X107274500Y-189962203D01*
X106644500Y-189962203D01*
X106644500Y-189917881D01*
X106571100Y-189548873D01*
X106427120Y-189201276D01*
X106218094Y-188888446D01*
X105952054Y-188622406D01*
X105639224Y-188413380D01*
X105291627Y-188269400D01*
X104922619Y-188196000D01*
X104546381Y-188196000D01*
X104177373Y-188269400D01*
X103829776Y-188413380D01*
X103516946Y-188622406D01*
X103250906Y-188888446D01*
X103041880Y-189201276D01*
X102897900Y-189548873D01*
X102824500Y-189917881D01*
X95119972Y-189917881D01*
X95024338Y-189774756D01*
X94768744Y-189519162D01*
X94468199Y-189318344D01*
X94134250Y-189180018D01*
X93779732Y-189109500D01*
X93418268Y-189109500D01*
X93063750Y-189180018D01*
X92729801Y-189318344D01*
X92429256Y-189519162D01*
X92173662Y-189774756D01*
X91972844Y-190075301D01*
X91834518Y-190409250D01*
X91764000Y-190763768D01*
X90357072Y-190763768D01*
X90357072Y-189744500D01*
X90344812Y-189620018D01*
X90308502Y-189500320D01*
X90249537Y-189390006D01*
X90170185Y-189293315D01*
X90073494Y-189213963D01*
X89963180Y-189154998D01*
X89843482Y-189118688D01*
X89719000Y-189106428D01*
X87319000Y-189106428D01*
X87194518Y-189118688D01*
X87074820Y-189154998D01*
X86964506Y-189213963D01*
X86867815Y-189293315D01*
X86788463Y-189390006D01*
X86729498Y-189500320D01*
X86693188Y-189620018D01*
X86680928Y-189744500D01*
X81644549Y-189744500D01*
X81609002Y-189627320D01*
X81550037Y-189517006D01*
X81470685Y-189420315D01*
X81373994Y-189340963D01*
X81263680Y-189281998D01*
X81143982Y-189245688D01*
X81019500Y-189233428D01*
X78619500Y-189233428D01*
X78495018Y-189245688D01*
X78375320Y-189281998D01*
X78265006Y-189340963D01*
X78168315Y-189420315D01*
X78088963Y-189517006D01*
X78029998Y-189627320D01*
X77993688Y-189747018D01*
X77981428Y-189871500D01*
X76134582Y-189871500D01*
X75909244Y-189646162D01*
X75608699Y-189445344D01*
X75274750Y-189307018D01*
X74920232Y-189236500D01*
X74558768Y-189236500D01*
X74204250Y-189307018D01*
X73870301Y-189445344D01*
X73569756Y-189646162D01*
X73314162Y-189901756D01*
X73113344Y-190202301D01*
X72975018Y-190536250D01*
X72904500Y-190890768D01*
X65217019Y-190890768D01*
X65214311Y-186637415D01*
X103582690Y-186637415D01*
X103711616Y-186929945D01*
X104048086Y-187098296D01*
X104410935Y-187197771D01*
X104786218Y-187224545D01*
X105159515Y-187177591D01*
X105516478Y-187058713D01*
X105757384Y-186929945D01*
X105886310Y-186637415D01*
X104734500Y-185485605D01*
X103582690Y-186637415D01*
X65214311Y-186637415D01*
X65213496Y-185357718D01*
X102815955Y-185357718D01*
X102862909Y-185731015D01*
X102981787Y-186087978D01*
X103110555Y-186328884D01*
X103403085Y-186457810D01*
X104554895Y-185306000D01*
X104914105Y-185306000D01*
X106065915Y-186457810D01*
X106358445Y-186328884D01*
X106526796Y-185992414D01*
X106626271Y-185629565D01*
X106653045Y-185254282D01*
X106641464Y-185162203D01*
X107274500Y-185162203D01*
X107274500Y-185449797D01*
X107330607Y-185731866D01*
X107440665Y-185997569D01*
X107600444Y-186236696D01*
X107803804Y-186440056D01*
X108042931Y-186599835D01*
X108308634Y-186709893D01*
X108590703Y-186766000D01*
X108878297Y-186766000D01*
X109160366Y-186709893D01*
X109426069Y-186599835D01*
X109665196Y-186440056D01*
X109674252Y-186431000D01*
X115221428Y-186431000D01*
X115221428Y-188981000D01*
X115233688Y-189105482D01*
X115269998Y-189225180D01*
X115328963Y-189335494D01*
X115408315Y-189432185D01*
X115505006Y-189511537D01*
X115615320Y-189570502D01*
X115735018Y-189606812D01*
X115859500Y-189619072D01*
X118409500Y-189619072D01*
X118533982Y-189606812D01*
X118653680Y-189570502D01*
X118763994Y-189511537D01*
X118860685Y-189432185D01*
X118940037Y-189335494D01*
X118999002Y-189225180D01*
X119035312Y-189105482D01*
X119047572Y-188981000D01*
X119047572Y-187969768D01*
X127578000Y-187969768D01*
X127578000Y-188331232D01*
X127648518Y-188685750D01*
X127786844Y-189019699D01*
X127987662Y-189320244D01*
X128243256Y-189575838D01*
X128543801Y-189776656D01*
X128877750Y-189914982D01*
X129232268Y-189985500D01*
X129593732Y-189985500D01*
X129948250Y-189914982D01*
X130282199Y-189776656D01*
X130582744Y-189575838D01*
X130838338Y-189320244D01*
X131039156Y-189019699D01*
X131177482Y-188685750D01*
X131248000Y-188331232D01*
X131248000Y-187969768D01*
X131177482Y-187615250D01*
X131039156Y-187281301D01*
X130838338Y-186980756D01*
X130582744Y-186725162D01*
X130282199Y-186524344D01*
X129948250Y-186386018D01*
X129593732Y-186315500D01*
X129232268Y-186315500D01*
X128877750Y-186386018D01*
X128543801Y-186524344D01*
X128243256Y-186725162D01*
X127987662Y-186980756D01*
X127786844Y-187281301D01*
X127648518Y-187615250D01*
X127578000Y-187969768D01*
X119047572Y-187969768D01*
X119047572Y-186431000D01*
X119035312Y-186306518D01*
X118999002Y-186186820D01*
X118940037Y-186076506D01*
X118860685Y-185979815D01*
X118763994Y-185900463D01*
X118653680Y-185841498D01*
X118533982Y-185805188D01*
X118409500Y-185792928D01*
X115859500Y-185792928D01*
X115735018Y-185805188D01*
X115615320Y-185841498D01*
X115505006Y-185900463D01*
X115408315Y-185979815D01*
X115328963Y-186076506D01*
X115269998Y-186186820D01*
X115233688Y-186306518D01*
X115221428Y-186431000D01*
X109674252Y-186431000D01*
X109868556Y-186236696D01*
X110028335Y-185997569D01*
X110138393Y-185731866D01*
X110194500Y-185449797D01*
X110194500Y-185162203D01*
X110138393Y-184880134D01*
X110028335Y-184614431D01*
X109868556Y-184375304D01*
X109665196Y-184171944D01*
X109426069Y-184012165D01*
X109160366Y-183902107D01*
X108878297Y-183846000D01*
X108590703Y-183846000D01*
X108308634Y-183902107D01*
X108042931Y-184012165D01*
X107803804Y-184171944D01*
X107600444Y-184375304D01*
X107440665Y-184614431D01*
X107330607Y-184880134D01*
X107274500Y-185162203D01*
X106641464Y-185162203D01*
X106606091Y-184880985D01*
X106487213Y-184524022D01*
X106358445Y-184283116D01*
X106065915Y-184154190D01*
X104914105Y-185306000D01*
X104554895Y-185306000D01*
X103403085Y-184154190D01*
X103110555Y-184283116D01*
X102942204Y-184619586D01*
X102842729Y-184982435D01*
X102815955Y-185357718D01*
X65213496Y-185357718D01*
X65212615Y-183974585D01*
X103582690Y-183974585D01*
X104734500Y-185126395D01*
X105886310Y-183974585D01*
X105757384Y-183682055D01*
X105420914Y-183513704D01*
X105058065Y-183414229D01*
X104682782Y-183387455D01*
X104309485Y-183434409D01*
X103952522Y-183553287D01*
X103711616Y-183682055D01*
X103582690Y-183974585D01*
X65212615Y-183974585D01*
X65211610Y-182397061D01*
X100120500Y-182397061D01*
X100120500Y-182600939D01*
X100160274Y-182800898D01*
X100238295Y-182989256D01*
X100351563Y-183158774D01*
X100495726Y-183302937D01*
X100665244Y-183416205D01*
X100853602Y-183494226D01*
X101053561Y-183534000D01*
X101257439Y-183534000D01*
X101457398Y-183494226D01*
X101645756Y-183416205D01*
X101815274Y-183302937D01*
X101959437Y-183158774D01*
X102072705Y-182989256D01*
X102113914Y-182889768D01*
X127578000Y-182889768D01*
X127578000Y-183251232D01*
X127648518Y-183605750D01*
X127786844Y-183939699D01*
X127987662Y-184240244D01*
X128243256Y-184495838D01*
X128543801Y-184696656D01*
X128877750Y-184834982D01*
X129232268Y-184905500D01*
X129593732Y-184905500D01*
X129948250Y-184834982D01*
X130282199Y-184696656D01*
X130582744Y-184495838D01*
X130838338Y-184240244D01*
X131039156Y-183939699D01*
X131177482Y-183605750D01*
X131248000Y-183251232D01*
X131248000Y-182889768D01*
X131177482Y-182535250D01*
X131039156Y-182201301D01*
X130838338Y-181900756D01*
X130582744Y-181645162D01*
X130282199Y-181444344D01*
X129948250Y-181306018D01*
X129593732Y-181235500D01*
X129232268Y-181235500D01*
X128877750Y-181306018D01*
X128543801Y-181444344D01*
X128243256Y-181645162D01*
X127987662Y-181900756D01*
X127786844Y-182201301D01*
X127648518Y-182535250D01*
X127578000Y-182889768D01*
X102113914Y-182889768D01*
X102150726Y-182800898D01*
X102160630Y-182751105D01*
X103086743Y-181824993D01*
X103120659Y-181797159D01*
X103231753Y-181661791D01*
X103259937Y-181609062D01*
X105428501Y-181609062D01*
X105428501Y-181812940D01*
X105468275Y-182012899D01*
X105546296Y-182201257D01*
X105659564Y-182370775D01*
X105803727Y-182514938D01*
X105973245Y-182628206D01*
X106161603Y-182706227D01*
X106361562Y-182746001D01*
X106565440Y-182746001D01*
X106765399Y-182706227D01*
X106953757Y-182628206D01*
X107123275Y-182514938D01*
X107267438Y-182370775D01*
X107380706Y-182201257D01*
X107458727Y-182012899D01*
X107498501Y-181812940D01*
X107498501Y-181609062D01*
X107458727Y-181409103D01*
X107420809Y-181317561D01*
X112376000Y-181317561D01*
X112376000Y-181521439D01*
X112415774Y-181721398D01*
X112493795Y-181909756D01*
X112607063Y-182079274D01*
X112751226Y-182223437D01*
X112920744Y-182336705D01*
X113109102Y-182414726D01*
X113309061Y-182454500D01*
X113512939Y-182454500D01*
X113712898Y-182414726D01*
X113901256Y-182336705D01*
X114070774Y-182223437D01*
X114214937Y-182079274D01*
X114328205Y-181909756D01*
X114406226Y-181721398D01*
X114446000Y-181521439D01*
X114446000Y-181317561D01*
X114406226Y-181117602D01*
X114328205Y-180929244D01*
X114300000Y-180887032D01*
X114300000Y-178133849D01*
X114451774Y-178032437D01*
X114595937Y-177888274D01*
X114709205Y-177718756D01*
X114787226Y-177530398D01*
X114827000Y-177330439D01*
X114827000Y-177126561D01*
X114787226Y-176926602D01*
X114709205Y-176738244D01*
X114595937Y-176568726D01*
X114451774Y-176424563D01*
X114282256Y-176311295D01*
X114093898Y-176233274D01*
X113893939Y-176193500D01*
X113690061Y-176193500D01*
X113490102Y-176233274D01*
X113301744Y-176311295D01*
X113132226Y-176424563D01*
X112988063Y-176568726D01*
X112874795Y-176738244D01*
X112796774Y-176926602D01*
X112787994Y-176970740D01*
X112779342Y-176977841D01*
X112751507Y-177011758D01*
X112751505Y-177011760D01*
X112668248Y-177113209D01*
X112585698Y-177267648D01*
X112534864Y-177435226D01*
X112517700Y-177609500D01*
X112522001Y-177653170D01*
X112522000Y-180887032D01*
X112493795Y-180929244D01*
X112415774Y-181117602D01*
X112376000Y-181317561D01*
X107420809Y-181317561D01*
X107380706Y-181220745D01*
X107352501Y-181178533D01*
X107352501Y-177918292D01*
X107466774Y-177841937D01*
X107610937Y-177697774D01*
X107724205Y-177528256D01*
X107802226Y-177339898D01*
X107842000Y-177139939D01*
X107842000Y-176936061D01*
X107802226Y-176736102D01*
X107724205Y-176547744D01*
X107610937Y-176378226D01*
X107466774Y-176234063D01*
X107297256Y-176120795D01*
X107235629Y-176095268D01*
X127070000Y-176095268D01*
X127070000Y-176456732D01*
X127140518Y-176811250D01*
X127278844Y-177145199D01*
X127479662Y-177445744D01*
X127735256Y-177701338D01*
X128035801Y-177902156D01*
X128369750Y-178040482D01*
X128724268Y-178111000D01*
X129085732Y-178111000D01*
X129440250Y-178040482D01*
X129774199Y-177902156D01*
X130074744Y-177701338D01*
X130330338Y-177445744D01*
X130531156Y-177145199D01*
X130669482Y-176811250D01*
X130740000Y-176456732D01*
X130740000Y-176095268D01*
X130669482Y-175740750D01*
X130531156Y-175406801D01*
X130330338Y-175106256D01*
X130074744Y-174850662D01*
X129774199Y-174649844D01*
X129440250Y-174511518D01*
X129085732Y-174441000D01*
X128724268Y-174441000D01*
X128369750Y-174511518D01*
X128035801Y-174649844D01*
X127735256Y-174850662D01*
X127479662Y-175106256D01*
X127278844Y-175406801D01*
X127140518Y-175740750D01*
X127070000Y-176095268D01*
X107235629Y-176095268D01*
X107108898Y-176042774D01*
X106908939Y-176003000D01*
X106705061Y-176003000D01*
X106505102Y-176042774D01*
X106316744Y-176120795D01*
X106147226Y-176234063D01*
X106003063Y-176378226D01*
X105889795Y-176547744D01*
X105811774Y-176736102D01*
X105801747Y-176786512D01*
X105720749Y-176885208D01*
X105638199Y-177039647D01*
X105587365Y-177207225D01*
X105570201Y-177381499D01*
X105574502Y-177425169D01*
X105574501Y-181178533D01*
X105546296Y-181220745D01*
X105468275Y-181409103D01*
X105428501Y-181609062D01*
X103259937Y-181609062D01*
X103314303Y-181507351D01*
X103365136Y-181339774D01*
X103378000Y-181209167D01*
X103378000Y-181209160D01*
X103382300Y-181165500D01*
X103378000Y-181121840D01*
X103378000Y-177697468D01*
X103406205Y-177655256D01*
X103484226Y-177466898D01*
X103524000Y-177266939D01*
X103524000Y-177063061D01*
X103484226Y-176863102D01*
X103406205Y-176674744D01*
X103292937Y-176505226D01*
X103148774Y-176361063D01*
X102979256Y-176247795D01*
X102790898Y-176169774D01*
X102590939Y-176130000D01*
X102387061Y-176130000D01*
X102187102Y-176169774D01*
X101998744Y-176247795D01*
X101829226Y-176361063D01*
X101685063Y-176505226D01*
X101571795Y-176674744D01*
X101493774Y-176863102D01*
X101454000Y-177063061D01*
X101454000Y-177266939D01*
X101493774Y-177466898D01*
X101571795Y-177655256D01*
X101600001Y-177697469D01*
X101600000Y-180797264D01*
X100903395Y-181493870D01*
X100853602Y-181503774D01*
X100665244Y-181581795D01*
X100495726Y-181695063D01*
X100351563Y-181839226D01*
X100238295Y-182008744D01*
X100160274Y-182197102D01*
X100120500Y-182397061D01*
X65211610Y-182397061D01*
X65208485Y-177492268D01*
X71634500Y-177492268D01*
X71634500Y-177853732D01*
X71705018Y-178208250D01*
X71843344Y-178542199D01*
X72044162Y-178842744D01*
X72299756Y-179098338D01*
X72600301Y-179299156D01*
X72934250Y-179437482D01*
X73288768Y-179508000D01*
X73650232Y-179508000D01*
X74004750Y-179437482D01*
X74044051Y-179421203D01*
X88878000Y-179421203D01*
X88878000Y-179708797D01*
X88934107Y-179990866D01*
X89044165Y-180256569D01*
X89203944Y-180495696D01*
X89407304Y-180699056D01*
X89646431Y-180858835D01*
X89912134Y-180968893D01*
X90194203Y-181025000D01*
X90481797Y-181025000D01*
X90763866Y-180968893D01*
X91029569Y-180858835D01*
X91268696Y-180699056D01*
X91472056Y-180495696D01*
X91631835Y-180256569D01*
X91741893Y-179990866D01*
X91798000Y-179708797D01*
X91798000Y-179421203D01*
X91789184Y-179376881D01*
X92428000Y-179376881D01*
X92428000Y-179753119D01*
X92501400Y-180122127D01*
X92645380Y-180469724D01*
X92854406Y-180782554D01*
X93120446Y-181048594D01*
X93433276Y-181257620D01*
X93780873Y-181401600D01*
X94149881Y-181475000D01*
X94526119Y-181475000D01*
X94895127Y-181401600D01*
X95242724Y-181257620D01*
X95555554Y-181048594D01*
X95821594Y-180782554D01*
X96030620Y-180469724D01*
X96174600Y-180122127D01*
X96248000Y-179753119D01*
X96248000Y-179376881D01*
X96174600Y-179007873D01*
X96030620Y-178660276D01*
X95821594Y-178347446D01*
X95555554Y-178081406D01*
X95242724Y-177872380D01*
X94895127Y-177728400D01*
X94526119Y-177655000D01*
X94149881Y-177655000D01*
X93780873Y-177728400D01*
X93433276Y-177872380D01*
X93120446Y-178081406D01*
X92854406Y-178347446D01*
X92645380Y-178660276D01*
X92501400Y-179007873D01*
X92428000Y-179376881D01*
X91789184Y-179376881D01*
X91741893Y-179139134D01*
X91631835Y-178873431D01*
X91472056Y-178634304D01*
X91268696Y-178430944D01*
X91029569Y-178271165D01*
X90763866Y-178161107D01*
X90481797Y-178105000D01*
X90194203Y-178105000D01*
X89912134Y-178161107D01*
X89646431Y-178271165D01*
X89407304Y-178430944D01*
X89203944Y-178634304D01*
X89044165Y-178873431D01*
X88934107Y-179139134D01*
X88878000Y-179421203D01*
X74044051Y-179421203D01*
X74338699Y-179299156D01*
X74639244Y-179098338D01*
X74894838Y-178842744D01*
X75095656Y-178542199D01*
X75233982Y-178208250D01*
X75304500Y-177853732D01*
X75304500Y-177492268D01*
X75233982Y-177137750D01*
X75095656Y-176803801D01*
X74894838Y-176503256D01*
X74639244Y-176247662D01*
X74338699Y-176046844D01*
X74004750Y-175908518D01*
X73911654Y-175890000D01*
X80024928Y-175890000D01*
X80024928Y-178440000D01*
X80037188Y-178564482D01*
X80073498Y-178684180D01*
X80132463Y-178794494D01*
X80211815Y-178891185D01*
X80308506Y-178970537D01*
X80418820Y-179029502D01*
X80538518Y-179065812D01*
X80663000Y-179078072D01*
X83213000Y-179078072D01*
X83337482Y-179065812D01*
X83457180Y-179029502D01*
X83567494Y-178970537D01*
X83664185Y-178891185D01*
X83743537Y-178794494D01*
X83802502Y-178684180D01*
X83838812Y-178564482D01*
X83851072Y-178440000D01*
X83851072Y-175890000D01*
X83838812Y-175765518D01*
X83802502Y-175645820D01*
X83743537Y-175535506D01*
X83664185Y-175438815D01*
X83567494Y-175359463D01*
X83457180Y-175300498D01*
X83337482Y-175264188D01*
X83213000Y-175251928D01*
X80663000Y-175251928D01*
X80538518Y-175264188D01*
X80418820Y-175300498D01*
X80308506Y-175359463D01*
X80211815Y-175438815D01*
X80132463Y-175535506D01*
X80073498Y-175645820D01*
X80037188Y-175765518D01*
X80024928Y-175890000D01*
X73911654Y-175890000D01*
X73650232Y-175838000D01*
X73288768Y-175838000D01*
X72934250Y-175908518D01*
X72600301Y-176046844D01*
X72299756Y-176247662D01*
X72044162Y-176503256D01*
X71843344Y-176803801D01*
X71705018Y-177137750D01*
X71634500Y-177492268D01*
X65208485Y-177492268D01*
X65206656Y-174621203D01*
X88878000Y-174621203D01*
X88878000Y-174908797D01*
X88934107Y-175190866D01*
X89044165Y-175456569D01*
X89203944Y-175695696D01*
X89407304Y-175899056D01*
X89646431Y-176058835D01*
X89912134Y-176168893D01*
X90194203Y-176225000D01*
X90481797Y-176225000D01*
X90763866Y-176168893D01*
X91029569Y-176058835D01*
X91268696Y-175899056D01*
X91472056Y-175695696D01*
X91631835Y-175456569D01*
X91741893Y-175190866D01*
X91798000Y-174908797D01*
X91798000Y-174621203D01*
X91789184Y-174576881D01*
X92428000Y-174576881D01*
X92428000Y-174953119D01*
X92501400Y-175322127D01*
X92645380Y-175669724D01*
X92854406Y-175982554D01*
X93120446Y-176248594D01*
X93433276Y-176457620D01*
X93780873Y-176601600D01*
X94149881Y-176675000D01*
X94526119Y-176675000D01*
X94895127Y-176601600D01*
X95242724Y-176457620D01*
X95555554Y-176248594D01*
X95821594Y-175982554D01*
X96030620Y-175669724D01*
X96174600Y-175322127D01*
X96248000Y-174953119D01*
X96248000Y-174576881D01*
X96174600Y-174207873D01*
X96030620Y-173860276D01*
X95821594Y-173547446D01*
X95555554Y-173281406D01*
X95242724Y-173072380D01*
X94895127Y-172928400D01*
X94526119Y-172855000D01*
X94149881Y-172855000D01*
X93780873Y-172928400D01*
X93433276Y-173072380D01*
X93120446Y-173281406D01*
X92854406Y-173547446D01*
X92645380Y-173860276D01*
X92501400Y-174207873D01*
X92428000Y-174576881D01*
X91789184Y-174576881D01*
X91741893Y-174339134D01*
X91631835Y-174073431D01*
X91472056Y-173834304D01*
X91268696Y-173630944D01*
X91029569Y-173471165D01*
X90763866Y-173361107D01*
X90481797Y-173305000D01*
X90194203Y-173305000D01*
X89912134Y-173361107D01*
X89646431Y-173471165D01*
X89407304Y-173630944D01*
X89203944Y-173834304D01*
X89044165Y-174073431D01*
X88934107Y-174339134D01*
X88878000Y-174621203D01*
X65206656Y-174621203D01*
X65206128Y-173793000D01*
X71631428Y-173793000D01*
X71643688Y-173917482D01*
X71679998Y-174037180D01*
X71738963Y-174147494D01*
X71818315Y-174244185D01*
X71915006Y-174323537D01*
X72025320Y-174382502D01*
X72145018Y-174418812D01*
X72269500Y-174431072D01*
X73183750Y-174428000D01*
X73342500Y-174269250D01*
X73342500Y-172720000D01*
X73596500Y-172720000D01*
X73596500Y-174269250D01*
X73755250Y-174428000D01*
X74669500Y-174431072D01*
X74793982Y-174418812D01*
X74913680Y-174382502D01*
X75023994Y-174323537D01*
X75120685Y-174244185D01*
X75200037Y-174147494D01*
X75259002Y-174037180D01*
X75295312Y-173917482D01*
X75307572Y-173793000D01*
X75304500Y-172878750D01*
X75145750Y-172720000D01*
X73596500Y-172720000D01*
X73342500Y-172720000D01*
X71793250Y-172720000D01*
X71634500Y-172878750D01*
X71631428Y-173793000D01*
X65206128Y-173793000D01*
X65205358Y-172582381D01*
X103332500Y-172582381D01*
X103332500Y-172958619D01*
X103405900Y-173327627D01*
X103549880Y-173675224D01*
X103758906Y-173988054D01*
X104024946Y-174254094D01*
X104337776Y-174463120D01*
X104685373Y-174607100D01*
X105054381Y-174680500D01*
X105430619Y-174680500D01*
X105799627Y-174607100D01*
X106147224Y-174463120D01*
X106460054Y-174254094D01*
X106726094Y-173988054D01*
X106935120Y-173675224D01*
X107079100Y-173327627D01*
X107152500Y-172958619D01*
X107152500Y-172626703D01*
X107782500Y-172626703D01*
X107782500Y-172914297D01*
X107838607Y-173196366D01*
X107948665Y-173462069D01*
X108108444Y-173701196D01*
X108311804Y-173904556D01*
X108550931Y-174064335D01*
X108816634Y-174174393D01*
X109098703Y-174230500D01*
X109386297Y-174230500D01*
X109668366Y-174174393D01*
X109934069Y-174064335D01*
X110173196Y-173904556D01*
X110376556Y-173701196D01*
X110536335Y-173462069D01*
X110646393Y-173196366D01*
X110702500Y-172914297D01*
X110702500Y-172626703D01*
X110646393Y-172344634D01*
X110536335Y-172078931D01*
X110376556Y-171839804D01*
X110173196Y-171636444D01*
X109934069Y-171476665D01*
X109668366Y-171366607D01*
X109386297Y-171310500D01*
X109098703Y-171310500D01*
X108816634Y-171366607D01*
X108550931Y-171476665D01*
X108311804Y-171636444D01*
X108108444Y-171839804D01*
X107948665Y-172078931D01*
X107838607Y-172344634D01*
X107782500Y-172626703D01*
X107152500Y-172626703D01*
X107152500Y-172582381D01*
X107079100Y-172213373D01*
X106935120Y-171865776D01*
X106726094Y-171552946D01*
X106460054Y-171286906D01*
X106147224Y-171077880D01*
X105799627Y-170933900D01*
X105430619Y-170860500D01*
X105054381Y-170860500D01*
X104685373Y-170933900D01*
X104337776Y-171077880D01*
X104024946Y-171286906D01*
X103758906Y-171552946D01*
X103549880Y-171865776D01*
X103405900Y-172213373D01*
X103332500Y-172582381D01*
X65205358Y-172582381D01*
X65204600Y-171393000D01*
X71631428Y-171393000D01*
X71634500Y-172307250D01*
X71793250Y-172466000D01*
X73342500Y-172466000D01*
X73342500Y-170916750D01*
X73596500Y-170916750D01*
X73596500Y-172466000D01*
X75145750Y-172466000D01*
X75304500Y-172307250D01*
X75307572Y-171393000D01*
X75295312Y-171268518D01*
X75259002Y-171148820D01*
X75200037Y-171038506D01*
X75120685Y-170941815D01*
X75023994Y-170862463D01*
X74913680Y-170803498D01*
X74793982Y-170767188D01*
X74669500Y-170754928D01*
X73755250Y-170758000D01*
X73596500Y-170916750D01*
X73342500Y-170916750D01*
X73183750Y-170758000D01*
X72269500Y-170754928D01*
X72145018Y-170767188D01*
X72025320Y-170803498D01*
X71915006Y-170862463D01*
X71818315Y-170941815D01*
X71738963Y-171038506D01*
X71679998Y-171148820D01*
X71643688Y-171268518D01*
X71631428Y-171393000D01*
X65204600Y-171393000D01*
X65203269Y-169301915D01*
X104090690Y-169301915D01*
X104219616Y-169594445D01*
X104556086Y-169762796D01*
X104918935Y-169862271D01*
X105294218Y-169889045D01*
X105667515Y-169842091D01*
X106024478Y-169723213D01*
X106265384Y-169594445D01*
X106394310Y-169301915D01*
X105242500Y-168150105D01*
X104090690Y-169301915D01*
X65203269Y-169301915D01*
X65202454Y-168022218D01*
X103323955Y-168022218D01*
X103370909Y-168395515D01*
X103489787Y-168752478D01*
X103618555Y-168993384D01*
X103911085Y-169122310D01*
X105062895Y-167970500D01*
X105422105Y-167970500D01*
X106573915Y-169122310D01*
X106866445Y-168993384D01*
X107034796Y-168656914D01*
X107134271Y-168294065D01*
X107161045Y-167918782D01*
X107149464Y-167826703D01*
X107782500Y-167826703D01*
X107782500Y-168114297D01*
X107838607Y-168396366D01*
X107948665Y-168662069D01*
X108108444Y-168901196D01*
X108311804Y-169104556D01*
X108550931Y-169264335D01*
X108816634Y-169374393D01*
X109098703Y-169430500D01*
X109386297Y-169430500D01*
X109668366Y-169374393D01*
X109934069Y-169264335D01*
X110173196Y-169104556D01*
X110182252Y-169095500D01*
X115729428Y-169095500D01*
X115729428Y-171645500D01*
X115741688Y-171769982D01*
X115777998Y-171889680D01*
X115836963Y-171999994D01*
X115916315Y-172096685D01*
X116013006Y-172176037D01*
X116123320Y-172235002D01*
X116243018Y-172271312D01*
X116367500Y-172283572D01*
X118917500Y-172283572D01*
X119041982Y-172271312D01*
X119161680Y-172235002D01*
X119271994Y-172176037D01*
X119368685Y-172096685D01*
X119448037Y-171999994D01*
X119507002Y-171889680D01*
X119543312Y-171769982D01*
X119555572Y-171645500D01*
X119555572Y-171015268D01*
X127070000Y-171015268D01*
X127070000Y-171376732D01*
X127140518Y-171731250D01*
X127278844Y-172065199D01*
X127479662Y-172365744D01*
X127735256Y-172621338D01*
X128035801Y-172822156D01*
X128369750Y-172960482D01*
X128724268Y-173031000D01*
X129085732Y-173031000D01*
X129440250Y-172960482D01*
X129774199Y-172822156D01*
X130074744Y-172621338D01*
X130330338Y-172365744D01*
X130531156Y-172065199D01*
X130669482Y-171731250D01*
X130740000Y-171376732D01*
X130740000Y-171015268D01*
X130669482Y-170660750D01*
X130531156Y-170326801D01*
X130330338Y-170026256D01*
X130074744Y-169770662D01*
X129774199Y-169569844D01*
X129440250Y-169431518D01*
X129085732Y-169361000D01*
X128724268Y-169361000D01*
X128369750Y-169431518D01*
X128035801Y-169569844D01*
X127735256Y-169770662D01*
X127479662Y-170026256D01*
X127278844Y-170326801D01*
X127140518Y-170660750D01*
X127070000Y-171015268D01*
X119555572Y-171015268D01*
X119555572Y-169095500D01*
X119543312Y-168971018D01*
X119507002Y-168851320D01*
X119448037Y-168741006D01*
X119368685Y-168644315D01*
X119271994Y-168564963D01*
X119161680Y-168505998D01*
X119041982Y-168469688D01*
X118917500Y-168457428D01*
X116367500Y-168457428D01*
X116243018Y-168469688D01*
X116123320Y-168505998D01*
X116013006Y-168564963D01*
X115916315Y-168644315D01*
X115836963Y-168741006D01*
X115777998Y-168851320D01*
X115741688Y-168971018D01*
X115729428Y-169095500D01*
X110182252Y-169095500D01*
X110376556Y-168901196D01*
X110536335Y-168662069D01*
X110646393Y-168396366D01*
X110702500Y-168114297D01*
X110702500Y-167826703D01*
X110646393Y-167544634D01*
X110536335Y-167278931D01*
X110376556Y-167039804D01*
X110173196Y-166836444D01*
X109934069Y-166676665D01*
X109668366Y-166566607D01*
X109386297Y-166510500D01*
X109098703Y-166510500D01*
X108816634Y-166566607D01*
X108550931Y-166676665D01*
X108311804Y-166836444D01*
X108108444Y-167039804D01*
X107948665Y-167278931D01*
X107838607Y-167544634D01*
X107782500Y-167826703D01*
X107149464Y-167826703D01*
X107114091Y-167545485D01*
X106995213Y-167188522D01*
X106866445Y-166947616D01*
X106573915Y-166818690D01*
X105422105Y-167970500D01*
X105062895Y-167970500D01*
X103911085Y-166818690D01*
X103618555Y-166947616D01*
X103450204Y-167284086D01*
X103350729Y-167646935D01*
X103323955Y-168022218D01*
X65202454Y-168022218D01*
X65201574Y-166639085D01*
X104090690Y-166639085D01*
X105242500Y-167790895D01*
X106394310Y-166639085D01*
X106265384Y-166346555D01*
X105928914Y-166178204D01*
X105566065Y-166078729D01*
X105190782Y-166051955D01*
X104817485Y-166098909D01*
X104460522Y-166217787D01*
X104219616Y-166346555D01*
X104090690Y-166639085D01*
X65201574Y-166639085D01*
X65201126Y-165935268D01*
X127070000Y-165935268D01*
X127070000Y-166296732D01*
X127140518Y-166651250D01*
X127278844Y-166985199D01*
X127479662Y-167285744D01*
X127735256Y-167541338D01*
X128035801Y-167742156D01*
X128369750Y-167880482D01*
X128724268Y-167951000D01*
X129085732Y-167951000D01*
X129440250Y-167880482D01*
X129774199Y-167742156D01*
X130074744Y-167541338D01*
X130330338Y-167285744D01*
X130531156Y-166985199D01*
X130669482Y-166651250D01*
X130740000Y-166296732D01*
X130740000Y-165935268D01*
X130669482Y-165580750D01*
X130531156Y-165246801D01*
X130330338Y-164946256D01*
X130074744Y-164690662D01*
X129774199Y-164489844D01*
X129440250Y-164351518D01*
X129085732Y-164281000D01*
X128724268Y-164281000D01*
X128369750Y-164351518D01*
X128035801Y-164489844D01*
X127735256Y-164690662D01*
X127479662Y-164946256D01*
X127278844Y-165246801D01*
X127140518Y-165580750D01*
X127070000Y-165935268D01*
X65201126Y-165935268D01*
X65198413Y-161677500D01*
X95888428Y-161677500D01*
X95888428Y-164077500D01*
X95900688Y-164201982D01*
X95936998Y-164321680D01*
X95995963Y-164431994D01*
X96075315Y-164528685D01*
X96172006Y-164608037D01*
X96282320Y-164667002D01*
X96402018Y-164703312D01*
X96526500Y-164715572D01*
X98926500Y-164715572D01*
X99050982Y-164703312D01*
X99170680Y-164667002D01*
X99280994Y-164608037D01*
X99377685Y-164528685D01*
X99457037Y-164431994D01*
X99516002Y-164321680D01*
X99552312Y-164201982D01*
X99564572Y-164077500D01*
X99564572Y-163679702D01*
X111645403Y-163679702D01*
X111716986Y-163923671D01*
X111972496Y-164044571D01*
X112246684Y-164113300D01*
X112529012Y-164127217D01*
X112808630Y-164085787D01*
X113074792Y-163990603D01*
X113200014Y-163923671D01*
X113271597Y-163679702D01*
X112458500Y-162866605D01*
X111645403Y-163679702D01*
X99564572Y-163679702D01*
X99564572Y-162757512D01*
X111018283Y-162757512D01*
X111059713Y-163037130D01*
X111154897Y-163303292D01*
X111221829Y-163428514D01*
X111465798Y-163500097D01*
X112278895Y-162687000D01*
X112638105Y-162687000D01*
X113451202Y-163500097D01*
X113695171Y-163428514D01*
X113816071Y-163173004D01*
X113884800Y-162898816D01*
X113895241Y-162687000D01*
X118636557Y-162687000D01*
X118664264Y-162968309D01*
X118746318Y-163238808D01*
X118879568Y-163488101D01*
X119058892Y-163706608D01*
X119277399Y-163885932D01*
X119526692Y-164019182D01*
X119797191Y-164101236D01*
X120008008Y-164122000D01*
X120148992Y-164122000D01*
X120359809Y-164101236D01*
X120630308Y-164019182D01*
X120879601Y-163885932D01*
X121098108Y-163706608D01*
X121277432Y-163488101D01*
X121410682Y-163238808D01*
X121492736Y-162968309D01*
X121520443Y-162687000D01*
X121492736Y-162405691D01*
X121410682Y-162135192D01*
X121277432Y-161885899D01*
X121098108Y-161667392D01*
X120879601Y-161488068D01*
X120630308Y-161354818D01*
X120359809Y-161272764D01*
X120148992Y-161252000D01*
X120008008Y-161252000D01*
X119797191Y-161272764D01*
X119526692Y-161354818D01*
X119277399Y-161488068D01*
X119058892Y-161667392D01*
X118879568Y-161885899D01*
X118746318Y-162135192D01*
X118664264Y-162405691D01*
X118636557Y-162687000D01*
X113895241Y-162687000D01*
X113898717Y-162616488D01*
X113857287Y-162336870D01*
X113762103Y-162070708D01*
X113695171Y-161945486D01*
X113451202Y-161873903D01*
X112638105Y-162687000D01*
X112278895Y-162687000D01*
X111465798Y-161873903D01*
X111221829Y-161945486D01*
X111100929Y-162200996D01*
X111032200Y-162475184D01*
X111018283Y-162757512D01*
X99564572Y-162757512D01*
X99564572Y-161694298D01*
X111645403Y-161694298D01*
X112458500Y-162507395D01*
X113271597Y-161694298D01*
X113200014Y-161450329D01*
X112944504Y-161329429D01*
X112670316Y-161260700D01*
X112387988Y-161246783D01*
X112108370Y-161288213D01*
X111842208Y-161383397D01*
X111716986Y-161450329D01*
X111645403Y-161694298D01*
X99564572Y-161694298D01*
X99564572Y-161677500D01*
X99552312Y-161553018D01*
X99516002Y-161433320D01*
X99457037Y-161323006D01*
X99377685Y-161226315D01*
X99280994Y-161146963D01*
X99170680Y-161087998D01*
X99050982Y-161051688D01*
X98926500Y-161039428D01*
X96526500Y-161039428D01*
X96402018Y-161051688D01*
X96282320Y-161087998D01*
X96172006Y-161146963D01*
X96075315Y-161226315D01*
X95995963Y-161323006D01*
X95936998Y-161433320D01*
X95900688Y-161553018D01*
X95888428Y-161677500D01*
X65198413Y-161677500D01*
X65197241Y-159836000D01*
X127066928Y-159836000D01*
X127066928Y-162236000D01*
X127079188Y-162360482D01*
X127115498Y-162480180D01*
X127174463Y-162590494D01*
X127253815Y-162687185D01*
X127350506Y-162766537D01*
X127460820Y-162825502D01*
X127580518Y-162861812D01*
X127705000Y-162874072D01*
X130105000Y-162874072D01*
X130229482Y-162861812D01*
X130349180Y-162825502D01*
X130459494Y-162766537D01*
X130556185Y-162687185D01*
X130635537Y-162590494D01*
X130694502Y-162480180D01*
X130730812Y-162360482D01*
X130743072Y-162236000D01*
X130743072Y-159836000D01*
X130730812Y-159711518D01*
X130694502Y-159591820D01*
X130635537Y-159481506D01*
X130556185Y-159384815D01*
X130459494Y-159305463D01*
X130349180Y-159246498D01*
X130229482Y-159210188D01*
X130105000Y-159197928D01*
X127705000Y-159197928D01*
X127580518Y-159210188D01*
X127460820Y-159246498D01*
X127350506Y-159305463D01*
X127253815Y-159384815D01*
X127174463Y-159481506D01*
X127115498Y-159591820D01*
X127079188Y-159711518D01*
X127066928Y-159836000D01*
X65197241Y-159836000D01*
X65196756Y-159075480D01*
X96628126Y-159075480D01*
X96748014Y-159360336D01*
X97071710Y-159521199D01*
X97420569Y-159615822D01*
X97781184Y-159640567D01*
X98139698Y-159594485D01*
X98482333Y-159479346D01*
X98704986Y-159360336D01*
X98824874Y-159075480D01*
X97726500Y-157977105D01*
X96628126Y-159075480D01*
X65196756Y-159075480D01*
X65195976Y-157852184D01*
X95883433Y-157852184D01*
X95929515Y-158210698D01*
X96044654Y-158553333D01*
X96163664Y-158775986D01*
X96448520Y-158895874D01*
X97546895Y-157797500D01*
X97906105Y-157797500D01*
X99004480Y-158895874D01*
X99289336Y-158775986D01*
X99450199Y-158452290D01*
X99544822Y-158103431D01*
X99569567Y-157742816D01*
X99523485Y-157384302D01*
X99408346Y-157041667D01*
X99289336Y-156819014D01*
X99004480Y-156699126D01*
X97906105Y-157797500D01*
X97546895Y-157797500D01*
X96448520Y-156699126D01*
X96163664Y-156819014D01*
X96002801Y-157142710D01*
X95908178Y-157491569D01*
X95883433Y-157852184D01*
X65195976Y-157852184D01*
X65195128Y-156519520D01*
X96628126Y-156519520D01*
X97726500Y-157617895D01*
X98824874Y-156519520D01*
X98704986Y-156234664D01*
X98381290Y-156073801D01*
X98032431Y-155979178D01*
X97671816Y-155954433D01*
X97313302Y-156000515D01*
X96970667Y-156115654D01*
X96748014Y-156234664D01*
X96628126Y-156519520D01*
X65195128Y-156519520D01*
X65194715Y-155869202D01*
X111708903Y-155869202D01*
X111780486Y-156113171D01*
X112035996Y-156234071D01*
X112310184Y-156302800D01*
X112592512Y-156316717D01*
X112872130Y-156275287D01*
X113138292Y-156180103D01*
X113263514Y-156113171D01*
X113335097Y-155869202D01*
X112522000Y-155056105D01*
X111708903Y-155869202D01*
X65194715Y-155869202D01*
X65194127Y-154947012D01*
X111081783Y-154947012D01*
X111123213Y-155226630D01*
X111218397Y-155492792D01*
X111285329Y-155618014D01*
X111529298Y-155689597D01*
X112342395Y-154876500D01*
X112701605Y-154876500D01*
X113514702Y-155689597D01*
X113758671Y-155618014D01*
X113879571Y-155362504D01*
X113948300Y-155088316D01*
X113958741Y-154876500D01*
X118700057Y-154876500D01*
X118727764Y-155157809D01*
X118809818Y-155428308D01*
X118943068Y-155677601D01*
X119122392Y-155896108D01*
X119340899Y-156075432D01*
X119590192Y-156208682D01*
X119860691Y-156290736D01*
X120071508Y-156311500D01*
X120212492Y-156311500D01*
X120423309Y-156290736D01*
X120693808Y-156208682D01*
X120943101Y-156075432D01*
X121161608Y-155896108D01*
X121340932Y-155677601D01*
X121474182Y-155428308D01*
X121556236Y-155157809D01*
X121583943Y-154876500D01*
X121556236Y-154595191D01*
X121474182Y-154324692D01*
X121340932Y-154075399D01*
X121161608Y-153856892D01*
X120943101Y-153677568D01*
X120693808Y-153544318D01*
X120423309Y-153462264D01*
X120212492Y-153441500D01*
X120071508Y-153441500D01*
X119860691Y-153462264D01*
X119590192Y-153544318D01*
X119340899Y-153677568D01*
X119122392Y-153856892D01*
X118943068Y-154075399D01*
X118809818Y-154324692D01*
X118727764Y-154595191D01*
X118700057Y-154876500D01*
X113958741Y-154876500D01*
X113962217Y-154805988D01*
X113920787Y-154526370D01*
X113825603Y-154260208D01*
X113758671Y-154134986D01*
X113514702Y-154063403D01*
X112701605Y-154876500D01*
X112342395Y-154876500D01*
X111529298Y-154063403D01*
X111285329Y-154134986D01*
X111164429Y-154390496D01*
X111095700Y-154664684D01*
X111081783Y-154947012D01*
X65194127Y-154947012D01*
X65193450Y-153883798D01*
X111708903Y-153883798D01*
X112522000Y-154696895D01*
X113335097Y-153883798D01*
X113263514Y-153639829D01*
X113008004Y-153518929D01*
X112733816Y-153450200D01*
X112451488Y-153436283D01*
X112171870Y-153477713D01*
X111905708Y-153572897D01*
X111780486Y-153639829D01*
X111708903Y-153883798D01*
X65193450Y-153883798D01*
X65191891Y-151436881D01*
X104475500Y-151436881D01*
X104475500Y-151813119D01*
X104548900Y-152182127D01*
X104692880Y-152529724D01*
X104901906Y-152842554D01*
X105167946Y-153108594D01*
X105480776Y-153317620D01*
X105828373Y-153461600D01*
X106197381Y-153535000D01*
X106573619Y-153535000D01*
X106942627Y-153461600D01*
X107290224Y-153317620D01*
X107603054Y-153108594D01*
X107869094Y-152842554D01*
X108078120Y-152529724D01*
X108222100Y-152182127D01*
X108295500Y-151813119D01*
X108295500Y-151481203D01*
X108925500Y-151481203D01*
X108925500Y-151768797D01*
X108981607Y-152050866D01*
X109091665Y-152316569D01*
X109251444Y-152555696D01*
X109454804Y-152759056D01*
X109693931Y-152918835D01*
X109959634Y-153028893D01*
X110241703Y-153085000D01*
X110529297Y-153085000D01*
X110811366Y-153028893D01*
X111077069Y-152918835D01*
X111316196Y-152759056D01*
X111414752Y-152660500D01*
X127574928Y-152660500D01*
X127574928Y-155060500D01*
X127587188Y-155184982D01*
X127623498Y-155304680D01*
X127682463Y-155414994D01*
X127761815Y-155511685D01*
X127858506Y-155591037D01*
X127968820Y-155650002D01*
X128088518Y-155686312D01*
X128213000Y-155698572D01*
X130613000Y-155698572D01*
X130737482Y-155686312D01*
X130857180Y-155650002D01*
X130967494Y-155591037D01*
X131064185Y-155511685D01*
X131143537Y-155414994D01*
X131202502Y-155304680D01*
X131238812Y-155184982D01*
X131251072Y-155060500D01*
X131251072Y-152660500D01*
X131238812Y-152536018D01*
X131202502Y-152416320D01*
X131143537Y-152306006D01*
X131064185Y-152209315D01*
X130967494Y-152129963D01*
X130857180Y-152070998D01*
X130737482Y-152034688D01*
X130613000Y-152022428D01*
X128213000Y-152022428D01*
X128088518Y-152034688D01*
X127968820Y-152070998D01*
X127858506Y-152129963D01*
X127761815Y-152209315D01*
X127682463Y-152306006D01*
X127623498Y-152416320D01*
X127587188Y-152536018D01*
X127574928Y-152660500D01*
X111414752Y-152660500D01*
X111519556Y-152555696D01*
X111679335Y-152316569D01*
X111789393Y-152050866D01*
X111845500Y-151768797D01*
X111845500Y-151481203D01*
X111789393Y-151199134D01*
X111679335Y-150933431D01*
X111519556Y-150694304D01*
X111316196Y-150490944D01*
X111077069Y-150331165D01*
X110811366Y-150221107D01*
X110529297Y-150165000D01*
X110241703Y-150165000D01*
X109959634Y-150221107D01*
X109693931Y-150331165D01*
X109454804Y-150490944D01*
X109251444Y-150694304D01*
X109091665Y-150933431D01*
X108981607Y-151199134D01*
X108925500Y-151481203D01*
X108295500Y-151481203D01*
X108295500Y-151436881D01*
X108222100Y-151067873D01*
X108078120Y-150720276D01*
X107869094Y-150407446D01*
X107603054Y-150141406D01*
X107290224Y-149932380D01*
X106942627Y-149788400D01*
X106573619Y-149715000D01*
X106197381Y-149715000D01*
X105828373Y-149788400D01*
X105480776Y-149932380D01*
X105167946Y-150141406D01*
X104901906Y-150407446D01*
X104692880Y-150720276D01*
X104548900Y-151067873D01*
X104475500Y-151436881D01*
X65191891Y-151436881D01*
X65189802Y-148156415D01*
X105233690Y-148156415D01*
X105362616Y-148448945D01*
X105699086Y-148617296D01*
X106061935Y-148716771D01*
X106437218Y-148743545D01*
X106810515Y-148696591D01*
X107167478Y-148577713D01*
X107408384Y-148448945D01*
X107537310Y-148156415D01*
X106385500Y-147004605D01*
X105233690Y-148156415D01*
X65189802Y-148156415D01*
X65188986Y-146876718D01*
X104466955Y-146876718D01*
X104513909Y-147250015D01*
X104632787Y-147606978D01*
X104761555Y-147847884D01*
X105054085Y-147976810D01*
X106205895Y-146825000D01*
X106565105Y-146825000D01*
X107716915Y-147976810D01*
X108009445Y-147847884D01*
X108177796Y-147511414D01*
X108277271Y-147148565D01*
X108304045Y-146773282D01*
X108292464Y-146681203D01*
X108925500Y-146681203D01*
X108925500Y-146968797D01*
X108981607Y-147250866D01*
X109091665Y-147516569D01*
X109251444Y-147755696D01*
X109454804Y-147959056D01*
X109693931Y-148118835D01*
X109959634Y-148228893D01*
X110241703Y-148285000D01*
X110529297Y-148285000D01*
X110811366Y-148228893D01*
X111077069Y-148118835D01*
X111316196Y-147959056D01*
X111325252Y-147950000D01*
X116872428Y-147950000D01*
X116872428Y-150500000D01*
X116884688Y-150624482D01*
X116920998Y-150744180D01*
X116979963Y-150854494D01*
X117059315Y-150951185D01*
X117156006Y-151030537D01*
X117266320Y-151089502D01*
X117386018Y-151125812D01*
X117510500Y-151138072D01*
X120060500Y-151138072D01*
X120184982Y-151125812D01*
X120304680Y-151089502D01*
X120414994Y-151030537D01*
X120511685Y-150951185D01*
X120591037Y-150854494D01*
X120650002Y-150744180D01*
X120686312Y-150624482D01*
X120698572Y-150500000D01*
X120698572Y-148599768D01*
X127578000Y-148599768D01*
X127578000Y-148961232D01*
X127648518Y-149315750D01*
X127786844Y-149649699D01*
X127987662Y-149950244D01*
X128243256Y-150205838D01*
X128543801Y-150406656D01*
X128877750Y-150544982D01*
X129232268Y-150615500D01*
X129593732Y-150615500D01*
X129948250Y-150544982D01*
X130282199Y-150406656D01*
X130582744Y-150205838D01*
X130838338Y-149950244D01*
X131039156Y-149649699D01*
X131177482Y-149315750D01*
X131248000Y-148961232D01*
X131248000Y-148599768D01*
X131177482Y-148245250D01*
X131039156Y-147911301D01*
X130838338Y-147610756D01*
X130582744Y-147355162D01*
X130282199Y-147154344D01*
X129948250Y-147016018D01*
X129593732Y-146945500D01*
X129232268Y-146945500D01*
X128877750Y-147016018D01*
X128543801Y-147154344D01*
X128243256Y-147355162D01*
X127987662Y-147610756D01*
X127786844Y-147911301D01*
X127648518Y-148245250D01*
X127578000Y-148599768D01*
X120698572Y-148599768D01*
X120698572Y-147950000D01*
X120686312Y-147825518D01*
X120650002Y-147705820D01*
X120591037Y-147595506D01*
X120511685Y-147498815D01*
X120414994Y-147419463D01*
X120304680Y-147360498D01*
X120184982Y-147324188D01*
X120060500Y-147311928D01*
X117510500Y-147311928D01*
X117386018Y-147324188D01*
X117266320Y-147360498D01*
X117156006Y-147419463D01*
X117059315Y-147498815D01*
X116979963Y-147595506D01*
X116920998Y-147705820D01*
X116884688Y-147825518D01*
X116872428Y-147950000D01*
X111325252Y-147950000D01*
X111519556Y-147755696D01*
X111679335Y-147516569D01*
X111789393Y-147250866D01*
X111845500Y-146968797D01*
X111845500Y-146681203D01*
X111789393Y-146399134D01*
X111679335Y-146133431D01*
X111519556Y-145894304D01*
X111316196Y-145690944D01*
X111077069Y-145531165D01*
X110811366Y-145421107D01*
X110529297Y-145365000D01*
X110241703Y-145365000D01*
X109959634Y-145421107D01*
X109693931Y-145531165D01*
X109454804Y-145690944D01*
X109251444Y-145894304D01*
X109091665Y-146133431D01*
X108981607Y-146399134D01*
X108925500Y-146681203D01*
X108292464Y-146681203D01*
X108257091Y-146399985D01*
X108138213Y-146043022D01*
X108009445Y-145802116D01*
X107716915Y-145673190D01*
X106565105Y-146825000D01*
X106205895Y-146825000D01*
X105054085Y-145673190D01*
X104761555Y-145802116D01*
X104593204Y-146138586D01*
X104493729Y-146501435D01*
X104466955Y-146876718D01*
X65188986Y-146876718D01*
X65188105Y-145493585D01*
X105233690Y-145493585D01*
X106385500Y-146645395D01*
X107537310Y-145493585D01*
X107408384Y-145201055D01*
X107071914Y-145032704D01*
X106709065Y-144933229D01*
X106333782Y-144906455D01*
X105960485Y-144953409D01*
X105603522Y-145072287D01*
X105362616Y-145201055D01*
X105233690Y-145493585D01*
X65188105Y-145493585D01*
X65186848Y-143519768D01*
X127578000Y-143519768D01*
X127578000Y-143881232D01*
X127648518Y-144235750D01*
X127786844Y-144569699D01*
X127987662Y-144870244D01*
X128243256Y-145125838D01*
X128543801Y-145326656D01*
X128877750Y-145464982D01*
X129232268Y-145535500D01*
X129593732Y-145535500D01*
X129948250Y-145464982D01*
X130282199Y-145326656D01*
X130582744Y-145125838D01*
X130838338Y-144870244D01*
X131039156Y-144569699D01*
X131177482Y-144235750D01*
X131248000Y-143881232D01*
X131248000Y-143519768D01*
X131177482Y-143165250D01*
X131039156Y-142831301D01*
X130838338Y-142530756D01*
X130582744Y-142275162D01*
X130282199Y-142074344D01*
X129948250Y-141936018D01*
X129593732Y-141865500D01*
X129232268Y-141865500D01*
X128877750Y-141936018D01*
X128543801Y-142074344D01*
X128243256Y-142275162D01*
X127987662Y-142530756D01*
X127786844Y-142831301D01*
X127648518Y-143165250D01*
X127578000Y-143519768D01*
X65186848Y-143519768D01*
X65183612Y-138439768D01*
X127578000Y-138439768D01*
X127578000Y-138801232D01*
X127648518Y-139155750D01*
X127786844Y-139489699D01*
X127987662Y-139790244D01*
X128243256Y-140045838D01*
X128543801Y-140246656D01*
X128877750Y-140384982D01*
X129232268Y-140455500D01*
X129593732Y-140455500D01*
X129948250Y-140384982D01*
X130282199Y-140246656D01*
X130582744Y-140045838D01*
X130838338Y-139790244D01*
X131039156Y-139489699D01*
X131177482Y-139155750D01*
X131248000Y-138801232D01*
X131248000Y-138439768D01*
X131177482Y-138085250D01*
X131039156Y-137751301D01*
X130838338Y-137450756D01*
X130582744Y-137195162D01*
X130282199Y-136994344D01*
X129948250Y-136856018D01*
X129593732Y-136785500D01*
X129232268Y-136785500D01*
X128877750Y-136856018D01*
X128543801Y-136994344D01*
X128243256Y-137195162D01*
X127987662Y-137450756D01*
X127786844Y-137751301D01*
X127648518Y-138085250D01*
X127578000Y-138439768D01*
X65183612Y-138439768D01*
X65180702Y-133873821D01*
X65464803Y-134559702D01*
X66037710Y-135417118D01*
X66766882Y-136146290D01*
X67624298Y-136719197D01*
X68577007Y-137113822D01*
X69588397Y-137315000D01*
X70619603Y-137315000D01*
X71630993Y-137113822D01*
X72583702Y-136719197D01*
X73441118Y-136146290D01*
X74170290Y-135417118D01*
X74743197Y-134559702D01*
X75137822Y-133606993D01*
X75339000Y-132595603D01*
X75339000Y-132213500D01*
X79314928Y-132213500D01*
X79314928Y-134613500D01*
X79327188Y-134737982D01*
X79363498Y-134857680D01*
X79422463Y-134967994D01*
X79501815Y-135064685D01*
X79598506Y-135144037D01*
X79708820Y-135203002D01*
X79828518Y-135239312D01*
X79953000Y-135251572D01*
X82353000Y-135251572D01*
X82477482Y-135239312D01*
X82597180Y-135203002D01*
X82707494Y-135144037D01*
X82804185Y-135064685D01*
X82883537Y-134967994D01*
X82942502Y-134857680D01*
X82978812Y-134737982D01*
X82991072Y-134613500D01*
X82991072Y-133232768D01*
X84398000Y-133232768D01*
X84398000Y-133594232D01*
X84468518Y-133948750D01*
X84606844Y-134282699D01*
X84807662Y-134583244D01*
X85063256Y-134838838D01*
X85363801Y-135039656D01*
X85697750Y-135177982D01*
X86052268Y-135248500D01*
X86413732Y-135248500D01*
X86768250Y-135177982D01*
X87102199Y-135039656D01*
X87402744Y-134838838D01*
X87658338Y-134583244D01*
X87859156Y-134282699D01*
X87997482Y-133948750D01*
X88068000Y-133594232D01*
X88068000Y-133232768D01*
X89478000Y-133232768D01*
X89478000Y-133594232D01*
X89548518Y-133948750D01*
X89686844Y-134282699D01*
X89887662Y-134583244D01*
X90143256Y-134838838D01*
X90443801Y-135039656D01*
X90777750Y-135177982D01*
X91132268Y-135248500D01*
X91493732Y-135248500D01*
X91848250Y-135177982D01*
X92182199Y-135039656D01*
X92482744Y-134838838D01*
X92738338Y-134583244D01*
X92939156Y-134282699D01*
X93077482Y-133948750D01*
X93148000Y-133594232D01*
X93148000Y-133232768D01*
X94558000Y-133232768D01*
X94558000Y-133594232D01*
X94628518Y-133948750D01*
X94766844Y-134282699D01*
X94967662Y-134583244D01*
X95223256Y-134838838D01*
X95523801Y-135039656D01*
X95857750Y-135177982D01*
X96212268Y-135248500D01*
X96573732Y-135248500D01*
X96928250Y-135177982D01*
X97262199Y-135039656D01*
X97562744Y-134838838D01*
X97818338Y-134583244D01*
X98019156Y-134282699D01*
X98157482Y-133948750D01*
X98228000Y-133594232D01*
X98228000Y-133232768D01*
X99638000Y-133232768D01*
X99638000Y-133594232D01*
X99708518Y-133948750D01*
X99846844Y-134282699D01*
X100047662Y-134583244D01*
X100303256Y-134838838D01*
X100603801Y-135039656D01*
X100937750Y-135177982D01*
X101292268Y-135248500D01*
X101653732Y-135248500D01*
X102008250Y-135177982D01*
X102342199Y-135039656D01*
X102642744Y-134838838D01*
X102898338Y-134583244D01*
X103099156Y-134282699D01*
X103237482Y-133948750D01*
X103308000Y-133594232D01*
X103308000Y-133232768D01*
X104718000Y-133232768D01*
X104718000Y-133594232D01*
X104788518Y-133948750D01*
X104926844Y-134282699D01*
X105127662Y-134583244D01*
X105383256Y-134838838D01*
X105683801Y-135039656D01*
X106017750Y-135177982D01*
X106372268Y-135248500D01*
X106733732Y-135248500D01*
X107088250Y-135177982D01*
X107422199Y-135039656D01*
X107722744Y-134838838D01*
X107978338Y-134583244D01*
X108179156Y-134282699D01*
X108317482Y-133948750D01*
X108388000Y-133594232D01*
X108388000Y-133232768D01*
X108317482Y-132878250D01*
X108179156Y-132544301D01*
X107978338Y-132243756D01*
X107722744Y-131988162D01*
X107422199Y-131787344D01*
X107088250Y-131649018D01*
X106733732Y-131578500D01*
X106372268Y-131578500D01*
X106017750Y-131649018D01*
X105683801Y-131787344D01*
X105383256Y-131988162D01*
X105127662Y-132243756D01*
X104926844Y-132544301D01*
X104788518Y-132878250D01*
X104718000Y-133232768D01*
X103308000Y-133232768D01*
X103237482Y-132878250D01*
X103099156Y-132544301D01*
X102898338Y-132243756D01*
X102642744Y-131988162D01*
X102342199Y-131787344D01*
X102008250Y-131649018D01*
X101653732Y-131578500D01*
X101292268Y-131578500D01*
X100937750Y-131649018D01*
X100603801Y-131787344D01*
X100303256Y-131988162D01*
X100047662Y-132243756D01*
X99846844Y-132544301D01*
X99708518Y-132878250D01*
X99638000Y-133232768D01*
X98228000Y-133232768D01*
X98157482Y-132878250D01*
X98019156Y-132544301D01*
X97818338Y-132243756D01*
X97562744Y-131988162D01*
X97262199Y-131787344D01*
X96928250Y-131649018D01*
X96573732Y-131578500D01*
X96212268Y-131578500D01*
X95857750Y-131649018D01*
X95523801Y-131787344D01*
X95223256Y-131988162D01*
X94967662Y-132243756D01*
X94766844Y-132544301D01*
X94628518Y-132878250D01*
X94558000Y-133232768D01*
X93148000Y-133232768D01*
X93077482Y-132878250D01*
X92939156Y-132544301D01*
X92738338Y-132243756D01*
X92482744Y-131988162D01*
X92182199Y-131787344D01*
X91848250Y-131649018D01*
X91493732Y-131578500D01*
X91132268Y-131578500D01*
X90777750Y-131649018D01*
X90443801Y-131787344D01*
X90143256Y-131988162D01*
X89887662Y-132243756D01*
X89686844Y-132544301D01*
X89548518Y-132878250D01*
X89478000Y-133232768D01*
X88068000Y-133232768D01*
X87997482Y-132878250D01*
X87859156Y-132544301D01*
X87658338Y-132243756D01*
X87402744Y-131988162D01*
X87102199Y-131787344D01*
X86768250Y-131649018D01*
X86413732Y-131578500D01*
X86052268Y-131578500D01*
X85697750Y-131649018D01*
X85363801Y-131787344D01*
X85063256Y-131988162D01*
X84807662Y-132243756D01*
X84606844Y-132544301D01*
X84468518Y-132878250D01*
X84398000Y-133232768D01*
X82991072Y-133232768D01*
X82991072Y-132213500D01*
X82978812Y-132089018D01*
X82942502Y-131969320D01*
X82883537Y-131859006D01*
X82804185Y-131762315D01*
X82707494Y-131682963D01*
X82597180Y-131623998D01*
X82477482Y-131587688D01*
X82353000Y-131575428D01*
X79953000Y-131575428D01*
X79828518Y-131587688D01*
X79708820Y-131623998D01*
X79598506Y-131682963D01*
X79501815Y-131762315D01*
X79422463Y-131859006D01*
X79363498Y-131969320D01*
X79327188Y-132089018D01*
X79314928Y-132213500D01*
X75339000Y-132213500D01*
X75339000Y-131564397D01*
X75137822Y-130553007D01*
X74743197Y-129600298D01*
X74170290Y-128742882D01*
X73441118Y-128013710D01*
X72583702Y-127440803D01*
X71886470Y-127152000D01*
X118089948Y-127152000D01*
X117345007Y-127300178D01*
X117345007Y-127300178D01*
G37*
X117345007Y-127300178D02*
X116392298Y-127694803D01*
X115534882Y-128267710D01*
X114805710Y-128996882D01*
X114232803Y-129854298D01*
X113838178Y-130807007D01*
X113637000Y-131818397D01*
X113637000Y-132849603D01*
X113838178Y-133860993D01*
X114232803Y-134813702D01*
X114805710Y-135671118D01*
X115534882Y-136400290D01*
X116392298Y-136973197D01*
X117345007Y-137367822D01*
X118356397Y-137569000D01*
X119387603Y-137569000D01*
X120398993Y-137367822D01*
X121351702Y-136973197D01*
X122209118Y-136400290D01*
X122938290Y-135671118D01*
X123511197Y-134813702D01*
X123905822Y-133860993D01*
X124107000Y-132849603D01*
X124107000Y-131818397D01*
X123905822Y-130807007D01*
X123511197Y-129854298D01*
X122938290Y-128996882D01*
X122209118Y-128267710D01*
X121351702Y-127694803D01*
X120398993Y-127300178D01*
X119654052Y-127152000D01*
X139103500Y-127152000D01*
X139103501Y-225527000D01*
X108608524Y-225527000D01*
X108714993Y-225505822D01*
X109667702Y-225111197D01*
X110525118Y-224538290D01*
X111254290Y-223809118D01*
X111827197Y-222951702D01*
X112221822Y-221998993D01*
X112423000Y-220987603D01*
X112423000Y-220956702D01*
X113677403Y-220956702D01*
X113748986Y-221200671D01*
X114004496Y-221321571D01*
X114278684Y-221390300D01*
X114561012Y-221404217D01*
X114840630Y-221362787D01*
X115106792Y-221267603D01*
X115232014Y-221200671D01*
X115303597Y-220956702D01*
X114490500Y-220143605D01*
X113677403Y-220956702D01*
X112423000Y-220956702D01*
X112423000Y-220034512D01*
X113050283Y-220034512D01*
X113091713Y-220314130D01*
X113186897Y-220580292D01*
X113253829Y-220705514D01*
X113497798Y-220777097D01*
X114310895Y-219964000D01*
X114670105Y-219964000D01*
X115483202Y-220777097D01*
X115727171Y-220705514D01*
X115848071Y-220450004D01*
X115916800Y-220175816D01*
X115927241Y-219964000D01*
X120668557Y-219964000D01*
X120696264Y-220245309D01*
X120778318Y-220515808D01*
X120911568Y-220765101D01*
X121090892Y-220983608D01*
X121309399Y-221162932D01*
X121558692Y-221296182D01*
X121829191Y-221378236D01*
X122040008Y-221399000D01*
X122180992Y-221399000D01*
X122391809Y-221378236D01*
X122662308Y-221296182D01*
X122911601Y-221162932D01*
X123130108Y-220983608D01*
X123309432Y-220765101D01*
X123442682Y-220515808D01*
X123524736Y-220245309D01*
X123552443Y-219964000D01*
X123524736Y-219682691D01*
X123442682Y-219412192D01*
X123309432Y-219162899D01*
X123130108Y-218944392D01*
X122911601Y-218765068D01*
X122672003Y-218637000D01*
X127384428Y-218637000D01*
X127384428Y-221037000D01*
X127396688Y-221161482D01*
X127432998Y-221281180D01*
X127491963Y-221391494D01*
X127571315Y-221488185D01*
X127668006Y-221567537D01*
X127778320Y-221626502D01*
X127898018Y-221662812D01*
X128022500Y-221675072D01*
X130422500Y-221675072D01*
X130546982Y-221662812D01*
X130666680Y-221626502D01*
X130776994Y-221567537D01*
X130873685Y-221488185D01*
X130953037Y-221391494D01*
X131012002Y-221281180D01*
X131048312Y-221161482D01*
X131060572Y-221037000D01*
X131060572Y-218637000D01*
X131048312Y-218512518D01*
X131012002Y-218392820D01*
X130953037Y-218282506D01*
X130873685Y-218185815D01*
X130776994Y-218106463D01*
X130666680Y-218047498D01*
X130546982Y-218011188D01*
X130422500Y-217998928D01*
X128022500Y-217998928D01*
X127898018Y-218011188D01*
X127778320Y-218047498D01*
X127668006Y-218106463D01*
X127571315Y-218185815D01*
X127491963Y-218282506D01*
X127432998Y-218392820D01*
X127396688Y-218512518D01*
X127384428Y-218637000D01*
X122672003Y-218637000D01*
X122662308Y-218631818D01*
X122391809Y-218549764D01*
X122180992Y-218529000D01*
X122040008Y-218529000D01*
X121829191Y-218549764D01*
X121558692Y-218631818D01*
X121309399Y-218765068D01*
X121090892Y-218944392D01*
X120911568Y-219162899D01*
X120778318Y-219412192D01*
X120696264Y-219682691D01*
X120668557Y-219964000D01*
X115927241Y-219964000D01*
X115930717Y-219893488D01*
X115889287Y-219613870D01*
X115794103Y-219347708D01*
X115727171Y-219222486D01*
X115483202Y-219150903D01*
X114670105Y-219964000D01*
X114310895Y-219964000D01*
X113497798Y-219150903D01*
X113253829Y-219222486D01*
X113132929Y-219477996D01*
X113064200Y-219752184D01*
X113050283Y-220034512D01*
X112423000Y-220034512D01*
X112423000Y-219956397D01*
X112227052Y-218971298D01*
X113677403Y-218971298D01*
X114490500Y-219784395D01*
X115303597Y-218971298D01*
X115232014Y-218727329D01*
X114976504Y-218606429D01*
X114702316Y-218537700D01*
X114419988Y-218523783D01*
X114140370Y-218565213D01*
X113874208Y-218660397D01*
X113748986Y-218727329D01*
X113677403Y-218971298D01*
X112227052Y-218971298D01*
X112221822Y-218945007D01*
X111827197Y-217992298D01*
X111254290Y-217134882D01*
X110525118Y-216405710D01*
X109667702Y-215832803D01*
X108714993Y-215438178D01*
X107703603Y-215237000D01*
X106672397Y-215237000D01*
X105661007Y-215438178D01*
X104708298Y-215832803D01*
X103850882Y-216405710D01*
X103121710Y-217134882D01*
X102548803Y-217992298D01*
X102154178Y-218945007D01*
X101953000Y-219956397D01*
X101953000Y-220987603D01*
X102154178Y-221998993D01*
X102548803Y-222951702D01*
X103121710Y-223809118D01*
X103850882Y-224538290D01*
X104708298Y-225111197D01*
X105661007Y-225505822D01*
X105767476Y-225527000D01*
X72039772Y-225527000D01*
X72583702Y-225301697D01*
X73441118Y-224728790D01*
X74170290Y-223999618D01*
X74743197Y-223142202D01*
X75137822Y-222189493D01*
X75339000Y-221178103D01*
X75339000Y-220146897D01*
X75137822Y-219135507D01*
X74743197Y-218182798D01*
X74170290Y-217325382D01*
X73441118Y-216596210D01*
X72583702Y-216023303D01*
X71630993Y-215628678D01*
X70619603Y-215427500D01*
X69588397Y-215427500D01*
X68577007Y-215628678D01*
X67624298Y-216023303D01*
X66766882Y-216596210D01*
X66037710Y-217325382D01*
X65464803Y-218182798D01*
X65234755Y-218738183D01*
X65232105Y-214576268D01*
X127387500Y-214576268D01*
X127387500Y-214937732D01*
X127458018Y-215292250D01*
X127596344Y-215626199D01*
X127797162Y-215926744D01*
X128052756Y-216182338D01*
X128353301Y-216383156D01*
X128687250Y-216521482D01*
X129041768Y-216592000D01*
X129403232Y-216592000D01*
X129757750Y-216521482D01*
X130091699Y-216383156D01*
X130392244Y-216182338D01*
X130647838Y-215926744D01*
X130848656Y-215626199D01*
X130986982Y-215292250D01*
X131057500Y-214937732D01*
X131057500Y-214576268D01*
X130986982Y-214221750D01*
X130848656Y-213887801D01*
X130647838Y-213587256D01*
X130392244Y-213331662D01*
X130091699Y-213130844D01*
X129757750Y-212992518D01*
X129403232Y-212922000D01*
X129041768Y-212922000D01*
X128687250Y-212992518D01*
X128353301Y-213130844D01*
X128052756Y-213331662D01*
X127797162Y-213587256D01*
X127596344Y-213887801D01*
X127458018Y-214221750D01*
X127387500Y-214576268D01*
X65232105Y-214576268D01*
X65228331Y-208650381D01*
X102824500Y-208650381D01*
X102824500Y-209026619D01*
X102897900Y-209395627D01*
X103041880Y-209743224D01*
X103250906Y-210056054D01*
X103516946Y-210322094D01*
X103829776Y-210531120D01*
X104177373Y-210675100D01*
X104546381Y-210748500D01*
X104922619Y-210748500D01*
X105291627Y-210675100D01*
X105639224Y-210531120D01*
X105952054Y-210322094D01*
X106218094Y-210056054D01*
X106427120Y-209743224D01*
X106571100Y-209395627D01*
X106644500Y-209026619D01*
X106644500Y-208694703D01*
X107274500Y-208694703D01*
X107274500Y-208982297D01*
X107330607Y-209264366D01*
X107440665Y-209530069D01*
X107600444Y-209769196D01*
X107803804Y-209972556D01*
X108042931Y-210132335D01*
X108308634Y-210242393D01*
X108590703Y-210298500D01*
X108878297Y-210298500D01*
X109160366Y-210242393D01*
X109426069Y-210132335D01*
X109665196Y-209972556D01*
X109868556Y-209769196D01*
X110028335Y-209530069D01*
X110042335Y-209496268D01*
X127387500Y-209496268D01*
X127387500Y-209857732D01*
X127458018Y-210212250D01*
X127596344Y-210546199D01*
X127797162Y-210846744D01*
X128052756Y-211102338D01*
X128353301Y-211303156D01*
X128687250Y-211441482D01*
X129041768Y-211512000D01*
X129403232Y-211512000D01*
X129757750Y-211441482D01*
X130091699Y-211303156D01*
X130392244Y-211102338D01*
X130647838Y-210846744D01*
X130848656Y-210546199D01*
X130986982Y-210212250D01*
X131057500Y-209857732D01*
X131057500Y-209496268D01*
X130986982Y-209141750D01*
X130848656Y-208807801D01*
X130647838Y-208507256D01*
X130392244Y-208251662D01*
X130091699Y-208050844D01*
X129757750Y-207912518D01*
X129403232Y-207842000D01*
X129041768Y-207842000D01*
X128687250Y-207912518D01*
X128353301Y-208050844D01*
X128052756Y-208251662D01*
X127797162Y-208507256D01*
X127596344Y-208807801D01*
X127458018Y-209141750D01*
X127387500Y-209496268D01*
X110042335Y-209496268D01*
X110138393Y-209264366D01*
X110194500Y-208982297D01*
X110194500Y-208694703D01*
X110138393Y-208412634D01*
X110028335Y-208146931D01*
X109868556Y-207907804D01*
X109665196Y-207704444D01*
X109426069Y-207544665D01*
X109160366Y-207434607D01*
X108878297Y-207378500D01*
X108590703Y-207378500D01*
X108308634Y-207434607D01*
X108042931Y-207544665D01*
X107803804Y-207704444D01*
X107600444Y-207907804D01*
X107440665Y-208146931D01*
X107330607Y-208412634D01*
X107274500Y-208694703D01*
X106644500Y-208694703D01*
X106644500Y-208650381D01*
X106571100Y-208281373D01*
X106427120Y-207933776D01*
X106218094Y-207620946D01*
X105952054Y-207354906D01*
X105639224Y-207145880D01*
X105291627Y-207001900D01*
X104922619Y-206928500D01*
X104546381Y-206928500D01*
X104177373Y-207001900D01*
X103829776Y-207145880D01*
X103516946Y-207354906D01*
X103250906Y-207620946D01*
X103041880Y-207933776D01*
X102897900Y-208281373D01*
X102824500Y-208650381D01*
X65228331Y-208650381D01*
X65226942Y-206470040D01*
X78237091Y-206470040D01*
X78331930Y-206734881D01*
X78476615Y-206976131D01*
X78665586Y-207184519D01*
X78891580Y-207352037D01*
X79145913Y-207472246D01*
X79279961Y-207512904D01*
X79502000Y-207390915D01*
X79502000Y-206248000D01*
X79756000Y-206248000D01*
X79756000Y-207390915D01*
X79978039Y-207512904D01*
X80112087Y-207472246D01*
X80366420Y-207352037D01*
X80592414Y-207184519D01*
X80781385Y-206976131D01*
X80926070Y-206734881D01*
X81020909Y-206470040D01*
X80899624Y-206248000D01*
X79756000Y-206248000D01*
X79502000Y-206248000D01*
X78358376Y-206248000D01*
X78237091Y-206470040D01*
X65226942Y-206470040D01*
X65226498Y-205771960D01*
X78237091Y-205771960D01*
X78358376Y-205994000D01*
X79502000Y-205994000D01*
X79502000Y-204851085D01*
X79756000Y-204851085D01*
X79756000Y-205994000D01*
X80899624Y-205994000D01*
X81020909Y-205771960D01*
X80926070Y-205507119D01*
X80843785Y-205369915D01*
X103582690Y-205369915D01*
X103711616Y-205662445D01*
X104048086Y-205830796D01*
X104410935Y-205930271D01*
X104786218Y-205957045D01*
X105159515Y-205910091D01*
X105516478Y-205791213D01*
X105757384Y-205662445D01*
X105886310Y-205369915D01*
X104734500Y-204218105D01*
X103582690Y-205369915D01*
X80843785Y-205369915D01*
X80781385Y-205265869D01*
X80592414Y-205057481D01*
X80366420Y-204889963D01*
X80112087Y-204769754D01*
X79978039Y-204729096D01*
X79756000Y-204851085D01*
X79502000Y-204851085D01*
X79279961Y-204729096D01*
X79145913Y-204769754D01*
X78891580Y-204889963D01*
X78665586Y-205057481D01*
X78476615Y-205265869D01*
X78331930Y-205507119D01*
X78237091Y-205771960D01*
X65226498Y-205771960D01*
X65225427Y-204090218D01*
X102815955Y-204090218D01*
X102862909Y-204463515D01*
X102981787Y-204820478D01*
X103110555Y-205061384D01*
X103403085Y-205190310D01*
X104554895Y-204038500D01*
X104914105Y-204038500D01*
X106065915Y-205190310D01*
X106358445Y-205061384D01*
X106526796Y-204724914D01*
X106626271Y-204362065D01*
X106653045Y-203986782D01*
X106641464Y-203894703D01*
X107274500Y-203894703D01*
X107274500Y-204182297D01*
X107330607Y-204464366D01*
X107440665Y-204730069D01*
X107600444Y-204969196D01*
X107803804Y-205172556D01*
X108042931Y-205332335D01*
X108308634Y-205442393D01*
X108590703Y-205498500D01*
X108878297Y-205498500D01*
X109160366Y-205442393D01*
X109426069Y-205332335D01*
X109665196Y-205172556D01*
X109674252Y-205163500D01*
X115221428Y-205163500D01*
X115221428Y-207713500D01*
X115233688Y-207837982D01*
X115269998Y-207957680D01*
X115328963Y-208067994D01*
X115408315Y-208164685D01*
X115505006Y-208244037D01*
X115615320Y-208303002D01*
X115735018Y-208339312D01*
X115859500Y-208351572D01*
X118409500Y-208351572D01*
X118533982Y-208339312D01*
X118653680Y-208303002D01*
X118763994Y-208244037D01*
X118860685Y-208164685D01*
X118940037Y-208067994D01*
X118999002Y-207957680D01*
X119035312Y-207837982D01*
X119047572Y-207713500D01*
X119047572Y-205163500D01*
X119035312Y-205039018D01*
X118999002Y-204919320D01*
X118940037Y-204809006D01*
X118860685Y-204712315D01*
X118763994Y-204632963D01*
X118653680Y-204573998D01*
X118533982Y-204537688D01*
X118409500Y-204525428D01*
X115859500Y-204525428D01*
X115735018Y-204537688D01*
X115615320Y-204573998D01*
X115505006Y-204632963D01*
X115408315Y-204712315D01*
X115328963Y-204809006D01*
X115269998Y-204919320D01*
X115233688Y-205039018D01*
X115221428Y-205163500D01*
X109674252Y-205163500D01*
X109868556Y-204969196D01*
X110028335Y-204730069D01*
X110138393Y-204464366D01*
X110147960Y-204416268D01*
X127387500Y-204416268D01*
X127387500Y-204777732D01*
X127458018Y-205132250D01*
X127596344Y-205466199D01*
X127797162Y-205766744D01*
X128052756Y-206022338D01*
X128353301Y-206223156D01*
X128687250Y-206361482D01*
X129041768Y-206432000D01*
X129403232Y-206432000D01*
X129757750Y-206361482D01*
X130091699Y-206223156D01*
X130392244Y-206022338D01*
X130647838Y-205766744D01*
X130848656Y-205466199D01*
X130986982Y-205132250D01*
X131057500Y-204777732D01*
X131057500Y-204416268D01*
X130986982Y-204061750D01*
X130848656Y-203727801D01*
X130647838Y-203427256D01*
X130392244Y-203171662D01*
X130091699Y-202970844D01*
X129757750Y-202832518D01*
X129403232Y-202762000D01*
X129041768Y-202762000D01*
X128687250Y-202832518D01*
X128353301Y-202970844D01*
X128052756Y-203171662D01*
X127797162Y-203427256D01*
X127596344Y-203727801D01*
X127458018Y-204061750D01*
X127387500Y-204416268D01*
X110147960Y-204416268D01*
X110194500Y-204182297D01*
X110194500Y-203894703D01*
X110138393Y-203612634D01*
X110028335Y-203346931D01*
X109868556Y-203107804D01*
X109665196Y-202904444D01*
X109426069Y-202744665D01*
X109160366Y-202634607D01*
X108878297Y-202578500D01*
X108590703Y-202578500D01*
X108308634Y-202634607D01*
X108042931Y-202744665D01*
X107803804Y-202904444D01*
X107600444Y-203107804D01*
X107440665Y-203346931D01*
X107330607Y-203612634D01*
X107274500Y-203894703D01*
X106641464Y-203894703D01*
X106606091Y-203613485D01*
X106487213Y-203256522D01*
X106358445Y-203015616D01*
X106065915Y-202886690D01*
X104914105Y-204038500D01*
X104554895Y-204038500D01*
X103403085Y-202886690D01*
X103110555Y-203015616D01*
X102942204Y-203352086D01*
X102842729Y-203714935D01*
X102815955Y-204090218D01*
X65225427Y-204090218D01*
X65224546Y-202707085D01*
X103582690Y-202707085D01*
X104734500Y-203858895D01*
X105886310Y-202707085D01*
X105757384Y-202414555D01*
X105420914Y-202246204D01*
X105058065Y-202146729D01*
X104682782Y-202119955D01*
X104309485Y-202166909D01*
X103952522Y-202285787D01*
X103711616Y-202414555D01*
X103582690Y-202707085D01*
X65224546Y-202707085D01*
X65221776Y-198359665D01*
X78194000Y-198359665D01*
X78194000Y-198642335D01*
X78249147Y-198919574D01*
X78357320Y-199180727D01*
X78514363Y-199415759D01*
X78714241Y-199615637D01*
X78949273Y-199772680D01*
X79210426Y-199880853D01*
X79487665Y-199936000D01*
X79770335Y-199936000D01*
X80047574Y-199880853D01*
X80308727Y-199772680D01*
X80543759Y-199615637D01*
X80743637Y-199415759D01*
X80818845Y-199303202D01*
X113042403Y-199303202D01*
X113113986Y-199547171D01*
X113369496Y-199668071D01*
X113643684Y-199736800D01*
X113926012Y-199750717D01*
X114205630Y-199709287D01*
X114471792Y-199614103D01*
X114597014Y-199547171D01*
X114668597Y-199303202D01*
X113855500Y-198490105D01*
X113042403Y-199303202D01*
X80818845Y-199303202D01*
X80900680Y-199180727D01*
X81008853Y-198919574D01*
X81064000Y-198642335D01*
X81064000Y-198381012D01*
X112415283Y-198381012D01*
X112456713Y-198660630D01*
X112551897Y-198926792D01*
X112618829Y-199052014D01*
X112862798Y-199123597D01*
X113675895Y-198310500D01*
X114035105Y-198310500D01*
X114848202Y-199123597D01*
X115092171Y-199052014D01*
X115213071Y-198796504D01*
X115281800Y-198522316D01*
X115292241Y-198310500D01*
X120033557Y-198310500D01*
X120061264Y-198591809D01*
X120143318Y-198862308D01*
X120276568Y-199111601D01*
X120455892Y-199330108D01*
X120674399Y-199509432D01*
X120923692Y-199642682D01*
X121194191Y-199724736D01*
X121405008Y-199745500D01*
X121545992Y-199745500D01*
X121756809Y-199724736D01*
X122027308Y-199642682D01*
X122276601Y-199509432D01*
X122495108Y-199330108D01*
X122674432Y-199111601D01*
X122807682Y-198862308D01*
X122889736Y-198591809D01*
X122917443Y-198310500D01*
X122889736Y-198029191D01*
X122807682Y-197758692D01*
X122674432Y-197509399D01*
X122495108Y-197290892D01*
X122276601Y-197111568D01*
X122274603Y-197110500D01*
X127574928Y-197110500D01*
X127574928Y-199510500D01*
X127587188Y-199634982D01*
X127623498Y-199754680D01*
X127682463Y-199864994D01*
X127761815Y-199961685D01*
X127858506Y-200041037D01*
X127968820Y-200100002D01*
X128088518Y-200136312D01*
X128213000Y-200148572D01*
X130613000Y-200148572D01*
X130737482Y-200136312D01*
X130857180Y-200100002D01*
X130967494Y-200041037D01*
X131064185Y-199961685D01*
X131143537Y-199864994D01*
X131202502Y-199754680D01*
X131238812Y-199634982D01*
X131251072Y-199510500D01*
X131251072Y-197110500D01*
X131238812Y-196986018D01*
X131202502Y-196866320D01*
X131143537Y-196756006D01*
X131064185Y-196659315D01*
X130967494Y-196579963D01*
X130857180Y-196520998D01*
X130737482Y-196484688D01*
X130613000Y-196472428D01*
X128213000Y-196472428D01*
X128088518Y-196484688D01*
X127968820Y-196520998D01*
X127858506Y-196579963D01*
X127761815Y-196659315D01*
X127682463Y-196756006D01*
X127623498Y-196866320D01*
X127587188Y-196986018D01*
X127574928Y-197110500D01*
X122274603Y-197110500D01*
X122027308Y-196978318D01*
X121756809Y-196896264D01*
X121545992Y-196875500D01*
X121405008Y-196875500D01*
X121194191Y-196896264D01*
X120923692Y-196978318D01*
X120674399Y-197111568D01*
X120455892Y-197290892D01*
X120276568Y-197509399D01*
X120143318Y-197758692D01*
X120061264Y-198029191D01*
X120033557Y-198310500D01*
X115292241Y-198310500D01*
X115295717Y-198239988D01*
X115254287Y-197960370D01*
X115159103Y-197694208D01*
X115092171Y-197568986D01*
X114848202Y-197497403D01*
X114035105Y-198310500D01*
X113675895Y-198310500D01*
X112862798Y-197497403D01*
X112618829Y-197568986D01*
X112497929Y-197824496D01*
X112429200Y-198098684D01*
X112415283Y-198381012D01*
X81064000Y-198381012D01*
X81064000Y-198359665D01*
X81008853Y-198082426D01*
X80900680Y-197821273D01*
X80743637Y-197586241D01*
X80543759Y-197386363D01*
X80441144Y-197317798D01*
X113042403Y-197317798D01*
X113855500Y-198130895D01*
X114668597Y-197317798D01*
X114597014Y-197073829D01*
X114341504Y-196952929D01*
X114067316Y-196884200D01*
X113784988Y-196870283D01*
X113505370Y-196911713D01*
X113239208Y-197006897D01*
X113113986Y-197073829D01*
X113042403Y-197317798D01*
X80441144Y-197317798D01*
X80308727Y-197229320D01*
X80047574Y-197121147D01*
X79770335Y-197066000D01*
X79487665Y-197066000D01*
X79210426Y-197121147D01*
X78949273Y-197229320D01*
X78714241Y-197386363D01*
X78514363Y-197586241D01*
X78357320Y-197821273D01*
X78249147Y-198082426D01*
X78194000Y-198359665D01*
X65221776Y-198359665D01*
X65218395Y-193049768D01*
X127578000Y-193049768D01*
X127578000Y-193411232D01*
X127648518Y-193765750D01*
X127786844Y-194099699D01*
X127987662Y-194400244D01*
X128243256Y-194655838D01*
X128543801Y-194856656D01*
X128877750Y-194994982D01*
X129232268Y-195065500D01*
X129593732Y-195065500D01*
X129948250Y-194994982D01*
X130282199Y-194856656D01*
X130582744Y-194655838D01*
X130838338Y-194400244D01*
X131039156Y-194099699D01*
X131177482Y-193765750D01*
X131248000Y-193411232D01*
X131248000Y-193049768D01*
X131177482Y-192695250D01*
X131039156Y-192361301D01*
X130838338Y-192060756D01*
X130582744Y-191805162D01*
X130282199Y-191604344D01*
X129948250Y-191466018D01*
X129593732Y-191395500D01*
X129232268Y-191395500D01*
X128877750Y-191466018D01*
X128543801Y-191604344D01*
X128243256Y-191805162D01*
X127987662Y-192060756D01*
X127786844Y-192361301D01*
X127648518Y-192695250D01*
X127578000Y-193049768D01*
X65218395Y-193049768D01*
X65217019Y-190890768D01*
X72904500Y-190890768D01*
X72904500Y-191252232D01*
X72975018Y-191606750D01*
X73113344Y-191940699D01*
X73314162Y-192241244D01*
X73569756Y-192496838D01*
X73870301Y-192697656D01*
X74204250Y-192835982D01*
X74558768Y-192906500D01*
X74920232Y-192906500D01*
X75274750Y-192835982D01*
X75608699Y-192697656D01*
X75909244Y-192496838D01*
X76164838Y-192241244D01*
X76365656Y-191940699D01*
X76503982Y-191606750D01*
X76574500Y-191252232D01*
X76574500Y-190890768D01*
X76503982Y-190536250D01*
X76365656Y-190202301D01*
X76164838Y-189901756D01*
X76134582Y-189871500D01*
X77981428Y-189871500D01*
X77981428Y-192271500D01*
X77993688Y-192395982D01*
X78029998Y-192515680D01*
X78088963Y-192625994D01*
X78168315Y-192722685D01*
X78265006Y-192802037D01*
X78375320Y-192861002D01*
X78495018Y-192897312D01*
X78619500Y-192909572D01*
X81019500Y-192909572D01*
X81143982Y-192897312D01*
X81263680Y-192861002D01*
X81373994Y-192802037D01*
X81470685Y-192722685D01*
X81550037Y-192625994D01*
X81609002Y-192515680D01*
X81645312Y-192395982D01*
X81657572Y-192271500D01*
X81657572Y-189871500D01*
X81645312Y-189747018D01*
X81644549Y-189744500D01*
X86680928Y-189744500D01*
X86680928Y-192144500D01*
X86693188Y-192268982D01*
X86729498Y-192388680D01*
X86788463Y-192498994D01*
X86867815Y-192595685D01*
X86964506Y-192675037D01*
X87074820Y-192734002D01*
X87194518Y-192770312D01*
X87319000Y-192782572D01*
X89719000Y-192782572D01*
X89843482Y-192770312D01*
X89963180Y-192734002D01*
X90073494Y-192675037D01*
X90170185Y-192595685D01*
X90249537Y-192498994D01*
X90308502Y-192388680D01*
X90344812Y-192268982D01*
X90357072Y-192144500D01*
X90357072Y-190763768D01*
X91764000Y-190763768D01*
X91764000Y-191125232D01*
X91834518Y-191479750D01*
X91972844Y-191813699D01*
X92173662Y-192114244D01*
X92429256Y-192369838D01*
X92729801Y-192570656D01*
X93063750Y-192708982D01*
X93418268Y-192779500D01*
X93779732Y-192779500D01*
X94134250Y-192708982D01*
X94468199Y-192570656D01*
X94768744Y-192369838D01*
X95024338Y-192114244D01*
X95225156Y-191813699D01*
X95363482Y-191479750D01*
X95434000Y-191125232D01*
X95434000Y-190763768D01*
X95363482Y-190409250D01*
X95225156Y-190075301D01*
X95119972Y-189917881D01*
X102824500Y-189917881D01*
X102824500Y-190294119D01*
X102897900Y-190663127D01*
X103041880Y-191010724D01*
X103250906Y-191323554D01*
X103516946Y-191589594D01*
X103829776Y-191798620D01*
X104177373Y-191942600D01*
X104546381Y-192016000D01*
X104922619Y-192016000D01*
X105291627Y-191942600D01*
X105639224Y-191798620D01*
X105952054Y-191589594D01*
X106218094Y-191323554D01*
X106427120Y-191010724D01*
X106571100Y-190663127D01*
X106644500Y-190294119D01*
X106644500Y-189962203D01*
X107274500Y-189962203D01*
X107274500Y-190249797D01*
X107330607Y-190531866D01*
X107440665Y-190797569D01*
X107600444Y-191036696D01*
X107803804Y-191240056D01*
X108042931Y-191399835D01*
X108308634Y-191509893D01*
X108590703Y-191566000D01*
X108878297Y-191566000D01*
X109160366Y-191509893D01*
X109426069Y-191399835D01*
X109665196Y-191240056D01*
X109868556Y-191036696D01*
X110028335Y-190797569D01*
X110138393Y-190531866D01*
X110194500Y-190249797D01*
X110194500Y-189962203D01*
X110138393Y-189680134D01*
X110028335Y-189414431D01*
X109868556Y-189175304D01*
X109665196Y-188971944D01*
X109426069Y-188812165D01*
X109160366Y-188702107D01*
X108878297Y-188646000D01*
X108590703Y-188646000D01*
X108308634Y-188702107D01*
X108042931Y-188812165D01*
X107803804Y-188971944D01*
X107600444Y-189175304D01*
X107440665Y-189414431D01*
X107330607Y-189680134D01*
X107274500Y-189962203D01*
X106644500Y-189962203D01*
X106644500Y-189917881D01*
X106571100Y-189548873D01*
X106427120Y-189201276D01*
X106218094Y-188888446D01*
X105952054Y-188622406D01*
X105639224Y-188413380D01*
X105291627Y-188269400D01*
X104922619Y-188196000D01*
X104546381Y-188196000D01*
X104177373Y-188269400D01*
X103829776Y-188413380D01*
X103516946Y-188622406D01*
X103250906Y-188888446D01*
X103041880Y-189201276D01*
X102897900Y-189548873D01*
X102824500Y-189917881D01*
X95119972Y-189917881D01*
X95024338Y-189774756D01*
X94768744Y-189519162D01*
X94468199Y-189318344D01*
X94134250Y-189180018D01*
X93779732Y-189109500D01*
X93418268Y-189109500D01*
X93063750Y-189180018D01*
X92729801Y-189318344D01*
X92429256Y-189519162D01*
X92173662Y-189774756D01*
X91972844Y-190075301D01*
X91834518Y-190409250D01*
X91764000Y-190763768D01*
X90357072Y-190763768D01*
X90357072Y-189744500D01*
X90344812Y-189620018D01*
X90308502Y-189500320D01*
X90249537Y-189390006D01*
X90170185Y-189293315D01*
X90073494Y-189213963D01*
X89963180Y-189154998D01*
X89843482Y-189118688D01*
X89719000Y-189106428D01*
X87319000Y-189106428D01*
X87194518Y-189118688D01*
X87074820Y-189154998D01*
X86964506Y-189213963D01*
X86867815Y-189293315D01*
X86788463Y-189390006D01*
X86729498Y-189500320D01*
X86693188Y-189620018D01*
X86680928Y-189744500D01*
X81644549Y-189744500D01*
X81609002Y-189627320D01*
X81550037Y-189517006D01*
X81470685Y-189420315D01*
X81373994Y-189340963D01*
X81263680Y-189281998D01*
X81143982Y-189245688D01*
X81019500Y-189233428D01*
X78619500Y-189233428D01*
X78495018Y-189245688D01*
X78375320Y-189281998D01*
X78265006Y-189340963D01*
X78168315Y-189420315D01*
X78088963Y-189517006D01*
X78029998Y-189627320D01*
X77993688Y-189747018D01*
X77981428Y-189871500D01*
X76134582Y-189871500D01*
X75909244Y-189646162D01*
X75608699Y-189445344D01*
X75274750Y-189307018D01*
X74920232Y-189236500D01*
X74558768Y-189236500D01*
X74204250Y-189307018D01*
X73870301Y-189445344D01*
X73569756Y-189646162D01*
X73314162Y-189901756D01*
X73113344Y-190202301D01*
X72975018Y-190536250D01*
X72904500Y-190890768D01*
X65217019Y-190890768D01*
X65214311Y-186637415D01*
X103582690Y-186637415D01*
X103711616Y-186929945D01*
X104048086Y-187098296D01*
X104410935Y-187197771D01*
X104786218Y-187224545D01*
X105159515Y-187177591D01*
X105516478Y-187058713D01*
X105757384Y-186929945D01*
X105886310Y-186637415D01*
X104734500Y-185485605D01*
X103582690Y-186637415D01*
X65214311Y-186637415D01*
X65213496Y-185357718D01*
X102815955Y-185357718D01*
X102862909Y-185731015D01*
X102981787Y-186087978D01*
X103110555Y-186328884D01*
X103403085Y-186457810D01*
X104554895Y-185306000D01*
X104914105Y-185306000D01*
X106065915Y-186457810D01*
X106358445Y-186328884D01*
X106526796Y-185992414D01*
X106626271Y-185629565D01*
X106653045Y-185254282D01*
X106641464Y-185162203D01*
X107274500Y-185162203D01*
X107274500Y-185449797D01*
X107330607Y-185731866D01*
X107440665Y-185997569D01*
X107600444Y-186236696D01*
X107803804Y-186440056D01*
X108042931Y-186599835D01*
X108308634Y-186709893D01*
X108590703Y-186766000D01*
X108878297Y-186766000D01*
X109160366Y-186709893D01*
X109426069Y-186599835D01*
X109665196Y-186440056D01*
X109674252Y-186431000D01*
X115221428Y-186431000D01*
X115221428Y-188981000D01*
X115233688Y-189105482D01*
X115269998Y-189225180D01*
X115328963Y-189335494D01*
X115408315Y-189432185D01*
X115505006Y-189511537D01*
X115615320Y-189570502D01*
X115735018Y-189606812D01*
X115859500Y-189619072D01*
X118409500Y-189619072D01*
X118533982Y-189606812D01*
X118653680Y-189570502D01*
X118763994Y-189511537D01*
X118860685Y-189432185D01*
X118940037Y-189335494D01*
X118999002Y-189225180D01*
X119035312Y-189105482D01*
X119047572Y-188981000D01*
X119047572Y-187969768D01*
X127578000Y-187969768D01*
X127578000Y-188331232D01*
X127648518Y-188685750D01*
X127786844Y-189019699D01*
X127987662Y-189320244D01*
X128243256Y-189575838D01*
X128543801Y-189776656D01*
X128877750Y-189914982D01*
X129232268Y-189985500D01*
X129593732Y-189985500D01*
X129948250Y-189914982D01*
X130282199Y-189776656D01*
X130582744Y-189575838D01*
X130838338Y-189320244D01*
X131039156Y-189019699D01*
X131177482Y-188685750D01*
X131248000Y-188331232D01*
X131248000Y-187969768D01*
X131177482Y-187615250D01*
X131039156Y-187281301D01*
X130838338Y-186980756D01*
X130582744Y-186725162D01*
X130282199Y-186524344D01*
X129948250Y-186386018D01*
X129593732Y-186315500D01*
X129232268Y-186315500D01*
X128877750Y-186386018D01*
X128543801Y-186524344D01*
X128243256Y-186725162D01*
X127987662Y-186980756D01*
X127786844Y-187281301D01*
X127648518Y-187615250D01*
X127578000Y-187969768D01*
X119047572Y-187969768D01*
X119047572Y-186431000D01*
X119035312Y-186306518D01*
X118999002Y-186186820D01*
X118940037Y-186076506D01*
X118860685Y-185979815D01*
X118763994Y-185900463D01*
X118653680Y-185841498D01*
X118533982Y-185805188D01*
X118409500Y-185792928D01*
X115859500Y-185792928D01*
X115735018Y-185805188D01*
X115615320Y-185841498D01*
X115505006Y-185900463D01*
X115408315Y-185979815D01*
X115328963Y-186076506D01*
X115269998Y-186186820D01*
X115233688Y-186306518D01*
X115221428Y-186431000D01*
X109674252Y-186431000D01*
X109868556Y-186236696D01*
X110028335Y-185997569D01*
X110138393Y-185731866D01*
X110194500Y-185449797D01*
X110194500Y-185162203D01*
X110138393Y-184880134D01*
X110028335Y-184614431D01*
X109868556Y-184375304D01*
X109665196Y-184171944D01*
X109426069Y-184012165D01*
X109160366Y-183902107D01*
X108878297Y-183846000D01*
X108590703Y-183846000D01*
X108308634Y-183902107D01*
X108042931Y-184012165D01*
X107803804Y-184171944D01*
X107600444Y-184375304D01*
X107440665Y-184614431D01*
X107330607Y-184880134D01*
X107274500Y-185162203D01*
X106641464Y-185162203D01*
X106606091Y-184880985D01*
X106487213Y-184524022D01*
X106358445Y-184283116D01*
X106065915Y-184154190D01*
X104914105Y-185306000D01*
X104554895Y-185306000D01*
X103403085Y-184154190D01*
X103110555Y-184283116D01*
X102942204Y-184619586D01*
X102842729Y-184982435D01*
X102815955Y-185357718D01*
X65213496Y-185357718D01*
X65212615Y-183974585D01*
X103582690Y-183974585D01*
X104734500Y-185126395D01*
X105886310Y-183974585D01*
X105757384Y-183682055D01*
X105420914Y-183513704D01*
X105058065Y-183414229D01*
X104682782Y-183387455D01*
X104309485Y-183434409D01*
X103952522Y-183553287D01*
X103711616Y-183682055D01*
X103582690Y-183974585D01*
X65212615Y-183974585D01*
X65211610Y-182397061D01*
X100120500Y-182397061D01*
X100120500Y-182600939D01*
X100160274Y-182800898D01*
X100238295Y-182989256D01*
X100351563Y-183158774D01*
X100495726Y-183302937D01*
X100665244Y-183416205D01*
X100853602Y-183494226D01*
X101053561Y-183534000D01*
X101257439Y-183534000D01*
X101457398Y-183494226D01*
X101645756Y-183416205D01*
X101815274Y-183302937D01*
X101959437Y-183158774D01*
X102072705Y-182989256D01*
X102113914Y-182889768D01*
X127578000Y-182889768D01*
X127578000Y-183251232D01*
X127648518Y-183605750D01*
X127786844Y-183939699D01*
X127987662Y-184240244D01*
X128243256Y-184495838D01*
X128543801Y-184696656D01*
X128877750Y-184834982D01*
X129232268Y-184905500D01*
X129593732Y-184905500D01*
X129948250Y-184834982D01*
X130282199Y-184696656D01*
X130582744Y-184495838D01*
X130838338Y-184240244D01*
X131039156Y-183939699D01*
X131177482Y-183605750D01*
X131248000Y-183251232D01*
X131248000Y-182889768D01*
X131177482Y-182535250D01*
X131039156Y-182201301D01*
X130838338Y-181900756D01*
X130582744Y-181645162D01*
X130282199Y-181444344D01*
X129948250Y-181306018D01*
X129593732Y-181235500D01*
X129232268Y-181235500D01*
X128877750Y-181306018D01*
X128543801Y-181444344D01*
X128243256Y-181645162D01*
X127987662Y-181900756D01*
X127786844Y-182201301D01*
X127648518Y-182535250D01*
X127578000Y-182889768D01*
X102113914Y-182889768D01*
X102150726Y-182800898D01*
X102160630Y-182751105D01*
X103086743Y-181824993D01*
X103120659Y-181797159D01*
X103231753Y-181661791D01*
X103259937Y-181609062D01*
X105428501Y-181609062D01*
X105428501Y-181812940D01*
X105468275Y-182012899D01*
X105546296Y-182201257D01*
X105659564Y-182370775D01*
X105803727Y-182514938D01*
X105973245Y-182628206D01*
X106161603Y-182706227D01*
X106361562Y-182746001D01*
X106565440Y-182746001D01*
X106765399Y-182706227D01*
X106953757Y-182628206D01*
X107123275Y-182514938D01*
X107267438Y-182370775D01*
X107380706Y-182201257D01*
X107458727Y-182012899D01*
X107498501Y-181812940D01*
X107498501Y-181609062D01*
X107458727Y-181409103D01*
X107420809Y-181317561D01*
X112376000Y-181317561D01*
X112376000Y-181521439D01*
X112415774Y-181721398D01*
X112493795Y-181909756D01*
X112607063Y-182079274D01*
X112751226Y-182223437D01*
X112920744Y-182336705D01*
X113109102Y-182414726D01*
X113309061Y-182454500D01*
X113512939Y-182454500D01*
X113712898Y-182414726D01*
X113901256Y-182336705D01*
X114070774Y-182223437D01*
X114214937Y-182079274D01*
X114328205Y-181909756D01*
X114406226Y-181721398D01*
X114446000Y-181521439D01*
X114446000Y-181317561D01*
X114406226Y-181117602D01*
X114328205Y-180929244D01*
X114300000Y-180887032D01*
X114300000Y-178133849D01*
X114451774Y-178032437D01*
X114595937Y-177888274D01*
X114709205Y-177718756D01*
X114787226Y-177530398D01*
X114827000Y-177330439D01*
X114827000Y-177126561D01*
X114787226Y-176926602D01*
X114709205Y-176738244D01*
X114595937Y-176568726D01*
X114451774Y-176424563D01*
X114282256Y-176311295D01*
X114093898Y-176233274D01*
X113893939Y-176193500D01*
X113690061Y-176193500D01*
X113490102Y-176233274D01*
X113301744Y-176311295D01*
X113132226Y-176424563D01*
X112988063Y-176568726D01*
X112874795Y-176738244D01*
X112796774Y-176926602D01*
X112787994Y-176970740D01*
X112779342Y-176977841D01*
X112751507Y-177011758D01*
X112751505Y-177011760D01*
X112668248Y-177113209D01*
X112585698Y-177267648D01*
X112534864Y-177435226D01*
X112517700Y-177609500D01*
X112522001Y-177653170D01*
X112522000Y-180887032D01*
X112493795Y-180929244D01*
X112415774Y-181117602D01*
X112376000Y-181317561D01*
X107420809Y-181317561D01*
X107380706Y-181220745D01*
X107352501Y-181178533D01*
X107352501Y-177918292D01*
X107466774Y-177841937D01*
X107610937Y-177697774D01*
X107724205Y-177528256D01*
X107802226Y-177339898D01*
X107842000Y-177139939D01*
X107842000Y-176936061D01*
X107802226Y-176736102D01*
X107724205Y-176547744D01*
X107610937Y-176378226D01*
X107466774Y-176234063D01*
X107297256Y-176120795D01*
X107235629Y-176095268D01*
X127070000Y-176095268D01*
X127070000Y-176456732D01*
X127140518Y-176811250D01*
X127278844Y-177145199D01*
X127479662Y-177445744D01*
X127735256Y-177701338D01*
X128035801Y-177902156D01*
X128369750Y-178040482D01*
X128724268Y-178111000D01*
X129085732Y-178111000D01*
X129440250Y-178040482D01*
X129774199Y-177902156D01*
X130074744Y-177701338D01*
X130330338Y-177445744D01*
X130531156Y-177145199D01*
X130669482Y-176811250D01*
X130740000Y-176456732D01*
X130740000Y-176095268D01*
X130669482Y-175740750D01*
X130531156Y-175406801D01*
X130330338Y-175106256D01*
X130074744Y-174850662D01*
X129774199Y-174649844D01*
X129440250Y-174511518D01*
X129085732Y-174441000D01*
X128724268Y-174441000D01*
X128369750Y-174511518D01*
X128035801Y-174649844D01*
X127735256Y-174850662D01*
X127479662Y-175106256D01*
X127278844Y-175406801D01*
X127140518Y-175740750D01*
X127070000Y-176095268D01*
X107235629Y-176095268D01*
X107108898Y-176042774D01*
X106908939Y-176003000D01*
X106705061Y-176003000D01*
X106505102Y-176042774D01*
X106316744Y-176120795D01*
X106147226Y-176234063D01*
X106003063Y-176378226D01*
X105889795Y-176547744D01*
X105811774Y-176736102D01*
X105801747Y-176786512D01*
X105720749Y-176885208D01*
X105638199Y-177039647D01*
X105587365Y-177207225D01*
X105570201Y-177381499D01*
X105574502Y-177425169D01*
X105574501Y-181178533D01*
X105546296Y-181220745D01*
X105468275Y-181409103D01*
X105428501Y-181609062D01*
X103259937Y-181609062D01*
X103314303Y-181507351D01*
X103365136Y-181339774D01*
X103378000Y-181209167D01*
X103378000Y-181209160D01*
X103382300Y-181165500D01*
X103378000Y-181121840D01*
X103378000Y-177697468D01*
X103406205Y-177655256D01*
X103484226Y-177466898D01*
X103524000Y-177266939D01*
X103524000Y-177063061D01*
X103484226Y-176863102D01*
X103406205Y-176674744D01*
X103292937Y-176505226D01*
X103148774Y-176361063D01*
X102979256Y-176247795D01*
X102790898Y-176169774D01*
X102590939Y-176130000D01*
X102387061Y-176130000D01*
X102187102Y-176169774D01*
X101998744Y-176247795D01*
X101829226Y-176361063D01*
X101685063Y-176505226D01*
X101571795Y-176674744D01*
X101493774Y-176863102D01*
X101454000Y-177063061D01*
X101454000Y-177266939D01*
X101493774Y-177466898D01*
X101571795Y-177655256D01*
X101600001Y-177697469D01*
X101600000Y-180797264D01*
X100903395Y-181493870D01*
X100853602Y-181503774D01*
X100665244Y-181581795D01*
X100495726Y-181695063D01*
X100351563Y-181839226D01*
X100238295Y-182008744D01*
X100160274Y-182197102D01*
X100120500Y-182397061D01*
X65211610Y-182397061D01*
X65208485Y-177492268D01*
X71634500Y-177492268D01*
X71634500Y-177853732D01*
X71705018Y-178208250D01*
X71843344Y-178542199D01*
X72044162Y-178842744D01*
X72299756Y-179098338D01*
X72600301Y-179299156D01*
X72934250Y-179437482D01*
X73288768Y-179508000D01*
X73650232Y-179508000D01*
X74004750Y-179437482D01*
X74044051Y-179421203D01*
X88878000Y-179421203D01*
X88878000Y-179708797D01*
X88934107Y-179990866D01*
X89044165Y-180256569D01*
X89203944Y-180495696D01*
X89407304Y-180699056D01*
X89646431Y-180858835D01*
X89912134Y-180968893D01*
X90194203Y-181025000D01*
X90481797Y-181025000D01*
X90763866Y-180968893D01*
X91029569Y-180858835D01*
X91268696Y-180699056D01*
X91472056Y-180495696D01*
X91631835Y-180256569D01*
X91741893Y-179990866D01*
X91798000Y-179708797D01*
X91798000Y-179421203D01*
X91789184Y-179376881D01*
X92428000Y-179376881D01*
X92428000Y-179753119D01*
X92501400Y-180122127D01*
X92645380Y-180469724D01*
X92854406Y-180782554D01*
X93120446Y-181048594D01*
X93433276Y-181257620D01*
X93780873Y-181401600D01*
X94149881Y-181475000D01*
X94526119Y-181475000D01*
X94895127Y-181401600D01*
X95242724Y-181257620D01*
X95555554Y-181048594D01*
X95821594Y-180782554D01*
X96030620Y-180469724D01*
X96174600Y-180122127D01*
X96248000Y-179753119D01*
X96248000Y-179376881D01*
X96174600Y-179007873D01*
X96030620Y-178660276D01*
X95821594Y-178347446D01*
X95555554Y-178081406D01*
X95242724Y-177872380D01*
X94895127Y-177728400D01*
X94526119Y-177655000D01*
X94149881Y-177655000D01*
X93780873Y-177728400D01*
X93433276Y-177872380D01*
X93120446Y-178081406D01*
X92854406Y-178347446D01*
X92645380Y-178660276D01*
X92501400Y-179007873D01*
X92428000Y-179376881D01*
X91789184Y-179376881D01*
X91741893Y-179139134D01*
X91631835Y-178873431D01*
X91472056Y-178634304D01*
X91268696Y-178430944D01*
X91029569Y-178271165D01*
X90763866Y-178161107D01*
X90481797Y-178105000D01*
X90194203Y-178105000D01*
X89912134Y-178161107D01*
X89646431Y-178271165D01*
X89407304Y-178430944D01*
X89203944Y-178634304D01*
X89044165Y-178873431D01*
X88934107Y-179139134D01*
X88878000Y-179421203D01*
X74044051Y-179421203D01*
X74338699Y-179299156D01*
X74639244Y-179098338D01*
X74894838Y-178842744D01*
X75095656Y-178542199D01*
X75233982Y-178208250D01*
X75304500Y-177853732D01*
X75304500Y-177492268D01*
X75233982Y-177137750D01*
X75095656Y-176803801D01*
X74894838Y-176503256D01*
X74639244Y-176247662D01*
X74338699Y-176046844D01*
X74004750Y-175908518D01*
X73911654Y-175890000D01*
X80024928Y-175890000D01*
X80024928Y-178440000D01*
X80037188Y-178564482D01*
X80073498Y-178684180D01*
X80132463Y-178794494D01*
X80211815Y-178891185D01*
X80308506Y-178970537D01*
X80418820Y-179029502D01*
X80538518Y-179065812D01*
X80663000Y-179078072D01*
X83213000Y-179078072D01*
X83337482Y-179065812D01*
X83457180Y-179029502D01*
X83567494Y-178970537D01*
X83664185Y-178891185D01*
X83743537Y-178794494D01*
X83802502Y-178684180D01*
X83838812Y-178564482D01*
X83851072Y-178440000D01*
X83851072Y-175890000D01*
X83838812Y-175765518D01*
X83802502Y-175645820D01*
X83743537Y-175535506D01*
X83664185Y-175438815D01*
X83567494Y-175359463D01*
X83457180Y-175300498D01*
X83337482Y-175264188D01*
X83213000Y-175251928D01*
X80663000Y-175251928D01*
X80538518Y-175264188D01*
X80418820Y-175300498D01*
X80308506Y-175359463D01*
X80211815Y-175438815D01*
X80132463Y-175535506D01*
X80073498Y-175645820D01*
X80037188Y-175765518D01*
X80024928Y-175890000D01*
X73911654Y-175890000D01*
X73650232Y-175838000D01*
X73288768Y-175838000D01*
X72934250Y-175908518D01*
X72600301Y-176046844D01*
X72299756Y-176247662D01*
X72044162Y-176503256D01*
X71843344Y-176803801D01*
X71705018Y-177137750D01*
X71634500Y-177492268D01*
X65208485Y-177492268D01*
X65206656Y-174621203D01*
X88878000Y-174621203D01*
X88878000Y-174908797D01*
X88934107Y-175190866D01*
X89044165Y-175456569D01*
X89203944Y-175695696D01*
X89407304Y-175899056D01*
X89646431Y-176058835D01*
X89912134Y-176168893D01*
X90194203Y-176225000D01*
X90481797Y-176225000D01*
X90763866Y-176168893D01*
X91029569Y-176058835D01*
X91268696Y-175899056D01*
X91472056Y-175695696D01*
X91631835Y-175456569D01*
X91741893Y-175190866D01*
X91798000Y-174908797D01*
X91798000Y-174621203D01*
X91789184Y-174576881D01*
X92428000Y-174576881D01*
X92428000Y-174953119D01*
X92501400Y-175322127D01*
X92645380Y-175669724D01*
X92854406Y-175982554D01*
X93120446Y-176248594D01*
X93433276Y-176457620D01*
X93780873Y-176601600D01*
X94149881Y-176675000D01*
X94526119Y-176675000D01*
X94895127Y-176601600D01*
X95242724Y-176457620D01*
X95555554Y-176248594D01*
X95821594Y-175982554D01*
X96030620Y-175669724D01*
X96174600Y-175322127D01*
X96248000Y-174953119D01*
X96248000Y-174576881D01*
X96174600Y-174207873D01*
X96030620Y-173860276D01*
X95821594Y-173547446D01*
X95555554Y-173281406D01*
X95242724Y-173072380D01*
X94895127Y-172928400D01*
X94526119Y-172855000D01*
X94149881Y-172855000D01*
X93780873Y-172928400D01*
X93433276Y-173072380D01*
X93120446Y-173281406D01*
X92854406Y-173547446D01*
X92645380Y-173860276D01*
X92501400Y-174207873D01*
X92428000Y-174576881D01*
X91789184Y-174576881D01*
X91741893Y-174339134D01*
X91631835Y-174073431D01*
X91472056Y-173834304D01*
X91268696Y-173630944D01*
X91029569Y-173471165D01*
X90763866Y-173361107D01*
X90481797Y-173305000D01*
X90194203Y-173305000D01*
X89912134Y-173361107D01*
X89646431Y-173471165D01*
X89407304Y-173630944D01*
X89203944Y-173834304D01*
X89044165Y-174073431D01*
X88934107Y-174339134D01*
X88878000Y-174621203D01*
X65206656Y-174621203D01*
X65206128Y-173793000D01*
X71631428Y-173793000D01*
X71643688Y-173917482D01*
X71679998Y-174037180D01*
X71738963Y-174147494D01*
X71818315Y-174244185D01*
X71915006Y-174323537D01*
X72025320Y-174382502D01*
X72145018Y-174418812D01*
X72269500Y-174431072D01*
X73183750Y-174428000D01*
X73342500Y-174269250D01*
X73342500Y-172720000D01*
X73596500Y-172720000D01*
X73596500Y-174269250D01*
X73755250Y-174428000D01*
X74669500Y-174431072D01*
X74793982Y-174418812D01*
X74913680Y-174382502D01*
X75023994Y-174323537D01*
X75120685Y-174244185D01*
X75200037Y-174147494D01*
X75259002Y-174037180D01*
X75295312Y-173917482D01*
X75307572Y-173793000D01*
X75304500Y-172878750D01*
X75145750Y-172720000D01*
X73596500Y-172720000D01*
X73342500Y-172720000D01*
X71793250Y-172720000D01*
X71634500Y-172878750D01*
X71631428Y-173793000D01*
X65206128Y-173793000D01*
X65205358Y-172582381D01*
X103332500Y-172582381D01*
X103332500Y-172958619D01*
X103405900Y-173327627D01*
X103549880Y-173675224D01*
X103758906Y-173988054D01*
X104024946Y-174254094D01*
X104337776Y-174463120D01*
X104685373Y-174607100D01*
X105054381Y-174680500D01*
X105430619Y-174680500D01*
X105799627Y-174607100D01*
X106147224Y-174463120D01*
X106460054Y-174254094D01*
X106726094Y-173988054D01*
X106935120Y-173675224D01*
X107079100Y-173327627D01*
X107152500Y-172958619D01*
X107152500Y-172626703D01*
X107782500Y-172626703D01*
X107782500Y-172914297D01*
X107838607Y-173196366D01*
X107948665Y-173462069D01*
X108108444Y-173701196D01*
X108311804Y-173904556D01*
X108550931Y-174064335D01*
X108816634Y-174174393D01*
X109098703Y-174230500D01*
X109386297Y-174230500D01*
X109668366Y-174174393D01*
X109934069Y-174064335D01*
X110173196Y-173904556D01*
X110376556Y-173701196D01*
X110536335Y-173462069D01*
X110646393Y-173196366D01*
X110702500Y-172914297D01*
X110702500Y-172626703D01*
X110646393Y-172344634D01*
X110536335Y-172078931D01*
X110376556Y-171839804D01*
X110173196Y-171636444D01*
X109934069Y-171476665D01*
X109668366Y-171366607D01*
X109386297Y-171310500D01*
X109098703Y-171310500D01*
X108816634Y-171366607D01*
X108550931Y-171476665D01*
X108311804Y-171636444D01*
X108108444Y-171839804D01*
X107948665Y-172078931D01*
X107838607Y-172344634D01*
X107782500Y-172626703D01*
X107152500Y-172626703D01*
X107152500Y-172582381D01*
X107079100Y-172213373D01*
X106935120Y-171865776D01*
X106726094Y-171552946D01*
X106460054Y-171286906D01*
X106147224Y-171077880D01*
X105799627Y-170933900D01*
X105430619Y-170860500D01*
X105054381Y-170860500D01*
X104685373Y-170933900D01*
X104337776Y-171077880D01*
X104024946Y-171286906D01*
X103758906Y-171552946D01*
X103549880Y-171865776D01*
X103405900Y-172213373D01*
X103332500Y-172582381D01*
X65205358Y-172582381D01*
X65204600Y-171393000D01*
X71631428Y-171393000D01*
X71634500Y-172307250D01*
X71793250Y-172466000D01*
X73342500Y-172466000D01*
X73342500Y-170916750D01*
X73596500Y-170916750D01*
X73596500Y-172466000D01*
X75145750Y-172466000D01*
X75304500Y-172307250D01*
X75307572Y-171393000D01*
X75295312Y-171268518D01*
X75259002Y-171148820D01*
X75200037Y-171038506D01*
X75120685Y-170941815D01*
X75023994Y-170862463D01*
X74913680Y-170803498D01*
X74793982Y-170767188D01*
X74669500Y-170754928D01*
X73755250Y-170758000D01*
X73596500Y-170916750D01*
X73342500Y-170916750D01*
X73183750Y-170758000D01*
X72269500Y-170754928D01*
X72145018Y-170767188D01*
X72025320Y-170803498D01*
X71915006Y-170862463D01*
X71818315Y-170941815D01*
X71738963Y-171038506D01*
X71679998Y-171148820D01*
X71643688Y-171268518D01*
X71631428Y-171393000D01*
X65204600Y-171393000D01*
X65203269Y-169301915D01*
X104090690Y-169301915D01*
X104219616Y-169594445D01*
X104556086Y-169762796D01*
X104918935Y-169862271D01*
X105294218Y-169889045D01*
X105667515Y-169842091D01*
X106024478Y-169723213D01*
X106265384Y-169594445D01*
X106394310Y-169301915D01*
X105242500Y-168150105D01*
X104090690Y-169301915D01*
X65203269Y-169301915D01*
X65202454Y-168022218D01*
X103323955Y-168022218D01*
X103370909Y-168395515D01*
X103489787Y-168752478D01*
X103618555Y-168993384D01*
X103911085Y-169122310D01*
X105062895Y-167970500D01*
X105422105Y-167970500D01*
X106573915Y-169122310D01*
X106866445Y-168993384D01*
X107034796Y-168656914D01*
X107134271Y-168294065D01*
X107161045Y-167918782D01*
X107149464Y-167826703D01*
X107782500Y-167826703D01*
X107782500Y-168114297D01*
X107838607Y-168396366D01*
X107948665Y-168662069D01*
X108108444Y-168901196D01*
X108311804Y-169104556D01*
X108550931Y-169264335D01*
X108816634Y-169374393D01*
X109098703Y-169430500D01*
X109386297Y-169430500D01*
X109668366Y-169374393D01*
X109934069Y-169264335D01*
X110173196Y-169104556D01*
X110182252Y-169095500D01*
X115729428Y-169095500D01*
X115729428Y-171645500D01*
X115741688Y-171769982D01*
X115777998Y-171889680D01*
X115836963Y-171999994D01*
X115916315Y-172096685D01*
X116013006Y-172176037D01*
X116123320Y-172235002D01*
X116243018Y-172271312D01*
X116367500Y-172283572D01*
X118917500Y-172283572D01*
X119041982Y-172271312D01*
X119161680Y-172235002D01*
X119271994Y-172176037D01*
X119368685Y-172096685D01*
X119448037Y-171999994D01*
X119507002Y-171889680D01*
X119543312Y-171769982D01*
X119555572Y-171645500D01*
X119555572Y-171015268D01*
X127070000Y-171015268D01*
X127070000Y-171376732D01*
X127140518Y-171731250D01*
X127278844Y-172065199D01*
X127479662Y-172365744D01*
X127735256Y-172621338D01*
X128035801Y-172822156D01*
X128369750Y-172960482D01*
X128724268Y-173031000D01*
X129085732Y-173031000D01*
X129440250Y-172960482D01*
X129774199Y-172822156D01*
X130074744Y-172621338D01*
X130330338Y-172365744D01*
X130531156Y-172065199D01*
X130669482Y-171731250D01*
X130740000Y-171376732D01*
X130740000Y-171015268D01*
X130669482Y-170660750D01*
X130531156Y-170326801D01*
X130330338Y-170026256D01*
X130074744Y-169770662D01*
X129774199Y-169569844D01*
X129440250Y-169431518D01*
X129085732Y-169361000D01*
X128724268Y-169361000D01*
X128369750Y-169431518D01*
X128035801Y-169569844D01*
X127735256Y-169770662D01*
X127479662Y-170026256D01*
X127278844Y-170326801D01*
X127140518Y-170660750D01*
X127070000Y-171015268D01*
X119555572Y-171015268D01*
X119555572Y-169095500D01*
X119543312Y-168971018D01*
X119507002Y-168851320D01*
X119448037Y-168741006D01*
X119368685Y-168644315D01*
X119271994Y-168564963D01*
X119161680Y-168505998D01*
X119041982Y-168469688D01*
X118917500Y-168457428D01*
X116367500Y-168457428D01*
X116243018Y-168469688D01*
X116123320Y-168505998D01*
X116013006Y-168564963D01*
X115916315Y-168644315D01*
X115836963Y-168741006D01*
X115777998Y-168851320D01*
X115741688Y-168971018D01*
X115729428Y-169095500D01*
X110182252Y-169095500D01*
X110376556Y-168901196D01*
X110536335Y-168662069D01*
X110646393Y-168396366D01*
X110702500Y-168114297D01*
X110702500Y-167826703D01*
X110646393Y-167544634D01*
X110536335Y-167278931D01*
X110376556Y-167039804D01*
X110173196Y-166836444D01*
X109934069Y-166676665D01*
X109668366Y-166566607D01*
X109386297Y-166510500D01*
X109098703Y-166510500D01*
X108816634Y-166566607D01*
X108550931Y-166676665D01*
X108311804Y-166836444D01*
X108108444Y-167039804D01*
X107948665Y-167278931D01*
X107838607Y-167544634D01*
X107782500Y-167826703D01*
X107149464Y-167826703D01*
X107114091Y-167545485D01*
X106995213Y-167188522D01*
X106866445Y-166947616D01*
X106573915Y-166818690D01*
X105422105Y-167970500D01*
X105062895Y-167970500D01*
X103911085Y-166818690D01*
X103618555Y-166947616D01*
X103450204Y-167284086D01*
X103350729Y-167646935D01*
X103323955Y-168022218D01*
X65202454Y-168022218D01*
X65201574Y-166639085D01*
X104090690Y-166639085D01*
X105242500Y-167790895D01*
X106394310Y-166639085D01*
X106265384Y-166346555D01*
X105928914Y-166178204D01*
X105566065Y-166078729D01*
X105190782Y-166051955D01*
X104817485Y-166098909D01*
X104460522Y-166217787D01*
X104219616Y-166346555D01*
X104090690Y-166639085D01*
X65201574Y-166639085D01*
X65201126Y-165935268D01*
X127070000Y-165935268D01*
X127070000Y-166296732D01*
X127140518Y-166651250D01*
X127278844Y-166985199D01*
X127479662Y-167285744D01*
X127735256Y-167541338D01*
X128035801Y-167742156D01*
X128369750Y-167880482D01*
X128724268Y-167951000D01*
X129085732Y-167951000D01*
X129440250Y-167880482D01*
X129774199Y-167742156D01*
X130074744Y-167541338D01*
X130330338Y-167285744D01*
X130531156Y-166985199D01*
X130669482Y-166651250D01*
X130740000Y-166296732D01*
X130740000Y-165935268D01*
X130669482Y-165580750D01*
X130531156Y-165246801D01*
X130330338Y-164946256D01*
X130074744Y-164690662D01*
X129774199Y-164489844D01*
X129440250Y-164351518D01*
X129085732Y-164281000D01*
X128724268Y-164281000D01*
X128369750Y-164351518D01*
X128035801Y-164489844D01*
X127735256Y-164690662D01*
X127479662Y-164946256D01*
X127278844Y-165246801D01*
X127140518Y-165580750D01*
X127070000Y-165935268D01*
X65201126Y-165935268D01*
X65198413Y-161677500D01*
X95888428Y-161677500D01*
X95888428Y-164077500D01*
X95900688Y-164201982D01*
X95936998Y-164321680D01*
X95995963Y-164431994D01*
X96075315Y-164528685D01*
X96172006Y-164608037D01*
X96282320Y-164667002D01*
X96402018Y-164703312D01*
X96526500Y-164715572D01*
X98926500Y-164715572D01*
X99050982Y-164703312D01*
X99170680Y-164667002D01*
X99280994Y-164608037D01*
X99377685Y-164528685D01*
X99457037Y-164431994D01*
X99516002Y-164321680D01*
X99552312Y-164201982D01*
X99564572Y-164077500D01*
X99564572Y-163679702D01*
X111645403Y-163679702D01*
X111716986Y-163923671D01*
X111972496Y-164044571D01*
X112246684Y-164113300D01*
X112529012Y-164127217D01*
X112808630Y-164085787D01*
X113074792Y-163990603D01*
X113200014Y-163923671D01*
X113271597Y-163679702D01*
X112458500Y-162866605D01*
X111645403Y-163679702D01*
X99564572Y-163679702D01*
X99564572Y-162757512D01*
X111018283Y-162757512D01*
X111059713Y-163037130D01*
X111154897Y-163303292D01*
X111221829Y-163428514D01*
X111465798Y-163500097D01*
X112278895Y-162687000D01*
X112638105Y-162687000D01*
X113451202Y-163500097D01*
X113695171Y-163428514D01*
X113816071Y-163173004D01*
X113884800Y-162898816D01*
X113895241Y-162687000D01*
X118636557Y-162687000D01*
X118664264Y-162968309D01*
X118746318Y-163238808D01*
X118879568Y-163488101D01*
X119058892Y-163706608D01*
X119277399Y-163885932D01*
X119526692Y-164019182D01*
X119797191Y-164101236D01*
X120008008Y-164122000D01*
X120148992Y-164122000D01*
X120359809Y-164101236D01*
X120630308Y-164019182D01*
X120879601Y-163885932D01*
X121098108Y-163706608D01*
X121277432Y-163488101D01*
X121410682Y-163238808D01*
X121492736Y-162968309D01*
X121520443Y-162687000D01*
X121492736Y-162405691D01*
X121410682Y-162135192D01*
X121277432Y-161885899D01*
X121098108Y-161667392D01*
X120879601Y-161488068D01*
X120630308Y-161354818D01*
X120359809Y-161272764D01*
X120148992Y-161252000D01*
X120008008Y-161252000D01*
X119797191Y-161272764D01*
X119526692Y-161354818D01*
X119277399Y-161488068D01*
X119058892Y-161667392D01*
X118879568Y-161885899D01*
X118746318Y-162135192D01*
X118664264Y-162405691D01*
X118636557Y-162687000D01*
X113895241Y-162687000D01*
X113898717Y-162616488D01*
X113857287Y-162336870D01*
X113762103Y-162070708D01*
X113695171Y-161945486D01*
X113451202Y-161873903D01*
X112638105Y-162687000D01*
X112278895Y-162687000D01*
X111465798Y-161873903D01*
X111221829Y-161945486D01*
X111100929Y-162200996D01*
X111032200Y-162475184D01*
X111018283Y-162757512D01*
X99564572Y-162757512D01*
X99564572Y-161694298D01*
X111645403Y-161694298D01*
X112458500Y-162507395D01*
X113271597Y-161694298D01*
X113200014Y-161450329D01*
X112944504Y-161329429D01*
X112670316Y-161260700D01*
X112387988Y-161246783D01*
X112108370Y-161288213D01*
X111842208Y-161383397D01*
X111716986Y-161450329D01*
X111645403Y-161694298D01*
X99564572Y-161694298D01*
X99564572Y-161677500D01*
X99552312Y-161553018D01*
X99516002Y-161433320D01*
X99457037Y-161323006D01*
X99377685Y-161226315D01*
X99280994Y-161146963D01*
X99170680Y-161087998D01*
X99050982Y-161051688D01*
X98926500Y-161039428D01*
X96526500Y-161039428D01*
X96402018Y-161051688D01*
X96282320Y-161087998D01*
X96172006Y-161146963D01*
X96075315Y-161226315D01*
X95995963Y-161323006D01*
X95936998Y-161433320D01*
X95900688Y-161553018D01*
X95888428Y-161677500D01*
X65198413Y-161677500D01*
X65197241Y-159836000D01*
X127066928Y-159836000D01*
X127066928Y-162236000D01*
X127079188Y-162360482D01*
X127115498Y-162480180D01*
X127174463Y-162590494D01*
X127253815Y-162687185D01*
X127350506Y-162766537D01*
X127460820Y-162825502D01*
X127580518Y-162861812D01*
X127705000Y-162874072D01*
X130105000Y-162874072D01*
X130229482Y-162861812D01*
X130349180Y-162825502D01*
X130459494Y-162766537D01*
X130556185Y-162687185D01*
X130635537Y-162590494D01*
X130694502Y-162480180D01*
X130730812Y-162360482D01*
X130743072Y-162236000D01*
X130743072Y-159836000D01*
X130730812Y-159711518D01*
X130694502Y-159591820D01*
X130635537Y-159481506D01*
X130556185Y-159384815D01*
X130459494Y-159305463D01*
X130349180Y-159246498D01*
X130229482Y-159210188D01*
X130105000Y-159197928D01*
X127705000Y-159197928D01*
X127580518Y-159210188D01*
X127460820Y-159246498D01*
X127350506Y-159305463D01*
X127253815Y-159384815D01*
X127174463Y-159481506D01*
X127115498Y-159591820D01*
X127079188Y-159711518D01*
X127066928Y-159836000D01*
X65197241Y-159836000D01*
X65196756Y-159075480D01*
X96628126Y-159075480D01*
X96748014Y-159360336D01*
X97071710Y-159521199D01*
X97420569Y-159615822D01*
X97781184Y-159640567D01*
X98139698Y-159594485D01*
X98482333Y-159479346D01*
X98704986Y-159360336D01*
X98824874Y-159075480D01*
X97726500Y-157977105D01*
X96628126Y-159075480D01*
X65196756Y-159075480D01*
X65195976Y-157852184D01*
X95883433Y-157852184D01*
X95929515Y-158210698D01*
X96044654Y-158553333D01*
X96163664Y-158775986D01*
X96448520Y-158895874D01*
X97546895Y-157797500D01*
X97906105Y-157797500D01*
X99004480Y-158895874D01*
X99289336Y-158775986D01*
X99450199Y-158452290D01*
X99544822Y-158103431D01*
X99569567Y-157742816D01*
X99523485Y-157384302D01*
X99408346Y-157041667D01*
X99289336Y-156819014D01*
X99004480Y-156699126D01*
X97906105Y-157797500D01*
X97546895Y-157797500D01*
X96448520Y-156699126D01*
X96163664Y-156819014D01*
X96002801Y-157142710D01*
X95908178Y-157491569D01*
X95883433Y-157852184D01*
X65195976Y-157852184D01*
X65195128Y-156519520D01*
X96628126Y-156519520D01*
X97726500Y-157617895D01*
X98824874Y-156519520D01*
X98704986Y-156234664D01*
X98381290Y-156073801D01*
X98032431Y-155979178D01*
X97671816Y-155954433D01*
X97313302Y-156000515D01*
X96970667Y-156115654D01*
X96748014Y-156234664D01*
X96628126Y-156519520D01*
X65195128Y-156519520D01*
X65194715Y-155869202D01*
X111708903Y-155869202D01*
X111780486Y-156113171D01*
X112035996Y-156234071D01*
X112310184Y-156302800D01*
X112592512Y-156316717D01*
X112872130Y-156275287D01*
X113138292Y-156180103D01*
X113263514Y-156113171D01*
X113335097Y-155869202D01*
X112522000Y-155056105D01*
X111708903Y-155869202D01*
X65194715Y-155869202D01*
X65194127Y-154947012D01*
X111081783Y-154947012D01*
X111123213Y-155226630D01*
X111218397Y-155492792D01*
X111285329Y-155618014D01*
X111529298Y-155689597D01*
X112342395Y-154876500D01*
X112701605Y-154876500D01*
X113514702Y-155689597D01*
X113758671Y-155618014D01*
X113879571Y-155362504D01*
X113948300Y-155088316D01*
X113958741Y-154876500D01*
X118700057Y-154876500D01*
X118727764Y-155157809D01*
X118809818Y-155428308D01*
X118943068Y-155677601D01*
X119122392Y-155896108D01*
X119340899Y-156075432D01*
X119590192Y-156208682D01*
X119860691Y-156290736D01*
X120071508Y-156311500D01*
X120212492Y-156311500D01*
X120423309Y-156290736D01*
X120693808Y-156208682D01*
X120943101Y-156075432D01*
X121161608Y-155896108D01*
X121340932Y-155677601D01*
X121474182Y-155428308D01*
X121556236Y-155157809D01*
X121583943Y-154876500D01*
X121556236Y-154595191D01*
X121474182Y-154324692D01*
X121340932Y-154075399D01*
X121161608Y-153856892D01*
X120943101Y-153677568D01*
X120693808Y-153544318D01*
X120423309Y-153462264D01*
X120212492Y-153441500D01*
X120071508Y-153441500D01*
X119860691Y-153462264D01*
X119590192Y-153544318D01*
X119340899Y-153677568D01*
X119122392Y-153856892D01*
X118943068Y-154075399D01*
X118809818Y-154324692D01*
X118727764Y-154595191D01*
X118700057Y-154876500D01*
X113958741Y-154876500D01*
X113962217Y-154805988D01*
X113920787Y-154526370D01*
X113825603Y-154260208D01*
X113758671Y-154134986D01*
X113514702Y-154063403D01*
X112701605Y-154876500D01*
X112342395Y-154876500D01*
X111529298Y-154063403D01*
X111285329Y-154134986D01*
X111164429Y-154390496D01*
X111095700Y-154664684D01*
X111081783Y-154947012D01*
X65194127Y-154947012D01*
X65193450Y-153883798D01*
X111708903Y-153883798D01*
X112522000Y-154696895D01*
X113335097Y-153883798D01*
X113263514Y-153639829D01*
X113008004Y-153518929D01*
X112733816Y-153450200D01*
X112451488Y-153436283D01*
X112171870Y-153477713D01*
X111905708Y-153572897D01*
X111780486Y-153639829D01*
X111708903Y-153883798D01*
X65193450Y-153883798D01*
X65191891Y-151436881D01*
X104475500Y-151436881D01*
X104475500Y-151813119D01*
X104548900Y-152182127D01*
X104692880Y-152529724D01*
X104901906Y-152842554D01*
X105167946Y-153108594D01*
X105480776Y-153317620D01*
X105828373Y-153461600D01*
X106197381Y-153535000D01*
X106573619Y-153535000D01*
X106942627Y-153461600D01*
X107290224Y-153317620D01*
X107603054Y-153108594D01*
X107869094Y-152842554D01*
X108078120Y-152529724D01*
X108222100Y-152182127D01*
X108295500Y-151813119D01*
X108295500Y-151481203D01*
X108925500Y-151481203D01*
X108925500Y-151768797D01*
X108981607Y-152050866D01*
X109091665Y-152316569D01*
X109251444Y-152555696D01*
X109454804Y-152759056D01*
X109693931Y-152918835D01*
X109959634Y-153028893D01*
X110241703Y-153085000D01*
X110529297Y-153085000D01*
X110811366Y-153028893D01*
X111077069Y-152918835D01*
X111316196Y-152759056D01*
X111414752Y-152660500D01*
X127574928Y-152660500D01*
X127574928Y-155060500D01*
X127587188Y-155184982D01*
X127623498Y-155304680D01*
X127682463Y-155414994D01*
X127761815Y-155511685D01*
X127858506Y-155591037D01*
X127968820Y-155650002D01*
X128088518Y-155686312D01*
X128213000Y-155698572D01*
X130613000Y-155698572D01*
X130737482Y-155686312D01*
X130857180Y-155650002D01*
X130967494Y-155591037D01*
X131064185Y-155511685D01*
X131143537Y-155414994D01*
X131202502Y-155304680D01*
X131238812Y-155184982D01*
X131251072Y-155060500D01*
X131251072Y-152660500D01*
X131238812Y-152536018D01*
X131202502Y-152416320D01*
X131143537Y-152306006D01*
X131064185Y-152209315D01*
X130967494Y-152129963D01*
X130857180Y-152070998D01*
X130737482Y-152034688D01*
X130613000Y-152022428D01*
X128213000Y-152022428D01*
X128088518Y-152034688D01*
X127968820Y-152070998D01*
X127858506Y-152129963D01*
X127761815Y-152209315D01*
X127682463Y-152306006D01*
X127623498Y-152416320D01*
X127587188Y-152536018D01*
X127574928Y-152660500D01*
X111414752Y-152660500D01*
X111519556Y-152555696D01*
X111679335Y-152316569D01*
X111789393Y-152050866D01*
X111845500Y-151768797D01*
X111845500Y-151481203D01*
X111789393Y-151199134D01*
X111679335Y-150933431D01*
X111519556Y-150694304D01*
X111316196Y-150490944D01*
X111077069Y-150331165D01*
X110811366Y-150221107D01*
X110529297Y-150165000D01*
X110241703Y-150165000D01*
X109959634Y-150221107D01*
X109693931Y-150331165D01*
X109454804Y-150490944D01*
X109251444Y-150694304D01*
X109091665Y-150933431D01*
X108981607Y-151199134D01*
X108925500Y-151481203D01*
X108295500Y-151481203D01*
X108295500Y-151436881D01*
X108222100Y-151067873D01*
X108078120Y-150720276D01*
X107869094Y-150407446D01*
X107603054Y-150141406D01*
X107290224Y-149932380D01*
X106942627Y-149788400D01*
X106573619Y-149715000D01*
X106197381Y-149715000D01*
X105828373Y-149788400D01*
X105480776Y-149932380D01*
X105167946Y-150141406D01*
X104901906Y-150407446D01*
X104692880Y-150720276D01*
X104548900Y-151067873D01*
X104475500Y-151436881D01*
X65191891Y-151436881D01*
X65189802Y-148156415D01*
X105233690Y-148156415D01*
X105362616Y-148448945D01*
X105699086Y-148617296D01*
X106061935Y-148716771D01*
X106437218Y-148743545D01*
X106810515Y-148696591D01*
X107167478Y-148577713D01*
X107408384Y-148448945D01*
X107537310Y-148156415D01*
X106385500Y-147004605D01*
X105233690Y-148156415D01*
X65189802Y-148156415D01*
X65188986Y-146876718D01*
X104466955Y-146876718D01*
X104513909Y-147250015D01*
X104632787Y-147606978D01*
X104761555Y-147847884D01*
X105054085Y-147976810D01*
X106205895Y-146825000D01*
X106565105Y-146825000D01*
X107716915Y-147976810D01*
X108009445Y-147847884D01*
X108177796Y-147511414D01*
X108277271Y-147148565D01*
X108304045Y-146773282D01*
X108292464Y-146681203D01*
X108925500Y-146681203D01*
X108925500Y-146968797D01*
X108981607Y-147250866D01*
X109091665Y-147516569D01*
X109251444Y-147755696D01*
X109454804Y-147959056D01*
X109693931Y-148118835D01*
X109959634Y-148228893D01*
X110241703Y-148285000D01*
X110529297Y-148285000D01*
X110811366Y-148228893D01*
X111077069Y-148118835D01*
X111316196Y-147959056D01*
X111325252Y-147950000D01*
X116872428Y-147950000D01*
X116872428Y-150500000D01*
X116884688Y-150624482D01*
X116920998Y-150744180D01*
X116979963Y-150854494D01*
X117059315Y-150951185D01*
X117156006Y-151030537D01*
X117266320Y-151089502D01*
X117386018Y-151125812D01*
X117510500Y-151138072D01*
X120060500Y-151138072D01*
X120184982Y-151125812D01*
X120304680Y-151089502D01*
X120414994Y-151030537D01*
X120511685Y-150951185D01*
X120591037Y-150854494D01*
X120650002Y-150744180D01*
X120686312Y-150624482D01*
X120698572Y-150500000D01*
X120698572Y-148599768D01*
X127578000Y-148599768D01*
X127578000Y-148961232D01*
X127648518Y-149315750D01*
X127786844Y-149649699D01*
X127987662Y-149950244D01*
X128243256Y-150205838D01*
X128543801Y-150406656D01*
X128877750Y-150544982D01*
X129232268Y-150615500D01*
X129593732Y-150615500D01*
X129948250Y-150544982D01*
X130282199Y-150406656D01*
X130582744Y-150205838D01*
X130838338Y-149950244D01*
X131039156Y-149649699D01*
X131177482Y-149315750D01*
X131248000Y-148961232D01*
X131248000Y-148599768D01*
X131177482Y-148245250D01*
X131039156Y-147911301D01*
X130838338Y-147610756D01*
X130582744Y-147355162D01*
X130282199Y-147154344D01*
X129948250Y-147016018D01*
X129593732Y-146945500D01*
X129232268Y-146945500D01*
X128877750Y-147016018D01*
X128543801Y-147154344D01*
X128243256Y-147355162D01*
X127987662Y-147610756D01*
X127786844Y-147911301D01*
X127648518Y-148245250D01*
X127578000Y-148599768D01*
X120698572Y-148599768D01*
X120698572Y-147950000D01*
X120686312Y-147825518D01*
X120650002Y-147705820D01*
X120591037Y-147595506D01*
X120511685Y-147498815D01*
X120414994Y-147419463D01*
X120304680Y-147360498D01*
X120184982Y-147324188D01*
X120060500Y-147311928D01*
X117510500Y-147311928D01*
X117386018Y-147324188D01*
X117266320Y-147360498D01*
X117156006Y-147419463D01*
X117059315Y-147498815D01*
X116979963Y-147595506D01*
X116920998Y-147705820D01*
X116884688Y-147825518D01*
X116872428Y-147950000D01*
X111325252Y-147950000D01*
X111519556Y-147755696D01*
X111679335Y-147516569D01*
X111789393Y-147250866D01*
X111845500Y-146968797D01*
X111845500Y-146681203D01*
X111789393Y-146399134D01*
X111679335Y-146133431D01*
X111519556Y-145894304D01*
X111316196Y-145690944D01*
X111077069Y-145531165D01*
X110811366Y-145421107D01*
X110529297Y-145365000D01*
X110241703Y-145365000D01*
X109959634Y-145421107D01*
X109693931Y-145531165D01*
X109454804Y-145690944D01*
X109251444Y-145894304D01*
X109091665Y-146133431D01*
X108981607Y-146399134D01*
X108925500Y-146681203D01*
X108292464Y-146681203D01*
X108257091Y-146399985D01*
X108138213Y-146043022D01*
X108009445Y-145802116D01*
X107716915Y-145673190D01*
X106565105Y-146825000D01*
X106205895Y-146825000D01*
X105054085Y-145673190D01*
X104761555Y-145802116D01*
X104593204Y-146138586D01*
X104493729Y-146501435D01*
X104466955Y-146876718D01*
X65188986Y-146876718D01*
X65188105Y-145493585D01*
X105233690Y-145493585D01*
X106385500Y-146645395D01*
X107537310Y-145493585D01*
X107408384Y-145201055D01*
X107071914Y-145032704D01*
X106709065Y-144933229D01*
X106333782Y-144906455D01*
X105960485Y-144953409D01*
X105603522Y-145072287D01*
X105362616Y-145201055D01*
X105233690Y-145493585D01*
X65188105Y-145493585D01*
X65186848Y-143519768D01*
X127578000Y-143519768D01*
X127578000Y-143881232D01*
X127648518Y-144235750D01*
X127786844Y-144569699D01*
X127987662Y-144870244D01*
X128243256Y-145125838D01*
X128543801Y-145326656D01*
X128877750Y-145464982D01*
X129232268Y-145535500D01*
X129593732Y-145535500D01*
X129948250Y-145464982D01*
X130282199Y-145326656D01*
X130582744Y-145125838D01*
X130838338Y-144870244D01*
X131039156Y-144569699D01*
X131177482Y-144235750D01*
X131248000Y-143881232D01*
X131248000Y-143519768D01*
X131177482Y-143165250D01*
X131039156Y-142831301D01*
X130838338Y-142530756D01*
X130582744Y-142275162D01*
X130282199Y-142074344D01*
X129948250Y-141936018D01*
X129593732Y-141865500D01*
X129232268Y-141865500D01*
X128877750Y-141936018D01*
X128543801Y-142074344D01*
X128243256Y-142275162D01*
X127987662Y-142530756D01*
X127786844Y-142831301D01*
X127648518Y-143165250D01*
X127578000Y-143519768D01*
X65186848Y-143519768D01*
X65183612Y-138439768D01*
X127578000Y-138439768D01*
X127578000Y-138801232D01*
X127648518Y-139155750D01*
X127786844Y-139489699D01*
X127987662Y-139790244D01*
X128243256Y-140045838D01*
X128543801Y-140246656D01*
X128877750Y-140384982D01*
X129232268Y-140455500D01*
X129593732Y-140455500D01*
X129948250Y-140384982D01*
X130282199Y-140246656D01*
X130582744Y-140045838D01*
X130838338Y-139790244D01*
X131039156Y-139489699D01*
X131177482Y-139155750D01*
X131248000Y-138801232D01*
X131248000Y-138439768D01*
X131177482Y-138085250D01*
X131039156Y-137751301D01*
X130838338Y-137450756D01*
X130582744Y-137195162D01*
X130282199Y-136994344D01*
X129948250Y-136856018D01*
X129593732Y-136785500D01*
X129232268Y-136785500D01*
X128877750Y-136856018D01*
X128543801Y-136994344D01*
X128243256Y-137195162D01*
X127987662Y-137450756D01*
X127786844Y-137751301D01*
X127648518Y-138085250D01*
X127578000Y-138439768D01*
X65183612Y-138439768D01*
X65180702Y-133873821D01*
X65464803Y-134559702D01*
X66037710Y-135417118D01*
X66766882Y-136146290D01*
X67624298Y-136719197D01*
X68577007Y-137113822D01*
X69588397Y-137315000D01*
X70619603Y-137315000D01*
X71630993Y-137113822D01*
X72583702Y-136719197D01*
X73441118Y-136146290D01*
X74170290Y-135417118D01*
X74743197Y-134559702D01*
X75137822Y-133606993D01*
X75339000Y-132595603D01*
X75339000Y-132213500D01*
X79314928Y-132213500D01*
X79314928Y-134613500D01*
X79327188Y-134737982D01*
X79363498Y-134857680D01*
X79422463Y-134967994D01*
X79501815Y-135064685D01*
X79598506Y-135144037D01*
X79708820Y-135203002D01*
X79828518Y-135239312D01*
X79953000Y-135251572D01*
X82353000Y-135251572D01*
X82477482Y-135239312D01*
X82597180Y-135203002D01*
X82707494Y-135144037D01*
X82804185Y-135064685D01*
X82883537Y-134967994D01*
X82942502Y-134857680D01*
X82978812Y-134737982D01*
X82991072Y-134613500D01*
X82991072Y-133232768D01*
X84398000Y-133232768D01*
X84398000Y-133594232D01*
X84468518Y-133948750D01*
X84606844Y-134282699D01*
X84807662Y-134583244D01*
X85063256Y-134838838D01*
X85363801Y-135039656D01*
X85697750Y-135177982D01*
X86052268Y-135248500D01*
X86413732Y-135248500D01*
X86768250Y-135177982D01*
X87102199Y-135039656D01*
X87402744Y-134838838D01*
X87658338Y-134583244D01*
X87859156Y-134282699D01*
X87997482Y-133948750D01*
X88068000Y-133594232D01*
X88068000Y-133232768D01*
X89478000Y-133232768D01*
X89478000Y-133594232D01*
X89548518Y-133948750D01*
X89686844Y-134282699D01*
X89887662Y-134583244D01*
X90143256Y-134838838D01*
X90443801Y-135039656D01*
X90777750Y-135177982D01*
X91132268Y-135248500D01*
X91493732Y-135248500D01*
X91848250Y-135177982D01*
X92182199Y-135039656D01*
X92482744Y-134838838D01*
X92738338Y-134583244D01*
X92939156Y-134282699D01*
X93077482Y-133948750D01*
X93148000Y-133594232D01*
X93148000Y-133232768D01*
X94558000Y-133232768D01*
X94558000Y-133594232D01*
X94628518Y-133948750D01*
X94766844Y-134282699D01*
X94967662Y-134583244D01*
X95223256Y-134838838D01*
X95523801Y-135039656D01*
X95857750Y-135177982D01*
X96212268Y-135248500D01*
X96573732Y-135248500D01*
X96928250Y-135177982D01*
X97262199Y-135039656D01*
X97562744Y-134838838D01*
X97818338Y-134583244D01*
X98019156Y-134282699D01*
X98157482Y-133948750D01*
X98228000Y-133594232D01*
X98228000Y-133232768D01*
X99638000Y-133232768D01*
X99638000Y-133594232D01*
X99708518Y-133948750D01*
X99846844Y-134282699D01*
X100047662Y-134583244D01*
X100303256Y-134838838D01*
X100603801Y-135039656D01*
X100937750Y-135177982D01*
X101292268Y-135248500D01*
X101653732Y-135248500D01*
X102008250Y-135177982D01*
X102342199Y-135039656D01*
X102642744Y-134838838D01*
X102898338Y-134583244D01*
X103099156Y-134282699D01*
X103237482Y-133948750D01*
X103308000Y-133594232D01*
X103308000Y-133232768D01*
X104718000Y-133232768D01*
X104718000Y-133594232D01*
X104788518Y-133948750D01*
X104926844Y-134282699D01*
X105127662Y-134583244D01*
X105383256Y-134838838D01*
X105683801Y-135039656D01*
X106017750Y-135177982D01*
X106372268Y-135248500D01*
X106733732Y-135248500D01*
X107088250Y-135177982D01*
X107422199Y-135039656D01*
X107722744Y-134838838D01*
X107978338Y-134583244D01*
X108179156Y-134282699D01*
X108317482Y-133948750D01*
X108388000Y-133594232D01*
X108388000Y-133232768D01*
X108317482Y-132878250D01*
X108179156Y-132544301D01*
X107978338Y-132243756D01*
X107722744Y-131988162D01*
X107422199Y-131787344D01*
X107088250Y-131649018D01*
X106733732Y-131578500D01*
X106372268Y-131578500D01*
X106017750Y-131649018D01*
X105683801Y-131787344D01*
X105383256Y-131988162D01*
X105127662Y-132243756D01*
X104926844Y-132544301D01*
X104788518Y-132878250D01*
X104718000Y-133232768D01*
X103308000Y-133232768D01*
X103237482Y-132878250D01*
X103099156Y-132544301D01*
X102898338Y-132243756D01*
X102642744Y-131988162D01*
X102342199Y-131787344D01*
X102008250Y-131649018D01*
X101653732Y-131578500D01*
X101292268Y-131578500D01*
X100937750Y-131649018D01*
X100603801Y-131787344D01*
X100303256Y-131988162D01*
X100047662Y-132243756D01*
X99846844Y-132544301D01*
X99708518Y-132878250D01*
X99638000Y-133232768D01*
X98228000Y-133232768D01*
X98157482Y-132878250D01*
X98019156Y-132544301D01*
X97818338Y-132243756D01*
X97562744Y-131988162D01*
X97262199Y-131787344D01*
X96928250Y-131649018D01*
X96573732Y-131578500D01*
X96212268Y-131578500D01*
X95857750Y-131649018D01*
X95523801Y-131787344D01*
X95223256Y-131988162D01*
X94967662Y-132243756D01*
X94766844Y-132544301D01*
X94628518Y-132878250D01*
X94558000Y-133232768D01*
X93148000Y-133232768D01*
X93077482Y-132878250D01*
X92939156Y-132544301D01*
X92738338Y-132243756D01*
X92482744Y-131988162D01*
X92182199Y-131787344D01*
X91848250Y-131649018D01*
X91493732Y-131578500D01*
X91132268Y-131578500D01*
X90777750Y-131649018D01*
X90443801Y-131787344D01*
X90143256Y-131988162D01*
X89887662Y-132243756D01*
X89686844Y-132544301D01*
X89548518Y-132878250D01*
X89478000Y-133232768D01*
X88068000Y-133232768D01*
X87997482Y-132878250D01*
X87859156Y-132544301D01*
X87658338Y-132243756D01*
X87402744Y-131988162D01*
X87102199Y-131787344D01*
X86768250Y-131649018D01*
X86413732Y-131578500D01*
X86052268Y-131578500D01*
X85697750Y-131649018D01*
X85363801Y-131787344D01*
X85063256Y-131988162D01*
X84807662Y-132243756D01*
X84606844Y-132544301D01*
X84468518Y-132878250D01*
X84398000Y-133232768D01*
X82991072Y-133232768D01*
X82991072Y-132213500D01*
X82978812Y-132089018D01*
X82942502Y-131969320D01*
X82883537Y-131859006D01*
X82804185Y-131762315D01*
X82707494Y-131682963D01*
X82597180Y-131623998D01*
X82477482Y-131587688D01*
X82353000Y-131575428D01*
X79953000Y-131575428D01*
X79828518Y-131587688D01*
X79708820Y-131623998D01*
X79598506Y-131682963D01*
X79501815Y-131762315D01*
X79422463Y-131859006D01*
X79363498Y-131969320D01*
X79327188Y-132089018D01*
X79314928Y-132213500D01*
X75339000Y-132213500D01*
X75339000Y-131564397D01*
X75137822Y-130553007D01*
X74743197Y-129600298D01*
X74170290Y-128742882D01*
X73441118Y-128013710D01*
X72583702Y-127440803D01*
X71886470Y-127152000D01*
X118089948Y-127152000D01*
X117345007Y-127300178D01*
M02*
