%FSLAX45Y45*%
G04 Gerber Fmt 4.5, Leading zero omitted, Abs format (unit mm)*
G04 Created by KiCad (PCBNEW (5.1.4)-1) date 2023-06-30 15:23:16*
%MOMM*%
%LPD*%
G04 APERTURE LIST*
%ADD10C,0.050000*%
%ADD11C,0.200000*%
%ADD12C,0.300000*%
G04 APERTURE END LIST*
D10*
X6457950Y-22618700D02*
X6451600Y-12649200D01*
X13976350Y-22618700D02*
X6457950Y-22618700D01*
X13976350Y-12649200D02*
X13976350Y-22618700D01*
X6451600Y-12649200D02*
X13976350Y-12649200D01*
D11*
D12*
X6735528Y-23086914D02*
X6735528Y-22786914D01*
X6806957Y-22786914D01*
X6849814Y-22801200D01*
X6878386Y-22829771D01*
X6892671Y-22858343D01*
X6906957Y-22915486D01*
X6906957Y-22958343D01*
X6892671Y-23015486D01*
X6878386Y-23044057D01*
X6849814Y-23072629D01*
X6806957Y-23086914D01*
X6735528Y-23086914D01*
X7035528Y-23086914D02*
X7035528Y-22886914D01*
X7035528Y-22944057D02*
X7049814Y-22915486D01*
X7064100Y-22901200D01*
X7092671Y-22886914D01*
X7121243Y-22886914D01*
X7221243Y-23086914D02*
X7221243Y-22886914D01*
X7221243Y-22786914D02*
X7206957Y-22801200D01*
X7221243Y-22815486D01*
X7235528Y-22801200D01*
X7221243Y-22786914D01*
X7221243Y-22815486D01*
X7406957Y-23086914D02*
X7378386Y-23072629D01*
X7364100Y-23044057D01*
X7364100Y-22786914D01*
X7564100Y-23086914D02*
X7535528Y-23072629D01*
X7521243Y-23044057D01*
X7521243Y-22786914D01*
X7906957Y-23086914D02*
X7906957Y-22786914D01*
X8006957Y-23001200D01*
X8106957Y-22786914D01*
X8106957Y-23086914D01*
X8378386Y-23086914D02*
X8378386Y-22929771D01*
X8364100Y-22901200D01*
X8335528Y-22886914D01*
X8278386Y-22886914D01*
X8249814Y-22901200D01*
X8378386Y-23072629D02*
X8349814Y-23086914D01*
X8278386Y-23086914D01*
X8249814Y-23072629D01*
X8235528Y-23044057D01*
X8235528Y-23015486D01*
X8249814Y-22986914D01*
X8278386Y-22972629D01*
X8349814Y-22972629D01*
X8378386Y-22958343D01*
X8521243Y-22886914D02*
X8521243Y-23186914D01*
X8521243Y-22901200D02*
X8549814Y-22886914D01*
X8606957Y-22886914D01*
X8635528Y-22901200D01*
X8649814Y-22915486D01*
X8664100Y-22944057D01*
X8664100Y-23029771D01*
X8649814Y-23058343D01*
X8635528Y-23072629D01*
X8606957Y-23086914D01*
X8549814Y-23086914D01*
X8521243Y-23072629D01*
X8792671Y-23058343D02*
X8806957Y-23072629D01*
X8792671Y-23086914D01*
X8778386Y-23072629D01*
X8792671Y-23058343D01*
X8792671Y-23086914D01*
X8792671Y-22901200D02*
X8806957Y-22915486D01*
X8792671Y-22929771D01*
X8778386Y-22915486D01*
X8792671Y-22901200D01*
X8792671Y-22929771D01*
M02*
