M48
; DRILL file {KiCad (5.1.4)-1} date 7/2/2023 11:46:02 AM
; FORMAT={-:-/ absolute / metric / decimal}
; #@! TF.CreationDate,2023-07-02T11:46:02-04:00
; #@! TF.GenerationSoftware,Kicad,Pcbnew,(5.1.4)-1
; #@! TF.FileFunction,Plated,1,2,PTH
FMAT,2
METRIC
T1C0.400
T2C1.000
T3C1.100
T4C1.110
T5C1.600
T6C2.000
T7C2.540
T8C2.700
T9C3.700
%
G90
G05
T1
X-94.234Y-85.852
X-82.995Y-63.182
X-82.614Y-70.04
X-81.216Y-64.389
X-78.549Y-49.34
X-77.978Y-29.592
X-77.787Y-79.692
X-76.835Y-78.74
X-76.263Y-59.118
X-75.819Y-9.97
X-75.787Y-56.102
X-75.311Y-6.096
X-75.12Y-55.435
X-74.739Y-59.69
X-74.105Y-60.325
X-73.914Y-72.39
X-73.469Y-60.833
X-72.858Y-72.39
X-72.009Y-72.39
X-69.088Y-89.023
X-68.897Y-23.939
X-68.199Y-75.12
X-68.199Y-91.313
X-67.501Y-12.89
X-67.501Y-62.928
X-66.23Y-92.71
X-65.144Y-44.888
X-64.96Y-69.406
X-64.072Y-58.42
X-64.072Y-61.722
X-64.065Y-42.348
X-63.119Y-29.21
X-62.738Y-34.227
X-62.611Y-32.194
X-62.42Y-54.038
X-62.42Y-88.328
X-62.293Y-37.148
X-62.166Y-52.324
X-61.976Y-20.511
X-59.69Y-30.48
X-58.674Y-32.512
X-55.435Y-39.56
X-55.181Y-74.93
X-54.229Y-35.687
X-53.34Y-36.386
X-53.276Y-56.769
X-53.086Y-31.115
X-49.657Y-62.166
X-48.006Y-32.448
X-47.688Y-34.163
X-47.498Y-38.989
X-47.434Y-43.243
X-42.862Y-90.297
X-41.148Y-38.544
X-38.481Y-80.264
X-34.544Y-81.026
X-34.068Y-83.725
X-33.591Y-87.312
X-32.128Y-63.942
X-31.813Y-81.153
X-29.817Y-77.696
X-28.765Y-81.978
X-28.511Y-70.358
X-28.003Y-57.594
X-27.051Y-21.336
X-27.051Y-22.352
X-27.051Y-23.431
X-27.051Y-24.447
X-27.051Y-25.4
X-26.86Y-64.072
X-24.32Y-96.584
X-21.971Y-46.291
X-17.653Y-38.163
X-14.986Y-77.025
T2
X-79.819Y-89.869
X-79.819Y-94.869
X-84.709Y-71.755
X-62.674Y-85.153
X-93.535Y-29.21
X-93.535Y-31.75
X-93.535Y-34.29
X-93.535Y-36.83
X-93.535Y-39.37
X-93.535Y-41.91
X-93.535Y-44.45
X-93.535Y-46.99
X-94.043Y-15.557
X-10.986Y-88.328
X-86.55Y-85.09
T3
X-17.907Y-71.882
X-15.367Y-71.882
X-68.707Y-95.186
X-66.167Y-95.186
X-42.608Y-94.615
X-40.069Y-94.615
X-37.529Y-94.615
X-19.621Y-95.25
X-17.081Y-95.25
X-14.541Y-95.25
T4
X-86.423Y-7.62
X-86.423Y-10.16
X-86.423Y-12.7
X-86.423Y-15.24
X-86.423Y-17.78
X-86.423Y-20.32
X-86.423Y-22.86
X-86.423Y-25.4
X-86.423Y-27.94
X-86.423Y-30.48
X-86.423Y-33.02
X-86.423Y-35.56
X-86.423Y-38.1
X-86.423Y-40.64
X-86.423Y-43.18
X-86.423Y-45.72
X-66.103Y-17.78
X-66.103Y-20.32
X-66.103Y-22.86
X-66.103Y-25.4
X-66.103Y-27.94
X-66.103Y-30.48
X-66.103Y-33.02
X-66.103Y-35.56
X-66.103Y-38.1
X-66.103Y-40.64
X-66.103Y-43.18
X-66.103Y-45.72
T5
X-44.704Y-51.562
X-59.627Y-7.366
X-54.546Y-7.366
X-49.466Y-7.366
X-44.386Y-7.366
X-39.306Y-7.366
X-34.227Y-7.366
X-29.146Y-7.366
X-24.066Y-7.366
X-18.986Y-7.366
X-13.906Y-7.366
X-8.826Y-7.366
X-3.746Y-7.366
X-93.154Y-74.93
X-93.154Y-80.01
X-7.239Y-25.781
X-7.239Y-30.861
X-7.239Y-35.941
X-7.239Y-41.021
X-7.239Y-46.101
X-7.239Y-51.181
X-7.239Y-56.261
X-7.239Y-61.341
X-7.239Y-66.421
X-7.239Y-71.501
X-7.239Y-76.581
X-7.239Y-81.661
X-92.837Y-63.817
X-92.837Y-68.897
X-55.944Y-23.812
T6
X-28.86Y-89.763
X-28.86Y-95.263
X-26.86Y-97.663
X-52.101Y-88.874
X-52.101Y-94.374
X-50.101Y-96.774
T7
X-85.153Y-3.81
X-85.153Y-49.53
X-67.373Y-3.81
X-67.373Y-49.53
T8
X-94.98Y-56.959
X-89.98Y-56.959
T9
X-94.678Y-94.678
X-4.318Y-17.653
X-4.064Y-94.615
X-94.742Y-4.191
T0
M30
