%FSLAX45Y45*%
G04 Gerber Fmt 4.5, Leading zero omitted, Abs format (unit mm)*
G04 Created by KiCad (PCBNEW (5.1.4)-1) date 2023-07-02 11:46:01*
%MOMM*%
%LPD*%
G04 APERTURE LIST*
%ADD10C,0.200000*%
%ADD11C,0.300000*%
G04 APERTURE END LIST*
D10*
X-9443400Y-8565200D02*
X-9403400Y-8605200D01*
X-9403400Y-8565200D02*
X-9443400Y-8605200D01*
X-8319450Y-6298250D02*
X-8279450Y-6338250D01*
X-8279450Y-6298250D02*
X-8319450Y-6338250D01*
X-8281350Y-6984050D02*
X-8241350Y-7024050D01*
X-8241350Y-6984050D02*
X-8281350Y-7024050D01*
X-8141650Y-6418900D02*
X-8101650Y-6458900D01*
X-8101650Y-6418900D02*
X-8141650Y-6458900D01*
X-7874950Y-4913950D02*
X-7834950Y-4953950D01*
X-7834950Y-4913950D02*
X-7874950Y-4953950D01*
X-7817800Y-2939240D02*
X-7777800Y-2979240D01*
X-7777800Y-2939240D02*
X-7817800Y-2979240D01*
X-7798750Y-7949250D02*
X-7758750Y-7989250D01*
X-7758750Y-7949250D02*
X-7798750Y-7989250D01*
X-7703500Y-7854000D02*
X-7663500Y-7894000D01*
X-7663500Y-7854000D02*
X-7703500Y-7894000D01*
X-7646350Y-5891850D02*
X-7606350Y-5931850D01*
X-7606350Y-5891850D02*
X-7646350Y-5931850D01*
X-7601900Y-976950D02*
X-7561900Y-1016950D01*
X-7561900Y-976950D02*
X-7601900Y-1016950D01*
X-7598725Y-5590225D02*
X-7558725Y-5630225D01*
X-7558725Y-5590225D02*
X-7598725Y-5630225D01*
X-7551100Y-589600D02*
X-7511100Y-629600D01*
X-7511100Y-589600D02*
X-7551100Y-629600D01*
X-7532050Y-5523550D02*
X-7492050Y-5563550D01*
X-7492050Y-5523550D02*
X-7532050Y-5563550D01*
X-7493950Y-5949000D02*
X-7453950Y-5989000D01*
X-7453950Y-5949000D02*
X-7493950Y-5989000D01*
X-7430450Y-6012500D02*
X-7390450Y-6052500D01*
X-7390450Y-6012500D02*
X-7430450Y-6052500D01*
X-7411400Y-7219000D02*
X-7371400Y-7259000D01*
X-7371400Y-7219000D02*
X-7411400Y-7259000D01*
X-7366950Y-6063300D02*
X-7326950Y-6103300D01*
X-7326950Y-6063300D02*
X-7366950Y-6103300D01*
X-7305750Y-7219000D02*
X-7265750Y-7259000D01*
X-7265750Y-7219000D02*
X-7305750Y-7259000D01*
X-7220900Y-7219000D02*
X-7180900Y-7259000D01*
X-7180900Y-7219000D02*
X-7220900Y-7259000D01*
X-6928800Y-8882350D02*
X-6888800Y-8922350D01*
X-6888800Y-8882350D02*
X-6928800Y-8922350D01*
X-6909750Y-2373950D02*
X-6869750Y-2413950D01*
X-6869750Y-2373950D02*
X-6909750Y-2413950D01*
X-6839900Y-7492050D02*
X-6799900Y-7532050D01*
X-6799900Y-7492050D02*
X-6839900Y-7532050D01*
X-6839900Y-9111300D02*
X-6799900Y-9151300D01*
X-6799900Y-9111300D02*
X-6839900Y-9151300D01*
X-6770050Y-1269050D02*
X-6730050Y-1309050D01*
X-6730050Y-1269050D02*
X-6770050Y-1309050D01*
X-6770050Y-6272850D02*
X-6730050Y-6312850D01*
X-6730050Y-6272850D02*
X-6770050Y-6312850D01*
X-6643050Y-9251000D02*
X-6603050Y-9291000D01*
X-6603050Y-9251000D02*
X-6643050Y-9291000D01*
X-6534400Y-4468750D02*
X-6494400Y-4508750D01*
X-6494400Y-4468750D02*
X-6534400Y-4508750D01*
X-6516050Y-6920550D02*
X-6476050Y-6960550D01*
X-6476050Y-6920550D02*
X-6516050Y-6960550D01*
X-6427150Y-5822000D02*
X-6387150Y-5862000D01*
X-6387150Y-5822000D02*
X-6427150Y-5862000D01*
X-6427150Y-6152200D02*
X-6387150Y-6192200D01*
X-6387150Y-6152200D02*
X-6427150Y-6192200D01*
X-6426450Y-4214750D02*
X-6386450Y-4254750D01*
X-6386450Y-4214750D02*
X-6426450Y-4254750D01*
X-6331900Y-2901000D02*
X-6291900Y-2941000D01*
X-6291900Y-2901000D02*
X-6331900Y-2941000D01*
X-6293800Y-3402650D02*
X-6253800Y-3442650D01*
X-6253800Y-3402650D02*
X-6293800Y-3442650D01*
X-6281100Y-3199450D02*
X-6241100Y-3239450D01*
X-6241100Y-3199450D02*
X-6281100Y-3239450D01*
X-6262050Y-5383850D02*
X-6222050Y-5423850D01*
X-6222050Y-5383850D02*
X-6262050Y-5423850D01*
X-6262050Y-8812850D02*
X-6222050Y-8852850D01*
X-6222050Y-8812850D02*
X-6262050Y-8852850D01*
X-6249350Y-3694750D02*
X-6209350Y-3734750D01*
X-6209350Y-3694750D02*
X-6249350Y-3734750D01*
X-6236650Y-5212400D02*
X-6196650Y-5252400D01*
X-6196650Y-5212400D02*
X-6236650Y-5252400D01*
X-6217600Y-2031050D02*
X-6177600Y-2071050D01*
X-6177600Y-2031050D02*
X-6217600Y-2071050D01*
X-5989000Y-3028000D02*
X-5949000Y-3068000D01*
X-5949000Y-3028000D02*
X-5989000Y-3068000D01*
X-5887400Y-3231200D02*
X-5847400Y-3271200D01*
X-5847400Y-3231200D02*
X-5887400Y-3271200D01*
X-5563550Y-3936050D02*
X-5523550Y-3976050D01*
X-5523550Y-3936050D02*
X-5563550Y-3976050D01*
X-5538150Y-7473000D02*
X-5498150Y-7513000D01*
X-5498150Y-7473000D02*
X-5538150Y-7513000D01*
X-5442900Y-3548700D02*
X-5402900Y-3588700D01*
X-5402900Y-3548700D02*
X-5442900Y-3588700D01*
X-5354000Y-3618550D02*
X-5314000Y-3658550D01*
X-5314000Y-3618550D02*
X-5354000Y-3658550D01*
X-5347650Y-5656900D02*
X-5307650Y-5696900D01*
X-5307650Y-5656900D02*
X-5347650Y-5696900D01*
X-5328600Y-3091500D02*
X-5288600Y-3131500D01*
X-5288600Y-3091500D02*
X-5328600Y-3131500D01*
X-4985700Y-6196650D02*
X-4945700Y-6236650D01*
X-4945700Y-6196650D02*
X-4985700Y-6236650D01*
X-4820600Y-3224850D02*
X-4780600Y-3264850D01*
X-4780600Y-3224850D02*
X-4820600Y-3264850D01*
X-4788850Y-3396300D02*
X-4748850Y-3436300D01*
X-4748850Y-3396300D02*
X-4788850Y-3436300D01*
X-4769800Y-3878900D02*
X-4729800Y-3918900D01*
X-4729800Y-3878900D02*
X-4769800Y-3918900D01*
X-4763450Y-4304350D02*
X-4723450Y-4344350D01*
X-4723450Y-4304350D02*
X-4763450Y-4344350D01*
X-4306250Y-9009700D02*
X-4266250Y-9049700D01*
X-4266250Y-9009700D02*
X-4306250Y-9049700D01*
X-4134800Y-3834450D02*
X-4094800Y-3874450D01*
X-4094800Y-3834450D02*
X-4134800Y-3874450D01*
X-3868100Y-8006400D02*
X-3828100Y-8046400D01*
X-3828100Y-8006400D02*
X-3868100Y-8046400D01*
X-3474400Y-8082600D02*
X-3434400Y-8122600D01*
X-3434400Y-8082600D02*
X-3474400Y-8122600D01*
X-3426775Y-8352475D02*
X-3386775Y-8392475D01*
X-3386775Y-8352475D02*
X-3426775Y-8392475D01*
X-3379150Y-8711250D02*
X-3339150Y-8751250D01*
X-3339150Y-8711250D02*
X-3379150Y-8751250D01*
X-3232850Y-6374200D02*
X-3192850Y-6414200D01*
X-3192850Y-6374200D02*
X-3232850Y-6414200D01*
X-3201350Y-8095300D02*
X-3161350Y-8135300D01*
X-3161350Y-8095300D02*
X-3201350Y-8135300D01*
X-3001679Y-7749579D02*
X-2961679Y-7789579D01*
X-2961679Y-7749579D02*
X-3001679Y-7789579D01*
X-2896550Y-8177850D02*
X-2856550Y-8217850D01*
X-2856550Y-8177850D02*
X-2896550Y-8217850D01*
X-2871150Y-7015800D02*
X-2831150Y-7055800D01*
X-2831150Y-7015800D02*
X-2871150Y-7055800D01*
X-2820350Y-5739450D02*
X-2780350Y-5779450D01*
X-2780350Y-5739450D02*
X-2820350Y-5779450D01*
X-2725100Y-2113600D02*
X-2685100Y-2153600D01*
X-2685100Y-2113600D02*
X-2725100Y-2153600D01*
X-2725100Y-2215200D02*
X-2685100Y-2255200D01*
X-2685100Y-2215200D02*
X-2725100Y-2255200D01*
X-2725100Y-2323150D02*
X-2685100Y-2363150D01*
X-2685100Y-2323150D02*
X-2725100Y-2363150D01*
X-2725100Y-2424750D02*
X-2685100Y-2464750D01*
X-2685100Y-2424750D02*
X-2725100Y-2464750D01*
X-2725100Y-2520000D02*
X-2685100Y-2560000D01*
X-2685100Y-2520000D02*
X-2725100Y-2560000D01*
X-2706050Y-6387150D02*
X-2666050Y-6427150D01*
X-2666050Y-6387150D02*
X-2706050Y-6427150D01*
X-2452050Y-9638350D02*
X-2412050Y-9678350D01*
X-2412050Y-9638350D02*
X-2452050Y-9678350D01*
X-2217100Y-4609150D02*
X-2177100Y-4649150D01*
X-2177100Y-4609150D02*
X-2217100Y-4649150D01*
X-1785300Y-3796350D02*
X-1745300Y-3836350D01*
X-1745300Y-3796350D02*
X-1785300Y-3836350D01*
X-1518600Y-7682550D02*
X-1478600Y-7722550D01*
X-1478600Y-7682550D02*
X-1518600Y-7722550D01*
X-7931950Y-8986900D02*
G75*
G03X-7931950Y-8986900I-50000J0D01*
G01*
X-7931950Y-9486900D02*
G75*
G03X-7931950Y-9486900I-50000J0D01*
G01*
X-8420900Y-7175500D02*
G75*
G03X-8420900Y-7175500I-50000J0D01*
G01*
X-6217450Y-8515350D02*
G75*
G03X-6217450Y-8515350I-50000J0D01*
G01*
X-9303550Y-2921000D02*
G75*
G03X-9303550Y-2921000I-50000J0D01*
G01*
X-9303550Y-3175000D02*
G75*
G03X-9303550Y-3175000I-50000J0D01*
G01*
X-9303550Y-3429000D02*
G75*
G03X-9303550Y-3429000I-50000J0D01*
G01*
X-9303550Y-3683000D02*
G75*
G03X-9303550Y-3683000I-50000J0D01*
G01*
X-9303550Y-3937000D02*
G75*
G03X-9303550Y-3937000I-50000J0D01*
G01*
X-9303550Y-4191000D02*
G75*
G03X-9303550Y-4191000I-50000J0D01*
G01*
X-9303550Y-4445000D02*
G75*
G03X-9303550Y-4445000I-50000J0D01*
G01*
X-9303550Y-4699000D02*
G75*
G03X-9303550Y-4699000I-50000J0D01*
G01*
X-9354350Y-1555750D02*
G75*
G03X-9354350Y-1555750I-50000J0D01*
G01*
X-1048550Y-8832850D02*
G75*
G03X-1048550Y-8832850I-50000J0D01*
G01*
X-8605050Y-8509000D02*
G75*
G03X-8605050Y-8509000I-50000J0D01*
G01*
X-1790700Y-7133200D02*
X-1790700Y-7243200D01*
X-1845700Y-7188200D02*
X-1735700Y-7188200D01*
X-1536700Y-7133200D02*
X-1536700Y-7243200D01*
X-1591700Y-7188200D02*
X-1481700Y-7188200D01*
X-6870700Y-9463650D02*
X-6870700Y-9573650D01*
X-6925700Y-9518650D02*
X-6815700Y-9518650D01*
X-6616700Y-9463650D02*
X-6616700Y-9573650D01*
X-6671700Y-9518650D02*
X-6561700Y-9518650D01*
X-4260850Y-9406500D02*
X-4260850Y-9516500D01*
X-4315850Y-9461500D02*
X-4205850Y-9461500D01*
X-4006850Y-9406500D02*
X-4006850Y-9516500D01*
X-4061850Y-9461500D02*
X-3951850Y-9461500D01*
X-3752850Y-9406500D02*
X-3752850Y-9516500D01*
X-3807850Y-9461500D02*
X-3697850Y-9461500D01*
X-1962150Y-9470000D02*
X-1962150Y-9580000D01*
X-2017150Y-9525000D02*
X-1907150Y-9525000D01*
X-1708150Y-9470000D02*
X-1708150Y-9580000D01*
X-1763150Y-9525000D02*
X-1653150Y-9525000D01*
X-1454150Y-9470000D02*
X-1454150Y-9580000D01*
X-1509150Y-9525000D02*
X-1399150Y-9525000D01*
X-8603105Y-801245D02*
X-8603105Y-722755D01*
X-8681595Y-722755D01*
X-8681595Y-801245D01*
X-8603105Y-801245D01*
X-8603105Y-1055245D02*
X-8603105Y-976755D01*
X-8681595Y-976755D01*
X-8681595Y-1055245D01*
X-8603105Y-1055245D01*
X-8603105Y-1309245D02*
X-8603105Y-1230755D01*
X-8681595Y-1230755D01*
X-8681595Y-1309245D01*
X-8603105Y-1309245D01*
X-8603105Y-1563245D02*
X-8603105Y-1484755D01*
X-8681595Y-1484755D01*
X-8681595Y-1563245D01*
X-8603105Y-1563245D01*
X-8603105Y-1817245D02*
X-8603105Y-1738755D01*
X-8681595Y-1738755D01*
X-8681595Y-1817245D01*
X-8603105Y-1817245D01*
X-8603105Y-2071245D02*
X-8603105Y-1992755D01*
X-8681595Y-1992755D01*
X-8681595Y-2071245D01*
X-8603105Y-2071245D01*
X-8603105Y-2325245D02*
X-8603105Y-2246755D01*
X-8681595Y-2246755D01*
X-8681595Y-2325245D01*
X-8603105Y-2325245D01*
X-8603105Y-2579245D02*
X-8603105Y-2500755D01*
X-8681595Y-2500755D01*
X-8681595Y-2579245D01*
X-8603105Y-2579245D01*
X-8603105Y-2833245D02*
X-8603105Y-2754755D01*
X-8681595Y-2754755D01*
X-8681595Y-2833245D01*
X-8603105Y-2833245D01*
X-8603105Y-3087245D02*
X-8603105Y-3008755D01*
X-8681595Y-3008755D01*
X-8681595Y-3087245D01*
X-8603105Y-3087245D01*
X-8603105Y-3341245D02*
X-8603105Y-3262755D01*
X-8681595Y-3262755D01*
X-8681595Y-3341245D01*
X-8603105Y-3341245D01*
X-8603105Y-3595245D02*
X-8603105Y-3516755D01*
X-8681595Y-3516755D01*
X-8681595Y-3595245D01*
X-8603105Y-3595245D01*
X-8603105Y-3849245D02*
X-8603105Y-3770755D01*
X-8681595Y-3770755D01*
X-8681595Y-3849245D01*
X-8603105Y-3849245D01*
X-8603105Y-4103245D02*
X-8603105Y-4024755D01*
X-8681595Y-4024755D01*
X-8681595Y-4103245D01*
X-8603105Y-4103245D01*
X-8603105Y-4357245D02*
X-8603105Y-4278755D01*
X-8681595Y-4278755D01*
X-8681595Y-4357245D01*
X-8603105Y-4357245D01*
X-8603105Y-4611245D02*
X-8603105Y-4532755D01*
X-8681595Y-4532755D01*
X-8681595Y-4611245D01*
X-8603105Y-4611245D01*
X-6571105Y-1817245D02*
X-6571105Y-1738755D01*
X-6649595Y-1738755D01*
X-6649595Y-1817245D01*
X-6571105Y-1817245D01*
X-6571105Y-2071245D02*
X-6571105Y-1992755D01*
X-6649595Y-1992755D01*
X-6649595Y-2071245D01*
X-6571105Y-2071245D01*
X-6571105Y-2325245D02*
X-6571105Y-2246755D01*
X-6649595Y-2246755D01*
X-6649595Y-2325245D01*
X-6571105Y-2325245D01*
X-6571105Y-2579245D02*
X-6571105Y-2500755D01*
X-6649595Y-2500755D01*
X-6649595Y-2579245D01*
X-6571105Y-2579245D01*
X-6571105Y-2833245D02*
X-6571105Y-2754755D01*
X-6649595Y-2754755D01*
X-6649595Y-2833245D01*
X-6571105Y-2833245D01*
X-6571105Y-3087245D02*
X-6571105Y-3008755D01*
X-6649595Y-3008755D01*
X-6649595Y-3087245D01*
X-6571105Y-3087245D01*
X-6571105Y-3341245D02*
X-6571105Y-3262755D01*
X-6649595Y-3262755D01*
X-6649595Y-3341245D01*
X-6571105Y-3341245D01*
X-6571105Y-3595245D02*
X-6571105Y-3516755D01*
X-6649595Y-3516755D01*
X-6649595Y-3595245D01*
X-6571105Y-3595245D01*
X-6571105Y-3849245D02*
X-6571105Y-3770755D01*
X-6649595Y-3770755D01*
X-6649595Y-3849245D01*
X-6571105Y-3849245D01*
X-6571105Y-4103245D02*
X-6571105Y-4024755D01*
X-6649595Y-4024755D01*
X-6649595Y-4103245D01*
X-6571105Y-4103245D01*
X-6571105Y-4357245D02*
X-6571105Y-4278755D01*
X-6649595Y-4278755D01*
X-6649595Y-4357245D01*
X-6571105Y-4357245D01*
X-6571105Y-4611245D02*
X-6571105Y-4532755D01*
X-6649595Y-4532755D01*
X-6649595Y-4611245D01*
X-6571105Y-4611245D01*
X-4470400Y-5236200D02*
X-4390400Y-5156200D01*
X-4470400Y-5076200D01*
X-4550400Y-5156200D01*
X-4470400Y-5236200D01*
X-5962650Y-816600D02*
X-5882650Y-736600D01*
X-5962650Y-656600D01*
X-6042650Y-736600D01*
X-5962650Y-816600D01*
X-5454650Y-816600D02*
X-5374650Y-736600D01*
X-5454650Y-656600D01*
X-5534650Y-736600D01*
X-5454650Y-816600D01*
X-4946650Y-816600D02*
X-4866650Y-736600D01*
X-4946650Y-656600D01*
X-5026650Y-736600D01*
X-4946650Y-816600D01*
X-4438650Y-816600D02*
X-4358650Y-736600D01*
X-4438650Y-656600D01*
X-4518650Y-736600D01*
X-4438650Y-816600D01*
X-3930650Y-816600D02*
X-3850650Y-736600D01*
X-3930650Y-656600D01*
X-4010650Y-736600D01*
X-3930650Y-816600D01*
X-3422650Y-816600D02*
X-3342650Y-736600D01*
X-3422650Y-656600D01*
X-3502650Y-736600D01*
X-3422650Y-816600D01*
X-2914650Y-816600D02*
X-2834650Y-736600D01*
X-2914650Y-656600D01*
X-2994650Y-736600D01*
X-2914650Y-816600D01*
X-2406650Y-816600D02*
X-2326650Y-736600D01*
X-2406650Y-656600D01*
X-2486650Y-736600D01*
X-2406650Y-816600D01*
X-1898650Y-816600D02*
X-1818650Y-736600D01*
X-1898650Y-656600D01*
X-1978650Y-736600D01*
X-1898650Y-816600D01*
X-1390650Y-816600D02*
X-1310650Y-736600D01*
X-1390650Y-656600D01*
X-1470650Y-736600D01*
X-1390650Y-816600D01*
X-882650Y-816600D02*
X-802650Y-736600D01*
X-882650Y-656600D01*
X-962650Y-736600D01*
X-882650Y-816600D01*
X-374650Y-816600D02*
X-294650Y-736600D01*
X-374650Y-656600D01*
X-454650Y-736600D01*
X-374650Y-816600D01*
X-9315450Y-7573000D02*
X-9235450Y-7493000D01*
X-9315450Y-7413000D01*
X-9395450Y-7493000D01*
X-9315450Y-7573000D01*
X-9315450Y-8081000D02*
X-9235450Y-8001000D01*
X-9315450Y-7921000D01*
X-9395450Y-8001000D01*
X-9315450Y-8081000D01*
X-723900Y-2658100D02*
X-643900Y-2578100D01*
X-723900Y-2498100D01*
X-803900Y-2578100D01*
X-723900Y-2658100D01*
X-723900Y-3166100D02*
X-643900Y-3086100D01*
X-723900Y-3006100D01*
X-803900Y-3086100D01*
X-723900Y-3166100D01*
X-723900Y-3674100D02*
X-643900Y-3594100D01*
X-723900Y-3514100D01*
X-803900Y-3594100D01*
X-723900Y-3674100D01*
X-723900Y-4182100D02*
X-643900Y-4102100D01*
X-723900Y-4022100D01*
X-803900Y-4102100D01*
X-723900Y-4182100D01*
X-723900Y-4690100D02*
X-643900Y-4610100D01*
X-723900Y-4530100D01*
X-803900Y-4610100D01*
X-723900Y-4690100D01*
X-723900Y-5198100D02*
X-643900Y-5118100D01*
X-723900Y-5038100D01*
X-803900Y-5118100D01*
X-723900Y-5198100D01*
X-723900Y-5706100D02*
X-643900Y-5626100D01*
X-723900Y-5546100D01*
X-803900Y-5626100D01*
X-723900Y-5706100D01*
X-723900Y-6214100D02*
X-643900Y-6134100D01*
X-723900Y-6054100D01*
X-803900Y-6134100D01*
X-723900Y-6214100D01*
X-723900Y-6722100D02*
X-643900Y-6642100D01*
X-723900Y-6562100D01*
X-803900Y-6642100D01*
X-723900Y-6722100D01*
X-723900Y-7230100D02*
X-643900Y-7150100D01*
X-723900Y-7070100D01*
X-803900Y-7150100D01*
X-723900Y-7230100D01*
X-723900Y-7738100D02*
X-643900Y-7658100D01*
X-723900Y-7578100D01*
X-803900Y-7658100D01*
X-723900Y-7738100D01*
X-723900Y-8246100D02*
X-643900Y-8166100D01*
X-723900Y-8086100D01*
X-803900Y-8166100D01*
X-723900Y-8246100D01*
X-9283700Y-6461750D02*
X-9203700Y-6381750D01*
X-9283700Y-6301750D01*
X-9363700Y-6381750D01*
X-9283700Y-6461750D01*
X-9283700Y-6969750D02*
X-9203700Y-6889750D01*
X-9283700Y-6809750D01*
X-9363700Y-6889750D01*
X-9283700Y-6969750D01*
X-5594350Y-2461250D02*
X-5514350Y-2381250D01*
X-5594350Y-2301250D01*
X-5674350Y-2381250D01*
X-5594350Y-2461250D01*
X-2986050Y-8876300D02*
X-2786050Y-9076300D01*
X-2786050Y-8876300D02*
X-2986050Y-9076300D01*
X-2786050Y-8976300D02*
G75*
G03X-2786050Y-8976300I-100000J0D01*
G01*
X-2986050Y-9426300D02*
X-2786050Y-9626300D01*
X-2786050Y-9426300D02*
X-2986050Y-9626300D01*
X-2786050Y-9526300D02*
G75*
G03X-2786050Y-9526300I-100000J0D01*
G01*
X-2786050Y-9666300D02*
X-2586050Y-9866300D01*
X-2586050Y-9666300D02*
X-2786050Y-9866300D01*
X-2586050Y-9766300D02*
G75*
G03X-2586050Y-9766300I-100000J0D01*
G01*
X-5310150Y-8787400D02*
X-5110150Y-8987400D01*
X-5110150Y-8787400D02*
X-5310150Y-8987400D01*
X-5110150Y-8887400D02*
G75*
G03X-5110150Y-8887400I-100000J0D01*
G01*
X-5310150Y-9337400D02*
X-5110150Y-9537400D01*
X-5110150Y-9337400D02*
X-5310150Y-9537400D01*
X-5110150Y-9437400D02*
G75*
G03X-5110150Y-9437400I-100000J0D01*
G01*
X-5110150Y-9577400D02*
X-4910150Y-9777400D01*
X-4910150Y-9577400D02*
X-5110150Y-9777400D01*
X-4910150Y-9677400D02*
G75*
G03X-4910150Y-9677400I-100000J0D01*
G01*
X-8642350Y-254000D02*
X-8388350Y-508000D01*
X-8388350Y-254000D02*
X-8642350Y-508000D01*
X-8515350Y-254000D02*
X-8515350Y-508000D01*
X-8642350Y-381000D02*
X-8388350Y-381000D01*
X-8642350Y-4826000D02*
X-8388350Y-5080000D01*
X-8388350Y-4826000D02*
X-8642350Y-5080000D01*
X-8515350Y-4826000D02*
X-8515350Y-5080000D01*
X-8642350Y-4953000D02*
X-8388350Y-4953000D01*
X-6864350Y-254000D02*
X-6610350Y-508000D01*
X-6610350Y-254000D02*
X-6864350Y-508000D01*
X-6737350Y-254000D02*
X-6737350Y-508000D01*
X-6864350Y-381000D02*
X-6610350Y-381000D01*
X-6864350Y-4826000D02*
X-6610350Y-5080000D01*
X-6610350Y-4826000D02*
X-6864350Y-5080000D01*
X-6737350Y-4826000D02*
X-6737350Y-5080000D01*
X-6864350Y-4953000D02*
X-6610350Y-4953000D01*
X-9632950Y-5560950D02*
X-9362950Y-5830950D01*
X-9362950Y-5560950D02*
X-9632950Y-5830950D01*
X-9402490Y-5791410D02*
X-9402490Y-5600490D01*
X-9593410Y-5600490D01*
X-9593410Y-5791410D01*
X-9402490Y-5791410D01*
X-9132950Y-5560950D02*
X-8862950Y-5830950D01*
X-8862950Y-5560950D02*
X-9132950Y-5830950D01*
X-8902490Y-5791410D02*
X-8902490Y-5600490D01*
X-9093410Y-5600490D01*
X-9093410Y-5791410D01*
X-8902490Y-5791410D01*
X-9652850Y-9282850D02*
X-9282850Y-9652850D01*
X-9282850Y-9282850D02*
X-9652850Y-9652850D01*
X-9467850Y-9652850D02*
X-9282850Y-9467850D01*
X-9467850Y-9282850D01*
X-9652850Y-9467850D01*
X-9467850Y-9652850D01*
X-616800Y-1580300D02*
X-246800Y-1950300D01*
X-246800Y-1580300D02*
X-616800Y-1950300D01*
X-431800Y-1950300D02*
X-246800Y-1765300D01*
X-431800Y-1580300D01*
X-616800Y-1765300D01*
X-431800Y-1950300D01*
X-591400Y-9276500D02*
X-221400Y-9646500D01*
X-221400Y-9276500D02*
X-591400Y-9646500D01*
X-406400Y-9646500D02*
X-221400Y-9461500D01*
X-406400Y-9276500D01*
X-591400Y-9461500D01*
X-406400Y-9646500D01*
X-9659200Y-234100D02*
X-9289200Y-604100D01*
X-9289200Y-234100D02*
X-9659200Y-604100D01*
X-9474200Y-604100D02*
X-9289200Y-419100D01*
X-9474200Y-234100D01*
X-9659200Y-419100D01*
X-9474200Y-604100D01*
D11*
X286429Y-465714D02*
X286429Y-165714D01*
X357857Y-165714D01*
X400714Y-180000D01*
X429286Y-208571D01*
X443571Y-237143D01*
X457857Y-294286D01*
X457857Y-337143D01*
X443571Y-394286D01*
X429286Y-422857D01*
X400714Y-451428D01*
X357857Y-465714D01*
X286429Y-465714D01*
X586429Y-465714D02*
X586429Y-265714D01*
X586429Y-322857D02*
X600714Y-294286D01*
X615000Y-280000D01*
X643571Y-265714D01*
X672143Y-265714D01*
X772143Y-465714D02*
X772143Y-265714D01*
X772143Y-165714D02*
X757857Y-180000D01*
X772143Y-194286D01*
X786428Y-180000D01*
X772143Y-165714D01*
X772143Y-194286D01*
X957857Y-465714D02*
X929286Y-451428D01*
X915000Y-422857D01*
X915000Y-165714D01*
X1115000Y-465714D02*
X1086429Y-451428D01*
X1072143Y-422857D01*
X1072143Y-165714D01*
X1457857Y-465714D02*
X1457857Y-165714D01*
X1557857Y-380000D01*
X1657857Y-165714D01*
X1657857Y-465714D01*
X1929286Y-465714D02*
X1929286Y-308571D01*
X1915000Y-280000D01*
X1886428Y-265714D01*
X1829286Y-265714D01*
X1800714Y-280000D01*
X1929286Y-451428D02*
X1900714Y-465714D01*
X1829286Y-465714D01*
X1800714Y-451428D01*
X1786428Y-422857D01*
X1786428Y-394286D01*
X1800714Y-365714D01*
X1829286Y-351428D01*
X1900714Y-351428D01*
X1929286Y-337143D01*
X2072143Y-265714D02*
X2072143Y-565714D01*
X2072143Y-280000D02*
X2100714Y-265714D01*
X2157857Y-265714D01*
X2186429Y-280000D01*
X2200714Y-294286D01*
X2215000Y-322857D01*
X2215000Y-408571D01*
X2200714Y-437143D01*
X2186429Y-451428D01*
X2157857Y-465714D01*
X2100714Y-465714D01*
X2072143Y-451428D01*
X2343571Y-437143D02*
X2357857Y-451428D01*
X2343571Y-465714D01*
X2329286Y-451428D01*
X2343571Y-437143D01*
X2343571Y-465714D01*
X2343571Y-280000D02*
X2357857Y-294286D01*
X2343571Y-308571D01*
X2329286Y-294286D01*
X2343571Y-280000D01*
X2343571Y-308571D01*
X-40000Y-940000D02*
X0Y-980000D01*
X0Y-940000D02*
X-40000Y-980000D01*
X343571Y-795714D02*
X372143Y-795714D01*
X400714Y-810000D01*
X415000Y-824286D01*
X429286Y-852857D01*
X443571Y-910000D01*
X443571Y-981428D01*
X429286Y-1038571D01*
X415000Y-1067143D01*
X400714Y-1081429D01*
X372143Y-1095714D01*
X343571Y-1095714D01*
X315000Y-1081429D01*
X300714Y-1067143D01*
X286429Y-1038571D01*
X272143Y-981428D01*
X272143Y-910000D01*
X286429Y-852857D01*
X300714Y-824286D01*
X315000Y-810000D01*
X343571Y-795714D01*
X572143Y-1067143D02*
X586429Y-1081429D01*
X572143Y-1095714D01*
X557857Y-1081429D01*
X572143Y-1067143D01*
X572143Y-1095714D01*
X843571Y-895714D02*
X843571Y-1095714D01*
X772143Y-781428D02*
X700714Y-995714D01*
X886428Y-995714D01*
X1057857Y-795714D02*
X1086429Y-795714D01*
X1115000Y-810000D01*
X1129286Y-824286D01*
X1143571Y-852857D01*
X1157857Y-910000D01*
X1157857Y-981428D01*
X1143571Y-1038571D01*
X1129286Y-1067143D01*
X1115000Y-1081429D01*
X1086429Y-1095714D01*
X1057857Y-1095714D01*
X1029286Y-1081429D01*
X1015000Y-1067143D01*
X1000714Y-1038571D01*
X986428Y-981428D01*
X986428Y-910000D01*
X1000714Y-852857D01*
X1015000Y-824286D01*
X1029286Y-810000D01*
X1057857Y-795714D01*
X1286429Y-1095714D02*
X1286429Y-895714D01*
X1286429Y-924286D02*
X1300714Y-910000D01*
X1329286Y-895714D01*
X1372143Y-895714D01*
X1400714Y-910000D01*
X1415000Y-938571D01*
X1415000Y-1095714D01*
X1415000Y-938571D02*
X1429286Y-910000D01*
X1457857Y-895714D01*
X1500714Y-895714D01*
X1529286Y-910000D01*
X1543571Y-938571D01*
X1543571Y-1095714D01*
X1686428Y-1095714D02*
X1686428Y-895714D01*
X1686428Y-924286D02*
X1700714Y-910000D01*
X1729286Y-895714D01*
X1772143Y-895714D01*
X1800714Y-910000D01*
X1815000Y-938571D01*
X1815000Y-1095714D01*
X1815000Y-938571D02*
X1829286Y-910000D01*
X1857857Y-895714D01*
X1900714Y-895714D01*
X1929286Y-910000D01*
X1943571Y-938571D01*
X1943571Y-1095714D01*
X2529286Y-781428D02*
X2272143Y-1167143D01*
X2915000Y-795714D02*
X2943571Y-795714D01*
X2972143Y-810000D01*
X2986428Y-824286D01*
X3000714Y-852857D01*
X3015000Y-910000D01*
X3015000Y-981428D01*
X3000714Y-1038571D01*
X2986428Y-1067143D01*
X2972143Y-1081429D01*
X2943571Y-1095714D01*
X2915000Y-1095714D01*
X2886428Y-1081429D01*
X2872143Y-1067143D01*
X2857857Y-1038571D01*
X2843571Y-981428D01*
X2843571Y-910000D01*
X2857857Y-852857D01*
X2872143Y-824286D01*
X2886428Y-810000D01*
X2915000Y-795714D01*
X3143571Y-1067143D02*
X3157857Y-1081429D01*
X3143571Y-1095714D01*
X3129286Y-1081429D01*
X3143571Y-1067143D01*
X3143571Y-1095714D01*
X3343571Y-795714D02*
X3372143Y-795714D01*
X3400714Y-810000D01*
X3415000Y-824286D01*
X3429286Y-852857D01*
X3443571Y-910000D01*
X3443571Y-981428D01*
X3429286Y-1038571D01*
X3415000Y-1067143D01*
X3400714Y-1081429D01*
X3372143Y-1095714D01*
X3343571Y-1095714D01*
X3315000Y-1081429D01*
X3300714Y-1067143D01*
X3286428Y-1038571D01*
X3272143Y-981428D01*
X3272143Y-910000D01*
X3286428Y-852857D01*
X3300714Y-824286D01*
X3315000Y-810000D01*
X3343571Y-795714D01*
X3729286Y-1095714D02*
X3557857Y-1095714D01*
X3643571Y-1095714D02*
X3643571Y-795714D01*
X3615000Y-838571D01*
X3586428Y-867143D01*
X3557857Y-881428D01*
X3986428Y-795714D02*
X3929286Y-795714D01*
X3900714Y-810000D01*
X3886428Y-824286D01*
X3857857Y-867143D01*
X3843571Y-924286D01*
X3843571Y-1038571D01*
X3857857Y-1067143D01*
X3872143Y-1081429D01*
X3900714Y-1095714D01*
X3957857Y-1095714D01*
X3986428Y-1081429D01*
X4000714Y-1067143D01*
X4015000Y-1038571D01*
X4015000Y-967143D01*
X4000714Y-938571D01*
X3986428Y-924286D01*
X3957857Y-910000D01*
X3900714Y-910000D01*
X3872143Y-924286D01*
X3857857Y-938571D01*
X3843571Y-967143D01*
X4129286Y-795714D02*
X4129286Y-852857D01*
X4243571Y-795714D02*
X4243571Y-852857D01*
X4686429Y-1210000D02*
X4672143Y-1195714D01*
X4643571Y-1152857D01*
X4629286Y-1124286D01*
X4615000Y-1081429D01*
X4600714Y-1010000D01*
X4600714Y-952857D01*
X4615000Y-881428D01*
X4629286Y-838571D01*
X4643571Y-810000D01*
X4672143Y-767143D01*
X4686429Y-752857D01*
X4772143Y-795714D02*
X4972143Y-795714D01*
X4843571Y-1095714D01*
X5215000Y-895714D02*
X5215000Y-1095714D01*
X5143571Y-781428D02*
X5072143Y-995714D01*
X5257857Y-995714D01*
X5600714Y-1095714D02*
X5600714Y-795714D01*
X5729286Y-1095714D02*
X5729286Y-938571D01*
X5715000Y-910000D01*
X5686428Y-895714D01*
X5643571Y-895714D01*
X5615000Y-910000D01*
X5600714Y-924286D01*
X5915000Y-1095714D02*
X5886428Y-1081429D01*
X5872143Y-1067143D01*
X5857857Y-1038571D01*
X5857857Y-952857D01*
X5872143Y-924286D01*
X5886428Y-910000D01*
X5915000Y-895714D01*
X5957857Y-895714D01*
X5986428Y-910000D01*
X6000714Y-924286D01*
X6015000Y-952857D01*
X6015000Y-1038571D01*
X6000714Y-1067143D01*
X5986428Y-1081429D01*
X5957857Y-1095714D01*
X5915000Y-1095714D01*
X6186428Y-1095714D02*
X6157857Y-1081429D01*
X6143571Y-1052857D01*
X6143571Y-795714D01*
X6415000Y-1081429D02*
X6386428Y-1095714D01*
X6329286Y-1095714D01*
X6300714Y-1081429D01*
X6286428Y-1052857D01*
X6286428Y-938571D01*
X6300714Y-910000D01*
X6329286Y-895714D01*
X6386428Y-895714D01*
X6415000Y-910000D01*
X6429286Y-938571D01*
X6429286Y-967143D01*
X6286428Y-995714D01*
X6543571Y-1081429D02*
X6572143Y-1095714D01*
X6629286Y-1095714D01*
X6657857Y-1081429D01*
X6672143Y-1052857D01*
X6672143Y-1038571D01*
X6657857Y-1010000D01*
X6629286Y-995714D01*
X6586428Y-995714D01*
X6557857Y-981428D01*
X6543571Y-952857D01*
X6543571Y-938571D01*
X6557857Y-910000D01*
X6586428Y-895714D01*
X6629286Y-895714D01*
X6657857Y-910000D01*
X6772143Y-1210000D02*
X6786428Y-1195714D01*
X6815000Y-1152857D01*
X6829286Y-1124286D01*
X6843571Y-1081429D01*
X6857857Y-1010000D01*
X6857857Y-952857D01*
X6843571Y-881428D01*
X6829286Y-838571D01*
X6815000Y-810000D01*
X6786428Y-767143D01*
X6772143Y-752857D01*
X0Y-1356000D02*
G75*
G03X0Y-1356000I-50000J0D01*
G01*
X443571Y-1491714D02*
X272143Y-1491714D01*
X357857Y-1491714D02*
X357857Y-1191714D01*
X329286Y-1234571D01*
X300714Y-1263143D01*
X272143Y-1277429D01*
X572143Y-1463143D02*
X586429Y-1477428D01*
X572143Y-1491714D01*
X557857Y-1477428D01*
X572143Y-1463143D01*
X572143Y-1491714D01*
X772143Y-1191714D02*
X800714Y-1191714D01*
X829286Y-1206000D01*
X843571Y-1220286D01*
X857857Y-1248857D01*
X872143Y-1306000D01*
X872143Y-1377429D01*
X857857Y-1434571D01*
X843571Y-1463143D01*
X829286Y-1477428D01*
X800714Y-1491714D01*
X772143Y-1491714D01*
X743571Y-1477428D01*
X729286Y-1463143D01*
X715000Y-1434571D01*
X700714Y-1377429D01*
X700714Y-1306000D01*
X715000Y-1248857D01*
X729286Y-1220286D01*
X743571Y-1206000D01*
X772143Y-1191714D01*
X1057857Y-1191714D02*
X1086429Y-1191714D01*
X1115000Y-1206000D01*
X1129286Y-1220286D01*
X1143571Y-1248857D01*
X1157857Y-1306000D01*
X1157857Y-1377429D01*
X1143571Y-1434571D01*
X1129286Y-1463143D01*
X1115000Y-1477428D01*
X1086429Y-1491714D01*
X1057857Y-1491714D01*
X1029286Y-1477428D01*
X1015000Y-1463143D01*
X1000714Y-1434571D01*
X986428Y-1377429D01*
X986428Y-1306000D01*
X1000714Y-1248857D01*
X1015000Y-1220286D01*
X1029286Y-1206000D01*
X1057857Y-1191714D01*
X1286429Y-1491714D02*
X1286429Y-1291714D01*
X1286429Y-1320286D02*
X1300714Y-1306000D01*
X1329286Y-1291714D01*
X1372143Y-1291714D01*
X1400714Y-1306000D01*
X1415000Y-1334571D01*
X1415000Y-1491714D01*
X1415000Y-1334571D02*
X1429286Y-1306000D01*
X1457857Y-1291714D01*
X1500714Y-1291714D01*
X1529286Y-1306000D01*
X1543571Y-1334571D01*
X1543571Y-1491714D01*
X1686428Y-1491714D02*
X1686428Y-1291714D01*
X1686428Y-1320286D02*
X1700714Y-1306000D01*
X1729286Y-1291714D01*
X1772143Y-1291714D01*
X1800714Y-1306000D01*
X1815000Y-1334571D01*
X1815000Y-1491714D01*
X1815000Y-1334571D02*
X1829286Y-1306000D01*
X1857857Y-1291714D01*
X1900714Y-1291714D01*
X1929286Y-1306000D01*
X1943571Y-1334571D01*
X1943571Y-1491714D01*
X2529286Y-1177429D02*
X2272143Y-1563143D01*
X2915000Y-1191714D02*
X2943571Y-1191714D01*
X2972143Y-1206000D01*
X2986428Y-1220286D01*
X3000714Y-1248857D01*
X3015000Y-1306000D01*
X3015000Y-1377429D01*
X3000714Y-1434571D01*
X2986428Y-1463143D01*
X2972143Y-1477428D01*
X2943571Y-1491714D01*
X2915000Y-1491714D01*
X2886428Y-1477428D01*
X2872143Y-1463143D01*
X2857857Y-1434571D01*
X2843571Y-1377429D01*
X2843571Y-1306000D01*
X2857857Y-1248857D01*
X2872143Y-1220286D01*
X2886428Y-1206000D01*
X2915000Y-1191714D01*
X3143571Y-1463143D02*
X3157857Y-1477428D01*
X3143571Y-1491714D01*
X3129286Y-1477428D01*
X3143571Y-1463143D01*
X3143571Y-1491714D01*
X3343571Y-1191714D02*
X3372143Y-1191714D01*
X3400714Y-1206000D01*
X3415000Y-1220286D01*
X3429286Y-1248857D01*
X3443571Y-1306000D01*
X3443571Y-1377429D01*
X3429286Y-1434571D01*
X3415000Y-1463143D01*
X3400714Y-1477428D01*
X3372143Y-1491714D01*
X3343571Y-1491714D01*
X3315000Y-1477428D01*
X3300714Y-1463143D01*
X3286428Y-1434571D01*
X3272143Y-1377429D01*
X3272143Y-1306000D01*
X3286428Y-1248857D01*
X3300714Y-1220286D01*
X3315000Y-1206000D01*
X3343571Y-1191714D01*
X3543571Y-1191714D02*
X3729286Y-1191714D01*
X3629286Y-1306000D01*
X3672143Y-1306000D01*
X3700714Y-1320286D01*
X3715000Y-1334571D01*
X3729286Y-1363143D01*
X3729286Y-1434571D01*
X3715000Y-1463143D01*
X3700714Y-1477428D01*
X3672143Y-1491714D01*
X3586428Y-1491714D01*
X3557857Y-1477428D01*
X3543571Y-1463143D01*
X3872143Y-1491714D02*
X3929286Y-1491714D01*
X3957857Y-1477428D01*
X3972143Y-1463143D01*
X4000714Y-1420286D01*
X4015000Y-1363143D01*
X4015000Y-1248857D01*
X4000714Y-1220286D01*
X3986428Y-1206000D01*
X3957857Y-1191714D01*
X3900714Y-1191714D01*
X3872143Y-1206000D01*
X3857857Y-1220286D01*
X3843571Y-1248857D01*
X3843571Y-1320286D01*
X3857857Y-1348857D01*
X3872143Y-1363143D01*
X3900714Y-1377429D01*
X3957857Y-1377429D01*
X3986428Y-1363143D01*
X4000714Y-1348857D01*
X4015000Y-1320286D01*
X4129286Y-1191714D02*
X4129286Y-1248857D01*
X4243571Y-1191714D02*
X4243571Y-1248857D01*
X4686429Y-1606000D02*
X4672143Y-1591714D01*
X4643571Y-1548857D01*
X4629286Y-1520286D01*
X4615000Y-1477428D01*
X4600714Y-1406000D01*
X4600714Y-1348857D01*
X4615000Y-1277429D01*
X4629286Y-1234571D01*
X4643571Y-1206000D01*
X4672143Y-1163143D01*
X4686429Y-1148857D01*
X4957857Y-1491714D02*
X4786429Y-1491714D01*
X4872143Y-1491714D02*
X4872143Y-1191714D01*
X4843571Y-1234571D01*
X4815000Y-1263143D01*
X4786429Y-1277429D01*
X5229286Y-1191714D02*
X5086429Y-1191714D01*
X5072143Y-1334571D01*
X5086429Y-1320286D01*
X5115000Y-1306000D01*
X5186429Y-1306000D01*
X5215000Y-1320286D01*
X5229286Y-1334571D01*
X5243571Y-1363143D01*
X5243571Y-1434571D01*
X5229286Y-1463143D01*
X5215000Y-1477428D01*
X5186429Y-1491714D01*
X5115000Y-1491714D01*
X5086429Y-1477428D01*
X5072143Y-1463143D01*
X5600714Y-1491714D02*
X5600714Y-1191714D01*
X5729286Y-1491714D02*
X5729286Y-1334571D01*
X5715000Y-1306000D01*
X5686428Y-1291714D01*
X5643571Y-1291714D01*
X5615000Y-1306000D01*
X5600714Y-1320286D01*
X5915000Y-1491714D02*
X5886428Y-1477428D01*
X5872143Y-1463143D01*
X5857857Y-1434571D01*
X5857857Y-1348857D01*
X5872143Y-1320286D01*
X5886428Y-1306000D01*
X5915000Y-1291714D01*
X5957857Y-1291714D01*
X5986428Y-1306000D01*
X6000714Y-1320286D01*
X6015000Y-1348857D01*
X6015000Y-1434571D01*
X6000714Y-1463143D01*
X5986428Y-1477428D01*
X5957857Y-1491714D01*
X5915000Y-1491714D01*
X6186428Y-1491714D02*
X6157857Y-1477428D01*
X6143571Y-1448857D01*
X6143571Y-1191714D01*
X6415000Y-1477428D02*
X6386428Y-1491714D01*
X6329286Y-1491714D01*
X6300714Y-1477428D01*
X6286428Y-1448857D01*
X6286428Y-1334571D01*
X6300714Y-1306000D01*
X6329286Y-1291714D01*
X6386428Y-1291714D01*
X6415000Y-1306000D01*
X6429286Y-1334571D01*
X6429286Y-1363143D01*
X6286428Y-1391714D01*
X6543571Y-1477428D02*
X6572143Y-1491714D01*
X6629286Y-1491714D01*
X6657857Y-1477428D01*
X6672143Y-1448857D01*
X6672143Y-1434571D01*
X6657857Y-1406000D01*
X6629286Y-1391714D01*
X6586428Y-1391714D01*
X6557857Y-1377429D01*
X6543571Y-1348857D01*
X6543571Y-1334571D01*
X6557857Y-1306000D01*
X6586428Y-1291714D01*
X6629286Y-1291714D01*
X6657857Y-1306000D01*
X6772143Y-1606000D02*
X6786428Y-1591714D01*
X6815000Y-1548857D01*
X6829286Y-1520286D01*
X6843571Y-1477428D01*
X6857857Y-1406000D01*
X6857857Y-1348857D01*
X6843571Y-1277429D01*
X6829286Y-1234571D01*
X6815000Y-1206000D01*
X6786428Y-1163143D01*
X6772143Y-1148857D01*
X-55000Y-1697000D02*
X-55000Y-1807000D01*
X-110000Y-1752000D02*
X0Y-1752000D01*
X443571Y-1887714D02*
X272143Y-1887714D01*
X357857Y-1887714D02*
X357857Y-1587714D01*
X329286Y-1630571D01*
X300714Y-1659143D01*
X272143Y-1673428D01*
X572143Y-1859143D02*
X586429Y-1873428D01*
X572143Y-1887714D01*
X557857Y-1873428D01*
X572143Y-1859143D01*
X572143Y-1887714D01*
X872143Y-1887714D02*
X700714Y-1887714D01*
X786428Y-1887714D02*
X786428Y-1587714D01*
X757857Y-1630571D01*
X729286Y-1659143D01*
X700714Y-1673428D01*
X1057857Y-1587714D02*
X1086429Y-1587714D01*
X1115000Y-1602000D01*
X1129286Y-1616286D01*
X1143571Y-1644857D01*
X1157857Y-1702000D01*
X1157857Y-1773428D01*
X1143571Y-1830571D01*
X1129286Y-1859143D01*
X1115000Y-1873428D01*
X1086429Y-1887714D01*
X1057857Y-1887714D01*
X1029286Y-1873428D01*
X1015000Y-1859143D01*
X1000714Y-1830571D01*
X986428Y-1773428D01*
X986428Y-1702000D01*
X1000714Y-1644857D01*
X1015000Y-1616286D01*
X1029286Y-1602000D01*
X1057857Y-1587714D01*
X1286429Y-1887714D02*
X1286429Y-1687714D01*
X1286429Y-1716286D02*
X1300714Y-1702000D01*
X1329286Y-1687714D01*
X1372143Y-1687714D01*
X1400714Y-1702000D01*
X1415000Y-1730571D01*
X1415000Y-1887714D01*
X1415000Y-1730571D02*
X1429286Y-1702000D01*
X1457857Y-1687714D01*
X1500714Y-1687714D01*
X1529286Y-1702000D01*
X1543571Y-1730571D01*
X1543571Y-1887714D01*
X1686428Y-1887714D02*
X1686428Y-1687714D01*
X1686428Y-1716286D02*
X1700714Y-1702000D01*
X1729286Y-1687714D01*
X1772143Y-1687714D01*
X1800714Y-1702000D01*
X1815000Y-1730571D01*
X1815000Y-1887714D01*
X1815000Y-1730571D02*
X1829286Y-1702000D01*
X1857857Y-1687714D01*
X1900714Y-1687714D01*
X1929286Y-1702000D01*
X1943571Y-1730571D01*
X1943571Y-1887714D01*
X2529286Y-1573428D02*
X2272143Y-1959143D01*
X2915000Y-1587714D02*
X2943571Y-1587714D01*
X2972143Y-1602000D01*
X2986428Y-1616286D01*
X3000714Y-1644857D01*
X3015000Y-1702000D01*
X3015000Y-1773428D01*
X3000714Y-1830571D01*
X2986428Y-1859143D01*
X2972143Y-1873428D01*
X2943571Y-1887714D01*
X2915000Y-1887714D01*
X2886428Y-1873428D01*
X2872143Y-1859143D01*
X2857857Y-1830571D01*
X2843571Y-1773428D01*
X2843571Y-1702000D01*
X2857857Y-1644857D01*
X2872143Y-1616286D01*
X2886428Y-1602000D01*
X2915000Y-1587714D01*
X3143571Y-1859143D02*
X3157857Y-1873428D01*
X3143571Y-1887714D01*
X3129286Y-1873428D01*
X3143571Y-1859143D01*
X3143571Y-1887714D01*
X3343571Y-1587714D02*
X3372143Y-1587714D01*
X3400714Y-1602000D01*
X3415000Y-1616286D01*
X3429286Y-1644857D01*
X3443571Y-1702000D01*
X3443571Y-1773428D01*
X3429286Y-1830571D01*
X3415000Y-1859143D01*
X3400714Y-1873428D01*
X3372143Y-1887714D01*
X3343571Y-1887714D01*
X3315000Y-1873428D01*
X3300714Y-1859143D01*
X3286428Y-1830571D01*
X3272143Y-1773428D01*
X3272143Y-1702000D01*
X3286428Y-1644857D01*
X3300714Y-1616286D01*
X3315000Y-1602000D01*
X3343571Y-1587714D01*
X3700714Y-1687714D02*
X3700714Y-1887714D01*
X3629286Y-1573428D02*
X3557857Y-1787714D01*
X3743571Y-1787714D01*
X3829286Y-1587714D02*
X4015000Y-1587714D01*
X3915000Y-1702000D01*
X3957857Y-1702000D01*
X3986428Y-1716286D01*
X4000714Y-1730571D01*
X4015000Y-1759143D01*
X4015000Y-1830571D01*
X4000714Y-1859143D01*
X3986428Y-1873428D01*
X3957857Y-1887714D01*
X3872143Y-1887714D01*
X3843571Y-1873428D01*
X3829286Y-1859143D01*
X4129286Y-1587714D02*
X4129286Y-1644857D01*
X4243571Y-1587714D02*
X4243571Y-1644857D01*
X4686429Y-2002000D02*
X4672143Y-1987714D01*
X4643571Y-1944857D01*
X4629286Y-1916286D01*
X4615000Y-1873428D01*
X4600714Y-1802000D01*
X4600714Y-1744857D01*
X4615000Y-1673428D01*
X4629286Y-1630571D01*
X4643571Y-1602000D01*
X4672143Y-1559143D01*
X4686429Y-1544857D01*
X4957857Y-1887714D02*
X4786429Y-1887714D01*
X4872143Y-1887714D02*
X4872143Y-1587714D01*
X4843571Y-1630571D01*
X4815000Y-1659143D01*
X4786429Y-1673428D01*
X5143571Y-1587714D02*
X5172143Y-1587714D01*
X5200714Y-1602000D01*
X5215000Y-1616286D01*
X5229286Y-1644857D01*
X5243571Y-1702000D01*
X5243571Y-1773428D01*
X5229286Y-1830571D01*
X5215000Y-1859143D01*
X5200714Y-1873428D01*
X5172143Y-1887714D01*
X5143571Y-1887714D01*
X5115000Y-1873428D01*
X5100714Y-1859143D01*
X5086429Y-1830571D01*
X5072143Y-1773428D01*
X5072143Y-1702000D01*
X5086429Y-1644857D01*
X5100714Y-1616286D01*
X5115000Y-1602000D01*
X5143571Y-1587714D01*
X5600714Y-1887714D02*
X5600714Y-1587714D01*
X5729286Y-1887714D02*
X5729286Y-1730571D01*
X5715000Y-1702000D01*
X5686428Y-1687714D01*
X5643571Y-1687714D01*
X5615000Y-1702000D01*
X5600714Y-1716286D01*
X5915000Y-1887714D02*
X5886428Y-1873428D01*
X5872143Y-1859143D01*
X5857857Y-1830571D01*
X5857857Y-1744857D01*
X5872143Y-1716286D01*
X5886428Y-1702000D01*
X5915000Y-1687714D01*
X5957857Y-1687714D01*
X5986428Y-1702000D01*
X6000714Y-1716286D01*
X6015000Y-1744857D01*
X6015000Y-1830571D01*
X6000714Y-1859143D01*
X5986428Y-1873428D01*
X5957857Y-1887714D01*
X5915000Y-1887714D01*
X6186428Y-1887714D02*
X6157857Y-1873428D01*
X6143571Y-1844857D01*
X6143571Y-1587714D01*
X6415000Y-1873428D02*
X6386428Y-1887714D01*
X6329286Y-1887714D01*
X6300714Y-1873428D01*
X6286428Y-1844857D01*
X6286428Y-1730571D01*
X6300714Y-1702000D01*
X6329286Y-1687714D01*
X6386428Y-1687714D01*
X6415000Y-1702000D01*
X6429286Y-1730571D01*
X6429286Y-1759143D01*
X6286428Y-1787714D01*
X6543571Y-1873428D02*
X6572143Y-1887714D01*
X6629286Y-1887714D01*
X6657857Y-1873428D01*
X6672143Y-1844857D01*
X6672143Y-1830571D01*
X6657857Y-1802000D01*
X6629286Y-1787714D01*
X6586428Y-1787714D01*
X6557857Y-1773428D01*
X6543571Y-1744857D01*
X6543571Y-1730571D01*
X6557857Y-1702000D01*
X6586428Y-1687714D01*
X6629286Y-1687714D01*
X6657857Y-1702000D01*
X6772143Y-2002000D02*
X6786428Y-1987714D01*
X6815000Y-1944857D01*
X6829286Y-1916286D01*
X6843571Y-1873428D01*
X6857857Y-1802000D01*
X6857857Y-1744857D01*
X6843571Y-1673428D01*
X6829286Y-1630571D01*
X6815000Y-1602000D01*
X6786428Y-1559143D01*
X6772143Y-1544857D01*
X-16255Y-2187245D02*
X-16255Y-2108755D01*
X-94745Y-2108755D01*
X-94745Y-2187245D01*
X-16255Y-2187245D01*
X443571Y-2283714D02*
X272143Y-2283714D01*
X357857Y-2283714D02*
X357857Y-1983714D01*
X329286Y-2026571D01*
X300714Y-2055143D01*
X272143Y-2069428D01*
X572143Y-2255143D02*
X586429Y-2269429D01*
X572143Y-2283714D01*
X557857Y-2269429D01*
X572143Y-2255143D01*
X572143Y-2283714D01*
X872143Y-2283714D02*
X700714Y-2283714D01*
X786428Y-2283714D02*
X786428Y-1983714D01*
X757857Y-2026571D01*
X729286Y-2055143D01*
X700714Y-2069428D01*
X1157857Y-2283714D02*
X986428Y-2283714D01*
X1072143Y-2283714D02*
X1072143Y-1983714D01*
X1043571Y-2026571D01*
X1015000Y-2055143D01*
X986428Y-2069428D01*
X1286429Y-2283714D02*
X1286429Y-2083714D01*
X1286429Y-2112286D02*
X1300714Y-2098000D01*
X1329286Y-2083714D01*
X1372143Y-2083714D01*
X1400714Y-2098000D01*
X1415000Y-2126571D01*
X1415000Y-2283714D01*
X1415000Y-2126571D02*
X1429286Y-2098000D01*
X1457857Y-2083714D01*
X1500714Y-2083714D01*
X1529286Y-2098000D01*
X1543571Y-2126571D01*
X1543571Y-2283714D01*
X1686428Y-2283714D02*
X1686428Y-2083714D01*
X1686428Y-2112286D02*
X1700714Y-2098000D01*
X1729286Y-2083714D01*
X1772143Y-2083714D01*
X1800714Y-2098000D01*
X1815000Y-2126571D01*
X1815000Y-2283714D01*
X1815000Y-2126571D02*
X1829286Y-2098000D01*
X1857857Y-2083714D01*
X1900714Y-2083714D01*
X1929286Y-2098000D01*
X1943571Y-2126571D01*
X1943571Y-2283714D01*
X2529286Y-1969428D02*
X2272143Y-2355143D01*
X2915000Y-1983714D02*
X2943571Y-1983714D01*
X2972143Y-1998000D01*
X2986428Y-2012286D01*
X3000714Y-2040857D01*
X3015000Y-2098000D01*
X3015000Y-2169429D01*
X3000714Y-2226571D01*
X2986428Y-2255143D01*
X2972143Y-2269429D01*
X2943571Y-2283714D01*
X2915000Y-2283714D01*
X2886428Y-2269429D01*
X2872143Y-2255143D01*
X2857857Y-2226571D01*
X2843571Y-2169429D01*
X2843571Y-2098000D01*
X2857857Y-2040857D01*
X2872143Y-2012286D01*
X2886428Y-1998000D01*
X2915000Y-1983714D01*
X3143571Y-2255143D02*
X3157857Y-2269429D01*
X3143571Y-2283714D01*
X3129286Y-2269429D01*
X3143571Y-2255143D01*
X3143571Y-2283714D01*
X3343571Y-1983714D02*
X3372143Y-1983714D01*
X3400714Y-1998000D01*
X3415000Y-2012286D01*
X3429286Y-2040857D01*
X3443571Y-2098000D01*
X3443571Y-2169429D01*
X3429286Y-2226571D01*
X3415000Y-2255143D01*
X3400714Y-2269429D01*
X3372143Y-2283714D01*
X3343571Y-2283714D01*
X3315000Y-2269429D01*
X3300714Y-2255143D01*
X3286428Y-2226571D01*
X3272143Y-2169429D01*
X3272143Y-2098000D01*
X3286428Y-2040857D01*
X3300714Y-2012286D01*
X3315000Y-1998000D01*
X3343571Y-1983714D01*
X3700714Y-2083714D02*
X3700714Y-2283714D01*
X3629286Y-1969428D02*
X3557857Y-2183714D01*
X3743571Y-2183714D01*
X3986428Y-2083714D02*
X3986428Y-2283714D01*
X3915000Y-1969428D02*
X3843571Y-2183714D01*
X4029286Y-2183714D01*
X4129286Y-1983714D02*
X4129286Y-2040857D01*
X4243571Y-1983714D02*
X4243571Y-2040857D01*
X4686429Y-2398000D02*
X4672143Y-2383714D01*
X4643571Y-2340857D01*
X4629286Y-2312286D01*
X4615000Y-2269429D01*
X4600714Y-2198000D01*
X4600714Y-2140857D01*
X4615000Y-2069428D01*
X4629286Y-2026571D01*
X4643571Y-1998000D01*
X4672143Y-1955143D01*
X4686429Y-1940857D01*
X4786429Y-2012286D02*
X4800714Y-1998000D01*
X4829286Y-1983714D01*
X4900714Y-1983714D01*
X4929286Y-1998000D01*
X4943571Y-2012286D01*
X4957857Y-2040857D01*
X4957857Y-2069428D01*
X4943571Y-2112286D01*
X4772143Y-2283714D01*
X4957857Y-2283714D01*
X5129286Y-2112286D02*
X5100714Y-2098000D01*
X5086429Y-2083714D01*
X5072143Y-2055143D01*
X5072143Y-2040857D01*
X5086429Y-2012286D01*
X5100714Y-1998000D01*
X5129286Y-1983714D01*
X5186429Y-1983714D01*
X5215000Y-1998000D01*
X5229286Y-2012286D01*
X5243571Y-2040857D01*
X5243571Y-2055143D01*
X5229286Y-2083714D01*
X5215000Y-2098000D01*
X5186429Y-2112286D01*
X5129286Y-2112286D01*
X5100714Y-2126571D01*
X5086429Y-2140857D01*
X5072143Y-2169429D01*
X5072143Y-2226571D01*
X5086429Y-2255143D01*
X5100714Y-2269429D01*
X5129286Y-2283714D01*
X5186429Y-2283714D01*
X5215000Y-2269429D01*
X5229286Y-2255143D01*
X5243571Y-2226571D01*
X5243571Y-2169429D01*
X5229286Y-2140857D01*
X5215000Y-2126571D01*
X5186429Y-2112286D01*
X5600714Y-2283714D02*
X5600714Y-1983714D01*
X5729286Y-2283714D02*
X5729286Y-2126571D01*
X5715000Y-2098000D01*
X5686428Y-2083714D01*
X5643571Y-2083714D01*
X5615000Y-2098000D01*
X5600714Y-2112286D01*
X5915000Y-2283714D02*
X5886428Y-2269429D01*
X5872143Y-2255143D01*
X5857857Y-2226571D01*
X5857857Y-2140857D01*
X5872143Y-2112286D01*
X5886428Y-2098000D01*
X5915000Y-2083714D01*
X5957857Y-2083714D01*
X5986428Y-2098000D01*
X6000714Y-2112286D01*
X6015000Y-2140857D01*
X6015000Y-2226571D01*
X6000714Y-2255143D01*
X5986428Y-2269429D01*
X5957857Y-2283714D01*
X5915000Y-2283714D01*
X6186428Y-2283714D02*
X6157857Y-2269429D01*
X6143571Y-2240857D01*
X6143571Y-1983714D01*
X6415000Y-2269429D02*
X6386428Y-2283714D01*
X6329286Y-2283714D01*
X6300714Y-2269429D01*
X6286428Y-2240857D01*
X6286428Y-2126571D01*
X6300714Y-2098000D01*
X6329286Y-2083714D01*
X6386428Y-2083714D01*
X6415000Y-2098000D01*
X6429286Y-2126571D01*
X6429286Y-2155143D01*
X6286428Y-2183714D01*
X6543571Y-2269429D02*
X6572143Y-2283714D01*
X6629286Y-2283714D01*
X6657857Y-2269429D01*
X6672143Y-2240857D01*
X6672143Y-2226571D01*
X6657857Y-2198000D01*
X6629286Y-2183714D01*
X6586428Y-2183714D01*
X6557857Y-2169429D01*
X6543571Y-2140857D01*
X6543571Y-2126571D01*
X6557857Y-2098000D01*
X6586428Y-2083714D01*
X6629286Y-2083714D01*
X6657857Y-2098000D01*
X6772143Y-2398000D02*
X6786428Y-2383714D01*
X6815000Y-2340857D01*
X6829286Y-2312286D01*
X6843571Y-2269429D01*
X6857857Y-2198000D01*
X6857857Y-2140857D01*
X6843571Y-2069428D01*
X6829286Y-2026571D01*
X6815000Y-1998000D01*
X6786428Y-1955143D01*
X6772143Y-1940857D01*
X-80000Y-2624000D02*
X0Y-2544000D01*
X-80000Y-2464000D01*
X-160000Y-2544000D01*
X-80000Y-2624000D01*
X443571Y-2679714D02*
X272143Y-2679714D01*
X357857Y-2679714D02*
X357857Y-2379714D01*
X329286Y-2422571D01*
X300714Y-2451143D01*
X272143Y-2465429D01*
X572143Y-2651143D02*
X586429Y-2665429D01*
X572143Y-2679714D01*
X557857Y-2665429D01*
X572143Y-2651143D01*
X572143Y-2679714D01*
X843571Y-2379714D02*
X786428Y-2379714D01*
X757857Y-2394000D01*
X743571Y-2408286D01*
X715000Y-2451143D01*
X700714Y-2508286D01*
X700714Y-2622571D01*
X715000Y-2651143D01*
X729286Y-2665429D01*
X757857Y-2679714D01*
X815000Y-2679714D01*
X843571Y-2665429D01*
X857857Y-2651143D01*
X872143Y-2622571D01*
X872143Y-2551143D01*
X857857Y-2522571D01*
X843571Y-2508286D01*
X815000Y-2494000D01*
X757857Y-2494000D01*
X729286Y-2508286D01*
X715000Y-2522571D01*
X700714Y-2551143D01*
X1057857Y-2379714D02*
X1086429Y-2379714D01*
X1115000Y-2394000D01*
X1129286Y-2408286D01*
X1143571Y-2436857D01*
X1157857Y-2494000D01*
X1157857Y-2565429D01*
X1143571Y-2622571D01*
X1129286Y-2651143D01*
X1115000Y-2665429D01*
X1086429Y-2679714D01*
X1057857Y-2679714D01*
X1029286Y-2665429D01*
X1015000Y-2651143D01*
X1000714Y-2622571D01*
X986428Y-2565429D01*
X986428Y-2494000D01*
X1000714Y-2436857D01*
X1015000Y-2408286D01*
X1029286Y-2394000D01*
X1057857Y-2379714D01*
X1286429Y-2679714D02*
X1286429Y-2479714D01*
X1286429Y-2508286D02*
X1300714Y-2494000D01*
X1329286Y-2479714D01*
X1372143Y-2479714D01*
X1400714Y-2494000D01*
X1415000Y-2522571D01*
X1415000Y-2679714D01*
X1415000Y-2522571D02*
X1429286Y-2494000D01*
X1457857Y-2479714D01*
X1500714Y-2479714D01*
X1529286Y-2494000D01*
X1543571Y-2522571D01*
X1543571Y-2679714D01*
X1686428Y-2679714D02*
X1686428Y-2479714D01*
X1686428Y-2508286D02*
X1700714Y-2494000D01*
X1729286Y-2479714D01*
X1772143Y-2479714D01*
X1800714Y-2494000D01*
X1815000Y-2522571D01*
X1815000Y-2679714D01*
X1815000Y-2522571D02*
X1829286Y-2494000D01*
X1857857Y-2479714D01*
X1900714Y-2479714D01*
X1929286Y-2494000D01*
X1943571Y-2522571D01*
X1943571Y-2679714D01*
X2529286Y-2365429D02*
X2272143Y-2751143D01*
X2915000Y-2379714D02*
X2943571Y-2379714D01*
X2972143Y-2394000D01*
X2986428Y-2408286D01*
X3000714Y-2436857D01*
X3015000Y-2494000D01*
X3015000Y-2565429D01*
X3000714Y-2622571D01*
X2986428Y-2651143D01*
X2972143Y-2665429D01*
X2943571Y-2679714D01*
X2915000Y-2679714D01*
X2886428Y-2665429D01*
X2872143Y-2651143D01*
X2857857Y-2622571D01*
X2843571Y-2565429D01*
X2843571Y-2494000D01*
X2857857Y-2436857D01*
X2872143Y-2408286D01*
X2886428Y-2394000D01*
X2915000Y-2379714D01*
X3143571Y-2651143D02*
X3157857Y-2665429D01*
X3143571Y-2679714D01*
X3129286Y-2665429D01*
X3143571Y-2651143D01*
X3143571Y-2679714D01*
X3343571Y-2379714D02*
X3372143Y-2379714D01*
X3400714Y-2394000D01*
X3415000Y-2408286D01*
X3429286Y-2436857D01*
X3443571Y-2494000D01*
X3443571Y-2565429D01*
X3429286Y-2622571D01*
X3415000Y-2651143D01*
X3400714Y-2665429D01*
X3372143Y-2679714D01*
X3343571Y-2679714D01*
X3315000Y-2665429D01*
X3300714Y-2651143D01*
X3286428Y-2622571D01*
X3272143Y-2565429D01*
X3272143Y-2494000D01*
X3286428Y-2436857D01*
X3300714Y-2408286D01*
X3315000Y-2394000D01*
X3343571Y-2379714D01*
X3700714Y-2379714D02*
X3643571Y-2379714D01*
X3615000Y-2394000D01*
X3600714Y-2408286D01*
X3572143Y-2451143D01*
X3557857Y-2508286D01*
X3557857Y-2622571D01*
X3572143Y-2651143D01*
X3586428Y-2665429D01*
X3615000Y-2679714D01*
X3672143Y-2679714D01*
X3700714Y-2665429D01*
X3715000Y-2651143D01*
X3729286Y-2622571D01*
X3729286Y-2551143D01*
X3715000Y-2522571D01*
X3700714Y-2508286D01*
X3672143Y-2494000D01*
X3615000Y-2494000D01*
X3586428Y-2508286D01*
X3572143Y-2522571D01*
X3557857Y-2551143D01*
X3829286Y-2379714D02*
X4015000Y-2379714D01*
X3915000Y-2494000D01*
X3957857Y-2494000D01*
X3986428Y-2508286D01*
X4000714Y-2522571D01*
X4015000Y-2551143D01*
X4015000Y-2622571D01*
X4000714Y-2651143D01*
X3986428Y-2665429D01*
X3957857Y-2679714D01*
X3872143Y-2679714D01*
X3843571Y-2665429D01*
X3829286Y-2651143D01*
X4129286Y-2379714D02*
X4129286Y-2436857D01*
X4243571Y-2379714D02*
X4243571Y-2436857D01*
X4686429Y-2794000D02*
X4672143Y-2779714D01*
X4643571Y-2736857D01*
X4629286Y-2708286D01*
X4615000Y-2665429D01*
X4600714Y-2594000D01*
X4600714Y-2536857D01*
X4615000Y-2465429D01*
X4629286Y-2422571D01*
X4643571Y-2394000D01*
X4672143Y-2351143D01*
X4686429Y-2336857D01*
X4772143Y-2379714D02*
X4957857Y-2379714D01*
X4857857Y-2494000D01*
X4900714Y-2494000D01*
X4929286Y-2508286D01*
X4943571Y-2522571D01*
X4957857Y-2551143D01*
X4957857Y-2622571D01*
X4943571Y-2651143D01*
X4929286Y-2665429D01*
X4900714Y-2679714D01*
X4815000Y-2679714D01*
X4786429Y-2665429D01*
X4772143Y-2651143D01*
X5143571Y-2379714D02*
X5172143Y-2379714D01*
X5200714Y-2394000D01*
X5215000Y-2408286D01*
X5229286Y-2436857D01*
X5243571Y-2494000D01*
X5243571Y-2565429D01*
X5229286Y-2622571D01*
X5215000Y-2651143D01*
X5200714Y-2665429D01*
X5172143Y-2679714D01*
X5143571Y-2679714D01*
X5115000Y-2665429D01*
X5100714Y-2651143D01*
X5086429Y-2622571D01*
X5072143Y-2565429D01*
X5072143Y-2494000D01*
X5086429Y-2436857D01*
X5100714Y-2408286D01*
X5115000Y-2394000D01*
X5143571Y-2379714D01*
X5600714Y-2679714D02*
X5600714Y-2379714D01*
X5729286Y-2679714D02*
X5729286Y-2522571D01*
X5715000Y-2494000D01*
X5686428Y-2479714D01*
X5643571Y-2479714D01*
X5615000Y-2494000D01*
X5600714Y-2508286D01*
X5915000Y-2679714D02*
X5886428Y-2665429D01*
X5872143Y-2651143D01*
X5857857Y-2622571D01*
X5857857Y-2536857D01*
X5872143Y-2508286D01*
X5886428Y-2494000D01*
X5915000Y-2479714D01*
X5957857Y-2479714D01*
X5986428Y-2494000D01*
X6000714Y-2508286D01*
X6015000Y-2536857D01*
X6015000Y-2622571D01*
X6000714Y-2651143D01*
X5986428Y-2665429D01*
X5957857Y-2679714D01*
X5915000Y-2679714D01*
X6186428Y-2679714D02*
X6157857Y-2665429D01*
X6143571Y-2636857D01*
X6143571Y-2379714D01*
X6415000Y-2665429D02*
X6386428Y-2679714D01*
X6329286Y-2679714D01*
X6300714Y-2665429D01*
X6286428Y-2636857D01*
X6286428Y-2522571D01*
X6300714Y-2494000D01*
X6329286Y-2479714D01*
X6386428Y-2479714D01*
X6415000Y-2494000D01*
X6429286Y-2522571D01*
X6429286Y-2551143D01*
X6286428Y-2579714D01*
X6543571Y-2665429D02*
X6572143Y-2679714D01*
X6629286Y-2679714D01*
X6657857Y-2665429D01*
X6672143Y-2636857D01*
X6672143Y-2622571D01*
X6657857Y-2594000D01*
X6629286Y-2579714D01*
X6586428Y-2579714D01*
X6557857Y-2565429D01*
X6543571Y-2536857D01*
X6543571Y-2522571D01*
X6557857Y-2494000D01*
X6586428Y-2479714D01*
X6629286Y-2479714D01*
X6657857Y-2494000D01*
X6772143Y-2794000D02*
X6786428Y-2779714D01*
X6815000Y-2736857D01*
X6829286Y-2708286D01*
X6843571Y-2665429D01*
X6857857Y-2594000D01*
X6857857Y-2536857D01*
X6843571Y-2465429D01*
X6829286Y-2422571D01*
X6815000Y-2394000D01*
X6786428Y-2351143D01*
X6772143Y-2336857D01*
X-200000Y-2840000D02*
X0Y-3040000D01*
X0Y-2840000D02*
X-200000Y-3040000D01*
X0Y-2940000D02*
G75*
G03X0Y-2940000I-100000J0D01*
G01*
X272143Y-2804286D02*
X286429Y-2790000D01*
X315000Y-2775714D01*
X386428Y-2775714D01*
X415000Y-2790000D01*
X429286Y-2804286D01*
X443571Y-2832857D01*
X443571Y-2861428D01*
X429286Y-2904286D01*
X257857Y-3075714D01*
X443571Y-3075714D01*
X572143Y-3047143D02*
X586429Y-3061428D01*
X572143Y-3075714D01*
X557857Y-3061428D01*
X572143Y-3047143D01*
X572143Y-3075714D01*
X772143Y-2775714D02*
X800714Y-2775714D01*
X829286Y-2790000D01*
X843571Y-2804286D01*
X857857Y-2832857D01*
X872143Y-2890000D01*
X872143Y-2961428D01*
X857857Y-3018571D01*
X843571Y-3047143D01*
X829286Y-3061428D01*
X800714Y-3075714D01*
X772143Y-3075714D01*
X743571Y-3061428D01*
X729286Y-3047143D01*
X715000Y-3018571D01*
X700714Y-2961428D01*
X700714Y-2890000D01*
X715000Y-2832857D01*
X729286Y-2804286D01*
X743571Y-2790000D01*
X772143Y-2775714D01*
X1057857Y-2775714D02*
X1086429Y-2775714D01*
X1115000Y-2790000D01*
X1129286Y-2804286D01*
X1143571Y-2832857D01*
X1157857Y-2890000D01*
X1157857Y-2961428D01*
X1143571Y-3018571D01*
X1129286Y-3047143D01*
X1115000Y-3061428D01*
X1086429Y-3075714D01*
X1057857Y-3075714D01*
X1029286Y-3061428D01*
X1015000Y-3047143D01*
X1000714Y-3018571D01*
X986428Y-2961428D01*
X986428Y-2890000D01*
X1000714Y-2832857D01*
X1015000Y-2804286D01*
X1029286Y-2790000D01*
X1057857Y-2775714D01*
X1286429Y-3075714D02*
X1286429Y-2875714D01*
X1286429Y-2904286D02*
X1300714Y-2890000D01*
X1329286Y-2875714D01*
X1372143Y-2875714D01*
X1400714Y-2890000D01*
X1415000Y-2918571D01*
X1415000Y-3075714D01*
X1415000Y-2918571D02*
X1429286Y-2890000D01*
X1457857Y-2875714D01*
X1500714Y-2875714D01*
X1529286Y-2890000D01*
X1543571Y-2918571D01*
X1543571Y-3075714D01*
X1686428Y-3075714D02*
X1686428Y-2875714D01*
X1686428Y-2904286D02*
X1700714Y-2890000D01*
X1729286Y-2875714D01*
X1772143Y-2875714D01*
X1800714Y-2890000D01*
X1815000Y-2918571D01*
X1815000Y-3075714D01*
X1815000Y-2918571D02*
X1829286Y-2890000D01*
X1857857Y-2875714D01*
X1900714Y-2875714D01*
X1929286Y-2890000D01*
X1943571Y-2918571D01*
X1943571Y-3075714D01*
X2529286Y-2761429D02*
X2272143Y-3147143D01*
X2915000Y-2775714D02*
X2943571Y-2775714D01*
X2972143Y-2790000D01*
X2986428Y-2804286D01*
X3000714Y-2832857D01*
X3015000Y-2890000D01*
X3015000Y-2961428D01*
X3000714Y-3018571D01*
X2986428Y-3047143D01*
X2972143Y-3061428D01*
X2943571Y-3075714D01*
X2915000Y-3075714D01*
X2886428Y-3061428D01*
X2872143Y-3047143D01*
X2857857Y-3018571D01*
X2843571Y-2961428D01*
X2843571Y-2890000D01*
X2857857Y-2832857D01*
X2872143Y-2804286D01*
X2886428Y-2790000D01*
X2915000Y-2775714D01*
X3143571Y-3047143D02*
X3157857Y-3061428D01*
X3143571Y-3075714D01*
X3129286Y-3061428D01*
X3143571Y-3047143D01*
X3143571Y-3075714D01*
X3343571Y-2775714D02*
X3372143Y-2775714D01*
X3400714Y-2790000D01*
X3415000Y-2804286D01*
X3429286Y-2832857D01*
X3443571Y-2890000D01*
X3443571Y-2961428D01*
X3429286Y-3018571D01*
X3415000Y-3047143D01*
X3400714Y-3061428D01*
X3372143Y-3075714D01*
X3343571Y-3075714D01*
X3315000Y-3061428D01*
X3300714Y-3047143D01*
X3286428Y-3018571D01*
X3272143Y-2961428D01*
X3272143Y-2890000D01*
X3286428Y-2832857D01*
X3300714Y-2804286D01*
X3315000Y-2790000D01*
X3343571Y-2775714D01*
X3543571Y-2775714D02*
X3743571Y-2775714D01*
X3615000Y-3075714D01*
X3872143Y-3075714D02*
X3929286Y-3075714D01*
X3957857Y-3061428D01*
X3972143Y-3047143D01*
X4000714Y-3004286D01*
X4015000Y-2947143D01*
X4015000Y-2832857D01*
X4000714Y-2804286D01*
X3986428Y-2790000D01*
X3957857Y-2775714D01*
X3900714Y-2775714D01*
X3872143Y-2790000D01*
X3857857Y-2804286D01*
X3843571Y-2832857D01*
X3843571Y-2904286D01*
X3857857Y-2932857D01*
X3872143Y-2947143D01*
X3900714Y-2961428D01*
X3957857Y-2961428D01*
X3986428Y-2947143D01*
X4000714Y-2932857D01*
X4015000Y-2904286D01*
X4129286Y-2775714D02*
X4129286Y-2832857D01*
X4243571Y-2775714D02*
X4243571Y-2832857D01*
X4686429Y-3190000D02*
X4672143Y-3175714D01*
X4643571Y-3132857D01*
X4629286Y-3104286D01*
X4615000Y-3061428D01*
X4600714Y-2990000D01*
X4600714Y-2932857D01*
X4615000Y-2861428D01*
X4629286Y-2818571D01*
X4643571Y-2790000D01*
X4672143Y-2747143D01*
X4686429Y-2732857D01*
X4929286Y-2775714D02*
X4872143Y-2775714D01*
X4843571Y-2790000D01*
X4829286Y-2804286D01*
X4800714Y-2847143D01*
X4786429Y-2904286D01*
X4786429Y-3018571D01*
X4800714Y-3047143D01*
X4815000Y-3061428D01*
X4843571Y-3075714D01*
X4900714Y-3075714D01*
X4929286Y-3061428D01*
X4943571Y-3047143D01*
X4957857Y-3018571D01*
X4957857Y-2947143D01*
X4943571Y-2918571D01*
X4929286Y-2904286D01*
X4900714Y-2890000D01*
X4843571Y-2890000D01*
X4815000Y-2904286D01*
X4800714Y-2918571D01*
X4786429Y-2947143D01*
X5315000Y-3075714D02*
X5315000Y-2775714D01*
X5443571Y-3075714D02*
X5443571Y-2918571D01*
X5429286Y-2890000D01*
X5400714Y-2875714D01*
X5357857Y-2875714D01*
X5329286Y-2890000D01*
X5315000Y-2904286D01*
X5629286Y-3075714D02*
X5600714Y-3061428D01*
X5586429Y-3047143D01*
X5572143Y-3018571D01*
X5572143Y-2932857D01*
X5586429Y-2904286D01*
X5600714Y-2890000D01*
X5629286Y-2875714D01*
X5672143Y-2875714D01*
X5700714Y-2890000D01*
X5715000Y-2904286D01*
X5729286Y-2932857D01*
X5729286Y-3018571D01*
X5715000Y-3047143D01*
X5700714Y-3061428D01*
X5672143Y-3075714D01*
X5629286Y-3075714D01*
X5900714Y-3075714D02*
X5872143Y-3061428D01*
X5857857Y-3032857D01*
X5857857Y-2775714D01*
X6129286Y-3061428D02*
X6100714Y-3075714D01*
X6043571Y-3075714D01*
X6015000Y-3061428D01*
X6000714Y-3032857D01*
X6000714Y-2918571D01*
X6015000Y-2890000D01*
X6043571Y-2875714D01*
X6100714Y-2875714D01*
X6129286Y-2890000D01*
X6143571Y-2918571D01*
X6143571Y-2947143D01*
X6000714Y-2975714D01*
X6257857Y-3061428D02*
X6286428Y-3075714D01*
X6343571Y-3075714D01*
X6372143Y-3061428D01*
X6386428Y-3032857D01*
X6386428Y-3018571D01*
X6372143Y-2990000D01*
X6343571Y-2975714D01*
X6300714Y-2975714D01*
X6272143Y-2961428D01*
X6257857Y-2932857D01*
X6257857Y-2918571D01*
X6272143Y-2890000D01*
X6300714Y-2875714D01*
X6343571Y-2875714D01*
X6372143Y-2890000D01*
X6486428Y-3190000D02*
X6500714Y-3175714D01*
X6529286Y-3132857D01*
X6543571Y-3104286D01*
X6557857Y-3061428D01*
X6572143Y-2990000D01*
X6572143Y-2932857D01*
X6557857Y-2861428D01*
X6543571Y-2818571D01*
X6529286Y-2790000D01*
X6500714Y-2747143D01*
X6486428Y-2732857D01*
X-254000Y-3209000D02*
X0Y-3463000D01*
X0Y-3209000D02*
X-254000Y-3463000D01*
X-127000Y-3209000D02*
X-127000Y-3463000D01*
X-254000Y-3336000D02*
X0Y-3336000D01*
X272143Y-3200286D02*
X286429Y-3186000D01*
X315000Y-3171714D01*
X386428Y-3171714D01*
X415000Y-3186000D01*
X429286Y-3200286D01*
X443571Y-3228857D01*
X443571Y-3257428D01*
X429286Y-3300286D01*
X257857Y-3471714D01*
X443571Y-3471714D01*
X572143Y-3443143D02*
X586429Y-3457428D01*
X572143Y-3471714D01*
X557857Y-3457428D01*
X572143Y-3443143D01*
X572143Y-3471714D01*
X857857Y-3171714D02*
X715000Y-3171714D01*
X700714Y-3314571D01*
X715000Y-3300286D01*
X743571Y-3286000D01*
X815000Y-3286000D01*
X843571Y-3300286D01*
X857857Y-3314571D01*
X872143Y-3343143D01*
X872143Y-3414571D01*
X857857Y-3443143D01*
X843571Y-3457428D01*
X815000Y-3471714D01*
X743571Y-3471714D01*
X715000Y-3457428D01*
X700714Y-3443143D01*
X1129286Y-3271714D02*
X1129286Y-3471714D01*
X1057857Y-3157428D02*
X986428Y-3371714D01*
X1172143Y-3371714D01*
X1286429Y-3471714D02*
X1286429Y-3271714D01*
X1286429Y-3300286D02*
X1300714Y-3286000D01*
X1329286Y-3271714D01*
X1372143Y-3271714D01*
X1400714Y-3286000D01*
X1415000Y-3314571D01*
X1415000Y-3471714D01*
X1415000Y-3314571D02*
X1429286Y-3286000D01*
X1457857Y-3271714D01*
X1500714Y-3271714D01*
X1529286Y-3286000D01*
X1543571Y-3314571D01*
X1543571Y-3471714D01*
X1686428Y-3471714D02*
X1686428Y-3271714D01*
X1686428Y-3300286D02*
X1700714Y-3286000D01*
X1729286Y-3271714D01*
X1772143Y-3271714D01*
X1800714Y-3286000D01*
X1815000Y-3314571D01*
X1815000Y-3471714D01*
X1815000Y-3314571D02*
X1829286Y-3286000D01*
X1857857Y-3271714D01*
X1900714Y-3271714D01*
X1929286Y-3286000D01*
X1943571Y-3314571D01*
X1943571Y-3471714D01*
X2529286Y-3157428D02*
X2272143Y-3543143D01*
X2915000Y-3171714D02*
X2943571Y-3171714D01*
X2972143Y-3186000D01*
X2986428Y-3200286D01*
X3000714Y-3228857D01*
X3015000Y-3286000D01*
X3015000Y-3357428D01*
X3000714Y-3414571D01*
X2986428Y-3443143D01*
X2972143Y-3457428D01*
X2943571Y-3471714D01*
X2915000Y-3471714D01*
X2886428Y-3457428D01*
X2872143Y-3443143D01*
X2857857Y-3414571D01*
X2843571Y-3357428D01*
X2843571Y-3286000D01*
X2857857Y-3228857D01*
X2872143Y-3200286D01*
X2886428Y-3186000D01*
X2915000Y-3171714D01*
X3143571Y-3443143D02*
X3157857Y-3457428D01*
X3143571Y-3471714D01*
X3129286Y-3457428D01*
X3143571Y-3443143D01*
X3143571Y-3471714D01*
X3443571Y-3471714D02*
X3272143Y-3471714D01*
X3357857Y-3471714D02*
X3357857Y-3171714D01*
X3329286Y-3214571D01*
X3300714Y-3243143D01*
X3272143Y-3257428D01*
X3629286Y-3171714D02*
X3657857Y-3171714D01*
X3686428Y-3186000D01*
X3700714Y-3200286D01*
X3715000Y-3228857D01*
X3729286Y-3286000D01*
X3729286Y-3357428D01*
X3715000Y-3414571D01*
X3700714Y-3443143D01*
X3686428Y-3457428D01*
X3657857Y-3471714D01*
X3629286Y-3471714D01*
X3600714Y-3457428D01*
X3586428Y-3443143D01*
X3572143Y-3414571D01*
X3557857Y-3357428D01*
X3557857Y-3286000D01*
X3572143Y-3228857D01*
X3586428Y-3200286D01*
X3600714Y-3186000D01*
X3629286Y-3171714D01*
X3915000Y-3171714D02*
X3943571Y-3171714D01*
X3972143Y-3186000D01*
X3986428Y-3200286D01*
X4000714Y-3228857D01*
X4015000Y-3286000D01*
X4015000Y-3357428D01*
X4000714Y-3414571D01*
X3986428Y-3443143D01*
X3972143Y-3457428D01*
X3943571Y-3471714D01*
X3915000Y-3471714D01*
X3886428Y-3457428D01*
X3872143Y-3443143D01*
X3857857Y-3414571D01*
X3843571Y-3357428D01*
X3843571Y-3286000D01*
X3857857Y-3228857D01*
X3872143Y-3200286D01*
X3886428Y-3186000D01*
X3915000Y-3171714D01*
X4129286Y-3171714D02*
X4129286Y-3228857D01*
X4243571Y-3171714D02*
X4243571Y-3228857D01*
X4686429Y-3586000D02*
X4672143Y-3571714D01*
X4643571Y-3528857D01*
X4629286Y-3500286D01*
X4615000Y-3457428D01*
X4600714Y-3386000D01*
X4600714Y-3328857D01*
X4615000Y-3257428D01*
X4629286Y-3214571D01*
X4643571Y-3186000D01*
X4672143Y-3143143D01*
X4686429Y-3128857D01*
X4929286Y-3271714D02*
X4929286Y-3471714D01*
X4857857Y-3157428D02*
X4786429Y-3371714D01*
X4972143Y-3371714D01*
X5315000Y-3471714D02*
X5315000Y-3171714D01*
X5443571Y-3471714D02*
X5443571Y-3314571D01*
X5429286Y-3286000D01*
X5400714Y-3271714D01*
X5357857Y-3271714D01*
X5329286Y-3286000D01*
X5315000Y-3300286D01*
X5629286Y-3471714D02*
X5600714Y-3457428D01*
X5586429Y-3443143D01*
X5572143Y-3414571D01*
X5572143Y-3328857D01*
X5586429Y-3300286D01*
X5600714Y-3286000D01*
X5629286Y-3271714D01*
X5672143Y-3271714D01*
X5700714Y-3286000D01*
X5715000Y-3300286D01*
X5729286Y-3328857D01*
X5729286Y-3414571D01*
X5715000Y-3443143D01*
X5700714Y-3457428D01*
X5672143Y-3471714D01*
X5629286Y-3471714D01*
X5900714Y-3471714D02*
X5872143Y-3457428D01*
X5857857Y-3428857D01*
X5857857Y-3171714D01*
X6129286Y-3457428D02*
X6100714Y-3471714D01*
X6043571Y-3471714D01*
X6015000Y-3457428D01*
X6000714Y-3428857D01*
X6000714Y-3314571D01*
X6015000Y-3286000D01*
X6043571Y-3271714D01*
X6100714Y-3271714D01*
X6129286Y-3286000D01*
X6143571Y-3314571D01*
X6143571Y-3343143D01*
X6000714Y-3371714D01*
X6257857Y-3457428D02*
X6286428Y-3471714D01*
X6343571Y-3471714D01*
X6372143Y-3457428D01*
X6386428Y-3428857D01*
X6386428Y-3414571D01*
X6372143Y-3386000D01*
X6343571Y-3371714D01*
X6300714Y-3371714D01*
X6272143Y-3357428D01*
X6257857Y-3328857D01*
X6257857Y-3314571D01*
X6272143Y-3286000D01*
X6300714Y-3271714D01*
X6343571Y-3271714D01*
X6372143Y-3286000D01*
X6486428Y-3586000D02*
X6500714Y-3571714D01*
X6529286Y-3528857D01*
X6543571Y-3500286D01*
X6557857Y-3457428D01*
X6572143Y-3386000D01*
X6572143Y-3328857D01*
X6557857Y-3257428D01*
X6543571Y-3214571D01*
X6529286Y-3186000D01*
X6500714Y-3143143D01*
X6486428Y-3128857D01*
X-270000Y-3597000D02*
X0Y-3867000D01*
X0Y-3597000D02*
X-270000Y-3867000D01*
X-39540Y-3827460D02*
X-39540Y-3636540D01*
X-230460Y-3636540D01*
X-230460Y-3827460D01*
X-39540Y-3827460D01*
X272143Y-3596286D02*
X286429Y-3582000D01*
X315000Y-3567714D01*
X386428Y-3567714D01*
X415000Y-3582000D01*
X429286Y-3596286D01*
X443571Y-3624857D01*
X443571Y-3653428D01*
X429286Y-3696286D01*
X257857Y-3867714D01*
X443571Y-3867714D01*
X572143Y-3839143D02*
X586429Y-3853428D01*
X572143Y-3867714D01*
X557857Y-3853428D01*
X572143Y-3839143D01*
X572143Y-3867714D01*
X686429Y-3567714D02*
X886428Y-3567714D01*
X757857Y-3867714D01*
X1057857Y-3567714D02*
X1086429Y-3567714D01*
X1115000Y-3582000D01*
X1129286Y-3596286D01*
X1143571Y-3624857D01*
X1157857Y-3682000D01*
X1157857Y-3753428D01*
X1143571Y-3810571D01*
X1129286Y-3839143D01*
X1115000Y-3853428D01*
X1086429Y-3867714D01*
X1057857Y-3867714D01*
X1029286Y-3853428D01*
X1015000Y-3839143D01*
X1000714Y-3810571D01*
X986428Y-3753428D01*
X986428Y-3682000D01*
X1000714Y-3624857D01*
X1015000Y-3596286D01*
X1029286Y-3582000D01*
X1057857Y-3567714D01*
X1286429Y-3867714D02*
X1286429Y-3667714D01*
X1286429Y-3696286D02*
X1300714Y-3682000D01*
X1329286Y-3667714D01*
X1372143Y-3667714D01*
X1400714Y-3682000D01*
X1415000Y-3710571D01*
X1415000Y-3867714D01*
X1415000Y-3710571D02*
X1429286Y-3682000D01*
X1457857Y-3667714D01*
X1500714Y-3667714D01*
X1529286Y-3682000D01*
X1543571Y-3710571D01*
X1543571Y-3867714D01*
X1686428Y-3867714D02*
X1686428Y-3667714D01*
X1686428Y-3696286D02*
X1700714Y-3682000D01*
X1729286Y-3667714D01*
X1772143Y-3667714D01*
X1800714Y-3682000D01*
X1815000Y-3710571D01*
X1815000Y-3867714D01*
X1815000Y-3710571D02*
X1829286Y-3682000D01*
X1857857Y-3667714D01*
X1900714Y-3667714D01*
X1929286Y-3682000D01*
X1943571Y-3710571D01*
X1943571Y-3867714D01*
X2529286Y-3553428D02*
X2272143Y-3939143D01*
X2915000Y-3567714D02*
X2943571Y-3567714D01*
X2972143Y-3582000D01*
X2986428Y-3596286D01*
X3000714Y-3624857D01*
X3015000Y-3682000D01*
X3015000Y-3753428D01*
X3000714Y-3810571D01*
X2986428Y-3839143D01*
X2972143Y-3853428D01*
X2943571Y-3867714D01*
X2915000Y-3867714D01*
X2886428Y-3853428D01*
X2872143Y-3839143D01*
X2857857Y-3810571D01*
X2843571Y-3753428D01*
X2843571Y-3682000D01*
X2857857Y-3624857D01*
X2872143Y-3596286D01*
X2886428Y-3582000D01*
X2915000Y-3567714D01*
X3143571Y-3839143D02*
X3157857Y-3853428D01*
X3143571Y-3867714D01*
X3129286Y-3853428D01*
X3143571Y-3839143D01*
X3143571Y-3867714D01*
X3443571Y-3867714D02*
X3272143Y-3867714D01*
X3357857Y-3867714D02*
X3357857Y-3567714D01*
X3329286Y-3610571D01*
X3300714Y-3639143D01*
X3272143Y-3653428D01*
X3629286Y-3567714D02*
X3657857Y-3567714D01*
X3686428Y-3582000D01*
X3700714Y-3596286D01*
X3715000Y-3624857D01*
X3729286Y-3682000D01*
X3729286Y-3753428D01*
X3715000Y-3810571D01*
X3700714Y-3839143D01*
X3686428Y-3853428D01*
X3657857Y-3867714D01*
X3629286Y-3867714D01*
X3600714Y-3853428D01*
X3586428Y-3839143D01*
X3572143Y-3810571D01*
X3557857Y-3753428D01*
X3557857Y-3682000D01*
X3572143Y-3624857D01*
X3586428Y-3596286D01*
X3600714Y-3582000D01*
X3629286Y-3567714D01*
X3986428Y-3567714D02*
X3929286Y-3567714D01*
X3900714Y-3582000D01*
X3886428Y-3596286D01*
X3857857Y-3639143D01*
X3843571Y-3696286D01*
X3843571Y-3810571D01*
X3857857Y-3839143D01*
X3872143Y-3853428D01*
X3900714Y-3867714D01*
X3957857Y-3867714D01*
X3986428Y-3853428D01*
X4000714Y-3839143D01*
X4015000Y-3810571D01*
X4015000Y-3739143D01*
X4000714Y-3710571D01*
X3986428Y-3696286D01*
X3957857Y-3682000D01*
X3900714Y-3682000D01*
X3872143Y-3696286D01*
X3857857Y-3710571D01*
X3843571Y-3739143D01*
X4129286Y-3567714D02*
X4129286Y-3624857D01*
X4243571Y-3567714D02*
X4243571Y-3624857D01*
X4686429Y-3982000D02*
X4672143Y-3967714D01*
X4643571Y-3924857D01*
X4629286Y-3896286D01*
X4615000Y-3853428D01*
X4600714Y-3782000D01*
X4600714Y-3724857D01*
X4615000Y-3653428D01*
X4629286Y-3610571D01*
X4643571Y-3582000D01*
X4672143Y-3539143D01*
X4686429Y-3524857D01*
X4786429Y-3596286D02*
X4800714Y-3582000D01*
X4829286Y-3567714D01*
X4900714Y-3567714D01*
X4929286Y-3582000D01*
X4943571Y-3596286D01*
X4957857Y-3624857D01*
X4957857Y-3653428D01*
X4943571Y-3696286D01*
X4772143Y-3867714D01*
X4957857Y-3867714D01*
X5315000Y-3867714D02*
X5315000Y-3567714D01*
X5443571Y-3867714D02*
X5443571Y-3710571D01*
X5429286Y-3682000D01*
X5400714Y-3667714D01*
X5357857Y-3667714D01*
X5329286Y-3682000D01*
X5315000Y-3696286D01*
X5629286Y-3867714D02*
X5600714Y-3853428D01*
X5586429Y-3839143D01*
X5572143Y-3810571D01*
X5572143Y-3724857D01*
X5586429Y-3696286D01*
X5600714Y-3682000D01*
X5629286Y-3667714D01*
X5672143Y-3667714D01*
X5700714Y-3682000D01*
X5715000Y-3696286D01*
X5729286Y-3724857D01*
X5729286Y-3810571D01*
X5715000Y-3839143D01*
X5700714Y-3853428D01*
X5672143Y-3867714D01*
X5629286Y-3867714D01*
X5900714Y-3867714D02*
X5872143Y-3853428D01*
X5857857Y-3824857D01*
X5857857Y-3567714D01*
X6129286Y-3853428D02*
X6100714Y-3867714D01*
X6043571Y-3867714D01*
X6015000Y-3853428D01*
X6000714Y-3824857D01*
X6000714Y-3710571D01*
X6015000Y-3682000D01*
X6043571Y-3667714D01*
X6100714Y-3667714D01*
X6129286Y-3682000D01*
X6143571Y-3710571D01*
X6143571Y-3739143D01*
X6000714Y-3767714D01*
X6257857Y-3853428D02*
X6286428Y-3867714D01*
X6343571Y-3867714D01*
X6372143Y-3853428D01*
X6386428Y-3824857D01*
X6386428Y-3810571D01*
X6372143Y-3782000D01*
X6343571Y-3767714D01*
X6300714Y-3767714D01*
X6272143Y-3753428D01*
X6257857Y-3724857D01*
X6257857Y-3710571D01*
X6272143Y-3682000D01*
X6300714Y-3667714D01*
X6343571Y-3667714D01*
X6372143Y-3682000D01*
X6486428Y-3982000D02*
X6500714Y-3967714D01*
X6529286Y-3924857D01*
X6543571Y-3896286D01*
X6557857Y-3853428D01*
X6572143Y-3782000D01*
X6572143Y-3724857D01*
X6557857Y-3653428D01*
X6543571Y-3610571D01*
X6529286Y-3582000D01*
X6500714Y-3539143D01*
X6486428Y-3524857D01*
X-370000Y-3947000D02*
X0Y-4317000D01*
X0Y-3947000D02*
X-370000Y-4317000D01*
X-185000Y-4317000D02*
X0Y-4132000D01*
X-185000Y-3947000D01*
X-370000Y-4132000D01*
X-185000Y-4317000D01*
X257857Y-3967714D02*
X443571Y-3967714D01*
X343571Y-4082000D01*
X386428Y-4082000D01*
X415000Y-4096286D01*
X429286Y-4110571D01*
X443571Y-4139143D01*
X443571Y-4210571D01*
X429286Y-4239143D01*
X415000Y-4253429D01*
X386428Y-4267714D01*
X300714Y-4267714D01*
X272143Y-4253429D01*
X257857Y-4239143D01*
X572143Y-4239143D02*
X586429Y-4253429D01*
X572143Y-4267714D01*
X557857Y-4253429D01*
X572143Y-4239143D01*
X572143Y-4267714D01*
X686429Y-3967714D02*
X886428Y-3967714D01*
X757857Y-4267714D01*
X1057857Y-3967714D02*
X1086429Y-3967714D01*
X1115000Y-3982000D01*
X1129286Y-3996286D01*
X1143571Y-4024857D01*
X1157857Y-4082000D01*
X1157857Y-4153428D01*
X1143571Y-4210571D01*
X1129286Y-4239143D01*
X1115000Y-4253429D01*
X1086429Y-4267714D01*
X1057857Y-4267714D01*
X1029286Y-4253429D01*
X1015000Y-4239143D01*
X1000714Y-4210571D01*
X986428Y-4153428D01*
X986428Y-4082000D01*
X1000714Y-4024857D01*
X1015000Y-3996286D01*
X1029286Y-3982000D01*
X1057857Y-3967714D01*
X1286429Y-4267714D02*
X1286429Y-4067714D01*
X1286429Y-4096286D02*
X1300714Y-4082000D01*
X1329286Y-4067714D01*
X1372143Y-4067714D01*
X1400714Y-4082000D01*
X1415000Y-4110571D01*
X1415000Y-4267714D01*
X1415000Y-4110571D02*
X1429286Y-4082000D01*
X1457857Y-4067714D01*
X1500714Y-4067714D01*
X1529286Y-4082000D01*
X1543571Y-4110571D01*
X1543571Y-4267714D01*
X1686428Y-4267714D02*
X1686428Y-4067714D01*
X1686428Y-4096286D02*
X1700714Y-4082000D01*
X1729286Y-4067714D01*
X1772143Y-4067714D01*
X1800714Y-4082000D01*
X1815000Y-4110571D01*
X1815000Y-4267714D01*
X1815000Y-4110571D02*
X1829286Y-4082000D01*
X1857857Y-4067714D01*
X1900714Y-4067714D01*
X1929286Y-4082000D01*
X1943571Y-4110571D01*
X1943571Y-4267714D01*
X2529286Y-3953428D02*
X2272143Y-4339143D01*
X2915000Y-3967714D02*
X2943571Y-3967714D01*
X2972143Y-3982000D01*
X2986428Y-3996286D01*
X3000714Y-4024857D01*
X3015000Y-4082000D01*
X3015000Y-4153428D01*
X3000714Y-4210571D01*
X2986428Y-4239143D01*
X2972143Y-4253429D01*
X2943571Y-4267714D01*
X2915000Y-4267714D01*
X2886428Y-4253429D01*
X2872143Y-4239143D01*
X2857857Y-4210571D01*
X2843571Y-4153428D01*
X2843571Y-4082000D01*
X2857857Y-4024857D01*
X2872143Y-3996286D01*
X2886428Y-3982000D01*
X2915000Y-3967714D01*
X3143571Y-4239143D02*
X3157857Y-4253429D01*
X3143571Y-4267714D01*
X3129286Y-4253429D01*
X3143571Y-4239143D01*
X3143571Y-4267714D01*
X3443571Y-4267714D02*
X3272143Y-4267714D01*
X3357857Y-4267714D02*
X3357857Y-3967714D01*
X3329286Y-4010571D01*
X3300714Y-4039143D01*
X3272143Y-4053428D01*
X3700714Y-4067714D02*
X3700714Y-4267714D01*
X3629286Y-3953428D02*
X3557857Y-4167714D01*
X3743571Y-4167714D01*
X3986428Y-3967714D02*
X3929286Y-3967714D01*
X3900714Y-3982000D01*
X3886428Y-3996286D01*
X3857857Y-4039143D01*
X3843571Y-4096286D01*
X3843571Y-4210571D01*
X3857857Y-4239143D01*
X3872143Y-4253429D01*
X3900714Y-4267714D01*
X3957857Y-4267714D01*
X3986428Y-4253429D01*
X4000714Y-4239143D01*
X4015000Y-4210571D01*
X4015000Y-4139143D01*
X4000714Y-4110571D01*
X3986428Y-4096286D01*
X3957857Y-4082000D01*
X3900714Y-4082000D01*
X3872143Y-4096286D01*
X3857857Y-4110571D01*
X3843571Y-4139143D01*
X4129286Y-3967714D02*
X4129286Y-4024857D01*
X4243571Y-3967714D02*
X4243571Y-4024857D01*
X4686429Y-4382000D02*
X4672143Y-4367714D01*
X4643571Y-4324857D01*
X4629286Y-4296286D01*
X4615000Y-4253429D01*
X4600714Y-4182000D01*
X4600714Y-4124857D01*
X4615000Y-4053428D01*
X4629286Y-4010571D01*
X4643571Y-3982000D01*
X4672143Y-3939143D01*
X4686429Y-3924857D01*
X4929286Y-4067714D02*
X4929286Y-4267714D01*
X4857857Y-3953428D02*
X4786429Y-4167714D01*
X4972143Y-4167714D01*
X5315000Y-4267714D02*
X5315000Y-3967714D01*
X5443571Y-4267714D02*
X5443571Y-4110571D01*
X5429286Y-4082000D01*
X5400714Y-4067714D01*
X5357857Y-4067714D01*
X5329286Y-4082000D01*
X5315000Y-4096286D01*
X5629286Y-4267714D02*
X5600714Y-4253429D01*
X5586429Y-4239143D01*
X5572143Y-4210571D01*
X5572143Y-4124857D01*
X5586429Y-4096286D01*
X5600714Y-4082000D01*
X5629286Y-4067714D01*
X5672143Y-4067714D01*
X5700714Y-4082000D01*
X5715000Y-4096286D01*
X5729286Y-4124857D01*
X5729286Y-4210571D01*
X5715000Y-4239143D01*
X5700714Y-4253429D01*
X5672143Y-4267714D01*
X5629286Y-4267714D01*
X5900714Y-4267714D02*
X5872143Y-4253429D01*
X5857857Y-4224857D01*
X5857857Y-3967714D01*
X6129286Y-4253429D02*
X6100714Y-4267714D01*
X6043571Y-4267714D01*
X6015000Y-4253429D01*
X6000714Y-4224857D01*
X6000714Y-4110571D01*
X6015000Y-4082000D01*
X6043571Y-4067714D01*
X6100714Y-4067714D01*
X6129286Y-4082000D01*
X6143571Y-4110571D01*
X6143571Y-4139143D01*
X6000714Y-4167714D01*
X6257857Y-4253429D02*
X6286428Y-4267714D01*
X6343571Y-4267714D01*
X6372143Y-4253429D01*
X6386428Y-4224857D01*
X6386428Y-4210571D01*
X6372143Y-4182000D01*
X6343571Y-4167714D01*
X6300714Y-4167714D01*
X6272143Y-4153428D01*
X6257857Y-4124857D01*
X6257857Y-4110571D01*
X6272143Y-4082000D01*
X6300714Y-4067714D01*
X6343571Y-4067714D01*
X6372143Y-4082000D01*
X6486428Y-4382000D02*
X6500714Y-4367714D01*
X6529286Y-4324857D01*
X6543571Y-4296286D01*
X6557857Y-4253429D01*
X6572143Y-4182000D01*
X6572143Y-4124857D01*
X6557857Y-4053428D01*
X6543571Y-4010571D01*
X6529286Y-3982000D01*
X6500714Y-3939143D01*
X6486428Y-3924857D01*
M02*
